<svg width="121" height="33" viewBox="0 0 121 33" fill="none" xmlns="http://www.w3.org/2000/svg">
<path d="M7.85678 32.04C5.5122 32.04 3.63653 31.4006 2.22978 30.1217C0.865655 28.8003 0.183594 27.1804 0.183594 25.1768C0.183594 21.0844 3.16761 18.3562 9.17828 18.3562C10.9687 18.3562 12.6738 18.612 14.2937 19.0809V17.0347C14.2937 14.818 12.8444 13.2834 9.94559 13.2834C7.38787 13.2834 5.85323 14.6901 5.8106 16.5658H1.20669C1.20669 12.3029 4.57436 9.27626 10.0309 9.27626C12.8444 9.27626 15.0611 10.001 16.681 11.4503C18.3008 12.8997 19.1108 14.7327 19.1108 16.9921V31.6564H14.8479L14.5069 29.056H14.3364C12.9722 31.0596 10.7982 32.04 7.85678 32.04ZM8.96513 28.1608C12.1623 28.1608 14.2937 26.0294 14.2937 23.3438V22.6191C12.8017 22.1075 11.1818 21.8518 9.51931 21.8518C6.62055 21.8518 5.04328 23.0027 5.04328 25.0063C5.04328 26.882 6.4074 28.1608 8.96513 28.1608Z" fill="#112643"/>
<path d="M27.8027 29.0134H27.6322L27.0781 31.6564H22.7725V0.11107H27.6322V12.3029H27.8027C29.1242 10.2994 31.2131 9.27626 34.0692 9.27626C36.9679 9.27626 39.2273 10.342 40.8045 12.4308C42.4244 14.5196 43.2344 17.2478 43.2344 20.6155C43.2344 24.0685 42.4244 26.8393 40.7619 28.9281C39.142 31.0169 36.9253 32.04 34.0692 32.04C31.2131 32.04 29.1242 31.0169 27.8027 29.0134ZM32.8756 27.7345C36.6269 27.7345 38.3321 24.8358 38.3321 20.6155C38.3321 16.4805 36.6269 13.5818 32.8756 13.5818C29.2521 13.5818 27.4617 16.5232 27.4617 20.6155C27.4617 24.7505 29.2521 27.7345 32.8756 27.7345Z" fill="#112643"/>
<path d="M54.8624 32.04C51.4947 32.04 48.8944 30.9743 47.1039 28.8855C45.3562 26.7967 44.461 24.0258 44.461 20.6582C44.461 17.2905 45.3562 14.5622 47.1466 12.4734C48.9796 10.342 51.5373 9.27626 54.8624 9.27626C58.1874 9.27626 60.7452 10.342 62.5356 12.4734C64.3686 14.5622 65.2638 17.2905 65.2638 20.6582C65.2638 24.0258 64.3686 26.7967 62.5782 28.8855C60.7878 30.9743 58.2301 32.04 54.8624 32.04ZM54.8624 27.7345C58.4858 27.7345 60.3189 25.3899 60.3189 20.6582C60.3189 18.3988 59.85 16.6937 58.9548 15.4574C58.0595 14.2212 56.6954 13.5818 54.8624 13.5818C53.0294 13.5818 51.6652 14.2212 50.77 15.4574C49.8748 16.6937 49.4059 18.3988 49.4059 20.6582C49.4059 25.1342 51.2816 27.7345 54.8624 27.7345Z" fill="#112643"/>
<path d="M75.6399 32.04C72.8264 32.04 70.6097 31.0169 68.9472 28.9281C67.3273 26.8393 66.5174 24.0685 66.4748 20.6155C66.5174 17.2478 67.3273 14.5196 68.9046 12.4308C70.5245 10.342 72.7838 9.27626 75.6399 9.27626C78.4961 9.27626 80.6275 10.2994 81.949 12.3029H82.1195V0.11107H86.9792V31.6564H82.6737L82.1195 29.0134H81.949C80.6275 31.0169 78.4961 32.04 75.6399 32.04ZM76.8336 27.7345C80.457 27.7345 82.29 24.7505 82.29 20.6155C82.29 16.4805 80.5423 13.5818 76.8336 13.5818C73.0822 13.5818 71.4197 16.4805 71.4197 20.6155C71.4197 24.8358 73.0822 27.7345 76.8336 27.7345Z" fill="#112643"/>
<path d="M99.5977 32.04C96.3579 32.04 93.8002 30.9743 91.9671 28.8429C90.1341 26.7114 89.1962 23.9832 89.1962 20.6582C89.1962 17.3331 90.0915 14.6049 91.8392 12.4734C93.6296 10.342 96.1874 9.27626 99.5124 9.27626C102.624 9.27626 105.054 10.2994 106.802 12.3029C108.55 14.3065 109.445 16.8642 109.445 19.9761V22.0223H94.2265C94.2265 25.6457 96.1447 27.9477 99.5977 27.9477C102.241 27.9477 103.861 26.9672 104.415 24.9637H109.147C108.848 27.0098 107.782 28.715 106.035 30.0365C104.287 31.358 102.155 32.04 99.5977 32.04ZM94.2691 18.5693H104.457C104.415 15.5001 102.71 13.4113 99.5124 13.4113C96.1447 13.4113 94.397 15.5001 94.2691 18.5693Z" fill="#112643"/>
<path d="M119.288 9.6571C118.24 10.7058 116.91 11.2429 115.298 11.2429C113.687 11.2429 112.357 10.7058 111.308 9.6571C110.26 8.58285 109.748 7.25283 109.748 5.64146C109.748 4.03009 110.26 2.70008 111.308 1.65141C112.357 0.577163 113.687 0.0400391 115.298 0.0400391C116.91 0.0400391 118.24 0.577163 119.288 1.65141C120.337 2.70008 120.849 4.03009 120.849 5.64146C120.849 7.25283 120.337 8.58285 119.288 9.6571ZM115.298 9.75941C117.728 9.75941 119.288 8.22477 119.288 5.64146C119.288 3.05816 117.728 1.52352 115.298 1.52352C112.843 1.52352 111.283 3.05816 111.283 5.64146C111.283 8.22477 112.843 9.75941 115.298 9.75941ZM114.557 8.37823H113.227V3.05816H115.682C116.833 3.05816 117.626 3.7999 117.626 4.79741C117.626 5.59031 117.319 6.15301 116.68 6.45994L117.856 8.22477V8.37823H116.475L115.401 6.66455H114.557V8.37823ZM114.557 4.20914V5.488H115.554C116.015 5.488 116.245 5.28338 116.245 4.84857C116.245 4.41375 116.015 4.20914 115.554 4.20914H114.557Z" fill="#112643"/>
</svg>
