<svg width="147" height="32" viewBox="0 0 147 32" fill="none" xmlns="http://www.w3.org/2000/svg">
<path d="M80.1543 7.04492C78.1688 7.04492 76.3392 8.21281 75.327 9.76998C75.327 9.76998 75.2881 9.73105 75.2881 9.76998C74.5095 8.21281 72.8355 7.04492 70.7333 7.04492C69.1761 7.04492 67.619 7.78458 66.6847 8.95247H66.6457V7.31743H63.5703V23.7067H66.6457V13.8965C66.6457 11.4829 68.1251 9.76998 70.1494 9.76998C72.6409 9.76998 73.1859 11.4439 73.1859 14.0133V23.7067H76.2613V13.8965C76.2224 11.7165 77.3903 9.76998 79.765 9.76998C82.4511 9.76998 82.8015 11.6775 82.8015 14.5972V23.6678H85.838L85.8769 13.9744C85.838 9.53641 83.9693 7.04492 80.1543 7.04492Z" fill="#D2582A"/>
<path d="M95.6881 7.08398C93.1187 7.08398 90.9387 7.59007 88.7197 9.30296L90.7051 11.3662C92.1455 10.1594 94.0141 9.80905 95.6881 9.80905C97.946 9.80905 99.6978 10.6266 99.8535 12.8066C99.8925 12.8455 99.8535 13.0791 99.8925 13.118L100.204 13.4295C99.8925 13.3906 99.075 13.3906 98.6857 13.3906C94.5591 13.3906 87.8633 13.702 87.8633 18.8407C87.8633 22.7726 91.5616 24.0183 94.8706 24.0183C96.6224 24.0183 98.4521 23.5901 99.8535 22.5H99.8925V23.7458H102.929V13.118C102.929 8.44651 99.2696 7.08398 95.6881 7.08398ZM99.8925 16.3492V18.8017C99.8925 20.9039 96.3888 21.2543 94.8706 21.2543C93.2355 21.2543 90.8608 20.7482 90.8608 18.8017C90.8608 17.556 91.8341 16.8163 93.3913 16.4271C94.2477 16.2324 95.2209 16.0767 96.1942 16.0378C97.1285 15.9988 98.0239 15.9988 98.8024 15.9988C99.1917 15.9988 99.9314 16.0378 100.204 16.0378L99.8925 16.3492Z" fill="#D2582A"/>
<path d="M134.618 19.5025C133.372 20.7871 131.97 21.2543 130.257 21.2543C126.637 21.2543 125.197 18.7239 125.197 15.6485C125.197 12.4562 126.871 9.80905 130.335 9.80905C132.009 9.80905 133.45 10.3151 134.501 11.3662L136.525 9.38082C135.007 7.86257 132.983 7.08398 130.296 7.08398C125.08 7.08398 122.16 10.8601 122.16 15.6874C122.16 20.3979 124.768 24.0183 130.296 24.0183C132.788 24.0183 134.89 23.2786 136.642 21.5268L134.618 19.5025Z" fill="#D2582A"/>
<path d="M24.9529 11.3672C22.3836 11.3672 20.3203 13.4304 20.3203 15.9998C20.3203 18.5691 22.3836 20.6324 24.9529 20.6324C27.5223 20.6324 29.5855 18.5691 29.5855 15.9998C29.5466 13.4694 27.4833 11.3672 24.9529 11.3672Z" fill="#D2582A"/>
<path d="M118.032 5.52771C119.122 5.52771 119.979 4.67126 119.979 3.58124C119.979 2.49121 119.122 1.63477 118.032 1.63477C116.942 1.63477 116.086 2.49121 116.086 3.58124C116.086 4.67126 116.942 5.52771 118.032 5.52771Z" fill="#D2582A"/>
<path d="M119.513 7.31836H116.477V23.7077H119.513V7.31836Z" fill="#D2582A"/>
<path d="M109.118 7.00751V2.91992L106.081 4.55496V6.96858L106.276 7.28002H104.213V9.88829H106.276L106.081 10.1997V18.5696C106.081 21.9175 107.911 23.9029 111.064 23.9029C112.116 23.9029 113.05 23.6693 114.023 23.2411V19.9321C112.972 20.8664 112.232 21.1778 111.22 21.1778C109.974 21.1778 109.157 20.3214 109.157 18.6085V10.2387L109.001 9.92722H114.023V7.31895H109.001L109.118 7.00751Z" fill="#D2582A"/>
<path d="M61.4307 10.2374H60.4575C57.7324 10.1985 55.6302 11.7167 55.6302 15.6097V23.707H52.5938V7.31769H55.6302V9.92597H55.6692C56.6035 8.13521 58.55 7.12305 60.73 7.12305H61.4307V10.2374Z" fill="#0C3453"/>
<path d="M33.1679 23.5134C31.1435 25.7713 28.1849 27.1727 24.9148 27.1727C18.764 27.1727 13.781 22.1898 13.781 16.0389C13.781 9.88808 18.764 4.90511 24.9148 4.90511C27.8345 4.90511 30.5207 6.03406 32.5061 7.90267C33.5182 6.57907 34.9197 5.56691 36.5158 5.0219C33.5961 1.94647 29.4696 0 24.8759 0C21.0219 0 17.4793 1.36253 14.7153 3.62044H17.7908C18.0243 3.62044 18.18 3.81508 18.18 4.00973C18.18 4.20438 17.9854 4.39903 17.7908 4.39903H17.1679H7.51338C6.92944 4.39903 6.46229 4.86618 6.46229 5.45012C6.46229 6.03406 6.92944 6.50122 7.51338 6.50122H12.0681C11.1338 7.78589 10.3552 9.18735 9.81022 10.7445H12.4185C12.6521 10.7445 12.8078 10.9392 12.8078 11.1338C12.8078 11.3674 12.6131 11.5231 12.4185 11.5231H11.9513H3.0365C2.45255 11.5231 1.9854 11.9903 1.9854 12.5742C1.9854 13.1581 2.45255 13.6253 3.0365 13.6253H9.10949C8.9927 14.4039 8.91484 15.1825 8.91484 16C8.91484 16.5061 8.95377 17.0122 8.9927 17.5182H11.7178C11.9513 17.5182 12.1071 17.7129 12.1071 17.9075C12.1071 18.1022 11.9124 18.2968 11.7178 18.2968H9.07056H1.0511C0.467154 18.2968 0 18.764 0 19.3479C0 19.9319 0.467154 20.399 1.0511 20.399H9.53771C9.96594 21.9173 10.6277 23.3577 11.4842 24.6813H14.91C15.1436 24.6813 15.2993 24.8759 15.2993 25.0706C15.2993 25.2652 15.1046 25.4599 14.91 25.4599H12.0292H6.73479C6.15085 25.4599 5.6837 25.927 5.6837 26.5109C5.6837 27.0949 6.15085 27.562 6.73479 27.562H13.8589C16.7397 30.326 20.6326 32 24.9148 32C29.82 32 34.219 29.781 37.1387 26.3163C35.4647 25.7324 34.1022 24.7591 33.1679 23.5134Z" fill="#0C3453"/>
<path d="M49.9075 23.7087H46.871V22.4629H46.8321C45.4306 23.5919 43.6399 23.9812 41.8491 23.9812C38.5012 23.9812 34.8418 22.7354 34.8418 18.8036C34.8418 13.6649 41.5377 13.3534 45.6642 13.3534C46.0924 13.3534 46.871 13.3924 47.1824 13.3924L46.871 13.0809C46.8321 13.042 46.871 12.8084 46.8321 12.7695C46.6763 10.5895 44.9245 9.77194 42.6666 9.77194C40.9927 9.77194 39.124 10.1223 37.6836 11.3291L35.6982 9.26585C37.9172 7.55296 40.1362 7.04688 42.6666 7.04688C46.2481 7.04688 49.9075 8.4094 49.9075 13.1199V23.7087ZM47.1824 16.0396C46.9099 16.0396 46.1703 16.0006 45.781 16.0006C45.0413 16.0006 44.107 16.0006 43.1727 16.0396C42.2384 16.0785 41.2652 16.2342 40.3698 16.4289C38.8126 16.8182 37.8394 17.5578 37.8394 18.8036C37.8394 20.75 40.2141 21.2561 41.8491 21.2561C43.3673 21.2561 46.871 20.9058 46.871 18.8036V16.351L47.1824 16.0396Z" fill="#0C3453"/>
<path d="M139.41 6V2.316H138.168V1.8H141.282V2.316H140.046V6H139.41ZM141.877 6V1.8H142.627L144.049 4.596L145.465 1.8H146.215V6H145.579V2.898L144.295 5.4H143.803L142.513 2.904V6H141.877Z" fill="#0C3453"/>
</svg>
