<svg xmlns="http://www.w3.org/2000/svg" width="103" height="41" fill="none" viewBox="0 0 103 41">
  <path fill="#070F11" d="M30.536 23.878c.278.682.41 1.41.41 2.125 0 .722-.132 1.444-.41 2.126a5.597 5.597 0 0 1-1.245 1.868l-8.828 8.847a5.61 5.61 0 0 1-1.867 1.239 5.628 5.628 0 0 1-4.252 0 5.773 5.773 0 0 1-1.874-1.239L11.324 37.7l-9.357-9.36a6.058 6.058 0 0 1-1.245-1.795 5.364 5.364 0 0 1-.484-2.205v-.113l-.066-7.655v-.033a5.656 5.656 0 0 1 1.675-3.788L12.443 2.156A5.626 5.626 0 0 1 16.437.5a5.62 5.62 0 0 1 4 1.656l8.887 8.887c.55.55.967 1.186 1.239 1.868a5.63 5.63 0 0 1 .417 2.126 5.75 5.75 0 0 1-.41 2.125 5.686 5.686 0 0 1-1.246 1.874l-1.497 1.497-2.211 2.212-5.18 5.179a5.654 5.654 0 0 1-3.993 1.656 5.654 5.654 0 0 1-3.993-1.656l-.92-.9-2.457-2.458a5.69 5.69 0 0 1-1.245-1.874 5.751 5.751 0 0 1-.411-2.126c0-.722.139-1.443.41-2.125a5.69 5.69 0 0 1 1.246-1.875l3.384-3.384a5.734 5.734 0 0 1 1.867-1.245 5.621 5.621 0 0 1 2.126-.41c.722 0 1.444.132 2.126.41a5.777 5.777 0 0 1 1.874 1.239l3.331 3.33-2.205 2.206-3.331-3.325a2.485 2.485 0 0 0-.841-.556 2.497 2.497 0 0 0-.954-.185c-.325 0-.649.06-.954.185a2.619 2.619 0 0 0-.84.556l-3.378 3.391c-.252.252-.43.53-.556.841-.126.305-.186.63-.186.954 0 .324.066.649.186.953.125.305.304.583.556.842l2.457 2.457.914.913a2.5 2.5 0 0 0 1.788.742 2.5 2.5 0 0 0 .953-.185c.305-.126.583-.312.841-.557l.69-.688 8.258-8.259-.007-.006c.225-.239.39-.497.503-.782.126-.304.186-.629.186-.953 0-.325-.06-.65-.186-.954a2.622 2.622 0 0 0-.556-.841l-8.88-8.88a2.552 2.552 0 0 0-2.756-.557 2.631 2.631 0 0 0-.834.556L4.053 14.97a2.532 2.532 0 0 0-.762 1.676v.006l.066 7.596v.093c0 .311.067.616.206.927.139.305.344.61.602.868l9.358 9.35 1.146 1.147a2.496 2.496 0 0 0 1.788.742c.324 0 .649-.067.953-.186.305-.126.583-.305.841-.556l8.828-8.828c.252-.252.43-.53.556-.841.126-.305.186-.63.186-.954 0-.325-.06-.649-.186-.954a2.287 2.287 0 0 0-.185-.357l2.239-2.239c.357.437.642.914.847 1.418Zm23.252-.371c-.212 1.073-.583 2.033-1.14 2.88a7.866 7.866 0 0 1-1.993 2.133 8.89 8.89 0 0 1-2.57 1.311c-.946.292-1.9.45-2.887.45-1.35 0-2.57-.251-3.662-.741a8.523 8.523 0 0 1-2.801-2.027c-.782-.86-1.384-1.88-1.808-3.06-.424-1.178-.636-2.456-.636-3.834 0-1.377.212-2.655.636-3.834a9.098 9.098 0 0 1 1.821-3.073 8.234 8.234 0 0 1 2.874-2.04c1.126-.496 2.371-.741 3.742-.741 1.007 0 1.98.152 2.907.477a8.32 8.32 0 0 1 2.49 1.357 7.88 7.88 0 0 1 1.855 2.106c.417.682.721 1.437.92 2.272h-4a3.877 3.877 0 0 0-1.311-1.888c-.782-.616-1.735-.927-2.855-.927-.642 0-1.251.12-1.84.358-.583.245-1.1.616-1.544 1.139-.45.51-.807 1.152-1.066 1.933-.258.782-.397 1.716-.397 2.822 0 1.099.139 2.04.397 2.834.258.788.616 1.437 1.066 1.96.45.51.96.894 1.53 1.133.57.245 1.153.357 1.749.357.503 0 1-.06 1.483-.172a4.327 4.327 0 0 0 1.344-.576 4.322 4.322 0 0 0 1.067-1.046c.291-.424.51-.947.649-1.563h3.98Zm5.961 6.37c-.835-.265-1.557-.636-2.166-1.12a5.01 5.01 0 0 1-1.41-1.734c-.332-.676-.497-1.437-.497-2.285 0-1.146.33-2.1.993-2.854.662-.755 1.563-1.378 2.696-1.855 1.132-.483 2.45-.847 3.953-1.099a84.47 84.47 0 0 1 4.795-.655v-.345c0-.781-.1-1.437-.311-1.973-.206-.537-.49-.96-.842-1.272a3.26 3.26 0 0 0-1.238-.669 5.108 5.108 0 0 0-1.463-.205c-1.034 0-1.895.278-2.596.828-.702.55-1.073 1.384-1.12 2.51h-4.02a6.438 6.438 0 0 1 2.372-4.59c.688-.563 1.496-.993 2.423-1.304.927-.312 1.954-.464 3.073-.464 1.1 0 2.132.14 3.093.41.96.279 1.801.723 2.51 1.338.708.616 1.258 1.437 1.649 2.457.39 1.02.576 2.265.55 3.729 0 .232-.007.53-.02.894-.014.364-.02.768-.02 1.205 0 .437-.007.887-.02 1.358a42.512 42.512 0 0 0 .12 4.781c.092 1.133.23 2.093.41 2.868h-3.749c-.066-.391-.132-.742-.192-1.066-.06-.318-.106-.802-.152-1.444-.596 1.006-1.417 1.755-2.457 2.232-1.04.483-2.252.721-3.623.721-.98 0-1.907-.132-2.741-.397Zm4.728-8.265c-1.033.186-1.88.41-2.543.689-.662.278-1.152.603-1.463.98-.312.378-.464.828-.464 1.358 0 .801.311 1.43.927 1.887.616.457 1.444.689 2.477.689 1.51 0 2.695-.384 3.543-1.152.848-.769 1.271-1.94 1.271-3.524v-1.41c-1.47.139-2.721.304-3.748.483Zm20.979-7.026c-.722-.357-1.596-.53-2.629-.53-.894 0-1.688.186-2.39.55-.696.365-1.047.861-1.047 1.477 0 .616.212 1.1.636 1.444.424.344 1.04.596 1.841.755l2.61.516c.94.186 1.807.404 2.609.656.8.252 1.503.59 2.099 1.013a4.53 4.53 0 0 1 1.39 1.563c.332.616.497 1.378.497 2.265 0 .96-.212 1.815-.635 2.563a5.72 5.72 0 0 1-1.716 1.874 8.193 8.193 0 0 1-2.49 1.152c-.94.265-1.933.398-2.993.398-1.146 0-2.179-.152-3.113-.464-.927-.31-1.735-.735-2.424-1.271a6.455 6.455 0 0 1-1.668-1.927 6.518 6.518 0 0 1-.808-2.424h3.986c.186.96.616 1.702 1.305 2.218.689.517 1.636.775 2.854.775 1.08 0 1.967-.212 2.663-.636.695-.423 1.046-1.013 1.046-1.768 0-.755-.305-1.324-.914-1.702-.61-.377-1.37-.655-2.285-.84l-2.781-.55a13.353 13.353 0 0 1-2.186-.636 6.274 6.274 0 0 1-1.768-1.033c-.503-.424-.9-.94-1.185-1.543-.285-.61-.43-1.338-.43-2.186 0-.828.204-1.563.615-2.218.41-.656.96-1.212 1.65-1.682.688-.47 1.483-.828 2.39-1.08.907-.252 1.86-.377 2.867-.377.894 0 1.762.105 2.61.324a7.536 7.536 0 0 1 2.304 1.013 6.577 6.577 0 0 1 1.755 1.722c.484.689.815 1.49.994 2.404h-3.848c-.219-.86-.689-1.457-1.41-1.815Zm13.194.159v11.272h3.708v3.814H97.61a3.054 3.054 0 0 1-3.053-3.053V14.745h-2.663v-3.477h2.663V7.275h4.093v3.993h3.708v3.477h-3.709Z"/>
</svg>
