<svg width="179" height="41" viewBox="0 0 179 41" fill="none" xmlns="http://www.w3.org/2000/svg">
<path fill-rule="evenodd" clip-rule="evenodd" d="M0 33.1126C0.0337098 32.9965 0.0706249 32.8812 0.100466 32.7642C0.251884 32.1705 0.538805 31.6352 0.824067 31.1004C1.37415 30.0691 2.07498 29.1437 2.87628 28.2981C3.59877 27.5357 4.39886 26.8589 5.25221 26.2427C6.40531 25.4103 7.63489 24.7123 8.91586 24.1017C9.92771 23.6194 10.966 23.1983 12.0274 22.84C12.7867 22.5837 13.5591 22.3658 14.3263 22.1335C14.6153 22.0461 14.9066 21.9663 15.2078 21.88V21.0536C15.2079 20.6442 15.2131 20.2349 15.2049 19.8259C15.2024 19.6969 15.2423 19.6163 15.3506 19.5473C15.9828 19.1435 16.6068 18.7267 17.2445 18.332C17.442 18.2098 17.5121 18.0784 17.5114 17.842C17.5023 14.2158 17.506 10.5896 17.5019 6.96344C17.5017 6.81821 17.5514 6.73421 17.6653 6.64955C18.696 5.88318 19.7209 5.10907 20.7494 4.33971C21.7987 3.55488 22.851 2.77402 23.9003 1.9893C24.7643 1.34318 25.627 0.695068 26.4874 0.0441922C26.5558 -0.00753305 26.5911 -0.0193591 26.6675 0.0385555C27.5219 0.687442 28.3804 1.33102 29.2386 1.97483C30.2373 2.72418 31.2366 3.47254 32.2361 4.22078C33.2233 4.95986 34.1949 5.72137 35.2069 6.42474C35.5706 6.67751 35.6641 6.94133 35.6621 7.35834C35.6459 10.9016 35.6534 14.445 35.6502 17.9883C35.6501 18.1048 35.6831 18.17 35.7829 18.2342C36.4746 18.6791 37.1598 19.1339 37.8507 19.58C37.9335 19.6334 37.9568 19.6914 37.9559 19.7821C37.9525 20.1389 37.9545 20.4958 37.9545 20.8721C38.1654 20.9097 38.3669 20.9478 38.5691 20.9811C39.18 21.0817 39.793 21.1707 40.4017 21.2827C40.949 21.3833 41.4961 21.4913 42.0358 21.6259C42.8593 21.8314 43.6851 22.0354 44.494 22.29C45.3939 22.5734 46.2857 22.888 47.1634 23.2338C48.274 23.6715 49.3267 24.2288 50.2908 24.9405C51.0892 25.5298 51.7655 26.2336 52.2726 27.092C52.5092 27.4925 52.7132 27.9123 52.7894 28.3714C52.8351 28.648 52.8327 28.9439 52.7909 29.222C52.6837 29.9344 52.3927 30.5793 51.9857 31.1723C51.5899 31.7492 51.1077 32.2468 50.5764 32.6983C49.9197 33.2562 49.2114 33.7429 48.4512 34.1447C47.7712 34.5043 47.0815 34.851 46.3736 35.1497C45.6557 35.4528 44.9119 35.6948 44.1757 35.9534C43.9625 36.0284 43.7375 36.0707 43.5165 36.1225C43.4557 36.1369 43.3903 36.1325 43.3271 36.1367C43.3248 36.1241 43.3227 36.1115 43.3203 36.0988C43.5865 35.9749 43.8531 35.8517 44.119 35.727C45.3049 35.1705 46.4647 34.5676 47.5636 33.8491C48.3275 33.3496 49.0528 32.8058 49.6876 32.1481C50.1193 31.7011 50.4925 31.2094 50.7265 30.629C50.9314 30.1213 50.9896 29.5964 50.8771 29.052C50.7089 28.2375 50.2155 27.6353 49.6215 27.1011C48.8776 26.4324 48.0222 25.9329 47.1124 25.5301C46.5882 25.298 46.0508 25.0928 45.5098 24.9031C45.2002 24.7945 44.8719 24.7385 44.5509 24.6637C44.1647 24.5737 43.7783 24.4838 43.3902 24.4029C42.7697 24.2737 42.1483 24.1488 41.5262 24.0279C40.9444 23.9147 40.3619 23.8049 39.7784 23.7019C39.4685 23.647 39.1552 23.6112 38.8438 23.5641C38.5071 23.5134 38.1718 23.4536 37.8345 23.4088C37.4755 23.361 37.115 23.3259 36.755 23.2854C36.2625 23.23 35.7703 23.1719 35.2774 23.1208C34.9944 23.0914 34.7105 23.0698 34.4266 23.0512C32.2698 22.9097 30.1113 22.8409 27.9508 22.9409C27.2012 22.9756 26.4527 23.0366 25.7044 23.0935C25.2046 23.1314 24.7045 23.1718 24.2072 23.2324C23.5818 23.3083 22.9582 23.4006 22.3354 23.496C21.7285 23.589 21.1218 23.6862 20.5182 23.798C20.0377 23.887 19.5599 23.9934 19.0841 24.1058C18.4126 24.2644 17.739 24.4175 17.0757 24.6063C16.295 24.8285 15.5204 25.0745 14.7506 25.3324C14.0405 25.5705 13.329 25.8112 12.6382 26.0989C11.7015 26.4889 10.7695 26.8961 9.86206 27.3493C8.91796 27.821 7.98801 28.3273 7.08337 28.871C5.89414 29.5857 4.75552 30.3767 3.7587 31.3558C3.44282 31.6658 3.24985 32.0406 3.11634 32.4457C3.01255 32.7608 2.93198 33.0903 2.89507 33.4193C2.82975 34.0017 2.99089 34.5452 3.29052 35.0434C3.69559 35.7168 4.2911 36.1933 4.95214 36.5925C5.63131 37.0028 6.34883 37.334 7.10813 37.5676C7.76586 37.77 8.42414 37.9717 9.08817 38.152C9.50982 38.2665 9.94097 38.3485 10.3705 38.4318C10.8466 38.5242 11.324 38.613 11.8037 38.6826C12.3707 38.7648 12.9396 38.8378 13.5099 38.891C14.0091 38.9375 14.5119 38.9463 15.0124 38.9816C15.173 38.9929 15.2111 38.9384 15.211 38.7821C15.2069 34.6016 15.2079 30.4211 15.208 26.2406C15.208 25.9945 15.207 25.9909 15.4408 25.9228C16.048 25.746 16.6539 25.564 17.2646 25.3998C17.8804 25.2344 18.4992 25.0789 19.1207 24.9357C19.6725 24.8085 20.2282 24.6965 20.7849 24.5922C21.3379 24.4889 21.8926 24.3925 22.4494 24.3132C23.1953 24.2067 23.9428 24.1087 24.6918 24.0277C25.3905 23.952 26.0917 23.9004 26.7924 23.843C28.4933 23.7036 30.1975 23.7176 31.9012 23.7549C32.6669 23.7717 33.4333 23.8069 34.1969 23.8654C35.0679 23.9323 35.9364 24.033 36.8057 24.1227C37.1804 24.1614 37.5541 24.2097 37.9472 24.2559V34.1617C39.9528 33.3409 41.8721 32.4304 43.747 31.4234C43.7544 31.4362 43.7618 31.449 43.7692 31.4619C43.5858 31.5835 43.4071 31.7126 43.2187 31.8256C41.974 32.5722 40.7426 33.3422 39.477 34.0513C38.3755 34.6685 37.2424 35.2309 36.109 35.7888C35.212 36.2302 34.3015 36.647 33.3817 37.0393C32.5511 37.3938 31.7033 37.7098 30.8568 38.0256C30.1689 38.2821 29.4748 38.5233 28.7773 38.7527C28.2365 38.9306 27.6888 39.0897 27.1392 39.2389C26.4092 39.4371 25.6767 39.6272 24.941 39.8023C24.2596 39.9647 23.5754 40.1189 22.8869 40.2467C22.2332 40.3681 21.5721 40.45 20.9146 40.551C18.8939 40.8612 16.8583 40.9369 14.8177 40.9481C13.7207 40.9541 12.6233 41.0131 11.5268 40.9973C10.9091 40.9884 10.2891 40.8991 9.67693 40.8035C9.07734 40.7097 8.47896 40.5889 7.8934 40.4307C7.30464 40.2716 6.72815 40.0635 6.15376 39.8562C5.41314 39.5889 4.70865 39.2413 4.02827 38.8449C3.05411 38.2773 2.1624 37.605 1.4115 36.7596C0.842525 36.119 0.384403 35.4094 0.146997 34.5753C0.10765 34.4372 0.089856 34.293 0.0572514 34.1528C0.045978 34.1047 0.0195628 34.0602 0 34.014V33.1126Z" fill="#1D215E"/>
<path fill-rule="evenodd" clip-rule="evenodd" d="M78.3259 28.0019C78.3259 28.1921 78.1991 28.3188 78.0089 28.3188H75.8538C75.6636 28.3188 75.5368 28.1921 75.5368 28.0019V13.2115C75.5368 13.0213 75.6636 12.8945 75.8538 12.8945H78.0089C78.1991 12.8945 78.3259 13.0213 78.3259 13.2115V28.0019ZM74.0364 26.4595C72.7264 27.7695 70.9305 28.5935 68.8809 28.5935C64.6551 28.5935 61.2744 25.234 61.2744 20.987C61.2744 16.7189 64.6551 13.3594 68.8809 13.3594C70.9305 13.3594 72.7264 14.1834 74.0364 15.4934C74.1843 15.6413 74.1843 15.7892 74.0364 15.9371L72.6419 17.4373C72.5151 17.5852 72.3461 17.5852 72.1982 17.4584C71.3108 16.6767 70.2121 16.1907 68.8598 16.1907C66.282 16.1907 64.2536 18.2402 64.2536 20.987C64.2536 23.7127 66.282 25.7622 68.8598 25.7622C70.2121 25.7622 71.3108 25.2762 72.1982 24.4945C72.3461 24.3677 72.5151 24.3677 72.6419 24.5156L74.0364 26.0158C74.1843 26.1637 74.1843 26.3116 74.0364 26.4595ZM84.7277 28.5948C86.08 28.5948 87.1153 27.982 87.8548 27.1157L87.9393 28.0032C87.9605 28.1933 88.0661 28.3201 88.2563 28.3201H90.2002C90.3903 28.3201 90.5171 28.1933 90.5171 28.0032V18.2837C90.5171 18.0936 90.3903 17.9668 90.2002 17.9668H88.2563C88.0661 17.9668 87.9605 18.0936 87.9393 18.2837L87.876 19.2557C87.0942 18.3683 86.0377 17.7344 84.7277 17.7344C81.833 17.7344 79.7201 20.1431 79.7201 23.1646C79.7201 26.186 81.833 28.5948 84.7277 28.5948ZM82.4038 23.1431C82.4038 24.8123 83.5237 26.0589 85.0661 26.0589C86.5874 26.0589 87.7072 24.7067 87.7072 23.1431C87.7072 21.5795 86.5874 20.2695 85.0661 20.2695C83.5237 20.2695 82.4038 21.495 82.4038 23.1431ZM94.6801 28.3201C94.8703 28.3201 94.9971 28.1933 94.9971 28.0032V22.5096C94.9971 21.2418 95.8422 20.2699 97.1522 20.2699C97.5293 20.2699 97.7759 20.3444 97.9796 20.406L98.0185 20.4178C98.2298 20.4812 98.3989 20.4389 98.4834 20.2065L99.1173 18.6429C99.1806 18.495 99.1806 18.3471 99.0116 18.2203C98.7158 17.9668 98.2087 17.7344 97.6171 17.7344C96.3705 17.7344 95.5253 18.4316 94.9759 19.4247L94.8914 18.2837C94.8703 18.0936 94.7646 17.9668 94.5745 17.9668H92.5249C92.3348 17.9668 92.208 18.0936 92.208 18.2837V28.0032C92.208 28.1933 92.3348 28.3201 92.5249 28.3201H94.6801ZM102.836 14.4565C102.836 15.3017 102.16 15.9989 101.315 15.9989C100.449 15.9989 99.7725 15.3017 99.7725 14.4565C99.7725 13.6113 100.449 12.9141 101.315 12.9141C102.16 12.9141 102.836 13.6113 102.836 14.4565ZM102.392 28.3181C102.582 28.3181 102.709 28.1914 102.709 28.0012V18.2818C102.709 18.0916 102.582 17.9648 102.392 17.9648H100.237C100.047 17.9648 99.92 18.0916 99.92 18.2818V28.0012C99.92 28.1914 100.047 28.3181 100.237 28.3181H102.392ZM108.582 28.0026C108.582 28.1928 108.456 28.3196 108.265 28.3196H106.11C105.92 28.3196 105.793 28.1928 105.793 28.0026V20.2482H104.314C104.124 20.2482 103.997 20.1214 103.997 19.9313V18.2832C103.997 18.093 104.124 17.9663 104.314 17.9663H105.793V15.1138C105.793 14.9237 105.92 14.7969 106.11 14.7969H108.265C108.456 14.7969 108.582 14.9237 108.582 15.1138V17.9663H110.061C110.252 17.9663 110.378 18.093 110.378 18.2832V19.9313C110.378 20.1214 110.252 20.2482 110.061 20.2482H108.582V28.0026ZM116.041 32.3327C116.21 32.3327 116.358 32.2482 116.422 32.0791L121.894 18.324C121.979 18.0916 121.873 17.9648 121.64 17.9648H119.422C119.253 17.9648 119.105 18.0494 119.042 18.2184L116.527 25.0643L113.992 18.2184C113.928 18.0494 113.78 17.9648 113.611 17.9648H111.435C111.203 17.9648 111.097 18.0916 111.181 18.324L115.175 28.3393L113.675 31.9735C113.569 32.2059 113.696 32.3327 113.928 32.3327H116.041ZM136.114 28.0642C136.051 28.2333 135.882 28.3178 135.713 28.3178H133.6C133.431 28.3178 133.304 28.2333 133.241 28.0642L128.106 13.8865C128.022 13.6752 128.127 13.5273 128.36 13.5273H130.705C130.874 13.5273 131.001 13.5907 131.064 13.7809L134.677 24.5568L138.29 13.7809C138.354 13.5907 138.481 13.5273 138.65 13.5273H140.995C141.227 13.5273 141.333 13.6752 141.249 13.8865L136.114 28.0642ZM145.411 28.5948C146.763 28.5948 147.798 27.982 148.538 27.1157L148.622 28.0032C148.643 28.1933 148.749 28.3201 148.939 28.3201H150.883C151.073 28.3201 151.2 28.1933 151.2 28.0032V18.2837C151.2 18.0936 151.073 17.9668 150.883 17.9668H148.939C148.749 17.9668 148.643 18.0936 148.622 18.2837L148.559 19.2557C147.777 18.3683 146.721 17.7344 145.411 17.7344C142.516 17.7344 140.403 20.1431 140.403 23.1646C140.403 26.186 142.516 28.5948 145.411 28.5948ZM143.087 23.1431C143.087 24.8123 144.207 26.0589 145.749 26.0589C147.27 26.0589 148.39 24.7067 148.39 23.1431C148.39 21.5795 147.27 20.2695 145.749 20.2695C144.207 20.2695 143.087 21.495 143.087 23.1431ZM155.363 28.3188C155.553 28.3188 155.68 28.1921 155.68 28.0019V13.2115C155.68 13.0213 155.553 12.8945 155.363 12.8945H153.208C153.018 12.8945 152.891 13.0213 152.891 13.2115V28.0019C152.891 28.1921 153.018 28.3188 153.208 28.3188H155.363ZM164.3 26.8391C163.581 27.8533 162.525 28.5928 161.215 28.5928C158.891 28.5928 157.285 26.987 157.285 24.2191V18.2818C157.285 18.0916 157.412 17.9648 157.602 17.9648H159.757C159.947 17.9648 160.074 18.0916 160.074 18.2818V23.712C160.074 25.4234 161.067 26.0151 162.06 26.0151C163.56 26.0151 164.3 24.7473 164.3 24.0078V18.2818C164.3 18.0916 164.427 17.9648 164.617 17.9648H166.772C166.962 17.9648 167.089 18.0916 167.089 18.2818V28.0012C167.089 28.1914 166.962 28.3181 166.772 28.3181H164.701C164.511 28.3181 164.405 28.1914 164.384 28.0012L164.3 26.8391ZM173.914 28.5948C175.414 28.5948 176.766 28.0032 177.759 27.0101C177.928 26.8411 177.928 26.6932 177.78 26.5452L176.851 25.6367C176.703 25.4888 176.576 25.4888 176.386 25.6156C175.667 26.1227 175.012 26.334 174.188 26.334C172.561 26.334 171.505 25.5522 171.23 24.1788H177.865C178.499 24.1788 178.604 23.7562 178.604 22.9322C178.604 20.122 176.682 17.7344 173.681 17.7344C170.681 17.7344 168.462 20.122 168.462 23.1646C168.462 26.2072 170.681 28.5948 173.914 28.5948ZM171.189 22.3585H176.133C175.943 20.9006 174.95 20.0977 173.704 20.0977C172.436 20.0977 171.422 20.9006 171.189 22.3585Z" fill="#1D215E"/>
</svg>
