<svg width="2484" height="465" viewBox="0 0 2484 465" fill="none" xmlns="http://www.w3.org/2000/svg">
<path d="M1672.68 91V336.785C1672.68 339.477 1675.3 341.469 1677.93 340.901C1688.52 338.617 1714.05 334.799 1744.35 342.205C1781.44 351.27 1802.33 347.25 1811.08 344.311C1813.31 343.562 1816.02 345.241 1816.02 347.592V381.265C1816.02 382.421 1815.37 383.458 1814.29 383.853C1807.31 386.389 1778.87 394.417 1721.5 383.157C1672.21 373.485 1644.3 378.046 1632.98 381.132C1630.14 381.906 1627 379.756 1627 376.814V91H1672.68Z" fill="#39E5BC"/>
<path d="M1995.64 205.414V175.439H2038.39V383.157H1995.64V353.182C1976.36 375.558 1951.21 386.957 1920.61 386.957C1891.7 386.957 1867.39 376.825 1848.53 356.559C1829.25 336.294 1819.61 310.54 1819.61 279.298C1819.61 248.056 1829.25 222.302 1848.53 202.037C1867.39 181.771 1891.7 171.639 1920.61 171.639C1951.21 171.639 1976.36 183.038 1995.64 205.414ZM1929.42 349.382C1948.69 349.382 1964.62 342.627 1977.19 329.539C1989.35 316.451 1995.64 299.985 1995.64 279.298C1995.64 259.033 1989.35 242.145 1977.19 229.057C1964.62 215.969 1948.69 209.214 1929.42 209.214C1910.56 209.214 1894.63 215.969 1882.47 229.057C1869.9 242.145 1863.61 259.033 1863.61 279.298C1863.61 299.985 1869.9 316.451 1882.47 329.539C1894.63 342.627 1910.56 349.382 1929.42 349.382Z" fill="#39E5BC"/>
<path d="M2188.06 171.639C2216.98 171.639 2241.29 181.771 2260.15 202.037C2279.01 222.302 2288.65 248.056 2288.65 279.298C2288.65 310.54 2279.01 336.294 2260.15 356.559C2241.29 376.825 2216.98 386.957 2188.06 386.957C2157.05 386.957 2131.9 375.558 2112.62 353.182V383.157H2069.87V91H2112.62V205.414C2131.9 183.038 2157.05 171.639 2188.06 171.639ZM2178.84 349.382C2197.7 349.382 2213.63 342.627 2226.2 329.539C2238.36 316.451 2244.64 299.985 2244.64 279.298C2244.64 259.033 2238.36 242.145 2226.2 229.057C2213.63 215.969 2197.7 209.214 2178.84 209.214C2159.56 209.214 2143.64 215.969 2131.48 229.057C2118.91 242.145 2112.62 259.033 2112.62 279.298C2112.62 299.985 2118.91 316.451 2131.48 329.539C2143.64 342.627 2159.56 349.382 2178.84 349.382Z" fill="#39E5BC"/>
<path d="M2397.68 171.639C2421.15 171.639 2440.43 177.55 2455.52 188.949C2470.61 200.77 2478.15 215.969 2478.15 234.546H2437.91C2436.66 215.969 2420.73 203.303 2396.84 203.303C2375.05 203.303 2359.12 214.28 2359.12 229.901C2360.8 242.989 2364.57 248.9 2377.14 253.122C2386.36 256.5 2388.88 257.344 2401.87 259.455C2421.57 263.255 2423.25 262.832 2442.94 270.01C2451.75 273.387 2458.87 277.187 2463.9 280.987C2473.54 289.431 2483.18 304.63 2483.18 323.628C2483.18 342.627 2475.22 357.826 2459.71 369.225C2443.78 381.046 2423.25 386.957 2398.52 386.957C2373.79 386.957 2353.25 381.046 2337.33 368.803C2321.4 356.559 2313.44 340.938 2313.02 321.939H2354.93C2355.35 341.783 2374.21 354.871 2399.78 354.871C2423.66 354.871 2440.85 343.049 2440.85 326.161C2440.85 316.029 2437.08 308.851 2427.02 304.63C2416.96 300.408 2412.35 299.985 2396.84 297.03C2380.5 294.919 2372.11 293.23 2355.77 286.897C2347.39 283.942 2340.68 280.142 2335.65 275.92C2325.59 267.899 2316.79 252.7 2316.79 234.123C2316.79 196.548 2349.48 171.639 2397.68 171.639Z" fill="#39E5BC"/>
<path d="M75.8248 359.451C75.8248 359.451 70.6118 345.852 70.6118 323.879C70.6118 323.879 89.4692 333.494 112.409 336.636C142.643 341.867 161.333 367.319 149.098 389.822C149.098 389.822 134.826 350.958 75.8248 359.451Z" fill="#39E5BC"/>
<path d="M191.988 416.666C191.988 416.666 167.528 414.616 143.838 390.779C126.641 373.475 92.1093 355.14 47.2705 373.594C47.2705 373.594 63.5795 414.616 113.165 416.122L191.995 416.666H191.988Z" fill="#39E5BC"/>
<path d="M254.998 4.95885L254.967 4.87157C253.85 2.00378 250.857 -0.913888 246.087 0.270634L245.806 0.364149C240.443 2.60227 240.468 7.58974 241.328 10.1957C242.22 12.9887 242.688 15.9001 242.725 18.8489C242.825 26.7728 239.751 34.3038 234.076 40.0457C228.264 45.9309 220.544 49.1665 212.337 49.1665L44.0077 49.2039C19.7371 49.2101 0 69.1911 0 93.7544C0 118.318 19.7371 138.305 44.0015 138.305H63.4205L61.1568 135.157C59.1052 132.307 57.7457 128.928 57.2219 125.387L56.9725 123.692H44.0077C27.7317 123.692 14.4863 110.263 14.4863 93.7606C14.4863 77.2584 27.7317 63.8296 44.0077 63.8296C44.0077 63.8296 84.5046 63.8421 125.008 63.8421C145.262 63.8421 165.517 63.8421 180.714 63.8358C188.316 63.8358 194.645 63.8296 199.086 63.8234C203.027 63.8234 205.004 63.8171 206.064 63.7236V63.7984H212.225C224.404 63.7984 235.859 58.998 244.478 50.2762C252.921 41.7289 257.492 30.5071 257.349 18.6806C257.293 14.0049 256.501 9.39146 254.998 4.96508V4.95885Z" fill="#39E5BC"/>
<path d="M204.831 253.267H350.722C347.638 173.803 284.272 109.736 204.831 105.041V253.267Z" fill="#39E5BC"/>
<path d="M204.831 265.523V414.332C284.272 409.619 347.632 345.299 350.722 265.523H204.831Z" fill="#39E5BC"/>
<path d="M40.8486 104.458C44.018 186.26 110.743 251.786 193.159 253.267V104.458H40.8486ZM117.144 163.024C105.92 163.024 96.8179 153.943 96.8179 142.745C96.8179 131.547 105.92 122.465 117.144 122.465C128.368 122.465 137.471 131.547 137.471 142.745C137.471 153.943 128.368 163.024 117.144 163.024Z" fill="#39E5BC"/>
<path d="M814.496 351.39C782.425 351.39 757.607 330.414 754.554 295.714H754.786C754.767 295.476 754.729 295.244 754.729 295.006C754.347 295.257 754.134 295.438 754.134 295.438C754.134 295.438 763.418 286.197 809.989 295.708C813.399 296.403 816.991 297.191 820.815 298.099C876.827 311.417 904.134 292.17 910.484 281.814C915.913 274.557 916.496 267.012 916.546 266.154C912.954 208.931 871.755 171 814.502 171C752.266 171 709.5 213.327 709.5 279.309C709.5 345.291 754.171 388 814.502 388C866.044 388 899.269 358.634 911.105 322.024H864.139C856.121 338.423 841.233 351.39 814.502 351.39H814.496ZM812.584 207.616C841.327 207.616 864.64 223.79 870.138 250.006C870.176 251.058 869.931 256.975 860.415 260.631C852.341 263.731 837.597 265.19 810.66 260.631C770.715 253.869 758.798 255.917 755.356 258.215C760.741 226.513 783.911 207.616 812.578 207.616H812.584Z" fill="white"/>
<path d="M433.5 90H529.89C574.476 90 610.57 103.57 638.595 130.711C666.621 158.276 680.633 193.474 680.633 236.305C680.633 279.984 666.621 315.182 638.595 342.323C610.57 369.888 574.476 383.458 529.89 383.458H433.5V90ZM479.784 342.323H529.466C560.464 342.323 585.517 332.569 604.625 312.638C623.733 293.13 633.5 267.686 633.5 235.881C633.5 204.923 623.733 179.479 604.625 159.972C585.517 140.889 560.464 131.135 529.466 131.135H479.784V342.323Z" fill="white"/>
<path d="M1124.34 204.923V174.814H1167.66V383.458H1124.34V353.349C1104.81 375.825 1079.33 387.274 1048.34 387.274C1019.04 387.274 994.407 377.097 975.299 356.741C955.766 336.386 946 310.517 946 279.136C946 247.755 955.766 221.886 975.299 201.531C994.407 181.175 1019.04 170.998 1048.34 170.998C1079.33 170.998 1104.81 182.448 1124.34 204.923ZM1057.25 349.532C1076.79 349.532 1092.92 342.747 1105.66 329.601C1117.97 316.454 1124.34 299.916 1124.34 279.136C1124.34 258.781 1117.97 241.818 1105.66 228.672C1092.92 215.525 1076.79 208.74 1057.25 208.74C1038.14 208.74 1022.01 215.525 1009.69 228.672C996.955 241.818 990.586 258.781 990.586 279.136C990.586 299.916 996.955 316.454 1009.69 329.601C1022.01 342.747 1038.14 349.532 1057.25 349.532Z" fill="white"/>
<path d="M1281.77 170.998C1305.55 170.998 1325.09 176.935 1340.37 188.385C1355.66 200.259 1363.3 215.525 1363.3 234.184H1322.54C1321.27 215.525 1305.13 202.803 1280.93 202.803C1258.84 202.803 1242.71 213.829 1242.71 229.52C1244.41 242.666 1248.23 248.603 1260.97 252.844C1270.31 256.236 1272.86 257.084 1286.02 259.205C1305.98 263.021 1307.68 262.597 1327.63 269.807C1336.55 273.199 1343.77 277.016 1348.87 280.832C1358.63 289.314 1368.4 304.58 1368.4 323.664C1368.4 342.747 1360.33 358.013 1344.62 369.463C1328.48 381.337 1307.68 387.274 1282.62 387.274C1257.57 387.274 1236.76 381.337 1220.63 369.039C1204.49 356.741 1196.42 341.051 1196 321.967H1238.46C1238.89 341.899 1258 355.045 1283.9 355.045C1308.1 355.045 1325.51 343.171 1325.51 326.208C1325.51 316.03 1321.69 308.821 1311.5 304.58C1301.31 300.34 1296.64 299.916 1280.93 296.947C1264.37 294.827 1255.87 293.13 1239.31 286.769C1230.82 283.801 1224.03 279.984 1218.93 275.744C1208.74 267.686 1199.82 252.42 1199.82 233.76C1199.82 196.018 1232.94 170.998 1281.77 170.998Z" fill="white"/>
<path d="M1482.52 314.878L1547.06 172.814H1592.5L1523.07 318.907L1488.36 391.954L1453.65 465H1407.79L1434.96 411.567L1462.14 358.134L1370.84 172.814H1417.13L1482.52 314.878Z" fill="white"/>
</svg>