<svg width="109" height="28" viewBox="0 0 109 28" fill="none" xmlns="http://www.w3.org/2000/svg">
<g clip-path="url(#clip0_334_70)">
<path d="M5.07872 24.1394C5.07872 24.1394 4.72754 23.2265 4.72754 21.7515C4.72754 21.7515 5.99792 22.3969 7.5433 22.6079C9.58009 22.9591 10.8392 24.6677 10.015 26.1783C10.015 26.1783 9.05353 23.5693 5.07872 24.1394Z" fill="#39E5BC"/>
<path d="M12.8993 28C12.8993 28 11.2514 27.8627 9.65535 26.2667C8.49673 25.1081 6.17028 23.8804 3.14941 25.116C3.14941 25.116 4.24818 27.8627 7.58883 27.9636L12.8997 28H12.8993Z" fill="#39E5BC"/>
<path d="M17.116 0.33294L17.1139 0.32708C17.039 0.134535 16.8381 -0.061359 16.5179 0.0181705L16.499 0.0244492C16.139 0.174718 16.1407 0.509579 16.1985 0.684544C16.2583 0.872066 16.2897 1.06754 16.2922 1.26553C16.2989 1.79754 16.0926 2.30318 15.7117 2.68869C15.3216 3.08382 14.8034 3.30107 14.2525 3.30107L2.95389 3.30358C1.32479 3.304 0 4.64553 0 6.29472C0 7.94391 1.32479 9.28587 2.95347 9.28587H4.25692L4.10498 9.07449C3.96727 8.8832 3.87602 8.65633 3.84086 8.41858L3.82411 8.30473H2.95389C1.86141 8.30473 0.972353 7.40311 0.972353 6.29514C0.972353 5.18717 1.86141 4.28556 2.95389 4.28556C2.95389 4.28556 5.67213 4.28639 8.39078 4.28639C9.75032 4.28639 11.1099 4.28639 12.1299 4.28598C12.6402 4.28598 13.065 4.28556 13.363 4.28514C13.6276 4.28514 13.7603 4.28472 13.8314 4.27844V4.28346H14.245C15.0625 4.28346 15.8314 3.96116 16.4099 3.37557C16.9766 2.8017 17.2834 2.04827 17.2738 1.25423C17.27 0.940294 17.2169 0.630548 17.116 0.333359V0.33294Z" fill="#39E5BC"/>
<path d="M13.7607 17.0345H23.5433C23.3365 11.6788 19.0875 7.36082 13.7607 7.04437V17.0345Z" fill="#39E5BC"/>
<path d="M13.7607 17.8524V27.8426C19.0875 27.5261 23.3361 23.2081 23.5433 17.8524H13.7607Z" fill="#39E5BC"/>
<path d="M2.72363 7.02765C2.93627 12.5286 7.41294 16.9349 12.9423 17.0346V7.02765H2.72363ZM7.8424 10.966C7.08938 10.966 6.47868 10.3553 6.47868 9.60231C6.47868 8.84929 7.08938 8.23859 7.8424 8.23859C8.59542 8.23859 9.20612 8.84929 9.20612 9.60231C9.20612 10.3553 8.59542 10.966 7.8424 10.966Z" fill="#39E5BC"/>
<path d="M94.8299 5.81543H93.2573V7.38802H94.8299V5.81543Z" fill="#39E5BC"/>
<path d="M93.1994 8.41895H90.2794V11.5424H93.1994V8.41895Z" fill="#39E5BC"/>
<path d="M67.7717 13.1824C70.1543 13.1824 71.7934 14.3096 72.6645 15.4619V13.413H75.61V27.527H72.6645V25.4266C71.7679 26.6304 70.0773 27.7576 67.7207 27.7576C64.0577 27.7576 61.1122 24.7606 61.1122 20.4062C61.1122 16.0517 64.0577 13.1828 67.7722 13.1828L67.7717 13.1824ZM68.3866 15.7181C66.2092 15.7181 64.1088 17.3577 64.1088 20.4057C64.1088 23.4538 66.2092 25.2215 68.3866 25.2215C70.5641 25.2215 72.6645 23.5053 72.6645 20.4568C72.6645 17.4083 70.5896 15.7181 68.3866 15.7181Z" fill="white"/>
<path d="M83.198 27.7572C79.8167 27.7572 77.4346 25.7593 77.3065 23.1977H80.3291C80.4316 24.3504 81.5329 25.2981 83.1465 25.2981C84.7601 25.2981 85.7337 24.581 85.7337 23.6074C85.7337 20.8411 77.5367 22.4291 77.5367 17.2551C77.5367 15.0011 79.6372 13.1824 82.9673 13.1824C86.2975 13.1824 88.2699 14.8985 88.4235 17.7164H85.5035C85.4009 16.4866 84.4533 15.6415 82.8652 15.6415C81.2771 15.6415 80.4827 16.2819 80.4827 17.2296C80.4827 20.073 88.449 18.4849 88.6026 23.5823C88.6026 25.9644 86.5278 27.7576 83.1976 27.7576L83.198 27.7572Z" fill="white"/>
<path d="M90.2794 13.1799H93.1994V27.527H90.2794V13.1799Z" fill="white"/>
<path d="M43.7481 17.7612C43.7481 23.9821 39.5037 27.7903 33.0212 27.7903H26.4224V7.58685H33.0212C39.5037 7.58685 43.7481 11.511 43.7481 17.7612ZM33.0212 25.0867C37.7888 25.0867 40.3467 22.3542 40.3467 17.7612C40.3467 13.1682 37.7884 10.2904 33.0212 10.2904H29.7362V25.0867H33.0212Z" fill="white"/>
<path d="M52.5395 25.2546C50.3981 25.2546 48.741 23.8523 48.5371 21.5326H48.5526C48.5513 21.5167 48.5488 21.5012 48.5488 21.4853C48.5233 21.502 48.5091 21.5142 48.5091 21.5142C48.5091 21.5142 49.129 20.8963 52.2386 21.5322C52.4663 21.5786 52.7061 21.6314 52.9615 21.6921C56.7014 22.5824 58.5248 21.2957 58.9488 20.6033C59.3113 20.1182 59.3502 19.6138 59.3535 19.5565C59.1137 15.7311 56.3628 13.1954 52.54 13.1954C48.3843 13.1954 45.5288 16.025 45.5288 20.4359C45.5288 24.8469 48.5116 27.702 52.54 27.702C55.9815 27.702 58.2 25.7389 58.9902 23.2914H55.8543C55.3189 24.3877 54.3248 25.2546 52.54 25.2546H52.5395ZM52.4119 15.6432C54.3311 15.6432 55.8877 16.7244 56.2548 18.477C56.2573 18.5473 56.241 18.9428 55.6056 19.1873C55.0665 19.3945 54.082 19.492 52.2834 19.1873C49.6162 18.7352 48.8205 18.8721 48.5907 19.0257C48.9503 16.9065 50.4973 15.6432 52.4115 15.6432H52.4119Z" fill="white"/>
<path d="M101.86 25.2546C99.7185 25.2546 98.0614 23.8523 97.8575 21.5326H97.873C97.8718 21.5167 97.8693 21.5012 97.8693 21.4853C97.8437 21.502 97.8295 21.5142 97.8295 21.5142C97.8295 21.5142 98.4494 20.8963 101.559 21.5322C101.787 21.5786 102.027 21.6314 102.282 21.6921C106.022 22.5824 107.845 21.2957 108.269 20.6033C108.632 20.1182 108.671 19.6138 108.674 19.5565C108.434 15.7311 105.683 13.1954 101.86 13.1954C97.7048 13.1954 94.8492 16.025 94.8492 20.4359C94.8492 24.8469 97.832 27.702 101.86 27.702C105.302 27.702 107.52 25.7389 108.311 23.2914H105.175C104.639 24.3877 103.645 25.2546 101.86 25.2546H101.86ZM101.732 15.6432C103.651 15.6432 105.208 16.7244 105.575 18.477C105.578 18.5473 105.561 18.9428 104.926 19.1873C104.387 19.3945 103.402 19.492 101.604 19.1873C98.9366 18.7352 98.1409 18.8721 97.9111 19.0257C98.2707 16.9065 99.8177 15.6432 101.732 15.6432H101.732Z" fill="white"/>
</g>
<defs>
<clipPath id="clip0_334_70">
<rect width="108.674" height="28" fill="white"/>
</clipPath>
</defs>
</svg>
