<svg width="72" height="25" viewBox="0 0 72 25" fill="none" xmlns="http://www.w3.org/2000/svg">
<path fill-rule="evenodd" clip-rule="evenodd" d="M20.5962 22.388C22.0763 24.0093 23.9037 24.8205 26.0768 24.8205C27.1633 24.8205 28.1646 24.58 29.0807 24.1C29.9963 23.6205 30.6993 23.0392 31.1899 22.356V24.5H34.7051V0.5H31.1899V10.6445C30.6993 9.96185 29.9963 9.37998 29.0807 8.89998C28.1646 8.42052 27.1633 8.17999 26.0768 8.17999C23.9037 8.17999 22.0763 8.99118 20.5962 10.612C19.115 12.2338 18.3752 14.1965 18.3752 16.5C18.3752 18.804 19.115 20.7672 20.5962 22.388ZM26.7159 21.6205C25.3311 21.6205 24.1913 21.1298 23.296 20.148C22.4018 19.1672 21.9544 17.9512 21.9544 16.5C21.9544 15.0498 22.4018 13.8338 23.296 12.852C24.1913 11.8717 25.3311 11.38 26.7159 11.38C28.1007 11.38 29.24 11.8717 30.1353 12.852C31.0301 13.8338 31.4775 15.0498 31.4775 16.5C31.4775 17.9512 31.0301 19.1672 30.1353 20.148C29.24 21.1298 28.1007 21.6205 26.7159 21.6205ZM2.34883 22.484C3.91471 24.0413 5.91202 24.8205 8.34074 24.8205C11.6642 24.8205 14.093 23.5832 15.6269 21.108L12.9425 19.188C11.9412 20.8093 10.4179 21.6205 8.37269 21.6205C7.0092 21.6205 5.86888 21.2205 4.95331 20.4205C4.03721 19.6205 3.53603 18.5693 3.45134 17.2685H16.0104C16.0312 16.9272 16.0423 16.5432 16.0423 16.1165C16.0423 13.6413 15.3127 11.7 13.8533 10.2925C12.3934 8.88398 10.5564 8.17998 8.34074 8.17998C5.93279 8.17998 3.94081 8.97518 2.36481 10.5645C0.787736 12.1538 0 14.132 0 16.5C0 18.932 0.782943 20.9272 2.34883 22.484ZM12.4951 14.708H3.61112C3.84547 13.5778 4.39407 12.7032 5.2569 12.084C6.11974 11.4658 7.10507 11.156 8.21291 11.156C9.27814 11.156 10.2102 11.4717 11.0091 12.1C11.8081 12.7298 12.3034 13.5992 12.4951 14.708ZM46.2895 24.9C43.8608 24.9 41.8635 24.1208 40.2976 22.5634C38.7317 21.0066 37.9488 19.0114 37.9488 16.5794C37.9488 14.2114 38.7365 12.2333 40.3136 10.644C41.8896 9.05465 43.8815 8.25945 46.2895 8.25945C48.5052 8.25945 50.3422 8.96345 51.8021 10.372C53.2614 11.7794 53.9911 13.7208 53.9911 16.196C53.9911 16.6226 53.9799 17.0066 53.9591 17.348H41.4001C41.4848 18.6488 41.986 19.7 42.9021 20.5C43.8176 21.3 44.958 21.7 46.3215 21.7C48.3667 21.7 49.89 20.8888 50.8913 19.2674L53.5757 21.1874C52.0417 23.6626 49.613 24.9 46.2895 24.9ZM41.5599 14.7874H50.4439C50.2521 13.6786 49.7568 12.8093 48.9579 12.1794C48.159 11.5512 47.2269 11.2354 46.1617 11.2354C45.0538 11.2354 44.0685 11.5453 43.2057 12.1634C42.3428 12.7826 41.7942 13.6573 41.5599 14.7874ZM60.2387 8.49999H56.7234V24.5H60.2387V16.628C60.2387 14.964 60.6216 13.6733 61.3891 12.7554C62.1555 11.8392 63.1467 11.3794 64.3611 11.3794C65.3837 11.3794 66.1928 11.7373 66.7893 12.452C67.3853 13.1672 67.6841 14.164 67.6841 15.4445V24.5H71.1999V14.868C71.1999 12.8413 70.6454 11.2205 69.5381 10.0035C68.4297 8.78798 66.9491 8.17945 65.0961 8.17945C62.8586 8.17945 61.2394 9.01198 60.2387 10.676V8.49999Z" fill="black"/>
</svg>
