<svg width="157" height="50" viewBox="0 0 157 50" fill="none" xmlns="http://www.w3.org/2000/svg">
    <path d="M20.3214 0.561396C21.0575 -0.107054 22.1802 -0.107054 22.9163 0.561396L33.9306 10.5625L40.0864 16.1523L42.5361 18.3767C43.8443 19.5646 42.9685 21.742 41.2022 21.742C40.1357 21.742 39.257 22.6077 39.257 23.6754V47.2332C39.257 48.3009 38.3922 49.1665 37.3257 49.1665H5.91199C4.84546 49.1665 3.98074 48.3009 3.98074 47.2332V23.6754C3.98074 22.6077 3.10202 21.742 2.03549 21.742C0.269199 21.742 -0.606622 19.5646 0.701639 18.3767L20.3214 0.561396Z" fill="#00C7ED"/>
    <path d="M43.7037 45.2869C42.1057 45.2869 40.7239 44.947 39.5579 44.2672C38.399 43.5807 37.504 42.6265 36.873 41.4045C36.2421 40.1755 35.9265 38.7508 35.9265 37.1307C35.9265 35.4967 36.2421 34.0686 36.873 32.8466C37.504 31.6176 38.399 30.6633 39.5579 29.9836C40.7239 29.297 42.1057 28.9538 43.7037 28.9538C45.3016 28.9538 46.6802 29.297 47.8391 29.9836C49.0051 30.6633 49.9034 31.6176 50.5343 32.8466C51.1654 34.0686 51.4808 35.4967 51.4808 37.1307C51.4808 38.7508 51.1654 40.1755 50.5343 41.4045C49.9034 42.6265 49.0051 43.5807 47.8391 44.2672C46.6802 44.947 45.3016 45.2869 43.7037 45.2869ZM43.7243 41.8884C44.4512 41.8884 45.0581 41.6824 45.5451 41.2706C46.0321 40.8517 46.3989 40.2818 46.6459 39.561C46.8995 38.8401 47.0265 38.0197 47.0265 37.0997C47.0265 36.1798 46.8995 35.3592 46.6459 34.6384C46.3989 33.9175 46.0321 33.3476 45.5451 32.9289C45.0581 32.5102 44.4512 32.3007 43.7243 32.3007C42.9904 32.3007 42.3732 32.5102 41.8725 32.9289C41.3788 33.3476 41.0051 33.9175 40.7513 34.6384C40.5044 35.3592 40.3809 36.1798 40.3809 37.0997C40.3809 38.0197 40.5044 38.8401 40.7513 39.561C41.0051 40.2818 41.3788 40.8517 41.8725 41.2706C42.3732 41.6824 42.9904 41.8884 43.7243 41.8884ZM54.3304 44.9779V29.1597H58.507V31.9506H58.6921C59.0214 31.0237 59.57 30.2925 60.3382 29.7571C61.1061 29.2216 62.0253 28.9538 63.095 28.9538C64.1786 28.9538 65.1011 29.2249 65.8623 29.7672C66.6236 30.3028 67.131 31.0305 67.3848 31.9506H67.5494C67.8718 31.0444 68.4547 30.32 69.2982 29.7776C70.1486 29.2283 71.1533 28.9538 72.3124 28.9538C73.7869 28.9538 74.9836 29.4241 75.9026 30.3646C76.8285 31.2983 77.2915 32.6234 77.2915 34.3397V44.9779H72.9193V35.2047C72.9193 34.326 72.6862 33.6669 72.2198 33.2276C71.7534 32.7881 71.1705 32.5685 70.4709 32.5685C69.6754 32.5685 69.0549 32.8226 68.6091 33.3305C68.1633 33.8318 67.9404 34.4943 67.9404 35.3182V44.9779H63.6918V35.1121C63.6918 34.3364 63.4689 33.7185 63.0231 33.2585C62.5842 32.7984 62.0047 32.5685 61.2845 32.5685C60.7976 32.5685 60.3586 32.6921 59.9678 32.9392C59.5837 33.1794 59.2785 33.5194 59.0523 33.9587C58.8258 34.3913 58.7127 34.8993 58.7127 35.4828V44.9779H54.3304ZM87.9541 45.2869C86.3288 45.2869 84.9296 44.9573 83.757 44.2982C82.591 43.6323 81.6926 42.6917 81.0616 41.4765C80.4307 40.2545 80.1153 38.8093 80.1153 37.141C80.1153 35.5138 80.4307 34.0857 81.0616 32.8569C81.6926 31.6279 82.5807 30.6701 83.7261 29.9836C84.8782 29.297 86.2293 28.9538 87.7791 28.9538C88.8217 28.9538 89.7921 29.122 90.6905 29.4584C91.5958 29.7879 92.3845 30.2857 93.0566 30.9516C93.7354 31.6176 94.2636 32.4552 94.6407 33.4644C95.0179 34.4669 95.2066 35.6407 95.2066 36.9865V38.1913H81.864V35.4725H91.0814C91.0814 34.841 90.9443 34.2814 90.6699 33.7939C90.3957 33.3065 90.015 32.9255 89.528 32.6508C89.048 32.3694 88.489 32.2285 87.8512 32.2285C87.1859 32.2285 86.5962 32.383 86.0819 32.6921C85.5743 32.9941 85.1766 33.4026 84.8885 33.9175C84.6004 34.4256 84.453 34.9919 84.4461 35.6167V38.2016C84.4461 38.9843 84.5901 39.6606 84.8782 40.2304C85.1731 40.8003 85.588 41.2396 86.1229 41.5485C86.6579 41.8575 87.2923 42.012 88.0262 42.012C88.513 42.012 88.9588 41.9434 89.3634 41.806C89.768 41.6687 90.1143 41.4628 90.4024 41.1881C90.6905 40.9136 90.91 40.5772 91.0608 40.1789L95.114 40.4467C94.9082 41.4215 94.4865 42.2728 93.8487 43.0006C93.2177 43.7216 92.4016 44.2845 91.4002 44.6895C90.4058 45.0878 89.2572 45.2869 87.9541 45.2869ZM106.563 29.1597V32.4552H96.8114V29.1597H106.563ZM99.0441 44.9779V28.0166C99.0441 26.8701 99.2662 25.9193 99.712 25.164C100.164 24.4089 100.782 23.8424 101.564 23.4647C102.347 23.0871 103.233 22.8984 104.228 22.8984C104.901 22.8984 105.514 22.9498 106.071 23.0528C106.632 23.1559 107.051 23.2485 107.324 23.3309L106.544 26.6264C106.372 26.5714 106.159 26.5199 105.905 26.4719C105.659 26.4239 105.404 26.3999 105.144 26.3999C104.5 26.3999 104.051 26.5508 103.797 26.8529C103.542 27.1481 103.415 27.5636 103.415 28.0989V44.9779H99.0441ZM113.623 23.887V44.9779H109.241V23.887H113.623ZM124.273 45.2869C122.675 45.2869 121.294 44.947 120.127 44.2672C118.968 43.5807 118.073 42.6265 117.442 41.4045C116.812 40.1755 116.496 38.7508 116.496 37.1307C116.496 35.4967 116.812 34.0686 117.442 32.8466C118.073 31.6176 118.968 30.6633 120.127 29.9836C121.294 29.297 122.675 28.9538 124.273 28.9538C125.871 28.9538 127.25 29.297 128.409 29.9836C129.574 30.6633 130.474 31.6176 131.104 32.8466C131.735 34.0686 132.051 35.4967 132.051 37.1307C132.051 38.7508 131.735 40.1755 131.104 41.4045C130.474 42.6265 129.574 43.5807 128.409 44.2672C127.25 44.947 125.871 45.2869 124.273 45.2869ZM124.294 41.8884C125.021 41.8884 125.628 41.6824 126.114 41.2706C126.601 40.8517 126.968 40.2818 127.215 39.561C127.469 38.8401 127.596 38.0197 127.596 37.0997C127.596 36.1798 127.469 35.3592 127.215 34.6384C126.968 33.9175 126.601 33.3476 126.114 32.9289C125.628 32.5102 125.021 32.3007 124.294 32.3007C123.56 32.3007 122.943 32.5102 122.441 32.9289C121.949 33.3476 121.574 33.9175 121.321 34.6384C121.073 35.3592 120.951 36.1798 120.951 37.0997C120.951 38.0197 121.073 38.8401 121.321 39.561C121.574 40.2818 121.949 40.8517 122.441 41.2706C122.943 41.6824 123.56 41.8884 124.294 41.8884ZM137.621 44.9779L133.321 29.1597H137.754L140.202 39.7875H140.347L142.898 29.1597H147.25L149.842 39.7258H149.976L152.382 29.1597H156.806L152.517 44.9779H147.877L145.161 35.0298H144.966L142.249 44.9779H137.621Z" fill="#232830"/>
    <path d="M10.499 44.978V19.2002H15.9432V29.8361H26.9951V19.2002H32.4268V44.978H26.9951V34.3295H15.9432V44.978H10.499Z" fill="white"/>
</svg>
