<svg width="112" height="59" viewBox="0 0 112 59" fill="none" xmlns="http://www.w3.org/2000/svg">
<g clip-path="url(#clip0_726_1171)">
<mask id="mask0_726_1171" style="mask-type:luminance" maskUnits="userSpaceOnUse" x="11" y="13" width="90" height="30">
<path d="M100.574 13H11V43H100.574V13Z" fill="white"/>
</mask>
<g mask="url(#mask0_726_1171)">
<path fill-rule="evenodd" clip-rule="evenodd" d="M18.7156 14.7354C19.1252 13.9582 18.5681 13 17.6896 13H12.1374C11.5092 13 11 13.5092 11 14.1374V18.6872V22.9526V31.4672C11 31.4762 11.0072 31.4834 11.0161 31.4834C11.0256 31.4834 11.033 31.4914 11.0323 31.5009C11.0109 31.7766 11 32.0553 11 32.3365V41.8626C11 42.4907 11.5093 43 12.1374 43H18.8154C19.3203 43 19.7782 42.6686 19.8515 42.1691C19.8875 41.9241 19.9069 41.6763 19.9069 41.4249C19.9069 39.7318 19.0254 38.1949 18.1474 36.6639C17.7062 35.8946 17.266 35.1269 16.9388 34.3417C16.6851 33.7328 16.545 33.0647 16.545 32.3639C16.545 29.5219 18.8489 27.218 21.691 27.218C24.533 27.218 26.8369 29.5219 26.8369 32.3639C26.8369 32.9746 26.7305 33.5604 26.5354 34.1038C26.2197 34.9826 25.7589 35.8385 25.2978 36.6949C24.4741 38.2247 23.6494 39.7564 23.6494 41.4249C23.6494 41.6715 23.6674 41.9152 23.7008 42.1562C23.7707 42.6616 24.2315 43 24.7417 43H31.1896C31.8177 43 32.327 42.4907 32.327 41.8626V32.3365C32.327 26.4472 27.5527 21.673 21.6635 21.673C20.7374 21.673 19.8389 21.791 18.9823 22.0129C18.2023 22.2149 17.4071 21.6589 17.0915 20.9176C17.0861 20.9047 17.0806 20.892 17.0752 20.8793C16.947 20.5794 16.8294 20.3044 16.8294 19.5403C16.8294 18.514 17.8899 16.3021 18.7156 14.7354ZM56.4976 32.3365C56.4976 26.4472 61.2719 21.673 67.1611 21.673C73.0504 21.673 77.8246 26.4472 77.8246 32.3365V41.8626C77.8246 42.4907 77.3154 43 76.6872 43H70.2393C69.7292 43 69.2684 42.6616 69.1984 42.1562C69.165 41.9152 69.147 41.6715 69.147 41.4249C69.147 39.7564 69.9718 38.2247 70.7954 36.6949C71.2565 35.8385 71.7173 34.9826 72.0331 34.1038C72.2281 33.5604 72.3345 32.9746 72.3345 32.3639C72.3345 29.5219 70.0306 27.218 67.1886 27.218C64.3465 27.218 62.0427 29.5219 62.0427 32.3639C62.0427 33.0647 62.1827 33.7328 62.4365 34.3417C62.7636 35.1269 63.2038 35.8946 63.645 36.6637C64.523 38.1947 65.4045 39.7318 65.4045 41.4249C65.4045 41.6762 65.385 41.9241 65.3492 42.1691C65.2758 42.6686 64.818 43 64.313 43H57.6351C57.0069 43 56.4976 42.4907 56.4976 41.8626V32.3365ZM44.4123 21.673C38.5231 21.673 33.7488 26.4472 33.7488 32.3365C33.7488 38.2257 38.5231 43 44.4123 43C50.3016 43 55.0758 38.2257 55.0758 32.3365C55.0758 26.4472 50.3016 21.673 44.4123 21.673ZM44.4398 27.218C47.2818 27.218 49.5857 29.5219 49.5857 32.3639C49.5857 35.206 47.2818 37.5099 44.4398 37.5099C41.5977 37.5099 39.2938 35.206 39.2938 32.3639C39.2938 29.5219 41.5977 27.218 44.4398 27.218ZM79.2464 32.3365C79.2464 26.4472 84.0207 21.673 89.9099 21.673C95.7992 21.673 100.574 26.4472 100.574 32.3365V41.8626C100.574 42.4907 100.064 43 99.436 43H89.9099C84.0207 43 79.2464 38.2257 79.2464 32.3365ZM95.0833 32.3639C95.0833 29.5219 92.7794 27.218 89.9374 27.218C87.0953 27.218 84.7915 29.5219 84.7915 32.3639C84.7915 35.206 87.0953 37.5099 89.9374 37.5099C92.7794 37.5099 95.0833 35.206 95.0833 32.3639Z" fill="#55C1CF"/>
</g>
</g>
<defs>
<clipPath id="clip0_726_1171">
<rect width="90" height="30" fill="white" transform="translate(11 13)"/>
</clipPath>
</defs>
</svg>
