<svg width="90" height="30" viewBox="0 0 90 30" fill="none" xmlns="http://www.w3.org/2000/svg">
<g clip-path="url(#clip0_110_6)">
<path fill-rule="evenodd" clip-rule="evenodd" d="M7.71559 1.73538C8.12521 0.958166 7.56813 0 6.68959 0H1.13744C0.509249 0 0 0.509249 0 1.13744V5.6872V9.95261V18.4672C0 18.4762 0.00723004 18.4834 0.0161488 18.4834C0.0255698 18.4834 0.0329895 18.4914 0.0322614 18.5009C0.0108866 18.7766 0 19.0553 0 19.3365V28.8626C0 29.4907 0.509251 30 1.13744 30H7.8154C8.32032 30 8.77817 29.6686 8.85151 29.1691C8.88746 28.9241 8.90689 28.6763 8.90689 28.4249C8.90689 26.7318 8.02541 25.1949 7.14739 23.6639C6.70624 22.8946 6.26598 22.1269 5.93881 21.3417C5.68511 20.7328 5.54502 20.0647 5.54502 19.3639C5.54502 16.5219 7.84894 14.218 10.691 14.218C13.533 14.218 15.8369 16.5219 15.8369 19.3639C15.8369 19.9746 15.7305 20.5604 15.5354 21.1038C15.2197 21.9826 14.7589 22.8385 14.2978 23.6949C13.4741 25.2247 12.6494 26.7564 12.6494 28.4249C12.6494 28.6715 12.6674 28.9152 12.7008 29.1562C12.7707 29.6616 13.2315 30 13.7417 30H20.1896C20.8177 30 21.327 29.4907 21.327 28.8626V19.3365C21.327 13.4472 16.5527 8.67299 10.6635 8.67299C9.73743 8.67299 8.83894 8.79104 7.98225 9.01291C7.20226 9.21491 6.40706 8.65891 6.09152 7.91755C6.08606 7.90473 6.08062 7.89201 6.0752 7.87932C5.94697 7.57939 5.82938 7.30439 5.82938 6.54028C5.82938 5.51404 6.88986 3.3021 7.71559 1.73538ZM45.4976 19.3365C45.4976 13.4472 50.2719 8.67299 56.1611 8.67299C62.0504 8.67299 66.8246 13.4472 66.8246 19.3365V28.8626C66.8246 29.4907 66.3154 30 65.6872 30H59.2393C58.7292 30 58.2684 29.6616 58.1984 29.1562C58.165 28.9152 58.147 28.6715 58.147 28.4249C58.147 26.7564 58.9718 25.2247 59.7954 23.6949C60.2565 22.8385 60.7173 21.9826 61.0331 21.1038C61.2281 20.5604 61.3345 19.9746 61.3345 19.3639C61.3345 16.5219 59.0306 14.218 56.1886 14.218C53.3465 14.218 51.0427 16.5219 51.0427 19.3639C51.0427 20.0647 51.1827 20.7328 51.4365 21.3417C51.7636 22.1269 52.2038 22.8946 52.645 23.6637V23.6639C53.523 25.1949 54.4045 26.7318 54.4045 28.4249C54.4045 28.6762 54.385 28.9241 54.3492 29.1691C54.2758 29.6686 53.818 30 53.313 30H46.6351C46.0069 30 45.4976 29.4907 45.4976 28.8626V19.3365ZM33.4123 8.67299C27.5231 8.67299 22.7488 13.4472 22.7488 19.3365C22.7488 25.2257 27.5231 30 33.4123 30C39.3016 30 44.0758 25.2257 44.0758 19.3365C44.0758 13.4472 39.3016 8.67299 33.4123 8.67299ZM33.4398 14.218C36.2818 14.218 38.5857 16.5219 38.5857 19.3639C38.5857 22.206 36.2818 24.5099 33.4398 24.5099C30.5977 24.5099 28.2938 22.206 28.2938 19.3639C28.2938 16.5219 30.5977 14.218 33.4398 14.218ZM68.2464 19.3365C68.2464 13.4472 73.0207 8.67299 78.9099 8.67299C84.7992 8.67299 89.5735 13.4472 89.5735 19.3365V28.8626C89.5735 29.4907 89.0642 30 88.436 30H78.9099C73.0207 30 68.2464 25.2257 68.2464 19.3365ZM84.0833 19.3639C84.0833 16.5219 81.7794 14.218 78.9374 14.218C76.0953 14.218 73.7915 16.5219 73.7915 19.3639C73.7915 22.206 76.0953 24.5099 78.9374 24.5099C81.7794 24.5099 84.0833 22.206 84.0833 19.3639Z" fill="#55C1CF"/>
</g>
<defs>
<clipPath id="clip0_110_6">
<rect width="89.5735" height="30" fill="white"/>
</clipPath>
</defs>
</svg>
