<?xml version="1.0" encoding="utf-8"?>
<!-- Generator: Adobe Illustrator 26.0.3, SVG Export Plug-In . SVG Version: 6.00 Build 0)  -->
<svg version="1.1" id="Layer_1" xmlns="http://www.w3.org/2000/svg" xmlns:xlink="http://www.w3.org/1999/xlink" x="0px" y="0px"
	 viewBox="0 0 424 82" style="enable-background:new 0 0 424 82;" xml:space="preserve">
<style type="text/css">
	.st0{fill:#27A498;}
</style>
<path d="M94,5.8h12.5V56h28v10.7H94V5.8z"/>
<path d="M136.4,44.4c0-13.2,9.1-23.2,21.7-23.2c13.2,0,20.4,9.9,20.4,22.3V47h-30.7c0.9,6.8,5,10.9,10.9,10.9c4.6,0,8.2-2.2,9.6-6.5
	l10,3.6c-3.2,8.1-10.8,12.7-19.7,12.7C145.3,67.7,136.4,58.2,136.4,44.4z M148.1,39h18.5c-0.1-4.4-2.9-8.2-8.7-8.2
	C153.2,30.8,149.6,33.5,148.1,39z"/>
<path d="M183.1,54.3c0-8.9,7.1-12.7,16.1-14.3l11.1-2.1v-0.7c0-3.8-2-6.2-6.9-6.2c-4.4,0-6.7,1.9-7.7,5.9L184.5,35
	c2-7.6,8.8-13.7,19.4-13.7c11.3,0,18.1,5.2,18.1,15.5V55c0,2.4,1,3.1,3.6,2.8v8.9c-7.6,1.1-12.1-0.4-14.1-4.2
	c-2.9,3.1-7.4,4.9-13.2,4.9C189.6,67.5,183.1,62.2,183.1,54.3z M210.4,46.3l-8.8,1.8c-3.9,0.8-6.8,2-6.8,5.6c0,3,2.3,4.8,5.9,4.8
	c5,0,9.7-2.6,9.7-7.6V46.3z"/>
<path d="M235.4,51.6c3.2,4.2,8.2,6.7,13.5,6.8c4,0,7.5-1.4,7.5-4.6c0-3.4-3.3-3.8-10.4-5.2s-15.2-3.3-15.2-12.9
	c0-8.6,7.6-14.5,18.2-14.5c7.9,0,14.9,3.2,18.4,7.7l-6.8,7.5c-2.8-3.8-7.3-6-12-6c-3.7,0-6.2,1.6-6.2,4.1c0,2.9,3,3.4,8.5,4.5
	c7.8,1.6,17.1,3.4,17.1,13.5c0,9.3-8.6,15.1-19.4,15.1c-8.1,0-16.6-3-20.6-8.5L235.4,51.6z"/>
<path d="M272.3,44.4c0-13.2,9.1-23.2,21.7-23.2c13.2,0,20.4,9.9,20.4,22.3V47h-30.7c0.9,6.8,5,10.9,10.9,10.9c4.6,0,8.2-2.2,9.6-6.5
	l10,3.6c-3.2,8.1-10.8,12.7-19.7,12.7C281.3,67.7,272.3,58.2,272.3,44.4z M284.1,39h18.5c-0.1-4.4-2.9-8.2-8.7-8.2
	C289.2,30.8,285.6,33.5,284.1,39z"/>
<path d="M321,42.4V5.8h12.6V42c0,10.3,5,14.7,12.6,14.7s12.6-4.5,12.6-14.7V5.8h12.5v36.6c0,16.8-10.1,25.2-25.1,25.2
	S321,59.2,321,42.4z"/>
<path d="M390.8,62.2v19.7h-11.9V22.1h11.9v4.6c2.6-3.2,6.9-5.4,12.5-5.4c12.3,0,19.4,10.5,19.4,23.2s-7.1,23.2-19.4,23.2
	C397.6,67.7,393.4,65.5,390.8,62.2z M390.5,45.7c0,7.5,4.2,11.8,9.9,11.8c6.7,0,10.3-5.3,10.3-13.1s-3.6-13-10.3-13
	c-5.7,0-9.9,4.2-9.9,11.8V45.7z"/>
<path class="st0" d="M0,67.5V0.4h11.6v67.2H0z"/>
<path class="st0" d="M60.1,67V37.2h11.6V67H60.1z"/>
<path class="st0" d="M48.4,37.2V0.4h11.7v36.8H48.4z"/>
<path class="st0" d="M0,60.5h71.7v11.7H0V60.5z"/>
<path class="st0" d="M23.2,37.2h25.2v11.7H23.2V37.2z"/>
<path class="st0" d="M23.2,44.8V0.4h11.4v44.4H23.2z"/>
</svg>
