<svg width="179" height="24" viewBox="0 0 179 24" fill="none" xmlns="http://www.w3.org/2000/svg">
<path d="M14.1665 3.60824L21.5398 9.00714V16.7659C21.5398 17.5442 20.9111 18.1747 20.1311 18.1747H5.81144C5.03682 18.1747 4.40271 17.546 4.40271 16.7713V9.01075L11.776 3.60824L8.05603 0.880859L0.57646 6.35903C0.210768 6.62204 0 7.04898 0 7.49754V22.5792H25.9443V7.49394C25.9443 7.04538 25.7281 6.62204 25.3678 6.35903L17.8883 0.880859L14.1665 3.60824Z" fill="#0B121C"/>
<path d="M32.5312 0.880859H41.8321C46.1429 0.880859 49.2126 3.47853 49.2126 7.61283C49.2126 11.7471 45.9952 14.3448 41.8915 14.3448H36.5485V22.5828H32.5331V0.880859H32.5312ZM41.7726 10.7419C43.8695 10.7419 45.1972 9.47191 45.1972 7.61283C45.1972 5.75375 43.9271 4.48373 41.8014 4.48373H36.5467V10.7437H41.7726V10.7419Z" fill="#0B121C"/>
<path d="M66.229 15.701L68.2214 22.5807H64.1771L62.7162 16.9999L62.4514 20.8676C61.3291 22.1664 59.706 23.0221 57.3443 23.0221C52.7686 23.0221 49.5801 19.5381 49.5801 14.903C49.5801 10.2679 52.7398 6.66504 57.3155 6.66504C59.5294 6.66504 61.212 7.52072 62.3937 8.81956V7.22529H66.2326V15.6992L66.229 15.701ZM58.0504 19.5399C60.5004 19.5399 62.5378 17.7385 62.5378 14.9048C62.5378 12.0712 60.5004 10.1508 58.0504 10.1508C55.6005 10.1508 53.5631 12.0694 53.5631 14.9048C53.5631 17.7403 55.4816 19.5399 58.0504 19.5399Z" fill="#0B121C"/>
<path d="M83.9136 11.0371L80.5179 13.0151C80.163 11.2731 78.5688 10.1814 76.6791 10.1814C74.1697 10.1814 72.3988 11.8946 72.3988 14.8454C72.3988 17.7961 74.1408 19.5093 76.6791 19.5093C78.5093 19.5093 80.0748 18.2987 80.5179 16.7639L83.8254 18.6824C82.7913 21.1324 80.1054 23.0221 76.6809 23.0221C71.7503 23.0221 68.4141 19.6858 68.4141 14.8436C68.4141 10.0013 71.8692 6.66504 76.6809 6.66504C80.0766 6.66504 82.9102 8.55475 83.9136 11.0353V11.0371Z" fill="#0B121C"/>
<path d="M88.96 0.880859V15.3572L90.5074 11.3562L94.7174 7.22732H99.855L93.242 13.6332L100.003 22.5792H95.3082L90.5542 16.2309L88.96 17.7657V22.5774H85.1211V0.880859H88.96Z" fill="#0B121C"/>
<path d="M113.376 11.0663L109.775 12.4246C109.656 10.6231 108.416 9.64856 106.438 9.64856C104.844 9.64856 103.898 10.3565 103.898 11.4194C103.898 14.2837 113.552 11.9508 113.552 18.1207C113.552 21.4858 110.54 23.0224 106.851 23.0224C102.954 23.0224 100.119 21.4282 99.5586 18.5044L103.19 16.939C103.338 19.1836 104.932 20.0086 106.851 20.0086C108.269 20.0086 109.479 19.4484 109.479 18.3549C109.479 15.3429 99.9729 17.8235 99.9729 11.6536C99.9729 8.76045 102.954 6.66357 106.438 6.66357C110.218 6.66357 112.787 8.37674 113.376 11.0627V11.0663Z" fill="#0B121C"/>
<path d="M122.111 10.1817C120.161 10.1817 119.187 11.7472 119.099 14.1665V22.581H115.26V7.22919H119.099V11.4518L120.014 7.90833C120.486 7.46518 121.489 6.66895 123.321 6.66895C126.038 6.66895 127.985 8.41094 128.459 11.2752L129.286 7.91014C129.817 7.34989 130.909 6.67075 132.563 6.67075C135.958 6.67075 137.996 8.82527 137.996 12.7524V22.5846H134.157V13.3739C134.157 11.2482 133.213 10.1854 131.5 10.1854C129.522 10.1854 128.547 11.6031 128.547 14.1125V22.5864H124.708V13.4045C124.708 11.7814 124.029 10.1872 122.111 10.1872V10.1817Z" fill="#0B121C"/>
<path d="M139.902 0.880859H143.889V4.71972H139.902V0.880859ZM143.799 7.22912V22.581H139.96V7.22912H143.799Z" fill="#0B121C"/>
<path d="M151.74 1.3833V7.22896H156.051V10.477H151.74V17.326C151.74 19.068 152.36 19.5112 153.837 19.5112C154.368 19.5112 155.312 19.3923 155.874 19.2752V22.6114C155.343 22.8186 153.808 22.9663 153.305 22.9663C149.793 22.9663 147.903 21.4909 147.903 17.8592V10.4788H145.127V7.23077H147.903V4.27821L151.742 1.3851L151.74 1.3833Z" fill="#0B121C"/>
<path d="M172.348 13.5756V22.581H168.509V14.1376C168.509 11.3922 167.594 10.2105 165.44 10.2105C163.285 10.2105 161.927 11.776 161.927 14.4619V22.581H158.088V0.880859H161.927V11.6282L162.782 8.23253C163.638 7.28857 164.789 6.66708 166.679 6.66708C170.37 6.66708 172.348 9.08821 172.348 13.5756Z" fill="#0B121C"/>
<path d="M176.006 22.7776C174.905 22.7776 174.01 21.8823 174.01 20.7816C174.01 19.681 174.905 18.7856 176.006 18.7856C177.106 18.7856 178.002 19.681 178.002 20.7816C178.002 21.8823 177.106 22.7776 176.006 22.7776ZM176.006 19.218C175.143 19.218 174.442 19.9187 174.442 20.7816C174.442 21.6445 175.143 22.3453 176.006 22.3453C176.869 22.3453 177.569 21.6445 177.569 20.7816C177.569 19.9187 176.869 19.218 176.006 19.218Z" fill="#0B121C"/>
<path d="M176.426 20.9544C176.684 20.8931 176.823 20.7076 176.823 20.4301C176.823 20.0879 176.583 19.8789 176.217 19.8789H175.182V21.6803H175.558V20.9778H175.992L176.486 21.6803H176.925L176.428 20.9544H176.426ZM175.558 20.6427V20.2176H176.201C176.358 20.2176 176.446 20.3094 176.446 20.4319C176.446 20.5544 176.36 20.6427 176.201 20.6427H175.558Z" fill="#0B121C"/>
</svg>
