<svg width="896" height="250" viewBox="0 0 896 250" fill="none" xmlns="http://www.w3.org/2000/svg">
<path d="M314.807 164.494C318.755 169.009 327.028 173.147 335.677 173.147C360.12 173.147 373.47 153.02 373.47 128.943C373.47 104.678 360.12 84.7393 335.677 84.7393C327.028 84.7393 318.755 88.8775 314.807 93.3919V86.6203H285.287V201.174H314.807V164.494ZM314.807 117.657C317.063 113.143 321.951 109.757 327.78 109.757C337.933 109.757 343.95 118.033 343.95 128.943C343.95 139.853 337.933 147.941 327.78 147.941C322.139 147.941 317.063 144.744 314.807 140.041V117.657Z" fill="black"/>
<path d="M461.328 171.266V119.35C461.328 97.342 447.603 84.5511 423.536 84.5511C401.725 84.5511 387.247 97.5301 384.803 113.895H412.63C413.946 110.133 417.143 107.688 422.595 107.688C429.74 107.688 432.937 112.39 432.937 117.845V123.3C429.552 120.855 421.279 118.597 414.322 118.597C395.896 118.597 381.794 129.131 381.794 145.496C381.794 163.366 395.896 172.771 412.63 172.771C421.655 172.771 430.116 169.761 432.937 166.94V171.266H461.328ZM432.937 147.565C431.057 150.951 425.98 153.208 420.527 153.208C414.698 153.208 408.87 150.763 408.87 144.932C408.87 139.289 414.698 136.843 420.527 136.843C425.98 136.843 431.057 139.101 432.937 142.674V147.565Z" fill="black"/>
<path d="M533.443 86.2441C532.127 85.4917 529.118 84.7393 525.358 84.7393C516.897 84.7393 510.316 88.5013 506.179 94.1443V86.6203H476.66V171.266H506.179V121.607C507.683 115.588 513.136 112.014 521.221 112.014C525.922 112.014 529.87 112.766 533.443 114.647V86.2441Z" fill="black"/>
<path d="M619.466 171.266V119.35C619.466 97.342 605.741 84.5511 581.674 84.5511C559.863 84.5511 545.385 97.5301 542.941 113.895H570.768C572.084 110.133 575.281 107.688 580.734 107.688C587.878 107.688 591.075 112.39 591.075 117.845V123.3C587.69 120.855 579.417 118.597 572.461 118.597C554.034 118.597 539.932 129.131 539.932 145.496C539.932 163.366 554.034 172.771 570.768 172.771C579.793 172.771 588.254 169.761 591.075 166.94V171.266H619.466ZM591.075 147.565C589.195 150.951 584.118 153.208 578.665 153.208C572.837 153.208 567.008 150.763 567.008 144.932C567.008 139.289 572.837 136.843 578.665 136.843C584.118 136.843 589.195 139.101 591.075 142.674V147.565Z" fill="black"/>
<path d="M664.317 49H634.798V171.266H664.317V49Z" fill="black"/>
<path d="M710.794 49H681.275V171.266H710.794V49Z" fill="black"/>
<path d="M778.706 141.734C777.014 147.565 772.313 150.199 766.297 150.199C757.836 150.199 752.571 144.744 751.631 134.586H806.346V127.25C806.346 102.045 791.68 84.7393 765.733 84.7393C741.289 84.7393 723.239 102.797 723.239 128.943C723.239 155.277 740.349 173.147 766.297 173.147C788.295 173.147 802.961 161.296 805.97 141.734H778.706ZM765.733 107.688C773.065 107.688 777.39 112.954 777.766 119.914H752.195C754.075 112.014 758.776 107.688 765.733 107.688Z" fill="black"/>
<path d="M848 49H818.48V171.266H848V49Z" fill="black"/>
<path d="M125.702 49L48 127.21L71.9605 151.327L173.623 49H125.702Z" fill="black"/>
<path d="M221.464 97.0735L119.722 199.481H167.643L245.425 121.191L221.464 97.0735Z" fill="black"/>
<path d="M185.556 60.9739L83.9001 163.294L107.862 187.413L209.518 85.0926L185.556 60.9739Z" fill="black"/>
<path d="M314.807 164.494C318.755 169.009 327.028 173.147 335.677 173.147C360.12 173.147 373.47 153.02 373.47 128.943C373.47 104.678 360.12 84.7393 335.677 84.7393C327.028 84.7393 318.755 88.8775 314.807 93.3919V86.6203H285.287V201.174H314.807V164.494ZM314.807 117.657C317.063 113.143 321.951 109.757 327.78 109.757C337.933 109.757 343.95 118.033 343.95 128.943C343.95 139.853 337.933 147.941 327.78 147.941C322.139 147.941 317.063 144.744 314.807 140.041V117.657Z" fill="black"/>
<path d="M461.328 171.266V119.35C461.328 97.342 447.603 84.5511 423.536 84.5511C401.725 84.5511 387.247 97.5301 384.803 113.895H412.63C413.946 110.133 417.143 107.688 422.595 107.688C429.74 107.688 432.937 112.39 432.937 117.845V123.3C429.552 120.855 421.279 118.597 414.322 118.597C395.896 118.597 381.794 129.131 381.794 145.496C381.794 163.366 395.896 172.771 412.63 172.771C421.655 172.771 430.116 169.761 432.937 166.94V171.266H461.328ZM432.937 147.565C431.057 150.951 425.98 153.208 420.527 153.208C414.698 153.208 408.87 150.763 408.87 144.932C408.87 139.289 414.698 136.843 420.527 136.843C425.98 136.843 431.057 139.101 432.937 142.674V147.565Z" fill="black"/>
<path d="M533.443 86.2441C532.127 85.4917 529.118 84.7393 525.358 84.7393C516.897 84.7393 510.316 88.5013 506.179 94.1443V86.6203H476.66V171.266H506.179V121.607C507.683 115.588 513.136 112.014 521.221 112.014C525.922 112.014 529.87 112.766 533.443 114.647V86.2441Z" fill="black"/>
<path d="M619.466 171.266V119.35C619.466 97.342 605.741 84.5511 581.674 84.5511C559.863 84.5511 545.385 97.5301 542.941 113.895H570.768C572.084 110.133 575.281 107.688 580.734 107.688C587.878 107.688 591.075 112.39 591.075 117.845V123.3C587.69 120.855 579.417 118.597 572.461 118.597C554.034 118.597 539.932 129.131 539.932 145.496C539.932 163.366 554.034 172.771 570.768 172.771C579.793 172.771 588.254 169.761 591.075 166.94V171.266H619.466ZM591.075 147.565C589.195 150.951 584.118 153.208 578.665 153.208C572.837 153.208 567.008 150.763 567.008 144.932C567.008 139.289 572.837 136.843 578.665 136.843C584.118 136.843 589.195 139.101 591.075 142.674V147.565Z" fill="black"/>
<path d="M664.317 49H634.798V171.266H664.317V49Z" fill="black"/>
<path d="M710.794 49H681.275V171.266H710.794V49Z" fill="black"/>
<path d="M778.706 141.734C777.014 147.565 772.313 150.199 766.297 150.199C757.836 150.199 752.571 144.744 751.631 134.586H806.346V127.25C806.346 102.045 791.68 84.7393 765.733 84.7393C741.289 84.7393 723.239 102.797 723.239 128.943C723.239 155.277 740.349 173.147 766.297 173.147C788.295 173.147 802.961 161.296 805.97 141.734H778.706ZM765.733 107.688C773.065 107.688 777.39 112.954 777.766 119.914H752.195C754.075 112.014 758.776 107.688 765.733 107.688Z" fill="black"/>
<path d="M848 49H818.48V171.266H848V49Z" fill="black"/>
<path d="M125.702 49L48 127.21L71.9605 151.327L173.623 49H125.702Z" fill="black"/>
<path d="M221.464 97.0735L119.722 199.481H167.643L245.425 121.191L221.464 97.0735Z" fill="black"/>
<path d="M185.556 60.9739L83.9001 163.294L107.862 187.413L209.518 85.0926L185.556 60.9739Z" fill="black"/>
</svg>
