<svg width="877" height="240" viewBox="0 0 877 240" fill="none" xmlns="http://www.w3.org/2000/svg">
<path d="M333.964 47.563C342.022 43.3726 351.128 41.2773 361.282 41.2773C372.886 41.2773 383.483 44.1432 393.073 49.8597C402.663 55.5812 410.197 63.5995 415.677 73.9144C421.152 84.2293 423.897 96.0754 423.897 109.453C423.897 122.83 421.157 134.797 415.677 145.353C410.197 155.91 402.663 164.13 393.073 170.012C383.483 175.9 372.886 178.837 361.282 178.837C351.128 178.837 342.103 176.782 334.205 172.672C326.308 168.562 319.856 163.45 314.865 157.32V238.49C314.865 239.326 314.19 240.001 313.354 240.001H288.816C287.98 240.001 287.305 239.326 287.305 238.49V44.9641C287.305 44.128 287.98 43.4531 288.816 43.4531H313.354C314.19 43.4531 314.865 44.128 314.865 44.9641V63.0354C319.539 56.9109 325.9 51.7585 333.964 47.563ZM390.172 85.6396C386.384 78.956 381.388 73.8792 375.183 70.4089C368.978 66.9438 362.33 65.2112 355.238 65.2112C348.147 65.2112 341.735 66.9841 335.535 70.5298C329.33 74.0756 324.329 79.233 320.546 86.0022C316.759 92.7714 314.865 100.749 314.865 109.936C314.865 119.123 316.759 127.141 320.546 133.991C324.329 140.846 329.33 146.043 335.535 149.584C341.735 153.13 348.308 154.903 355.238 154.903C362.168 154.903 368.978 153.09 375.183 149.463C381.383 145.837 386.384 140.558 390.172 133.628C393.954 126.703 395.853 118.639 395.853 109.453C395.853 100.266 393.959 92.3282 390.172 85.6396Z" fill="#0F4D48"/>
<path d="M450.364 73.9144C455.924 63.5995 463.499 55.5812 473.089 49.8597C482.679 44.1381 493.276 41.2773 504.88 41.2773C515.356 41.2773 524.497 43.3323 532.319 47.4421C540.136 51.552 546.376 56.6691 551.055 62.7936V44.9641C551.055 44.128 551.73 43.4531 552.566 43.4531H577.346C578.182 43.4531 578.857 44.128 578.857 44.9641V175.15C578.857 175.986 578.182 176.661 577.346 176.661H552.566C551.73 176.661 551.055 175.986 551.055 175.15V156.837C546.376 163.122 540.015 168.36 531.957 172.551C523.898 176.741 514.706 178.837 504.397 178.837C492.948 178.837 482.477 175.9 472.968 170.012C463.459 164.13 455.924 155.91 450.364 145.353C444.804 134.802 442.023 122.835 442.023 109.453C442.023 96.0703 444.804 84.2293 450.364 73.9144ZM545.374 86.0022C541.587 79.233 536.631 74.0756 530.506 70.5298C524.377 66.9891 517.774 65.2112 510.682 65.2112C503.591 65.2112 496.983 66.9438 490.858 70.4089C484.729 73.8741 479.773 78.951 475.99 85.6396C472.203 92.3282 470.309 100.266 470.309 109.453C470.309 118.639 472.203 126.703 475.99 133.628C479.773 140.558 484.774 145.837 490.979 149.463C497.179 153.089 503.752 154.903 510.682 154.903C517.613 154.903 524.377 153.13 530.506 149.584C536.631 146.038 541.587 140.841 545.374 133.991C549.162 127.141 551.055 119.123 551.055 109.936C551.055 100.749 549.162 92.7714 545.374 86.0022Z" fill="#0F4D48"/>
<path d="M666.618 148.981L703.974 44.4565C704.191 43.8572 704.76 43.4543 705.399 43.4543H732.491C733.02 43.4543 733.388 43.9831 733.196 44.4767L683.188 175.685C682.966 176.269 682.402 176.657 681.778 176.657H650.984C650.354 176.657 649.795 176.269 649.574 175.68L599.807 44.4716C599.621 43.9781 599.984 43.4492 600.512 43.4492H627.846C628.486 43.4492 629.055 43.8521 629.271 44.4515L666.628 148.976L666.618 148.981Z" fill="#0F4D48"/>
<path d="M874.195 120.436H773.72C774.526 131.179 778.474 139.812 785.566 146.319C792.657 152.831 801.361 156.085 811.675 156.085C826.171 156.085 836.506 150.096 842.686 138.114C842.948 137.606 843.461 137.283 844.03 137.283H871.782C872.301 137.283 872.668 137.792 872.502 138.281C868.408 150.202 861.225 160.003 850.956 167.684C840.399 175.581 827.304 179.525 811.67 179.525C798.938 179.525 787.53 176.639 777.462 170.857C767.389 165.08 759.486 156.941 753.77 146.44C748.048 135.939 745.188 123.775 745.188 109.935C745.188 96.0941 747.968 83.9308 753.528 73.4295C759.089 62.9282 766.905 54.8344 776.978 49.133C787.052 43.4366 798.616 40.5859 811.67 40.5859C824.725 40.5859 835.443 43.3561 845.275 48.8862C855.101 54.4214 862.762 62.1929 868.241 72.2056C873.721 82.2183 876.461 93.737 876.461 106.757C876.461 111.269 876.204 115.389 875.69 119.116C875.585 119.867 874.95 120.431 874.19 120.431L874.195 120.436ZM847.697 97.9728C847.536 87.7183 843.91 79.4986 836.818 73.3086C829.727 67.1237 820.943 64.0312 810.467 64.0312C800.958 64.0312 792.818 67.0834 786.049 73.1877C779.28 79.2921 775.251 87.5571 773.962 97.9728H847.697Z" fill="#0F4D48"/>
<path d="M16.7227 219.673C17.312 220.263 18.2689 220.263 18.8582 219.673L90.8713 147.66C91.4606 147.071 91.4606 146.114 90.8713 145.525L51.5658 106.219C50.9765 105.63 50.0196 105.63 49.4303 106.219L16.7227 138.927C-5.57424 161.224 -5.57424 197.376 16.7227 219.678V219.673Z" fill="#00BF9F"/>
<path d="M41.6524 81.1885L98.4349 137.971C99.0241 138.56 99.9811 138.56 100.57 137.971L139.876 98.6654C140.465 98.0761 140.465 97.1192 139.876 96.5299L43.7879 0.44196C43.1986 -0.14732 42.2417 -0.14732 41.6524 0.44196C19.3554 22.7389 19.3554 58.8915 41.6524 81.1935V81.1885Z" fill="#00997F"/>
<path d="M114.723 219.673C115.312 220.263 116.269 220.263 116.858 219.673L188.871 147.66C189.461 147.071 189.461 146.114 188.871 145.525L149.566 106.219C148.977 105.63 148.02 105.63 147.43 106.219L114.723 138.927C92.4258 161.224 92.4258 197.376 114.723 219.678V219.673Z" fill="#00806A"/>
<path d="M139.645 81.1885L196.427 137.971C197.016 138.56 197.973 138.56 198.563 137.971L237.868 98.6654C238.457 98.0761 238.457 97.1192 237.868 96.5299L141.78 0.44196C141.191 -0.14732 140.234 -0.14732 139.645 0.44196C117.348 22.7389 117.348 58.8915 139.645 81.1935V81.1885Z" fill="#0F4D48"/>
</svg>
