<svg width="132" height="48" viewBox="0 0 132 48" fill="none" xmlns="http://www.w3.org/2000/svg">
<path d="M9.8 37V12.25H0.44V5.5H27.035V12.25H17.45V37H9.8ZM29.4516 37V13.105H36.2916L36.6066 20.89L35.2566 19.405C35.6166 18.115 36.2016 16.96 37.0116 15.94C37.8516 14.92 38.8266 14.11 39.9366 13.51C41.0466 12.91 42.2316 12.61 43.4916 12.61C44.0316 12.61 44.5266 12.655 44.9766 12.745C45.4566 12.835 45.8916 12.94 46.2816 13.06L44.3016 21.025C43.9716 20.815 43.5216 20.65 42.9516 20.53C42.4116 20.38 41.8416 20.305 41.2416 20.305C40.5816 20.305 39.9666 20.425 39.3966 20.665C38.8266 20.875 38.3466 21.19 37.9566 21.61C37.5666 22.03 37.2516 22.525 37.0116 23.095C36.8016 23.665 36.6966 24.31 36.6966 25.03V37H29.4516ZM50.7852 37V13.105H57.9852V37H50.7852ZM54.3852 8.38C53.0352 8.38 51.9702 8.065 51.1902 7.435C50.4402 6.775 50.0652 5.845 50.0652 4.645C50.0652 3.565 50.4552 2.68 51.2352 1.99C52.0152 1.3 53.0652 0.954997 54.3852 0.954997C55.7352 0.954997 56.7852 1.285 57.5352 1.945C58.2852 2.575 58.6602 3.475 58.6602 4.645C58.6602 5.755 58.2702 6.655 57.4902 7.345C56.7402 8.035 55.7052 8.38 54.3852 8.38ZM76.1353 47.35C74.1853 47.35 72.2353 47.065 70.2853 46.495C68.3653 45.925 66.8053 45.19 65.6053 44.29L68.1253 39.25C68.7553 39.67 69.4453 40.03 70.1953 40.33C70.9753 40.66 71.7853 40.915 72.6253 41.095C73.4653 41.275 74.3203 41.365 75.1903 41.365C76.7203 41.365 77.9653 41.14 78.9253 40.69C79.8853 40.24 80.6053 39.55 81.0853 38.62C81.5653 37.72 81.8053 36.58 81.8053 35.2V31.195L83.2003 31.42C82.9903 32.41 82.4653 33.31 81.6253 34.12C80.8153 34.93 79.8103 35.59 78.6103 36.1C77.4103 36.58 76.1353 36.82 74.7853 36.82C72.6253 36.82 70.6903 36.325 68.9803 35.335C67.3003 34.315 65.9653 32.92 64.9753 31.15C64.0153 29.35 63.5353 27.28 63.5353 24.94C63.5353 22.54 64.0153 20.425 64.9753 18.595C65.9353 16.735 67.2553 15.28 68.9353 14.23C70.6153 13.15 72.5053 12.61 74.6053 12.61C75.5053 12.61 76.3603 12.715 77.1703 12.925C78.0103 13.135 78.7753 13.42 79.4653 13.78C80.1853 14.11 80.8153 14.515 81.3553 14.995C81.9253 15.445 82.3753 15.94 82.7053 16.48C83.0653 17.02 83.3053 17.575 83.4253 18.145L81.9403 18.505L82.2103 13.105H89.0503V35.065C89.0503 37.015 88.7503 38.74 88.1503 40.24C87.5803 41.77 86.7253 43.06 85.5853 44.11C84.4753 45.19 83.1253 46 81.5353 46.54C79.9453 47.08 78.1453 47.35 76.1353 47.35ZM76.3153 31.24C77.4853 31.24 78.4903 30.985 79.3303 30.475C80.2003 29.935 80.8603 29.2 81.3103 28.27C81.7903 27.34 82.0303 26.245 82.0303 24.985C82.0303 23.725 81.7903 22.63 81.3103 21.7C80.8603 20.74 80.2003 20.005 79.3303 19.495C78.4903 18.955 77.4853 18.685 76.3153 18.685C75.1753 18.685 74.1853 18.955 73.3453 19.495C72.5053 20.005 71.8453 20.74 71.3653 21.7C70.9153 22.63 70.6903 23.725 70.6903 24.985C70.6903 26.245 70.9153 27.34 71.3653 28.27C71.8453 29.2 72.5053 29.935 73.3453 30.475C74.1853 30.985 75.1753 31.24 76.3153 31.24ZM107.003 37.45C104.513 37.45 102.293 36.91 100.343 35.83C98.4228 34.75 96.8928 33.28 95.7528 31.42C94.6428 29.56 94.0878 27.43 94.0878 25.03C94.0878 22.63 94.6428 20.5 95.7528 18.64C96.8928 16.78 98.4228 15.31 100.343 14.23C102.293 13.15 104.513 12.61 107.003 12.61C109.493 12.61 111.698 13.15 113.618 14.23C115.568 15.31 117.098 16.78 118.208 18.64C119.318 20.5 119.873 22.63 119.873 25.03C119.873 27.43 119.318 29.56 118.208 31.42C117.098 33.28 115.568 34.75 113.618 35.83C111.698 36.91 109.493 37.45 107.003 37.45ZM107.003 31.24C108.083 31.24 109.043 30.97 109.883 30.43C110.723 29.89 111.383 29.155 111.863 28.225C112.343 27.295 112.568 26.23 112.538 25.03C112.568 23.83 112.343 22.765 111.863 21.835C111.383 20.875 110.723 20.125 109.883 19.585C109.043 19.045 108.083 18.775 107.003 18.775C105.923 18.775 104.948 19.045 104.078 19.585C103.238 20.125 102.578 20.875 102.098 21.835C101.618 22.765 101.393 23.83 101.423 25.03C101.393 26.23 101.618 27.295 102.098 28.225C102.578 29.155 103.238 29.89 104.078 30.43C104.948 30.97 105.923 31.24 107.003 31.24Z" fill="black"/>
<path d="M127.596 37.495C126.366 37.495 125.406 37.15 124.716 36.46C124.056 35.77 123.726 34.78 123.726 33.49C123.726 32.29 124.086 31.315 124.806 30.565C125.526 29.815 126.456 29.44 127.596 29.44C128.826 29.44 129.786 29.8 130.476 30.52C131.166 31.21 131.511 32.2 131.511 33.49C131.511 34.66 131.151 35.62 130.431 36.37C129.711 37.12 128.766 37.495 127.596 37.495Z" fill="#6BFFD4"/>
</svg>
