<svg width="221" height="28" viewBox="0 0 221 28" fill="none" xmlns="http://www.w3.org/2000/svg">
<path d="M17.7734 22.2852L27.4219 0.371094H35.5469V1.26953H34.5703C33.2682 1.26953 32.4154 1.38021 32.0117 1.60156C31.6081 1.8099 31.3346 2.20703 31.1914 2.79297C31.0612 3.37891 30.9961 4.77214 30.9961 6.97266V19.9609C30.9961 22.0443 31.0482 23.4115 31.1523 24.0625C31.2565 24.7005 31.5169 25.1758 31.9336 25.4883C32.3633 25.8008 33.1771 25.957 34.375 25.957H35.5469V26.8555H22.8906V25.957H23.8281C24.9479 25.957 25.7227 25.8138 26.1523 25.5273C26.5951 25.2409 26.875 24.7982 26.9922 24.1992C27.1224 23.5872 27.1875 22.1745 27.1875 19.9609V3.10547L16.6992 26.8555H15.7812L5.21484 3.10547V18.6133C5.21484 20.7357 5.27995 22.181 5.41016 22.9492C5.54036 23.7174 5.94401 24.3945 6.62109 24.9805C7.29818 25.5534 8.2487 25.8789 9.47266 25.957V26.8555H0V25.957C1.13281 25.8919 2.05078 25.5859 2.75391 25.0391C3.47005 24.4792 3.90625 23.7956 4.0625 22.9883C4.21875 22.181 4.29688 20.6836 4.29688 18.4961V6.97266C4.29688 4.86328 4.23177 3.5026 4.10156 2.89062C3.98438 2.27865 3.72396 1.85547 3.32031 1.62109C2.92969 1.38672 2.0638 1.26953 0.722656 1.26953H0V0.371094H8.06641L17.7734 22.2852Z" fill="#E1E1E1"/>
<path d="M61.1602 18.6133H62.0977L61.5312 26.8555H39.5977V25.957H40.1445C41.4596 25.957 42.306 25.7812 42.6836 25.4297C43.0742 25.0781 43.3216 24.6354 43.4258 24.1016C43.5299 23.5547 43.582 22.1745 43.582 19.9609V6.97266C43.582 4.95443 43.5234 3.6263 43.4062 2.98828C43.3021 2.35026 43.0482 1.90755 42.6445 1.66016C42.2539 1.39974 41.4206 1.26953 40.1445 1.26953V0.371094H59.0703L59.6953 6.97266H58.7773C58.3607 5.1237 57.8464 3.8151 57.2344 3.04688C56.6354 2.26562 55.9193 1.77734 55.0859 1.58203C54.2526 1.3737 52.9115 1.26953 51.0625 1.26953H47.3906V12.3828H50.2031C51.4922 12.3828 52.3906 12.2721 52.8984 12.0508C53.4193 11.8294 53.7578 11.4974 53.9141 11.0547C54.0833 10.599 54.168 9.72005 54.168 8.41797H55.0859V17.4805H54.168C54.168 16.0091 54.0443 15.026 53.7969 14.5312C53.5495 14.0234 53.1849 13.6979 52.7031 13.5547C52.2344 13.3984 51.4336 13.3203 50.3008 13.3203H47.3906V19.5898C47.3906 22.7279 47.5924 24.5768 47.9961 25.1367C48.3997 25.6836 49.487 25.957 51.2578 25.957H53.2305C54.6237 25.957 55.7695 25.7812 56.668 25.4297C57.5664 25.0651 58.4193 24.3294 59.2266 23.2227C60.0469 22.1029 60.6914 20.5664 61.1602 18.6133Z" fill="#E1E1E1"/>
<path d="M94.4102 26.8555H87.2812C86.0182 25.9701 84.0846 23.6523 81.4805 19.9023C80.6471 18.7044 79.7812 17.5586 78.8828 16.4648C77.9844 15.3581 77.3659 14.6875 77.0273 14.4531C76.6888 14.2057 76.1615 14.082 75.4453 14.082H74.3906V19.9609C74.3906 22.0443 74.4362 23.4115 74.5273 24.0625C74.6315 24.7005 74.8919 25.1758 75.3086 25.4883C75.7383 25.8008 76.5521 25.957 77.75 25.957H79.0195V26.8555H66.3438V25.957H67.2031C68.3359 25.957 69.1172 25.8138 69.5469 25.5273C69.9896 25.2409 70.2695 24.7982 70.3867 24.1992C70.5039 23.5872 70.5625 22.1745 70.5625 19.9609V6.97266C70.5625 4.86328 70.5039 3.5026 70.3867 2.89062C70.2695 2.27865 70.0091 1.85547 69.6055 1.62109C69.2018 1.38672 68.3294 1.26953 66.9883 1.26953H66.5391V0.371094L70.3281 0.175781C72.8542 0.0585938 74.8594 0 76.3438 0C78.8698 0 80.9206 0.234375 82.4961 0.703125C84.0846 1.17188 85.3672 1.9401 86.3438 3.00781C87.3203 4.07552 87.8086 5.35156 87.8086 6.83594C87.8086 8.56771 87.1706 10.0456 85.8945 11.2695C84.6185 12.4935 82.7435 13.2552 80.2695 13.5547C81.3763 14.0885 83.1602 16.0156 85.6211 19.3359C87.6263 22.0312 89.2018 23.7956 90.3477 24.6289C91.4935 25.4622 92.8477 25.9049 94.4102 25.957V26.8555ZM74.3906 13.1836C75.3672 13.1576 76.3763 13.1185 77.418 13.0664C78.4596 13.0143 79.3646 12.8711 80.1328 12.6367C80.901 12.4023 81.5195 12.0638 81.9883 11.6211C82.4701 11.1654 82.8477 10.5729 83.1211 9.84375C83.3945 9.11458 83.5312 8.21615 83.5312 7.14844C83.5312 5.28646 83.0625 3.79557 82.125 2.67578C81.2005 1.55599 79.1758 0.996094 76.0508 0.996094C75.569 0.996094 75.0156 1.02214 74.3906 1.07422V13.1836Z" fill="#E1E1E1"/>
<path d="M97.143 1.26953V0.371094H109.252V1.26953H108.686C107.384 1.26953 106.531 1.38021 106.127 1.60156C105.724 1.8099 105.45 2.20703 105.307 2.79297C105.177 3.37891 105.112 4.77214 105.112 6.97266V19.9609C105.112 22.0443 105.157 23.4115 105.248 24.0625C105.353 24.7005 105.613 25.1758 106.03 25.4883C106.459 25.8008 107.273 25.957 108.471 25.957H109.252V26.8555H97.143V25.957H97.9242C99.057 25.957 99.8383 25.8138 100.268 25.5273C100.711 25.2409 100.991 24.7982 101.108 24.1992C101.225 23.5872 101.284 22.1745 101.284 19.9609V6.97266C101.284 4.86328 101.225 3.5026 101.108 2.89062C100.991 2.27865 100.73 1.85547 100.327 1.62109C99.9229 1.38672 99.0505 1.26953 97.7094 1.26953H97.143Z" fill="#E1E1E1"/>
<path d="M114.425 0.585938L118.78 0.371094C122.413 0.188802 124.861 0.0976562 126.124 0.0976562C130.057 0.0976562 133.123 0.696615 135.323 1.89453C137.524 3.09245 139.158 4.72005 140.226 6.77734C141.307 8.82161 141.847 11.1849 141.847 13.8672C141.847 15.8073 141.554 17.5846 140.968 19.1992C140.382 20.8008 139.575 22.1354 138.546 23.2031C137.53 24.2578 136.346 25.0651 134.991 25.625C133.65 26.1719 132.374 26.5169 131.163 26.6602C129.952 26.7904 128.247 26.8555 126.046 26.8555H114.308V25.957H115.402C116.534 25.957 117.316 25.8138 117.745 25.5273C118.188 25.2409 118.468 24.7982 118.585 24.1992C118.715 23.5872 118.78 22.1745 118.78 19.9609V7.1875C118.78 5.07812 118.715 3.71745 118.585 3.10547C118.468 2.48047 118.208 2.05729 117.804 1.83594C117.413 1.60156 116.547 1.48438 115.206 1.48438H114.425V0.585938ZM122.589 1.13281V18.8281C122.589 21.4453 122.635 23.1315 122.726 23.8867C122.83 24.6419 123.123 25.1758 123.605 25.4883C124.099 25.7878 125.135 25.9375 126.71 25.9375C129.015 25.9375 130.909 25.625 132.394 25C133.878 24.362 135.115 23.1185 136.105 21.2695C137.107 19.4076 137.609 17.0378 137.609 14.1602C137.609 11.9206 137.316 9.92188 136.73 8.16406C136.157 6.40625 135.33 4.98047 134.249 3.88672C133.168 2.77995 131.971 2.03125 130.655 1.64062C129.34 1.23698 127.654 1.03516 125.597 1.03516C124.607 1.03516 123.605 1.06771 122.589 1.13281Z" fill="#E1E1E1"/>
<path d="M146.552 1.26953V0.371094H158.662V1.26953H158.095C156.793 1.26953 155.94 1.38021 155.537 1.60156C155.133 1.8099 154.86 2.20703 154.716 2.79297C154.586 3.37891 154.521 4.77214 154.521 6.97266V19.9609C154.521 22.0443 154.567 23.4115 154.658 24.0625C154.762 24.7005 155.022 25.1758 155.439 25.4883C155.869 25.8008 156.683 25.957 157.88 25.957H158.662V26.8555H146.552V25.957H147.334C148.466 25.957 149.248 25.8138 149.677 25.5273C150.12 25.2409 150.4 24.7982 150.517 24.1992C150.634 23.5872 150.693 22.1745 150.693 19.9609V6.97266C150.693 4.86328 150.634 3.5026 150.517 2.89062C150.4 2.27865 150.14 1.85547 149.736 1.62109C149.332 1.38672 148.46 1.26953 147.119 1.26953H146.552Z" fill="#E1E1E1"/>
<path d="M178.962 17.0898H168.904L168.22 18.7695C167.205 21.2044 166.697 22.793 166.697 23.5352C166.697 24.3294 166.964 24.9349 167.498 25.3516C168.045 25.7552 168.741 25.957 169.587 25.957V26.8555H161.716V25.957C162.888 25.7747 163.761 25.3646 164.334 24.7266C164.907 24.0755 165.597 22.7148 166.404 20.6445C166.469 20.4492 166.782 19.694 167.341 18.3789L175.037 0H175.798L184.646 21.0352L185.857 23.8086C186.13 24.4336 186.495 24.9284 186.951 25.293C187.42 25.6445 188.116 25.8659 189.041 25.957V26.8555H178.63V25.957C179.907 25.957 180.766 25.8659 181.209 25.6836C181.664 25.4883 181.892 25.1107 181.892 24.5508C181.892 24.2643 181.593 23.4115 180.994 21.9922L178.962 17.0898ZM178.63 16.2109L173.943 4.92188L169.275 16.2109H178.63Z" fill="#E1E1E1"/>
<path d="M215.435 27.4609L196.705 2.63672V21.0156C196.705 22.5391 196.776 23.5417 196.92 24.0234C197.076 24.5052 197.505 24.9479 198.209 25.3516C198.912 25.7552 199.966 25.957 201.373 25.957V26.8555H191.49V25.957C192.753 25.8659 193.716 25.638 194.38 25.2734C195.045 24.8958 195.435 24.4922 195.552 24.0625C195.683 23.6328 195.748 22.6172 195.748 21.0156V6.97266C195.748 4.94141 195.65 3.58073 195.455 2.89062C195.272 2.20052 194.973 1.75781 194.556 1.5625C194.153 1.36719 193.241 1.26953 191.822 1.26953V0.371094H199.634L215.318 21.0938V5.25391C215.318 4.08203 215.194 3.26172 214.947 2.79297C214.712 2.32422 214.224 1.95312 213.482 1.67969C212.74 1.40625 211.848 1.26953 210.806 1.26953V0.371094H220.416V1.26953C219.296 1.36068 218.41 1.57552 217.759 1.91406C217.121 2.2526 216.711 2.66276 216.529 3.14453C216.36 3.61328 216.275 4.41406 216.275 5.54688V27.4609H215.435Z" fill="#E1E1E1"/>
</svg>