<svg width="109" height="109" viewBox="0 0 109 109" fill="none" xmlns="http://www.w3.org/2000/svg">
<path d="M82.5144 11.9145C82.7443 11.8698 82.9379 11.7506 83.0953 11.5567C83.2662 11.3562 83.3865 11.1552 83.4563 10.9535C83.526 10.7519 83.5112 10.5662 83.412 10.3964C83.3262 10.2201 83.1725 10.0935 82.9507 10.0168C82.618 9.90175 82.2369 9.89409 81.8074 9.99383C81.3779 10.0936 80.941 10.2472 80.4968 10.4547C80.0525 10.6622 79.6248 10.9037 79.2135 11.179C78.8022 11.4544 78.4435 11.7084 78.1373 11.9411C77.1605 12.7093 76.1604 13.5937 75.1372 14.5941C74.124 15.5981 73.112 16.6476 72.1012 17.7427L71.9953 17.7061C72.322 17.1531 72.583 16.5944 72.7783 16.0299C72.9526 15.5259 73.095 15.0164 73.2053 14.5015C73.3157 13.9867 73.4228 13.465 73.5265 12.9366C73.6268 12.4182 73.7322 11.9016 73.8425 11.3867C73.9529 10.8719 74.0953 10.3624 74.2696 9.85836C74.3324 9.67691 74.3934 9.5005 74.4527 9.32913C74.5255 9.15116 74.595 8.96641 74.6613 8.77488L74.631 8.76442C74.3 9.1014 73.8956 9.5202 73.4177 10.0208C72.9534 10.5148 72.4365 11.0302 71.8671 11.5669C71.3078 12.1071 70.7099 12.6283 70.0735 13.1305C69.4471 13.6361 68.8114 14.0709 68.1664 14.4347C67.5349 14.7919 66.9114 15.0446 66.2958 15.1929C65.6801 15.3411 65.1002 15.3211 64.5558 15.1328C64.4348 15.091 64.3141 15.0323 64.1935 14.9567C64.0628 14.8776 63.9525 14.7887 63.8625 14.6898C63.7625 14.5875 63.6946 14.4737 63.6589 14.3485C63.6131 14.2198 63.6146 14.0849 63.6635 13.9438C63.7192 13.7825 63.82 13.6706 63.9658 13.6082C64.115 13.5356 64.2703 13.5273 64.4316 13.5831C64.5626 13.6284 64.6578 13.7121 64.7172 13.8342C64.7699 13.9427 64.7736 14.0625 64.7283 14.1936C64.7039 14.2642 64.6677 14.3363 64.6196 14.4099C64.5649 14.4701 64.4938 14.4962 64.4062 14.4885C64.3988 14.5424 64.4283 14.6203 64.4946 14.7223C64.561 14.8242 64.6899 14.9083 64.8814 14.9746C65.3451 15.1349 65.8561 15.1424 66.4143 14.9969C66.9861 14.8448 67.5759 14.5917 68.1838 14.2376C68.8016 13.8869 69.4255 13.4537 70.0554 12.938C70.6988 12.4156 71.3223 11.8694 71.9258 11.2994C72.5394 10.7328 73.126 10.1626 73.6857 9.58867C74.2488 9.00468 74.7558 8.46897 75.2066 7.98155C75.2616 7.88771 75.3269 7.7805 75.4025 7.65991C75.4916 7.53273 75.5924 7.42086 75.7048 7.3243C75.8207 7.21766 75.9447 7.13641 76.0769 7.08055C76.2192 7.02818 76.3609 7.0264 76.502 7.07522C76.4369 7.16556 76.36 7.25746 76.2712 7.35092C76.1859 7.43429 76.097 7.54461 76.0044 7.68187C75.9117 7.81913 75.812 7.99342 75.705 8.20474C75.6015 8.40597 75.4905 8.67796 75.372 9.0207C75.229 9.43401 75.1163 9.85778 75.0338 10.292C74.9548 10.7162 74.8757 11.1572 74.7963 11.615C74.7169 12.0729 74.6273 12.5442 74.5274 13.0288C74.4275 13.5134 74.2869 14.0178 74.1055 14.542C74.0044 14.8344 73.8797 15.1298 73.7312 15.4284C73.5828 15.7269 73.3955 16.0402 73.1691 16.3683L73.1889 16.409C73.5098 16.0685 73.8717 15.6914 74.2744 15.2776C74.6806 14.8538 75.0968 14.4335 75.5232 14.0166C75.9596 13.6032 76.3976 13.2017 76.8372 12.8119C77.2767 12.4222 77.682 12.0827 78.0529 11.7934C78.5905 11.3811 79.1107 11.0193 79.6135 10.7079C80.1197 10.3864 80.605 10.1253 81.0694 9.9248C81.5338 9.72426 81.967 9.59757 82.3691 9.54475C82.7746 9.48185 83.1386 9.50619 83.4612 9.61777C83.8039 9.73632 84.043 9.92623 84.1784 10.1875C84.3273 10.4422 84.3529 10.7106 84.2553 10.9929C84.1925 11.1744 84.0947 11.3267 83.9617 11.4501C83.8389 11.5769 83.6943 11.6849 83.528 11.7741C83.3652 11.8532 83.1925 11.912 83.0099 11.9504C82.8273 11.9888 82.6517 12.0071 82.483 12.0052L82.5144 11.9145Z" fill="#1E1E1E"/>
<path d="M33.8828 99.8452C34.1147 99.9253 34.2669 100.04 34.3394 100.189C34.4255 100.332 34.4389 100.489 34.3797 100.66C34.3274 100.812 34.2367 100.927 34.1076 101.006C33.982 101.076 33.8436 101.084 33.6924 101.032C33.642 101.015 33.585 100.984 33.5214 100.939C33.4714 100.888 33.44 100.832 33.4271 100.771C33.2744 100.854 33.1483 100.974 33.0487 101.131C32.9591 101.292 32.8813 101.468 32.815 101.66C32.7244 101.922 32.6977 102.195 32.7349 102.479C32.7823 102.766 32.8905 103.04 33.0596 103.302C33.2388 103.567 33.4756 103.813 33.7699 104.039C34.0642 104.265 34.4129 104.447 34.8162 104.587C35.5016 104.824 36.1353 104.868 36.7172 104.719C37.2991 104.571 37.8199 104.305 38.2796 103.922C38.7428 103.53 39.1428 103.058 39.4795 102.509C39.8163 101.96 40.0856 101.409 40.2875 100.858C40.6079 99.9647 40.9725 99.1879 41.3814 98.528C41.8003 97.8715 42.2464 97.3486 42.7197 96.9593C43.2065 96.5633 43.7238 96.3077 44.2716 96.1924C44.8295 96.0807 45.4058 96.1276 46.0005 96.3333C46.5348 96.5181 46.9229 96.7991 47.1649 97.1763C47.4104 97.5434 47.4617 97.9336 47.3187 98.3469C47.2072 98.6695 47.0076 98.8713 46.7199 98.9524C46.4423 99.037 46.1473 99.0252 45.8348 98.9171C46.005 98.7841 46.1432 98.6457 46.2493 98.5018C46.3656 98.3614 46.4656 98.1703 46.5493 97.9284C46.6748 97.5654 46.6614 97.2617 46.5089 97.0171C46.36 96.7624 46.1394 96.5845 45.847 96.4834C45.4539 96.3474 45.0883 96.3113 44.7502 96.3749C44.4258 96.432 44.1207 96.5635 43.835 96.7694C43.5493 96.9753 43.2832 97.2388 43.0368 97.5599C42.8003 97.8845 42.5754 98.2412 42.3618 98.6301C42.1518 99.0089 41.9517 99.4081 41.7614 99.8276C41.5812 100.251 41.4028 100.669 41.2261 101.081C40.7964 102.095 40.3118 102.893 39.7723 103.474C39.2463 104.048 38.6969 104.462 38.1239 104.715C37.551 104.968 36.9695 105.083 36.3794 105.06C35.7894 105.036 35.2121 104.927 34.6476 104.732C34.1939 104.575 33.8017 104.354 33.471 104.071C33.1468 103.801 32.8922 103.492 32.7072 103.146C32.5257 102.79 32.4254 102.411 32.4063 102.009C32.3771 101.604 32.4357 101.19 32.5822 100.767C32.7042 100.414 32.886 100.149 33.1275 99.9733C33.369 99.7972 33.6208 99.7545 33.8828 99.8452Z" fill="#1E1E1E"/>
<path d="M96.6092 75.4583C97.0717 75.1329 97.5549 74.9107 98.0588 74.7915C98.5729 74.6759 99.1021 74.7122 99.6464 74.9005C100.191 75.0888 100.55 75.3711 100.725 75.7475C100.903 76.1138 100.922 76.4986 100.783 76.9018C100.657 77.2648 100.396 77.5806 99.9978 77.8493C99.6036 78.108 99.1442 78.3103 98.6197 78.4562C98.0952 78.6021 97.5395 78.6751 96.9525 78.6753C96.3756 78.6789 95.8352 78.5935 95.3312 78.4192C94.7767 78.2274 94.3037 77.9961 93.9121 77.7252C93.5305 77.4578 93.2269 77.1609 93.0012 76.8345C92.7855 76.5116 92.6494 76.171 92.5927 75.8128C92.5461 75.4581 92.5856 75.0993 92.7111 74.7364C92.8854 74.2324 93.1311 73.832 93.4482 73.5354C93.7753 73.2422 94.1422 73.0136 94.5488 72.8495C94.9656 72.6889 95.4172 72.5742 95.9037 72.5055C96.4003 72.4402 96.8985 72.3868 97.3982 72.3452C97.5975 72.3238 97.758 72.3003 97.8797 72.2747C98.0049 72.239 98.1119 72.1744 98.2007 72.081C98.2995 71.991 98.3887 71.8638 98.4681 71.6994C98.551 71.525 98.643 71.2916 98.7441 70.9992C98.8976 70.5557 99.1128 70.1617 99.39 69.8174C99.6706 69.463 100.004 69.1834 100.391 68.9786C100.792 68.7672 101.24 68.6458 101.736 68.6142C102.242 68.5862 102.788 68.6733 103.373 68.8755C103.615 68.9592 103.846 69.0732 104.067 69.2173C104.292 69.3514 104.477 69.5171 104.623 69.7144C104.783 69.9051 104.888 70.1222 104.94 70.3656C105.004 70.6025 104.99 70.857 104.896 71.1292C104.781 71.4619 104.602 71.7331 104.36 71.9429C104.118 72.1527 103.845 72.3065 103.54 72.4042C103.236 72.502 102.921 72.5457 102.598 72.5353C102.274 72.5249 101.971 72.4709 101.689 72.3733C101.548 72.3244 101.415 72.2673 101.291 72.2018C101.167 72.1363 101.083 72.0848 101.04 72.0472L101.112 71.8861C101.226 71.9818 101.439 72.0837 101.752 72.1918C102.054 72.2964 102.34 72.3165 102.611 72.2521C102.892 72.1912 103.143 72.086 103.363 71.9367C103.584 71.7874 103.769 71.6141 103.916 71.4167C104.073 71.2228 104.181 71.0402 104.241 70.8688C104.401 70.4051 104.382 70.0203 104.183 69.7145C103.984 69.4087 103.643 69.1721 103.159 69.0047C102.715 68.8513 102.307 68.8231 101.935 68.9201C101.566 69.007 101.239 69.1703 100.953 69.41C100.67 69.6395 100.428 69.9168 100.225 70.2417C100.026 70.5566 99.8758 70.8602 99.7747 71.1525C99.6422 71.5356 99.4499 71.8303 99.198 72.0366C98.946 72.2429 98.6158 72.3657 98.2071 72.4049C97.7512 72.4504 97.2953 72.4958 96.8394 72.5413C96.3936 72.5903 95.9741 72.6935 95.5811 72.851C95.1915 72.9984 94.8364 73.2255 94.5159 73.5322C94.2089 73.8323 93.9578 74.2647 93.7625 74.8292C93.6544 75.1417 93.6136 75.4718 93.64 75.8196C93.6665 76.1673 93.7555 76.4972 93.9072 76.8093C94.0623 77.1112 94.2768 77.3886 94.5506 77.6413C94.8344 77.8975 95.1729 78.0936 95.566 78.2295C95.929 78.3551 96.3312 78.4321 96.7728 78.4607C97.2144 78.4893 97.6398 78.4502 98.0492 78.3435C98.4687 78.2403 98.8468 78.0607 99.1836 77.8048C99.524 77.5387 99.7726 77.1789 99.9295 76.7253C100.083 76.2817 100.109 75.9126 100.008 75.618C99.9065 75.3234 99.6542 75.1064 99.251 74.9669C99.0393 74.8937 98.8187 74.8625 98.5892 74.8734C98.3632 74.8742 98.1368 74.9088 97.91 74.9771C97.6867 75.0353 97.4665 75.1171 97.2495 75.2226C97.0425 75.3316 96.8556 75.4476 96.6889 75.5705L96.6092 75.4583Z" fill="#1E1E1E"/>
<path d="M14.7903 35.1212C14.2181 35.307 13.6855 35.5743 13.1925 35.9229C12.7029 36.2615 12.2314 36.6458 11.7779 37.0758C11.3345 37.5094 10.9042 37.9701 10.4872 38.4579C10.0803 38.9492 9.67156 39.4455 9.26112 39.9469C8.85416 40.4382 8.43557 40.9142 8.00535 41.3748C7.58869 41.8289 7.14218 42.2388 6.66579 42.6045L6.68558 42.6452C7.09919 42.4609 7.55022 42.2501 8.03865 42.0128C8.53716 41.7789 9.04594 41.5316 9.56499 41.2709C10.0941 41.0138 10.62 40.7498 11.1425 40.4791C11.665 40.2084 12.1639 39.9408 12.6392 39.6762C13.1245 39.4152 13.5726 39.1639 13.9835 38.9223C14.3979 38.6706 14.7479 38.4417 15.0336 38.2358C15.1254 38.166 15.2632 38.0613 15.447 37.9217C15.6408 37.7856 15.8499 37.6378 16.0743 37.4784C16.3022 37.3089 16.547 37.1397 16.8087 36.9706C17.0703 36.8015 17.3233 36.6576 17.5675 36.5389C17.8152 36.4101 18.0456 36.3149 18.2588 36.2532C18.4721 36.1915 18.6492 36.1851 18.7904 36.2339C18.8408 36.2513 18.8791 36.2872 18.9055 36.3414C18.9354 36.3856 18.9381 36.443 18.9137 36.5136C18.8928 36.5741 18.8432 36.6359 18.7649 36.6991C18.6901 36.7522 18.6034 36.8069 18.505 36.8632C18.4201 36.9128 18.3251 36.959 18.2201 37.0016C18.115 37.0443 18.0235 37.0804 17.9456 37.1099C17.3932 37.3364 16.8974 37.6277 16.4582 37.9837C16.0226 38.3296 15.6067 38.7162 15.2106 39.1435C14.8245 39.5744 14.4534 40.0273 14.0973 40.5023C13.7446 40.9672 13.375 41.4319 12.9886 41.8964C12.6158 42.3544 12.2144 42.7968 11.7846 43.2238C11.3683 43.6441 10.8952 44.0166 10.3653 44.3412L10.3851 44.3819C10.9569 44.2298 11.5845 44.0632 12.268 43.882C12.9514 43.7007 13.6436 43.4943 14.3445 43.2627C15.0589 43.0245 15.7619 42.7541 16.4535 42.4516C17.1551 42.1525 17.8083 41.8141 18.413 41.4363C19.0212 41.0485 19.5658 40.6161 20.0468 40.1391C20.5278 39.6622 20.9049 39.1267 21.1781 38.5327C21.0881 38.4339 21.0321 38.3185 21.0099 38.1867C21.0014 38.0483 21.0198 37.9136 21.0651 37.7825C21.1209 37.6213 21.2216 37.5094 21.3674 37.4469C21.5267 37.3779 21.6921 37.373 21.8634 37.4323C21.9844 37.4741 22.0748 37.5392 22.1345 37.6276C22.2078 37.7094 22.2539 37.8044 22.2729 37.9125C22.3055 38.0141 22.3127 38.1238 22.2945 38.2417C22.2798 38.3494 22.255 38.4537 22.2202 38.5545C22.0668 38.9981 21.7786 39.4233 21.3557 39.83C20.943 40.2403 20.4546 40.6244 19.8906 40.9824C19.3266 41.3404 18.7071 41.6792 18.0322 41.9988C17.3709 42.3118 16.71 42.5911 16.0494 42.8366C15.3989 43.0857 14.7758 43.3047 14.18 43.4936C13.5841 43.6826 13.0747 43.8337 12.6518 43.947C12.3541 44.0246 12.031 44.1104 11.6824 44.2043C11.3374 44.2881 10.9957 44.3787 10.6573 44.4761C10.3324 44.5669 10.0227 44.6629 9.72806 44.7642C9.43693 44.8553 9.19639 44.9471 9.00645 45.0394L8.95756 44.887C9.49481 44.5085 9.99559 44.0723 10.4599 43.5782C10.9277 43.0741 11.3806 42.5479 11.8186 41.9997C12.26 41.4413 12.7015 40.8829 13.1429 40.3245C13.5944 39.7696 14.0607 39.2537 14.5417 38.7768L14.5167 38.7512C14.0411 39.0494 13.4808 39.3804 12.8357 39.7442C12.1907 40.108 11.5034 40.4798 10.7739 40.8595C10.0478 41.2292 9.30667 41.5936 8.55038 41.9527C7.80766 42.3053 7.09226 42.6278 6.40418 42.9203C6.20416 43.0092 6.02099 43.0982 5.8547 43.1874C5.69848 43.2801 5.55758 43.3611 5.43198 43.4306C5.30639 43.5 5.18777 43.5492 5.07612 43.5784C4.97456 43.6109 4.86833 43.6081 4.75744 43.5697C4.61631 43.5209 4.56318 43.4461 4.59805 43.3453C4.61897 43.2848 4.67517 43.2365 4.76666 43.2004C4.85814 43.1644 4.96145 43.1267 5.07659 43.0875C5.19172 43.0484 5.30007 43.0125 5.40164 42.9799C5.51677 42.9407 5.6067 42.8928 5.67143 42.8362C6.13811 42.4333 6.56815 41.9895 6.96153 41.5048C7.365 41.0235 7.75335 40.5371 8.12658 40.0454C8.50329 39.5437 8.88834 39.0504 9.28173 38.5657C9.6786 38.071 10.1038 37.6085 10.5573 37.1785C11.0208 36.7519 11.5311 36.3697 12.0882 36.0319C12.6588 35.6875 13.3044 35.4199 14.0251 35.229L14.0053 35.1883C13.6203 35.2244 13.1834 35.2313 12.6945 35.2089C12.2056 35.1866 11.6964 35.1741 11.1668 35.1715C10.6508 35.1623 10.1346 35.17 9.61822 35.1945C9.10183 35.2191 8.62034 35.2896 8.17375 35.406C7.74073 35.5158 7.35929 35.6886 7.02942 35.9244C6.71312 36.1536 6.48524 36.4698 6.34576 36.873C6.21675 37.246 6.21819 37.5682 6.35006 37.8395C6.48194 38.1109 6.70917 38.3023 7.03175 38.4139C7.26361 38.4941 7.49099 38.522 7.71391 38.4975C7.93682 38.473 8.13995 38.4078 8.3233 38.3019C8.51673 38.1996 8.68186 38.0648 8.81867 37.8977C8.95549 37.7305 9.05702 37.5512 9.12327 37.3597C9.14419 37.2992 9.16007 37.237 9.17091 37.173C9.19183 37.1125 9.20771 37.0503 9.21855 36.9863L9.4 37.0491C9.38916 37.113 9.37328 37.1753 9.35236 37.2358C9.34152 37.2997 9.32564 37.362 9.30472 37.4224C9.21755 37.6745 9.09025 37.8957 8.92281 38.0861C8.75886 38.2664 8.56835 38.4093 8.35127 38.5148C8.14427 38.6238 7.91419 38.6853 7.66103 38.6993C7.42145 38.7067 7.17564 38.6668 6.92363 38.5797C6.50024 38.4332 6.18926 38.1902 5.99068 37.8506C5.80219 37.5146 5.78639 37.1197 5.9433 36.6661C6.1002 36.2125 6.35541 35.8662 6.70893 35.6273C7.07601 35.3818 7.51483 35.2063 8.02539 35.1007C8.53594 34.9951 9.11339 34.9409 9.75773 34.938C10.4021 34.9352 11.0782 34.9546 11.7861 34.9963C12.3727 35.0299 12.8447 35.0521 13.2022 35.0628C13.5697 35.0771 13.8614 35.0821 14.0774 35.0778C14.2933 35.0734 14.4486 35.0651 14.5432 35.0526C14.6513 35.0336 14.7275 35.0092 14.7717 34.9793L14.7903 35.1212Z" fill="#1E1E1E"/>
<path d="M54.3466 49.7853L70.522 21.7156L57.5388 56.295L54.3466 49.7853Z" stroke="#1E1E1E" stroke-width="0.75"/>
<path d="M63.8363 53.2408L92.2349 69.5396L57.3705 56.4494L63.8363 53.2408Z" stroke="#1E1E1E" stroke-width="0.75"/>
<path d="M60.7098 62.8559L44.4109 91.2545L57.5368 56.2951L60.7098 62.8559Z" stroke="#1E1E1E" stroke-width="0.75"/>
<path d="M51.1665 59.5394L22.768 43.2405L57.5374 56.2951L51.1665 59.5394Z" stroke="#1E1E1E" stroke-width="0.75"/>
<path d="M70.5216 21.7158L57.574 56.2002L63.8224 53.1267L70.5216 21.7158Z" fill="#1E1E1E" stroke="#1E1E1E" stroke-width="0.75"/>
<path d="M92.1799 69.5182L57.657 56.5562L60.7305 62.8046L92.1799 69.5182Z" fill="#1E1E1E" stroke="#1E1E1E" stroke-width="0.75"/>
<path d="M44.5069 91.0858L57.3714 56.4493L51.1231 59.5228L44.5069 91.0858Z" fill="#1E1E1E" stroke="#1E1E1E" stroke-width="0.75"/>
<path d="M22.8036 43.1455L57.288 56.0931L54.2145 49.8447L22.8036 43.1455Z" fill="#1E1E1E" stroke="#1E1E1E" stroke-width="0.75"/>
<path d="M84.0637 44.2511L64.1437 51.4046L63.6917 53.1859L65.6746 54.2556L84.0637 44.2511Z" fill="#1E1E1E" stroke="#1E1E1E" stroke-width="0.75"/>
<path d="M30.6215 68.5171L50.5415 61.3636L50.9935 59.5823L49.0105 58.5126L30.6215 68.5171Z" fill="#1E1E1E" stroke="#1E1E1E" stroke-width="0.75"/>
<path d="M69.7238 83.3074L62.5703 63.3874L60.789 62.9354L59.7193 64.9184L69.7238 83.3074Z" fill="#1E1E1E" stroke="#1E1E1E" stroke-width="0.75"/>
<path d="M45.3158 29.3778L52.4694 49.2978L54.2507 49.7498L55.3204 47.7668L45.3158 29.3778Z" fill="#1E1E1E" stroke="#1E1E1E" stroke-width="0.75"/>
<path fill-rule="evenodd" clip-rule="evenodd" d="M53.2009 75.8899L53.6635 74.9637C62.4927 76.7059 71.5419 71.8631 74.8093 63.1607L74.8312 63.1022L75.7346 63.5412C72.2501 72.7786 62.5764 77.8767 53.2009 75.8899ZM50.3317 75.0515C50.5546 75.1352 50.7781 75.2146 51.002 75.2897L50 74.7892L50.3924 74.0034C41.7221 70.5857 36.9915 61.3806 38.9781 52.5051L38.0411 52.1159C35.824 61.6219 40.9474 71.528 50.3317 75.0515ZM39.0803 48.9141C42.822 40.0135 52.4227 35.211 61.6608 37.3316L61.1917 38.2518C52.4995 36.3796 43.5239 40.9301 40.0038 49.2977L39.0803 48.9141ZM76.5886 60.6207C78.5606 51.2617 73.4756 41.6107 64.2632 38.12L64.5513 38.2669L64.11 39.1326C72.648 42.4784 77.3788 51.4305 75.6598 60.1694L76.5886 60.6207Z" fill="#1E1E1E"/>
</svg>
