<svg width="108" height="109" viewBox="0 0 108 109" fill="none" xmlns="http://www.w3.org/2000/svg">
<path d="M83.279 12.4321C83.5096 12.3916 83.7054 12.2759 83.8662 12.0849C84.0407 11.8875 84.1646 11.6887 84.238 11.4884C84.3114 11.288 84.2999 11.1021 84.2037 10.9306C84.1212 10.7527 83.9698 10.6234 83.7494 10.5427C83.4189 10.4216 83.038 10.4071 82.6067 10.499C82.1755 10.591 81.7359 10.7367 81.288 10.9362C80.84 11.1357 80.408 11.3694 79.9918 11.6372C79.5757 11.9051 79.2124 12.1526 78.902 12.3798C77.9115 13.1302 76.8957 13.9964 75.8546 14.9783C74.8235 15.9638 73.7927 16.9949 72.7623 18.0715L72.6571 18.033C72.9937 17.4861 73.2647 16.9321 73.4701 16.3712C73.6535 15.8704 73.8051 15.3636 73.9247 14.8508C74.0443 14.338 74.1608 13.8184 74.2741 13.2919C74.3837 12.7754 74.4984 12.2608 74.618 11.748C74.7376 11.2352 74.8892 10.7284 75.0726 10.2276C75.1386 10.0473 75.2028 9.87203 75.2651 9.70176C75.3412 9.52514 75.4141 9.34167 75.4837 9.15137L75.4537 9.14036C75.1167 9.47131 74.7047 9.88275 74.2179 10.3747C73.7447 10.8602 73.2186 11.3662 72.6397 11.8925C72.0707 12.4225 71.4635 12.9328 70.8181 13.4235C70.1827 13.9178 69.5392 14.341 68.8878 14.6931C68.25 15.0388 67.622 15.2803 67.0038 15.4174C66.3856 15.5545 65.8061 15.524 65.2652 15.3259C65.145 15.2819 65.0253 15.221 64.9061 15.1433C64.7769 15.0619 64.6682 14.971 64.58 14.8705C64.4818 14.7664 64.416 14.6514 64.3826 14.5256C64.3391 14.3961 64.3431 14.2612 64.3944 14.121C64.4531 13.9607 64.5559 13.8507 64.7028 13.7909C64.8533 13.7211 65.0087 13.7155 65.1689 13.7742C65.2992 13.8219 65.3928 13.9073 65.45 14.0305C65.5007 14.1399 65.5023 14.2598 65.4546 14.39C65.4289 14.4601 65.3914 14.5315 65.342 14.6043C65.2863 14.6635 65.2147 14.6883 65.1272 14.679C65.1189 14.7328 65.147 14.8112 65.2115 14.9143C65.2759 15.0175 65.4033 15.1039 65.5936 15.1736C66.0544 15.3423 66.5651 15.359 67.1259 15.2235C67.7003 15.0818 68.2946 14.8394 68.9087 14.4963C69.5328 14.1569 70.1644 13.735 70.8035 13.2307C71.4562 12.72 72.0895 12.1851 72.7031 11.6261C73.3268 11.0707 73.9237 10.5111 74.4936 9.94742C75.0672 9.37369 75.5838 8.84722 76.0433 8.368C76.1 8.27517 76.1672 8.16916 76.2449 8.04995C76.3364 7.9244 76.4391 7.81437 76.5533 7.71985C76.6711 7.61532 76.7965 7.53632 76.9297 7.48285C77.0729 7.43306 77.2146 7.43384 77.3548 7.48519C77.2881 7.57435 77.2095 7.66484 77.1191 7.75668C77.0323 7.8385 76.9414 7.9472 76.8463 8.08277C76.7512 8.21834 76.6483 8.3908 76.5376 8.60015C76.4305 8.79948 76.3146 9.06942 76.1899 9.40997C76.0395 9.82063 75.9191 10.2423 75.8289 10.675C75.7422 11.0976 75.6551 11.5371 75.5675 11.9935C75.4799 12.4499 75.3817 12.9194 75.2731 13.4022C75.1645 13.8849 75.0148 14.3867 74.824 14.9076C74.7177 15.198 74.5876 15.4912 74.4338 15.787C74.28 16.0828 74.087 16.3927 73.8548 16.7166L73.8739 16.7576C74.2009 16.423 74.5695 16.0525 74.9796 15.6461C75.3933 15.2296 75.8171 14.8169 76.2509 14.4078C76.6948 14.0023 77.1399 13.6088 77.5864 13.227C78.0329 12.8453 78.4442 12.5131 78.8203 12.2306C79.3653 11.8281 79.892 11.4757 80.4002 11.1734C80.9122 10.8611 81.4022 10.6088 81.8701 10.4167C82.3381 10.2246 82.7735 10.1057 83.1764 10.0602C83.583 10.0046 83.9465 10.0355 84.267 10.1529C84.6076 10.2776 84.8432 10.4718 84.9738 10.7355C85.1181 10.9928 85.1389 11.2617 85.0362 11.5421C84.9702 11.7224 84.8696 11.873 84.7344 11.9939C84.6093 12.1185 84.4628 12.2238 84.2949 12.31C84.1307 12.3862 83.957 12.4419 83.7737 12.477C83.5905 12.5121 83.4145 12.5272 83.246 12.5223L83.279 12.4321Z" fill="#1E1E1E"/>
<path d="M33.0688 99.4711C33.2992 99.5554 33.4493 99.6729 33.5191 99.8234C33.6026 99.9676 33.6132 100.125 33.5509 100.295C33.4958 100.445 33.4031 100.559 33.2726 100.636C33.1458 100.703 33.0072 100.709 32.857 100.654C32.8069 100.636 32.7505 100.604 32.6877 100.558C32.6386 100.506 32.6082 100.45 32.5965 100.389C32.4423 100.468 32.314 100.586 32.2116 100.742C32.1192 100.901 32.0381 101.076 31.9684 101.266C31.873 101.527 31.8414 101.799 31.8736 102.083C31.9158 102.371 32.019 102.648 32.1834 102.912C32.3577 103.181 32.59 103.431 32.8802 103.662C33.1704 103.893 33.5158 104.082 33.9164 104.229C34.5975 104.478 35.2303 104.534 35.8148 104.396C36.3993 104.258 36.9248 104.001 37.3913 103.627C37.8615 103.243 38.2699 102.779 38.6165 102.235C38.9632 101.692 39.2424 101.147 39.4541 100.6C39.7906 99.712 40.1692 98.9418 40.5899 98.2894C41.0206 97.6406 41.4761 97.1258 41.9563 96.7451C42.4502 96.358 42.972 96.1118 43.5218 96.0064C44.0816 95.9047 44.6569 95.962 45.2479 96.1785C45.7787 96.3729 46.1617 96.6608 46.3969 97.0423C46.6357 97.4137 46.68 97.8048 46.5296 98.2154C46.4122 98.536 46.209 98.7342 45.9199 98.8101C45.6409 98.8896 45.3461 98.8725 45.0356 98.7588C45.2081 98.6289 45.3488 98.493 45.4575 98.3511C45.5763 98.2128 45.6797 98.0235 45.7678 97.7831C45.8998 97.4225 45.8919 97.1186 45.7439 96.8713C45.5996 96.614 45.3822 96.4321 45.0917 96.3257C44.7011 96.1827 44.3362 96.1399 43.9971 96.1975C43.6716 96.2487 43.3642 96.3747 43.0749 96.5754C42.7855 96.7761 42.5147 97.0348 42.2625 97.3514C42.0202 97.6716 41.7889 98.0242 41.5684 98.4092C41.3515 98.7841 41.1442 99.1796 40.9464 99.5957C40.7586 100.015 40.5727 100.43 40.3886 100.84C39.9407 101.846 39.4417 102.634 38.8918 103.205C38.3556 103.77 37.7988 104.174 37.2214 104.417C36.6439 104.66 36.0605 104.764 35.4709 104.73C34.8814 104.696 34.3061 104.576 33.7452 104.37C33.2945 104.205 32.9064 103.978 32.5808 103.688C32.2615 103.412 32.0125 103.1 31.8338 102.75C31.6587 102.391 31.5653 102.01 31.5534 101.608C31.5316 101.203 31.5977 100.79 31.7517 100.369C31.8801 100.018 32.0666 99.7572 32.3113 99.5855C32.5559 99.4139 32.8084 99.3757 33.0688 99.4711Z" fill="#1E1E1E"/>
<path d="M96.225 76.22C96.6932 75.903 97.1804 75.6895 97.6864 75.5795C98.2024 75.4731 98.7309 75.519 99.2718 75.717C99.8126 75.9151 100.167 76.2039 100.335 76.5834C100.506 76.9529 100.518 77.3379 100.372 77.7386C100.24 78.0991 99.9723 78.4102 99.5699 78.6718C99.171 78.9233 98.7081 79.1172 98.1811 79.2536C97.654 79.3901 97.097 79.453 96.5102 79.4426C95.9333 79.4358 95.3945 79.3407 94.8937 79.1573C94.3428 78.9556 93.874 78.7157 93.4874 78.4378C93.1107 78.1635 92.8125 77.8612 92.5927 77.5308C92.3829 77.2041 92.2529 76.8611 92.2027 76.502C92.1625 76.1465 92.2084 75.7884 92.3405 75.4278C92.5239 74.927 92.7768 74.5312 93.0991 74.2403C93.4315 73.9531 93.8025 73.7311 94.212 73.5744C94.6316 73.4213 95.0852 73.3148 95.5729 73.2549C96.0706 73.1986 96.5696 73.1542 97.07 73.1216C97.2696 73.1038 97.4305 73.0832 97.5527 73.0598C97.6785 73.0264 97.7867 72.9637 97.8771 72.8719C97.9775 72.7837 98.069 72.6582 98.1514 72.4953C98.2374 72.3223 98.3336 72.0906 98.44 71.8001C98.6014 71.3594 98.8237 70.9694 99.107 70.6301C99.394 70.2809 99.7327 70.0073 100.123 69.8095C100.527 69.6054 100.978 69.4921 101.475 69.4695C101.981 69.4506 102.525 69.5475 103.106 69.7603C103.346 69.8483 103.576 69.9664 103.794 70.1145C104.016 70.2527 104.199 70.4217 104.341 70.6216C104.498 70.8151 104.599 71.0341 104.646 71.2784C104.706 71.5164 104.687 71.7706 104.588 72.0411C104.467 72.3716 104.284 72.6396 104.038 72.845C103.793 73.0504 103.516 73.1992 103.21 73.2914C102.904 73.3837 102.589 73.4217 102.265 73.4055C101.942 73.3892 101.64 73.3298 101.359 73.2271C101.219 73.1757 101.088 73.1162 100.965 73.0485C100.842 72.9807 100.759 72.9277 100.716 72.8893L100.792 72.7296C100.904 72.8273 101.115 72.9331 101.425 73.0468C101.726 73.1568 102.012 73.1821 102.284 73.1226C102.565 73.0667 102.818 72.9661 103.042 72.8208C103.265 72.6755 103.452 72.5055 103.603 72.3108C103.764 72.1198 103.876 71.9392 103.938 71.7689C104.107 71.3082 104.094 70.9231 103.901 70.6137C103.708 70.3044 103.371 70.0616 102.89 69.8856C102.449 69.7242 102.042 69.6886 101.668 69.7789C101.298 69.8592 100.968 70.0165 100.677 70.251C100.391 70.4754 100.143 70.7482 99.9344 71.0695C99.7296 71.3807 99.574 71.6815 99.4676 71.972C99.3282 72.3526 99.1307 72.6438 98.8751 72.8455C98.6194 73.0472 98.287 73.164 97.8777 73.1959C97.4211 73.2331 96.9644 73.2704 96.5078 73.3076C96.0611 73.3485 95.6399 73.4441 95.244 73.5945C94.8518 73.7349 94.4927 73.9555 94.1667 74.2564C93.8544 74.551 93.5955 74.9787 93.3901 75.5396C93.2764 75.8501 93.2296 76.1794 93.2498 76.5276C93.2699 76.8758 93.353 77.2072 93.499 77.5219C93.6487 77.8267 93.8581 78.1078 94.1273 78.3654C94.4064 78.6267 94.7413 78.8289 95.132 78.9719C95.4926 79.104 95.8933 79.1883 96.3343 79.2248C96.7753 79.2614 97.2014 79.23 97.6127 79.1307C98.0339 79.0351 98.4152 78.8623 98.7566 78.6125C99.1017 78.3526 99.3568 77.9973 99.5218 77.5466C99.6832 77.1059 99.716 76.7374 99.6201 76.441C99.5241 76.1446 99.2759 75.923 98.8752 75.7763C98.6649 75.6992 98.4449 75.6641 98.2152 75.6709C97.9892 75.6676 97.7622 75.6981 97.5342 75.7623C97.3099 75.8165 97.0883 75.8943 96.8694 75.9959C96.6604 76.1011 96.4715 76.2137 96.3027 76.3336L96.225 76.22Z" fill="#1E1E1E"/>
<path d="M15.1472 34.4133C14.5718 34.5888 14.0344 34.8464 13.5351 35.1861C13.0395 35.5158 12.5612 35.8915 12.1 36.3133C11.6488 36.7388 11.2104 37.1916 10.7846 37.6718C10.3688 38.1557 9.95125 38.6446 9.53183 39.1385C9.11608 39.6224 8.68897 40.0907 8.2505 40.5435C7.82572 40.99 7.37188 41.3918 6.88898 41.7488L6.90802 41.7899C7.3249 41.6131 7.77965 41.4105 8.27228 41.182C8.77493 40.9571 9.28809 40.7191 9.81176 40.4678C10.3454 40.2202 10.876 39.9658 11.4033 39.7046C11.9306 39.4433 12.4343 39.1847 12.9142 38.9288C13.4042 38.6766 13.8567 38.4334 14.2719 38.1992C14.6908 37.9551 15.0449 37.7326 15.3342 37.5318C15.4273 37.4637 15.567 37.3615 15.7532 37.2252C15.9494 37.0926 16.1612 36.9487 16.3885 36.7934C16.6194 36.628 16.8672 36.4632 17.1319 36.2988C17.3965 36.1345 17.652 35.9952 17.8983 35.8809C18.1483 35.7566 18.3804 35.6656 18.5947 35.6077C18.809 35.5499 18.9863 35.5467 19.1265 35.598C19.1766 35.6164 19.2143 35.6529 19.2397 35.7076C19.2688 35.7524 19.2705 35.8098 19.2448 35.8799C19.2228 35.94 19.1721 36.0009 19.0926 36.0627C19.0169 36.1145 18.9293 36.1676 18.8298 36.2221C18.744 36.2702 18.6483 36.3146 18.5424 36.3554C18.4366 36.3961 18.3445 36.4306 18.2661 36.4586C17.7097 36.6752 17.2087 36.9574 16.7632 37.3055C16.3214 37.6435 15.8986 38.0225 15.4948 38.4426C15.1011 38.8664 14.7218 39.3125 14.3572 39.781C13.9961 40.2395 13.6183 40.6975 13.2235 41.155C12.8425 41.6061 12.4332 42.0413 11.9957 42.4604C11.572 42.8732 11.0922 43.237 10.5566 43.552L10.5756 43.5931C11.1501 43.4513 11.7806 43.296 12.4672 43.1272C13.1538 42.9583 13.8496 42.7644 14.5545 42.5455C15.2732 42.3202 15.9809 42.0626 16.6778 41.7725C17.3848 41.4862 18.0439 41.1596 18.6554 40.7928C19.2704 40.416 19.8228 39.9935 20.3123 39.5253C20.8018 39.0571 21.1885 38.5285 21.4724 37.9395C21.3842 37.8391 21.3302 37.7228 21.3105 37.5906C21.3044 37.4521 21.3252 37.3177 21.3729 37.1875C21.4316 37.0272 21.5344 36.9172 21.6812 36.8574C21.8418 36.7912 22.0072 36.7893 22.1775 36.8517C22.2977 36.8957 22.3868 36.9624 22.4449 37.0519C22.5167 37.1349 22.5612 37.2307 22.5782 37.3392C22.609 37.4414 22.6142 37.5512 22.5939 37.6687C22.5773 37.7762 22.5506 37.88 22.5139 37.9802C22.3525 38.4209 22.0567 38.8408 21.6266 39.2399C21.2065 39.6426 20.7112 40.0179 20.1409 40.3656C19.5705 40.7133 18.945 41.0409 18.2645 41.3483C17.5976 41.6493 16.9318 41.9166 16.2669 42.1503C15.612 42.3875 14.985 42.5952 14.3859 42.7734C13.7867 42.9516 13.2747 43.0935 12.8498 43.1991C12.5507 43.2714 12.2261 43.3513 11.876 43.4389C11.5295 43.5164 11.1862 43.6009 10.846 43.6921C10.5196 43.7771 10.2082 43.8675 9.91178 43.9634C9.61905 44.0493 9.3769 44.1367 9.18532 44.2256L9.13919 44.0724C9.68318 43.7036 10.1918 43.2765 10.6649 42.7909C11.1418 42.2953 11.6041 41.7774 12.0518 41.2371C12.5033 40.6867 12.9547 40.1364 13.4062 39.5861C13.8676 39.0395 14.3431 38.532 14.8327 38.0638L14.8081 38.0378C14.3272 38.3274 13.761 38.6483 13.1095 39.0004C12.458 39.3525 11.7642 39.7118 11.0279 40.0783C10.2953 40.4347 9.54767 40.7857 8.78502 41.1312C8.03605 41.4703 7.31495 41.7799 6.62171 42.0599C6.42011 42.1451 6.23538 42.2308 6.0675 42.317C5.90964 42.4069 5.76729 42.4854 5.64046 42.5525C5.51364 42.6197 5.39415 42.6668 5.28199 42.6939C5.17986 42.7246 5.0737 42.7198 4.96352 42.6795C4.8233 42.6281 4.77152 42.5524 4.8082 42.4522C4.83021 42.3921 4.88728 42.3448 4.9794 42.3104C5.07152 42.276 5.17549 42.2402 5.29132 42.2031C5.40714 42.166 5.51612 42.1321 5.61825 42.1014C5.73408 42.0643 5.82486 42.018 5.8906 41.9625C6.36447 41.5681 6.80244 41.1321 7.20451 40.6546C7.6166 40.1808 8.01366 39.7014 8.39569 39.2165C8.7814 38.7217 9.17529 38.2355 9.57735 37.7579C9.98309 37.2704 10.4165 36.8157 10.8777 36.3939C11.3489 35.9758 11.866 35.6029 12.4291 35.2752C13.0058 34.9411 13.6561 34.6852 14.3801 34.5073L14.3611 34.4662C13.9755 34.4954 13.5385 34.4944 13.0502 34.4632C12.5618 34.4321 12.0528 34.4104 11.5234 34.3982C11.0076 34.3798 10.4914 34.3781 9.97462 34.3933C9.45786 34.4086 8.97518 34.4704 8.52657 34.5787C8.09164 34.6807 7.70714 34.8466 7.37307 35.0764C7.05269 35.2998 6.81913 35.6119 6.67241 36.0125C6.53669 36.3831 6.53231 36.7053 6.65927 36.9789C6.78623 37.2526 7.00997 37.4482 7.33048 37.5655C7.56086 37.6499 7.7877 37.6819 8.01102 37.6614C8.23434 37.641 8.43861 37.5795 8.62385 37.4769C8.81909 37.378 8.98662 37.2463 9.12643 37.0816C9.26623 36.917 9.37098 36.7395 9.44068 36.5492C9.46269 36.4891 9.47969 36.4272 9.49168 36.3634C9.51369 36.3033 9.53069 36.2414 9.54268 36.1776L9.72297 36.2437C9.71098 36.3074 9.69398 36.3694 9.67197 36.4295C9.65998 36.4932 9.64298 36.5551 9.62097 36.6152C9.52927 36.8656 9.39799 37.0845 9.22715 37.2719C9.05997 37.4492 8.86691 37.5886 8.64796 37.6902C8.43903 37.7954 8.20788 37.8528 7.95452 37.8622C7.71483 37.8653 7.46979 37.821 7.21939 37.7293C6.79871 37.5753 6.49216 37.3267 6.29975 36.9836C6.11734 36.6442 6.10868 36.2491 6.27374 35.7984C6.43881 35.3476 6.70022 35.006 7.05799 34.7736C7.42944 34.5347 7.87136 34.3671 8.38374 34.2708C8.89612 34.1745 9.47445 34.1307 10.1187 34.1394C10.763 34.1482 11.4387 34.1798 12.1457 34.2343C12.7316 34.2784 13.2031 34.3091 13.5603 34.3263C13.9276 34.3472 14.2192 34.3575 14.4351 34.357C14.6511 34.3566 14.8065 34.3511 14.9013 34.3403C15.0098 34.3233 15.0864 34.3002 15.1311 34.2711L15.1472 34.4133Z" fill="#1E1E1E"/>
<circle cx="57.2318" cy="56.63" r="19.2359" transform="rotate(21.613 57.2318 56.63)" stroke="#1E1E1E"/>
<path d="M54.4324 49.7887L71.1116 22.0154L57.5066 56.3549L54.4324 49.7887Z" fill="#FFF5DC" stroke="#1E1E1E" stroke-width="0.75"/>
<path d="M63.8582 53.4147L91.9581 70.2233L57.3356 56.5061L63.8582 53.4147Z" fill="#FFF5DC" stroke="#1E1E1E" stroke-width="0.75"/>
<path d="M60.5587 62.9721L43.7501 91.0719L57.5046 56.3551L60.5587 62.9721Z" fill="#FFF5DC" stroke="#1E1E1E" stroke-width="0.75"/>
<path d="M51.0768 59.4838L22.977 42.6752L57.5052 56.3549L51.0768 59.4838Z" fill="#FFF5DC" stroke="#1E1E1E" stroke-width="0.75"/>
<path d="M71.1112 22.0155L57.5436 56.2607L63.8463 53.3004L71.1112 22.0155Z" fill="#1E1E1E" stroke="#1E1E1E" stroke-width="0.75"/>
<path d="M91.9035 70.2009L57.6201 56.6182L60.5804 62.921L91.9035 70.2009Z" fill="#1E1E1E" stroke="#1E1E1E" stroke-width="0.75"/>
<path d="M43.7688 90.7513L57.3364 56.5062L51.0337 59.4664L43.7688 90.7513Z" fill="#1E1E1E" stroke="#1E1E1E" stroke-width="0.75"/>
<path d="M23.0143 42.5808L57.2595 56.1485L54.2993 49.8457L23.0143 42.5808Z" fill="#1E1E1E" stroke="#1E1E1E" stroke-width="0.75"/>
<path d="M84.2445 44.7915L64.1987 51.5844L63.7146 53.3573L65.6779 54.4626L84.2445 44.7915Z" fill="#1E1E1E" stroke="#1E1E1E" stroke-width="0.75"/>
<path d="M30.3732 68.0894L50.419 61.2964L50.9031 59.5236L48.9397 58.4183L30.3732 68.0894Z" fill="#1E1E1E" stroke="#1E1E1E" stroke-width="0.75"/>
<path d="M69.2023 83.5827L62.4093 63.5369L60.6365 63.0528L59.5312 65.0162L69.2023 83.5827Z" fill="#1E1E1E" stroke="#1E1E1E" stroke-width="0.75"/>
<path d="M45.7713 29.2215L52.5642 49.2673L54.3371 49.7514L55.4424 47.788L45.7713 29.2215Z" fill="#1E1E1E" stroke="#1E1E1E" stroke-width="0.75"/>
</svg>
