<svg width="85" height="84" viewBox="0 0 85 84" fill="none" xmlns="http://www.w3.org/2000/svg">
<path d="M65.197 9.00217C65.3813 8.96825 65.5371 8.87435 65.6644 8.72047C65.8027 8.56143 65.9006 8.40154 65.9579 8.24079C66.0153 8.08005 66.0049 7.93138 65.9268 7.79479C65.8596 7.65303 65.7376 7.55061 65.5607 7.48752C65.2955 7.39289 64.9907 7.3838 64.6463 7.46026C64.3019 7.53671 63.9513 7.65621 63.5943 7.81877C63.2373 7.98132 62.8932 8.17114 62.5621 8.38822C62.2309 8.6053 61.942 8.80572 61.6952 8.98949C60.9079 9.59646 60.101 10.2962 59.2747 11.0885C58.4564 11.8838 57.6387 12.7155 56.8216 13.5837L56.7372 13.5536C57.0028 13.1138 57.2159 12.6689 57.3765 12.2188C57.5199 11.8169 57.6377 11.4105 57.73 10.9995C57.8223 10.5885 57.912 10.172 57.9991 9.75006C58.0834 9.33617 58.1716 8.92371 58.2639 8.51269C58.3562 8.10166 58.474 7.69523 58.6174 7.29337C58.669 7.1487 58.7192 7.00805 58.768 6.87142C58.8276 6.72962 58.8847 6.58237 58.9392 6.42967L58.9151 6.42106C58.6476 6.68806 58.3208 7.01995 57.9347 7.41671C57.5594 7.8083 57.1419 8.21656 56.6823 8.64147C56.2306 9.06925 55.7483 9.48155 55.2353 9.87835C54.7303 10.278 54.2183 10.6209 53.6995 10.9069C53.1916 11.1877 52.6908 11.3851 52.1972 11.4989C51.7036 11.6127 51.2398 11.5922 50.8058 11.4373C50.7093 11.4029 50.6132 11.355 50.5173 11.2936C50.4134 11.2294 50.3258 11.1573 50.2546 11.0776C50.1754 10.9949 50.122 10.9034 50.0944 10.803C50.0588 10.6997 50.061 10.5917 50.1012 10.4792C50.1471 10.3506 50.2285 10.2619 50.3456 10.2131C50.4656 10.1562 50.5898 10.1507 50.7184 10.1966C50.8229 10.2339 50.8984 10.3016 50.945 10.3997C50.9863 10.487 50.9883 10.5828 50.9511 10.6873C50.931 10.7436 50.9015 10.801 50.8624 10.8596C50.8183 10.9072 50.7611 10.9276 50.6911 10.9207C50.6848 10.9638 50.7078 11.0264 50.7601 11.1084C50.8123 11.1905 50.9148 11.2588 51.0675 11.3132C51.4372 11.4452 51.8459 11.4551 52.2936 11.343C52.7522 11.2258 53.226 11.0279 53.715 10.7493C54.212 10.4736 54.7144 10.1319 55.2223 9.72423C55.7411 9.31135 56.2441 8.87925 56.7313 8.42792C57.2265 7.97946 57.7002 7.52785 58.1524 7.07309C58.6074 6.6103 59.0172 6.18569 59.3815 5.79926C59.4263 5.72463 59.4793 5.63937 59.5407 5.54349C59.613 5.44244 59.6945 5.35373 59.7852 5.27736C59.8787 5.19295 59.9786 5.12891 60.0848 5.08526C60.199 5.04447 60.3123 5.04414 60.4249 5.08429C60.3721 5.15606 60.3098 5.22898 60.2381 5.30305C60.1692 5.36908 60.0972 5.45664 60.0221 5.56573C59.9469 5.67481 59.8657 5.81346 59.7785 5.98168C59.6942 6.14185 59.6033 6.35857 59.5058 6.63183C59.3882 6.96135 59.2947 7.29947 59.2254 7.6462C59.1589 7.98489 59.0922 8.33707 59.0251 8.70274C58.9581 9.0684 58.8827 9.44469 58.799 9.83161C58.7153 10.2185 58.5989 10.6209 58.4498 11.0389C58.3667 11.2719 58.2646 11.5073 58.1435 11.745C58.0225 11.9827 57.8701 12.2318 57.6865 12.4925L57.702 12.5252C57.9614 12.2554 58.2538 11.9565 58.5792 11.6286C58.9074 11.2927 59.2437 10.9597 59.588 10.6295C59.9403 10.3022 60.2938 9.9844 60.6484 9.67605C61.0031 9.36769 61.3299 9.09924 61.6289 8.87069C62.0622 8.54509 62.4811 8.25967 62.8857 8.01444C63.2932 7.76117 63.6835 7.55613 64.0565 7.39931C64.4296 7.24248 64.7771 7.14451 65.0991 7.10537C65.424 7.0582 65.715 7.0805 65.9722 7.17226C66.2455 7.26976 66.4352 7.42354 66.5415 7.63359C66.6587 7.83848 66.6771 8.05344 66.5968 8.27848C66.5452 8.42315 66.4657 8.54429 66.3584 8.6419C66.2591 8.74239 66.1426 8.82767 66.0089 8.89774C65.8781 8.95977 65.7394 9.00545 65.5931 9.03477C65.4467 9.06409 65.3061 9.07733 65.1712 9.07451L65.197 9.00217Z" fill="#1E1E1E"/>
<path d="M25.2229 77.3415C25.4078 77.4075 25.5286 77.5004 25.5855 77.6204C25.6533 77.7351 25.6628 77.8608 25.614 77.9975C25.571 78.118 25.4976 78.2096 25.3937 78.2722C25.2927 78.3268 25.1819 78.3326 25.0614 78.2895C25.0212 78.2752 24.9758 78.25 24.9253 78.2138C24.8857 78.1725 24.861 78.1274 24.8512 78.0787C24.7284 78.1436 24.6265 78.2386 24.5456 78.3637C24.4728 78.4918 24.4091 78.6321 24.3546 78.7848C24.2801 78.9938 24.2566 79.2119 24.2842 79.4392C24.3199 79.6694 24.4043 79.8898 24.5376 80.1004C24.6788 80.3139 24.8663 80.5122 25.1 80.6952C25.3337 80.8783 25.6113 81.0271 25.9327 81.1418C26.4793 81.3368 26.9858 81.3771 27.4525 81.2628C27.9191 81.1484 28.3378 80.9399 28.7085 80.6373C29.0821 80.3266 29.4057 79.9528 29.6794 79.5159C29.9531 79.079 30.1728 78.641 30.3385 78.2018C30.6018 77.4894 30.8995 76.8708 31.2317 76.346C31.5719 75.8241 31.9328 75.4093 32.3145 75.1015C32.707 74.7885 33.1228 74.5881 33.5619 74.5001C34.009 74.415 34.4697 74.4571 34.9439 74.6263C35.3698 74.7782 35.6782 75.006 35.8688 75.3096C36.0624 75.6052 36.1003 75.9177 35.9828 76.2472C35.891 76.5044 35.7298 76.6643 35.499 76.727C35.2763 76.7925 35.0404 76.7808 34.7913 76.6919C34.9284 76.5868 35.04 76.4771 35.1261 76.3629C35.2202 76.2515 35.3017 76.0994 35.3705 75.9065C35.4737 75.6171 35.4653 75.374 35.3453 75.1772C35.2281 74.9723 35.053 74.8283 34.8199 74.7451C34.5065 74.6333 34.2143 74.6015 33.9434 74.6498C33.6834 74.693 33.4383 74.7958 33.2082 74.9583C32.978 75.1208 32.7631 75.3295 32.5635 75.5845C32.3718 75.8422 32.1891 76.1259 32.0152 76.4353C31.8443 76.7367 31.6811 77.0545 31.5256 77.3886C31.3782 77.7256 31.2322 78.0586 31.0877 78.3875C30.7361 79.1953 30.3422 79.8294 29.9061 80.2899C29.4809 80.7452 29.0381 81.072 28.5778 81.2702C28.1175 81.4683 27.6515 81.5557 27.1796 81.5323C26.7078 81.509 26.2468 81.417 25.7967 81.2564C25.4351 81.1273 25.123 80.9481 24.8606 80.7185C24.6034 80.4999 24.4021 80.2514 24.2568 79.9731C24.1144 79.6867 24.0371 79.3828 24.0249 79.0613C24.0047 78.737 24.0549 78.4061 24.1753 78.0685C24.2757 77.7872 24.4231 77.5771 24.6177 77.4381C24.8122 77.2992 25.014 77.2669 25.2229 77.3415Z" fill="#1E1E1E"/>
<path d="M76.5633 59.538C76.9467 59.2979 77.3423 59.1412 77.75 59.0677C78.1656 58.9975 78.5868 59.0493 79.0136 59.2231C79.4403 59.397 79.7153 59.638 79.8385 59.9462C79.965 60.2465 79.9638 60.5547 79.835 60.8708C79.7191 61.1553 79.4965 61.3963 79.1673 61.5939C78.8412 61.7836 78.4656 61.9254 78.0403 62.0194C77.615 62.1133 77.1679 62.1477 76.699 62.1226C76.238 62.1006 75.81 62.0092 75.4148 61.8482C74.9802 61.6711 74.6123 61.466 74.3111 61.2327C74.0178 61.0026 73.788 60.7524 73.6218 60.482C73.4634 60.2147 73.3693 59.9368 73.3395 59.6482C73.3175 59.3629 73.3645 59.0779 73.4804 58.7934C73.6413 58.3983 73.8548 58.0891 74.1209 57.8657C74.3949 57.6456 74.6978 57.4788 75.0297 57.3652C75.3695 57.2549 75.7352 57.1827 76.1268 57.1487C76.5264 57.118 76.9266 57.0968 77.3276 57.085C77.4877 57.0766 77.6169 57.0647 77.7153 57.0495C77.8168 57.0263 77.9051 56.9794 77.98 56.9085C78.0628 56.8409 78.1395 56.7432 78.2101 56.6153C78.2838 56.4794 78.3674 56.2969 78.4607 56.0678C78.6024 55.72 78.7913 55.4146 79.0275 55.1515C79.2669 54.8804 79.5456 54.6715 79.8634 54.5245C80.1924 54.3729 80.5558 54.2952 80.9535 54.2914C81.3592 54.2908 81.7912 54.3838 82.2496 54.5706C82.4392 54.6478 82.6192 54.7488 82.7896 54.8735C82.9632 54.9903 83.1041 55.1306 83.2124 55.2945C83.3318 55.4537 83.4068 55.6317 83.4372 55.8284C83.4788 56.0204 83.4561 56.2231 83.3692 56.4364C83.2629 56.6972 83.1087 56.9062 82.9064 57.0634C82.7042 57.2206 82.4793 57.3317 82.2316 57.3966C81.984 57.4616 81.7311 57.483 81.473 57.4608C81.2148 57.4385 80.9751 57.3823 80.7538 57.2922C80.6432 57.2471 80.5397 57.1957 80.4434 57.1381C80.3471 57.0804 80.2825 57.0357 80.2494 57.0037L80.3144 56.8782C80.401 56.9595 80.5668 57.0501 80.8118 57.1499C81.0489 57.2465 81.2769 57.2749 81.4958 57.2351C81.7227 57.1985 81.9275 57.1253 82.1105 57.0156C82.2934 56.9058 82.4479 56.7752 82.5741 56.6239C82.7081 56.4758 82.8025 56.3346 82.8572 56.2002C83.0053 55.8367 83.0065 55.5285 82.8607 55.2756C82.715 55.0228 82.4524 54.819 82.0731 54.6645C81.7254 54.5229 81.4008 54.4828 81.0993 54.5442C80.801 54.5978 80.5325 54.7142 80.2937 54.8933C80.0581 55.0645 79.8523 55.2756 79.6764 55.5264C79.5037 55.7693 79.3707 56.0054 79.2773 56.2346C79.155 56.5349 78.9888 56.762 78.7786 56.916C78.5685 57.0699 78.2993 57.1538 77.9712 57.1676C77.6051 57.1843 77.2389 57.201 76.8728 57.2176C76.5145 57.2376 76.175 57.302 75.8542 57.4108C75.5366 57.5118 75.2432 57.6779 74.9739 57.9092C74.7158 58.1357 74.4966 58.4703 74.3163 58.9128C74.2165 59.1578 74.1697 59.4198 74.1758 59.6987C74.182 59.9776 74.2389 60.245 74.3466 60.5008C74.4576 60.7487 74.6169 60.9795 74.8248 61.1932C75.0405 61.41 75.3024 61.5813 75.6106 61.7068C75.8951 61.8227 76.2132 61.9016 76.5647 61.9434C76.9162 61.9853 77.2578 61.9724 77.5894 61.9048C77.9289 61.8404 78.2387 61.7132 78.5188 61.5232C78.8021 61.3254 79.0162 61.0486 79.1611 60.693C79.3028 60.3453 79.3395 60.0516 79.2713 59.8119C79.2031 59.5721 79.0109 59.3879 78.6948 59.2591C78.5289 59.1915 78.354 59.1571 78.1702 59.156C77.9896 59.1469 77.8072 59.1647 77.6231 59.2095C77.4422 59.2464 77.2628 59.3023 77.0849 59.3773C76.9148 59.4554 76.7606 59.54 76.6221 59.631L76.5633 59.538Z" fill="#1E1E1E"/>
<path d="M10.863 26.8148C10.4038 26.9591 9.97568 27.1687 9.57855 27.4438C9.18429 27.7108 8.8041 28.0146 8.43798 28.3551C8.0799 28.6985 7.73216 29.0637 7.39476 29.4507C7.0654 29.8405 6.7346 30.2344 6.40237 30.6323C6.07301 31.0221 5.73446 31.3997 5.38672 31.7648C5.04989 32.1249 4.68951 32.4493 4.30558 32.7381L4.32109 32.7708C4.6534 32.6267 5.01584 32.4615 5.40841 32.2754C5.80901 32.0922 6.21794 31.8983 6.63518 31.6938C7.06046 31.4922 7.48316 31.2852 7.90327 31.0727C8.32338 30.8601 8.72455 30.6499 9.10678 30.442C9.49705 30.237 9.85747 30.0394 10.188 29.8493C10.5215 29.6512 10.8033 29.4708 11.0334 29.3083C11.1074 29.2532 11.2185 29.1705 11.3665 29.0602C11.5226 28.9528 11.6911 28.8363 11.8718 28.7105C12.0555 28.5767 12.2526 28.4432 12.4632 28.3099C12.6739 28.1767 12.8773 28.0636 13.0736 27.9705C13.2728 27.8694 13.4578 27.795 13.6289 27.7473C13.7999 27.6996 13.9417 27.6959 14.0542 27.736C14.0944 27.7503 14.1248 27.7793 14.1455 27.8229C14.1691 27.8585 14.1708 27.9044 14.1507 27.9607C14.1335 28.0089 14.0934 28.058 14.0302 28.108C13.97 28.1499 13.9002 28.193 13.821 28.2372C13.7528 28.2763 13.6764 28.3124 13.5921 28.3458C13.5077 28.3791 13.4342 28.4072 13.3717 28.4302C12.928 28.6071 12.5291 28.8363 12.175 29.1177C11.8238 29.391 11.4881 29.6971 11.1679 30.0358C10.8558 30.3775 10.5554 30.7369 10.2668 31.1141C9.98104 31.4833 9.68181 31.8522 9.36909 32.2208C9.06727 32.5842 8.74277 32.9351 8.3956 33.2733C8.05933 33.6063 7.67799 33.9006 7.25158 34.1562L7.26709 34.1889C7.72569 34.0717 8.22906 33.9432 8.7772 33.8035C9.32534 33.6639 9.88065 33.5041 10.4431 33.3243C11.0165 33.1393 11.581 32.9284 12.1366 32.6918C12.7002 32.458 13.2253 32.1923 13.712 31.8948C14.2015 31.5893 14.6405 31.2476 15.029 30.8698C15.4175 30.492 15.7233 30.0666 15.9465 29.5935C15.8753 29.5137 15.8313 29.421 15.8146 29.3154C15.8089 29.2047 15.8246 29.097 15.8619 28.9925C15.9078 28.8639 15.9893 28.7752 16.1064 28.7264C16.2343 28.6724 16.3666 28.6698 16.5033 28.7185C16.5997 28.7529 16.6715 28.8057 16.7186 28.8769C16.7766 28.9429 16.8128 29.0192 16.8271 29.1059C16.8524 29.1874 16.8573 29.2752 16.8419 29.3694C16.8293 29.4555 16.8086 29.5387 16.7799 29.6191C16.6538 29.9727 16.42 30.3106 16.0785 30.6327C15.7451 30.9577 15.3515 31.2612 14.8975 31.5432C14.4435 31.8252 13.9454 32.0914 13.403 32.3418C12.8715 32.5871 12.3407 32.8054 11.8103 32.9967C11.288 33.1909 10.7878 33.3612 10.3097 33.5077C9.83161 33.6543 9.42295 33.7712 9.08374 33.8586C8.84497 33.9183 8.58582 33.9844 8.3063 34.0568C8.02964 34.1212 7.75557 34.191 7.48409 34.2663C7.22351 34.3364 6.97498 34.4108 6.73851 34.4896C6.50491 34.5602 6.31178 34.6318 6.15911 34.7041L6.12119 34.5819C6.5539 34.2833 6.9579 33.9381 7.33318 33.5465C7.71134 33.1469 8.07771 32.7295 8.43232 32.2943C8.78979 31.851 9.14726 31.4078 9.50474 30.9645C9.87025 30.5242 10.2472 30.115 10.6357 29.7372L10.6159 29.7166C10.2331 29.9515 9.78233 30.2119 9.26351 30.4979C8.74469 30.784 8.192 31.076 7.60545 31.3741C7.02177 31.6642 6.42603 31.9499 5.81824 32.2314C5.22135 32.5077 4.64655 32.7601 4.09385 32.9888C3.93315 33.0583 3.78593 33.128 3.65221 33.1981C3.52652 33.2711 3.41318 33.3348 3.31217 33.3894C3.21116 33.4439 3.11588 33.4824 3.02634 33.5048C2.94484 33.5301 2.85989 33.527 2.77148 33.4954C2.65896 33.4553 2.61704 33.395 2.64571 33.3147C2.66292 33.2664 2.70825 33.2283 2.78172 33.2001C2.85518 33.172 2.93812 33.1427 3.03053 33.1122C3.12293 33.0818 3.20989 33.0539 3.29139 33.0286C3.3838 32.9982 3.45611 32.9605 3.50833 32.9158C3.88479 32.5971 4.23224 32.2454 4.5507 31.8607C4.8772 31.4789 5.19164 31.0927 5.49402 30.7023C5.79927 30.3038 6.11113 29.9123 6.42958 29.5276C6.75091 29.1349 7.09463 28.7682 7.46074 28.4277C7.8349 28.0901 8.24608 27.7883 8.69431 27.5224C9.15343 27.2513 9.67199 27.0422 10.25 26.8951L10.2345 26.8624C9.92623 26.8883 9.57666 26.8904 9.18575 26.8688C8.79484 26.8471 8.38757 26.8331 7.96394 26.8269C7.55122 26.8156 7.13822 26.8177 6.72494 26.8334C6.31165 26.849 5.92593 26.9016 5.56777 26.9913C5.22052 27.0758 4.91404 27.211 4.64833 27.3971C4.39352 27.578 4.20877 27.8292 4.09407 28.1507C3.98797 28.448 3.98661 28.7058 4.09 28.9239C4.19339 29.142 4.37368 29.2969 4.63087 29.3887C4.81572 29.4546 4.9974 29.4787 5.17592 29.4608C5.35443 29.443 5.51743 29.3924 5.66493 29.3091C5.82046 29.2287 5.9536 29.1222 6.06434 28.9896C6.17509 28.8569 6.2577 28.7143 6.31218 28.5616C6.32939 28.5133 6.34258 28.4637 6.35174 28.4126C6.36895 28.3644 6.38214 28.3147 6.39131 28.2636L6.53597 28.3152C6.5268 28.3663 6.51362 28.416 6.49641 28.4642C6.48724 28.5153 6.47406 28.5649 6.45685 28.6132C6.38516 28.8141 6.28161 28.9901 6.14619 29.1411C6.01363 29.284 5.86012 29.3969 5.68565 29.4796C5.51921 29.5652 5.33468 29.6126 5.13205 29.6218C4.94033 29.6259 4.74401 29.5921 4.54308 29.5204C4.20553 29.4 3.95864 29.2032 3.80242 28.93C3.65424 28.6597 3.64467 28.3437 3.77371 27.982C3.90275 27.6203 4.1096 27.3453 4.39425 27.157C4.68981 26.9634 5.04221 26.8264 5.45146 26.7459C5.86071 26.6654 6.32306 26.6265 6.83853 26.6293C7.35399 26.632 7.89472 26.6528 8.46071 26.6916C8.92969 26.723 9.30711 26.7444 9.59297 26.7558C9.88687 26.7701 10.1202 26.7763 10.293 26.7746C10.4658 26.7728 10.59 26.7673 10.6658 26.7581C10.7525 26.7437 10.8136 26.7247 10.8492 26.7012L10.863 26.8148Z" fill="#1E1E1E"/>
<circle cx="44.1406" cy="44.6489" r="13.7541" transform="rotate(21.1352 44.1406 44.6489)" stroke="#1E1E1E"/>
<path d="M42.0776 39.7248L53.9564 19.566L44.3374 44.4485L42.0776 39.7248Z" fill="#FFF5DC" stroke="#1E1E1E" stroke-width="0.75"/>
<path d="M48.9069 42.2868L69.3024 54.257L44.2148 44.5588L48.9069 42.2868Z" fill="#FFF5DC" stroke="#1E1E1E" stroke-width="0.75"/>
<path d="M46.5815 49.2091L34.6113 69.6045L44.336 44.4486L46.5815 49.2091Z" fill="#FFF5DC" stroke="#1E1E1E" stroke-width="0.75"/>
<path d="M39.7126 46.747L19.3172 34.7768L44.3364 44.4486L39.7126 46.747Z" fill="#FFF5DC" stroke="#1E1E1E" stroke-width="0.75"/>
<path d="M53.9561 19.5659L44.3636 44.3801L48.8977 42.2042L53.9561 19.5659Z" fill="#1E1E1E" stroke="#1E1E1E" stroke-width="0.75"/>
<path d="M69.2628 54.2412L44.421 44.638L46.5969 49.1722L69.2628 54.2412Z" fill="#1E1E1E" stroke="#1E1E1E" stroke-width="0.75"/>
<path d="M34.6229 69.3728L44.2155 44.5586L39.6813 46.7346L34.6229 69.3728Z" fill="#1E1E1E" stroke="#1E1E1E" stroke-width="0.75"/>
<path d="M19.3436 34.7084L44.1577 44.3009L41.9818 39.7668L19.3436 34.7084Z" fill="#1E1E1E" stroke="#1E1E1E" stroke-width="0.75"/>
<path d="M63.5783 35.9362L49.1418 40.9629L48.8029 42.2462L50.2275 43.0326L63.5783 35.9362Z" fill="#1E1E1E" stroke="#1E1E1E" stroke-width="0.75"/>
<path d="M24.812 53.0868L39.2484 48.06L39.5874 46.7767L38.1628 45.9903L24.812 53.0868Z" fill="#1E1E1E" stroke="#1E1E1E" stroke-width="0.75"/>
<path d="M52.9482 64.0424L47.9215 49.6059L46.6382 49.2669L45.8517 50.6915L52.9482 64.0424Z" fill="#1E1E1E" stroke="#1E1E1E" stroke-width="0.75"/>
<path d="M35.6986 24.9229L40.7253 39.3593L42.0086 39.6983L42.795 38.2737L35.6986 24.9229Z" fill="#1E1E1E" stroke="#1E1E1E" stroke-width="0.75"/>
</svg>
