<svg width="18" height="18" viewBox="0 0 18 18" fill="none" xmlns="http://www.w3.org/2000/svg">
<path fill-rule="evenodd" clip-rule="evenodd" d="M2 0C0.895431 0 0 0.89543 0 2V16C0 17.1046 0.89543 18 2 18H16C17.1046 18 18 17.1046 18 16V2C18 0.895431 17.1046 0 16 0H2ZM15 11.5396V6.47491L10.9545 9.05964L15 11.5396ZM3 11.5396L7.0455 9.05964L3 6.47491V11.5396ZM14.7323 5.17838C14.8659 5.29198 14.9529 5.44832 14.9775 5.61891L9 9.43782L3.0225 5.61891C3.04713 5.44832 3.13413 5.29198 3.26766 5.17838C3.40119 5.06478 3.57237 5.00147 3.75 5H14.25C14.4276 5.00147 14.5988 5.06478 14.7323 5.17838ZM9 10.2367C9.07331 10.2367 9.14502 10.2158 9.20625 10.1767L10.2675 9.49891L14.976 12.3862C14.9506 12.5557 14.8634 12.7108 14.7302 12.8234C14.597 12.936 14.4267 12.9987 14.25 13H3.75C3.57332 12.9987 3.40298 12.936 3.26981 12.8234C3.13664 12.7108 3.04944 12.5557 3.024 12.3862L7.7325 9.49818L8.79375 10.1767C8.85498 10.2158 8.92669 10.2367 9 10.2367Z" fill="#444444"/>
</svg>
