<svg width="341" height="218" viewBox="0 0 341 218" fill="none" xmlns="http://www.w3.org/2000/svg">
<path d="M4.74927 90.5303H329.928V101.019H4.74927V90.5303Z" stroke="#1E1E1E" stroke-width="0.75"/>
<path d="M4.74927 90.5303H45.4968V101.019H4.74927V90.5303Z" stroke="#1E1E1E" stroke-width="0.75"/>
<path d="M45.3823 90.5303H86.1299V101.019H45.3823V90.5303Z" stroke="#1E1E1E" stroke-width="0.75"/>
<path d="M86.0154 90.5303H167.396V101.019H86.0154V90.5303Z" stroke="#1E1E1E" stroke-width="0.75"/>
<path d="M167.281 90.5303H248.662V101.019H167.281V90.5303Z" stroke="#1E1E1E" stroke-width="0.75"/>
<path d="M248.547 90.5303H329.928V101.019H248.547V90.5303Z" stroke="#1E1E1E" stroke-width="0.75"/>
<path d="M2.86915 107.342V107.055H6.74415V107.342H6.5629C6.14623 107.342 5.87332 107.378 5.74415 107.448C5.61498 107.515 5.52748 107.642 5.48165 107.83C5.43998 108.017 5.41915 108.463 5.41915 109.167V113.323C5.41915 113.99 5.43373 114.428 5.4629 114.636C5.49623 114.84 5.57957 114.992 5.7129 115.092C5.8504 115.192 6.11082 115.242 6.49415 115.242H6.74415V115.53H2.86915V115.242H3.11915C3.48165 115.242 3.73165 115.196 3.86915 115.105C4.01082 115.013 4.1004 114.871 4.1379 114.68C4.1754 114.484 4.19415 114.032 4.19415 113.323V109.167C4.19415 108.492 4.1754 108.057 4.1379 107.861C4.1004 107.665 4.01707 107.53 3.8879 107.455C3.75873 107.38 3.47957 107.342 3.0504 107.342H2.86915Z" fill="#1E1E1E"/>
<path d="M41.1695 107.342V107.055H45.0445V107.342H44.8632C44.4465 107.342 44.1736 107.378 44.0445 107.448C43.9153 107.515 43.8278 107.642 43.782 107.83C43.7403 108.017 43.7195 108.463 43.7195 109.167V113.323C43.7195 113.99 43.734 114.428 43.7632 114.636C43.7965 114.84 43.8799 114.992 44.0132 115.092C44.1507 115.192 44.4111 115.242 44.7945 115.242H45.0445V115.53H41.1695V115.242H41.4195C41.782 115.242 42.032 115.196 42.1695 115.105C42.3111 115.013 42.4007 114.871 42.4382 114.68C42.4757 114.484 42.4945 114.032 42.4945 113.323V109.167C42.4945 108.492 42.4757 108.057 42.4382 107.861C42.4007 107.665 42.3174 107.53 42.1882 107.455C42.059 107.38 41.7799 107.342 41.3507 107.342H41.1695ZM45.835 107.342V107.055H49.71V107.342H49.5287C49.112 107.342 48.8391 107.378 48.71 107.448C48.5808 107.515 48.4933 107.642 48.4475 107.83C48.4058 108.017 48.385 108.463 48.385 109.167V113.323C48.385 113.99 48.3995 114.428 48.4287 114.636C48.462 114.84 48.5454 114.992 48.6787 115.092C48.8162 115.192 49.0766 115.242 49.46 115.242H49.71V115.53H45.835V115.242H46.085C46.4475 115.242 46.6975 115.196 46.835 115.105C46.9766 115.013 47.0662 114.871 47.1037 114.68C47.1412 114.484 47.16 114.032 47.16 113.323V109.167C47.16 108.492 47.1412 108.057 47.1037 107.861C47.0662 107.665 46.9829 107.53 46.8537 107.455C46.7245 107.38 46.4454 107.342 46.0162 107.342H45.835Z" fill="#1E1E1E"/>
<path d="M79.4698 107.342V107.055H83.3448V107.342H83.1635C82.7468 107.342 82.4739 107.378 82.3448 107.448C82.2156 107.515 82.1281 107.642 82.0823 107.83C82.0406 108.017 82.0198 108.463 82.0198 109.167V113.323C82.0198 113.99 82.0343 114.428 82.0635 114.636C82.0968 114.84 82.1802 114.992 82.3135 115.092C82.451 115.192 82.7114 115.242 83.0948 115.242H83.3448V115.53H79.4698V115.242H79.7198C80.0823 115.242 80.3323 115.196 80.4698 115.105C80.6114 115.013 80.701 114.871 80.7385 114.68C80.776 114.484 80.7948 114.032 80.7948 113.323V109.167C80.7948 108.492 80.776 108.057 80.7385 107.861C80.701 107.665 80.6177 107.53 80.4885 107.455C80.3593 107.38 80.0802 107.342 79.651 107.342H79.4698ZM84.1353 107.342V107.055H88.0103V107.342H87.829C87.4123 107.342 87.1394 107.378 87.0103 107.448C86.8811 107.515 86.7936 107.642 86.7478 107.83C86.7061 108.017 86.6853 108.463 86.6853 109.167V113.323C86.6853 113.99 86.6998 114.428 86.729 114.636C86.7623 114.84 86.8457 114.992 86.979 115.092C87.1165 115.192 87.3769 115.242 87.7603 115.242H88.0103V115.53H84.1353V115.242H84.3853C84.7478 115.242 84.9978 115.196 85.1353 115.105C85.2769 115.013 85.3665 114.871 85.404 114.68C85.4415 114.484 85.4603 114.032 85.4603 113.323V109.167C85.4603 108.492 85.4415 108.057 85.404 107.861C85.3665 107.665 85.2832 107.53 85.154 107.455C85.0248 107.38 84.7457 107.342 84.3165 107.342H84.1353ZM88.8008 107.342V107.055H92.6758V107.342H92.4945C92.0778 107.342 91.8049 107.378 91.6758 107.448C91.5466 107.515 91.4591 107.642 91.4133 107.83C91.3716 108.017 91.3508 108.463 91.3508 109.167V113.323C91.3508 113.99 91.3653 114.428 91.3945 114.636C91.4278 114.84 91.5112 114.992 91.6445 115.092C91.782 115.192 92.0424 115.242 92.4258 115.242H92.6758V115.53H88.8008V115.242H89.0508C89.4133 115.242 89.6633 115.196 89.8008 115.105C89.9424 115.013 90.032 114.871 90.0695 114.68C90.107 114.484 90.1258 114.032 90.1258 113.323V109.167C90.1258 108.492 90.107 108.057 90.0695 107.861C90.032 107.665 89.9487 107.53 89.8195 107.455C89.6903 107.38 89.4112 107.342 88.982 107.342H88.8008Z" fill="#1E1E1E"/>
<path d="M159.804 107.342V107.055H163.679V107.342H163.498C163.081 107.342 162.808 107.378 162.679 107.448C162.55 107.515 162.462 107.642 162.416 107.83C162.375 108.017 162.354 108.463 162.354 109.167V113.323C162.354 113.99 162.368 114.428 162.398 114.636C162.431 114.84 162.514 114.992 162.648 115.092C162.785 115.192 163.046 115.242 163.429 115.242H163.679V115.53H159.804V115.242H160.054C160.416 115.242 160.666 115.196 160.804 115.105C160.946 115.013 161.035 114.871 161.073 114.68C161.11 114.484 161.129 114.032 161.129 113.323V109.167C161.129 108.492 161.11 108.057 161.073 107.861C161.035 107.665 160.952 107.53 160.823 107.455C160.693 107.38 160.414 107.342 159.985 107.342H159.804ZM169.126 115.73H168.738L165.813 108.992C165.759 108.871 165.674 108.663 165.557 108.367C165.394 107.967 165.224 107.698 165.044 107.561C164.865 107.423 164.576 107.35 164.176 107.342V107.055H167.826V107.342C167.371 107.342 167.065 107.375 166.907 107.442C166.753 107.509 166.676 107.636 166.676 107.823C166.676 107.944 166.774 108.228 166.969 108.673L169.407 114.298L171.363 109.617C171.692 108.834 171.857 108.323 171.857 108.086C171.857 107.607 171.517 107.359 170.838 107.342V107.055H173.426V107.342C173.163 107.35 172.932 107.444 172.732 107.623C172.532 107.803 172.359 108.065 172.213 108.411L171.644 109.742L169.126 115.73Z" fill="#1E1E1E"/>
<path d="M248.923 115.73H248.536L245.611 108.992C245.557 108.871 245.471 108.663 245.355 108.367C245.192 107.967 245.021 107.698 244.842 107.561C244.663 107.423 244.373 107.35 243.973 107.342V107.055H247.623V107.342C247.169 107.342 246.863 107.375 246.705 107.442C246.551 107.509 246.473 107.636 246.473 107.823C246.473 107.944 246.571 108.228 246.767 108.673L249.205 114.298L251.161 109.617C251.49 108.834 251.655 108.323 251.655 108.086C251.655 107.607 251.315 107.359 250.636 107.342V107.055H253.223V107.342C252.961 107.35 252.73 107.444 252.53 107.623C252.33 107.803 252.157 108.065 252.011 108.411L251.442 109.742L248.923 115.73Z" fill="#1E1E1E"/>
<path d="M327.857 115.73H327.469L324.544 108.992C324.49 108.871 324.405 108.663 324.288 108.367C324.125 107.967 323.955 107.698 323.775 107.561C323.596 107.423 323.307 107.35 322.907 107.342V107.055H326.557V107.342C326.102 107.342 325.796 107.375 325.638 107.442C325.484 107.509 325.407 107.636 325.407 107.823C325.407 107.944 325.505 108.228 325.7 108.673L328.138 114.298L330.094 109.617C330.423 108.834 330.588 108.323 330.588 108.086C330.588 107.607 330.248 107.359 329.569 107.342V107.055H332.157V107.342C331.894 107.35 331.663 107.444 331.463 107.623C331.263 107.803 331.09 108.065 330.944 108.411L330.375 109.742L327.857 115.73ZM332.666 107.342V107.055H336.541V107.342H336.36C335.943 107.342 335.67 107.378 335.541 107.448C335.412 107.515 335.324 107.642 335.278 107.83C335.237 108.017 335.216 108.463 335.216 109.167V113.323C335.216 113.99 335.23 114.428 335.26 114.636C335.293 114.84 335.376 114.992 335.51 115.092C335.647 115.192 335.908 115.242 336.291 115.242H336.541V115.53H332.666V115.242H332.916C333.278 115.242 333.528 115.196 333.666 115.105C333.808 115.013 333.897 114.871 333.935 114.68C333.972 114.484 333.991 114.032 333.991 113.323V109.167C333.991 108.492 333.972 108.057 333.935 107.861C333.897 107.665 333.814 107.53 333.685 107.455C333.555 107.38 333.276 107.342 332.847 107.342H332.666Z" fill="#1E1E1E"/>
<line x1="45.0073" y1="95.832" x2="86.5049" y2="95.832" stroke="#1E1E1E" stroke-width="0.75"/>
<line x1="167.771" y1="95.832" x2="248.172" y2="95.832" stroke="#1E1E1E" stroke-width="0.75"/>
<path d="M114.254 75.525L114.323 77.6375H114.029C113.971 77.175 113.839 76.7937 113.635 76.4937C113.435 76.1896 113.225 76 113.004 75.925C112.783 75.85 112.41 75.8125 111.885 75.8125H110.229V79.4062H111.023C111.535 79.4062 111.875 79.3208 112.041 79.15C112.212 78.975 112.298 78.6271 112.298 78.1062H112.61V81.0937H112.298C112.298 80.7312 112.26 80.4458 112.185 80.2375C112.114 80.025 112.006 79.8812 111.86 79.8062C111.719 79.7271 111.439 79.6875 111.023 79.6875H110.229V81.7937C110.229 82.4604 110.246 82.8979 110.279 83.1062C110.312 83.3104 110.396 83.4625 110.529 83.5625C110.666 83.6625 110.929 83.7125 111.316 83.7125H111.604V84H107.666V83.7125H107.929C108.291 83.7125 108.541 83.6667 108.679 83.575C108.821 83.4833 108.91 83.3417 108.948 83.15C108.989 82.9542 109.01 82.5021 109.01 81.7937V77.6375C109.01 76.9625 108.989 76.5271 108.948 76.3312C108.91 76.1354 108.827 76 108.698 75.925C108.573 75.85 108.296 75.8125 107.866 75.8125H107.716V75.525H114.254ZM121.276 75.525H124.107V75.8125C123.732 75.8375 123.451 75.9229 123.263 76.0687C123.08 76.2104 122.967 76.3708 122.926 76.55C122.884 76.7292 122.863 77.0771 122.863 77.5937V80.4125C122.863 81.1333 122.834 81.6687 122.776 82.0187C122.722 82.3687 122.559 82.7125 122.288 83.05C122.022 83.3875 121.645 83.6562 121.157 83.8562C120.67 84.0563 120.107 84.1563 119.47 84.1563C118.715 84.1563 118.076 84.0292 117.551 83.775C117.03 83.5167 116.657 83.1854 116.432 82.7812C116.211 82.3729 116.101 81.8271 116.101 81.1437L116.107 80.275V77.6375C116.107 76.9625 116.086 76.5271 116.045 76.3312C116.007 76.1354 115.924 76 115.795 75.925C115.67 75.85 115.392 75.8125 114.963 75.8125H114.77V75.525H118.638V75.8125H118.47C118.053 75.8125 117.78 75.8479 117.651 75.9187C117.522 75.9854 117.434 76.1125 117.388 76.3C117.347 76.4875 117.326 76.9333 117.326 77.6375V80.3062C117.326 81.2312 117.367 81.8875 117.451 82.275C117.538 82.6625 117.78 83.0021 118.176 83.2937C118.572 83.5812 119.099 83.725 119.757 83.725C120.274 83.725 120.742 83.6292 121.163 83.4375C121.588 83.2417 121.903 83 122.107 82.7125C122.315 82.4208 122.442 82.1229 122.488 81.8187C122.534 81.5104 122.557 81.0271 122.557 80.3687V77.4812C122.557 77.0021 122.53 76.6667 122.476 76.475C122.422 76.2833 122.305 76.1312 122.126 76.0187C121.947 75.9062 121.663 75.8375 121.276 75.8125V75.525ZM132.398 84.1938L126.404 76.25V82.1312C126.404 82.6187 126.427 82.9396 126.473 83.0937C126.523 83.2479 126.66 83.3896 126.885 83.5187C127.11 83.6479 127.448 83.7125 127.898 83.7125V84H124.735V83.7125C125.139 83.6833 125.448 83.6104 125.66 83.4937C125.873 83.3729 125.998 83.2437 126.035 83.1062C126.077 82.9687 126.098 82.6437 126.098 82.1312V77.6375C126.098 76.9875 126.066 76.5521 126.004 76.3312C125.945 76.1104 125.85 75.9687 125.716 75.9062C125.587 75.8437 125.295 75.8125 124.841 75.8125V75.525H127.341L132.36 82.1562V77.0875C132.36 76.7125 132.32 76.45 132.241 76.3C132.166 76.15 132.01 76.0312 131.773 75.9437C131.535 75.8562 131.25 75.8125 130.916 75.8125V75.525H133.991V75.8125C133.633 75.8417 133.35 75.9104 133.141 76.0187C132.937 76.1271 132.806 76.2583 132.748 76.4125C132.693 76.5625 132.666 76.8187 132.666 77.1812V84.1938H132.398ZM134.544 75.5937L135.938 75.525C137.1 75.4667 137.884 75.4375 138.288 75.4375C139.546 75.4375 140.528 75.6292 141.232 76.0125C141.936 76.3958 142.459 76.9167 142.8 77.575C143.146 78.2292 143.319 78.9854 143.319 79.8437C143.319 80.4646 143.225 81.0333 143.038 81.55C142.85 82.0625 142.592 82.4896 142.263 82.8312C141.938 83.1687 141.559 83.4271 141.125 83.6062C140.696 83.7812 140.288 83.8917 139.9 83.9375C139.513 83.9792 138.967 84 138.263 84H134.507V83.7125H134.857C135.219 83.7125 135.469 83.6667 135.607 83.575C135.748 83.4833 135.838 83.3417 135.875 83.15C135.917 82.9542 135.938 82.5021 135.938 81.7937V77.7062C135.938 77.0312 135.917 76.5958 135.875 76.4C135.838 76.2 135.755 76.0646 135.625 75.9937C135.5 75.9187 135.223 75.8812 134.794 75.8812H134.544V75.5937ZM137.157 75.7687V81.4312C137.157 82.2687 137.171 82.8083 137.2 83.05C137.234 83.2917 137.328 83.4625 137.482 83.5625C137.64 83.6583 137.971 83.7062 138.475 83.7062C139.213 83.7062 139.819 83.6062 140.294 83.4062C140.769 83.2021 141.165 82.8042 141.482 82.2125C141.803 81.6167 141.963 80.8583 141.963 79.9375C141.963 79.2208 141.869 78.5812 141.682 78.0187C141.498 77.4562 141.234 77 140.888 76.65C140.542 76.2958 140.159 76.0562 139.738 75.9312C139.317 75.8021 138.778 75.7375 138.119 75.7375C137.803 75.7375 137.482 75.7479 137.157 75.7687ZM150.381 80.0125V81.7937C150.381 82.4604 150.396 82.8979 150.425 83.1062C150.459 83.3104 150.544 83.4625 150.681 83.5625C150.819 83.6625 151.077 83.7125 151.456 83.7125H151.738V84H147.856V83.7125H148.081C148.444 83.7125 148.694 83.6667 148.831 83.575C148.973 83.4833 149.063 83.3417 149.1 83.15C149.138 82.9542 149.156 82.5021 149.156 81.7937V77.6375C149.156 76.9625 149.138 76.5271 149.1 76.3312C149.063 76.1354 148.979 76 148.85 75.925C148.721 75.85 148.442 75.8125 148.013 75.8125H147.856V75.525L148.919 75.4875C149.769 75.4583 150.431 75.4437 150.906 75.4437C151.781 75.4437 152.454 75.5125 152.925 75.65C153.4 75.7875 153.788 76.0312 154.088 76.3812C154.392 76.7312 154.544 77.1729 154.544 77.7062C154.544 78.1687 154.44 78.5771 154.231 78.9312C154.027 79.2854 153.731 79.5542 153.344 79.7375C152.961 79.9208 152.284 80.0125 151.313 80.0125H150.381ZM150.381 79.7H150.988C151.475 79.7 151.869 79.6521 152.169 79.5562C152.469 79.4562 152.719 79.25 152.919 78.9375C153.119 78.625 153.219 78.2396 153.219 77.7812C153.219 77.0812 153.046 76.5687 152.7 76.2437C152.359 75.9146 151.802 75.75 151.031 75.75C150.748 75.75 150.531 75.7583 150.381 75.775V79.7ZM164.072 84H161.791C161.387 83.7167 160.768 82.975 159.934 81.775C159.668 81.3917 159.391 81.025 159.103 80.675C158.816 80.3208 158.618 80.1062 158.509 80.0312C158.401 79.9521 158.232 79.9125 158.003 79.9125H157.666V81.7937C157.666 82.4604 157.68 82.8979 157.709 83.1062C157.743 83.3104 157.826 83.4625 157.959 83.5625C158.097 83.6625 158.357 83.7125 158.741 83.7125H159.147V84H155.091V83.7125H155.366C155.728 83.7125 155.978 83.6667 156.116 83.575C156.257 83.4833 156.347 83.3417 156.384 83.15C156.422 82.9542 156.441 82.5021 156.441 81.7937V77.6375C156.441 76.9625 156.422 76.5271 156.384 76.3312C156.347 76.1354 156.264 76 156.134 75.925C156.005 75.85 155.726 75.8125 155.297 75.8125H155.153V75.525L156.366 75.4625C157.174 75.425 157.816 75.4062 158.291 75.4062C159.099 75.4062 159.755 75.4812 160.259 75.6312C160.768 75.7812 161.178 76.0271 161.491 76.3687C161.803 76.7104 161.959 77.1187 161.959 77.5937C161.959 78.1479 161.755 78.6208 161.347 79.0125C160.939 79.4042 160.339 79.6479 159.547 79.7437C159.901 79.9146 160.472 80.5312 161.259 81.5937C161.901 82.4562 162.405 83.0208 162.772 83.2875C163.139 83.5542 163.572 83.6958 164.072 83.7125V84ZM157.666 79.625C157.978 79.6167 158.301 79.6042 158.634 79.5875C158.968 79.5708 159.257 79.525 159.503 79.45C159.749 79.375 159.947 79.2667 160.097 79.125C160.251 78.9792 160.372 78.7896 160.459 78.5562C160.547 78.3229 160.591 78.0354 160.591 77.6937C160.591 77.0979 160.441 76.6208 160.141 76.2625C159.845 75.9042 159.197 75.725 158.197 75.725C158.043 75.725 157.866 75.7333 157.666 75.75V79.625ZM163.825 79.7062C163.825 78.3979 164.262 77.3479 165.137 76.5562C166.012 75.7646 167.104 75.3687 168.412 75.3687C169.733 75.3687 170.835 75.7604 171.719 76.5437C172.606 77.3271 173.05 78.3958 173.05 79.75C173.05 81.0625 172.625 82.125 171.775 82.9375C170.929 83.75 169.815 84.1563 168.431 84.1563C167.085 84.1563 165.981 83.75 165.119 82.9375C164.256 82.125 163.825 81.0479 163.825 79.7062ZM165.256 79.75C165.256 81.1125 165.527 82.1354 166.069 82.8187C166.615 83.5021 167.431 83.8437 168.519 83.8437C169.473 83.8437 170.227 83.5021 170.781 82.8187C171.335 82.1354 171.612 81.1167 171.612 79.7625C171.612 78.4458 171.34 77.4375 170.794 76.7375C170.248 76.0333 169.456 75.6812 168.419 75.6812C167.398 75.6812 166.615 76.025 166.069 76.7125C165.527 77.3958 165.256 78.4083 165.256 79.75ZM174.572 83.9125V81.1875H174.884C175.238 82.9625 176.078 83.85 177.403 83.85C177.999 83.85 178.459 83.6812 178.784 83.3437C179.113 83.0021 179.278 82.6208 179.278 82.2C179.278 81.775 179.134 81.4187 178.847 81.1312C178.559 80.8479 178.034 80.5437 177.272 80.2187C176.593 79.9271 176.08 79.6729 175.734 79.4562C175.388 79.2354 175.118 78.95 174.922 78.6C174.73 78.25 174.634 77.8771 174.634 77.4812C174.634 76.8771 174.843 76.375 175.259 75.975C175.68 75.5708 176.211 75.3687 176.853 75.3687C177.211 75.3687 177.549 75.4271 177.866 75.5437C178.182 75.6604 178.507 75.9021 178.841 76.2687C179.032 76.0396 179.141 75.7917 179.166 75.525H179.441V77.7437H179.166C179.007 77.0979 178.726 76.5896 178.322 76.2187C177.922 75.8479 177.457 75.6625 176.928 75.6625C176.424 75.6625 176.053 75.8 175.816 76.075C175.582 76.3458 175.466 76.6437 175.466 76.9687C175.466 77.3604 175.613 77.6917 175.909 77.9625C176.201 78.2375 176.728 78.5458 177.491 78.8875C178.22 79.2125 178.749 79.475 179.078 79.675C179.411 79.8708 179.678 80.1437 179.878 80.4937C180.078 80.8437 180.178 81.2479 180.178 81.7062C180.178 82.4312 179.936 83.0208 179.453 83.475C178.97 83.9292 178.324 84.1563 177.516 84.1563C176.586 84.1563 175.811 83.8 175.191 83.0875C175.053 83.2833 174.951 83.5583 174.884 83.9125H174.572ZM183.843 80.0125V81.7937C183.843 82.4604 183.858 82.8979 183.887 83.1062C183.921 83.3104 184.006 83.4625 184.143 83.5625C184.281 83.6625 184.539 83.7125 184.918 83.7125H185.2V84H181.318V83.7125H181.543C181.906 83.7125 182.156 83.6667 182.293 83.575C182.435 83.4833 182.525 83.3417 182.562 83.15C182.6 82.9542 182.618 82.5021 182.618 81.7937V77.6375C182.618 76.9625 182.6 76.5271 182.562 76.3312C182.525 76.1354 182.441 76 182.312 75.925C182.183 75.85 181.904 75.8125 181.475 75.8125H181.318V75.525L182.381 75.4875C183.231 75.4583 183.893 75.4437 184.368 75.4437C185.243 75.4437 185.916 75.5125 186.387 75.65C186.862 75.7875 187.25 76.0312 187.55 76.3812C187.854 76.7312 188.006 77.1729 188.006 77.7062C188.006 78.1687 187.902 78.5771 187.693 78.9312C187.489 79.2854 187.193 79.5542 186.806 79.7375C186.423 79.9208 185.746 80.0125 184.775 80.0125H183.843ZM183.843 79.7H184.45C184.937 79.7 185.331 79.6521 185.631 79.5562C185.931 79.4562 186.181 79.25 186.381 78.9375C186.581 78.625 186.681 78.2396 186.681 77.7812C186.681 77.0812 186.508 76.5687 186.162 76.2437C185.821 75.9146 185.264 75.75 184.493 75.75C184.21 75.75 183.993 75.7583 183.843 75.775V79.7ZM195.534 81.3625H195.834L195.653 84H188.634V83.7125H188.809C189.23 83.7125 189.501 83.6562 189.622 83.5437C189.747 83.4312 189.826 83.2896 189.859 83.1187C189.892 82.9437 189.909 82.5021 189.909 81.7937V77.6375C189.909 76.9917 189.89 76.5667 189.853 76.3625C189.819 76.1583 189.738 76.0167 189.609 75.9375C189.484 75.8542 189.217 75.8125 188.809 75.8125V75.525H194.865L195.065 77.6375H194.772C194.638 77.0458 194.474 76.6271 194.278 76.3812C194.086 76.1312 193.857 75.975 193.59 75.9125C193.324 75.8458 192.894 75.8125 192.303 75.8125H191.128V79.3687H192.028C192.44 79.3687 192.728 79.3333 192.89 79.2625C193.057 79.1917 193.165 79.0854 193.215 78.9437C193.269 78.7979 193.297 78.5167 193.297 78.1H193.59V81H193.297C193.297 80.5292 193.257 80.2146 193.178 80.0562C193.099 79.8937 192.982 79.7896 192.828 79.7437C192.678 79.6937 192.422 79.6687 192.059 79.6687H191.128V81.675C191.128 82.6792 191.192 83.2708 191.322 83.45C191.451 83.625 191.799 83.7125 192.365 83.7125H192.997C193.442 83.7125 193.809 83.6562 194.097 83.5437C194.384 83.4271 194.657 83.1917 194.915 82.8375C195.178 82.4792 195.384 81.9875 195.534 81.3625ZM204.443 80.8187H204.712V83.7875H204.443C204.368 83.45 204.233 83.1521 204.037 82.8937C203.291 83.7354 202.339 84.1563 201.181 84.1563C199.956 84.1563 198.954 83.7687 198.174 82.9937C197.399 82.2187 197.012 81.1937 197.012 79.9187C197.012 79.0812 197.191 78.2937 197.549 77.5562C197.908 76.8146 198.408 76.2646 199.049 75.9062C199.691 75.5479 200.395 75.3687 201.162 75.3687C201.795 75.3687 202.368 75.5 202.881 75.7625C203.397 76.0208 203.783 76.3083 204.037 76.625C204.216 76.2708 204.324 75.9042 204.362 75.525H204.637L204.712 78.7375H204.443C204.256 77.5958 203.872 76.8021 203.293 76.3562C202.718 75.9104 202.068 75.6875 201.343 75.6875C200.456 75.6875 199.749 76.0479 199.224 76.7687C198.704 77.4896 198.443 78.5208 198.443 79.8625C198.443 81.1333 198.729 82.1083 199.299 82.7875C199.87 83.4625 200.581 83.8 201.431 83.8C201.885 83.8 202.349 83.6896 202.824 83.4687C203.299 83.2479 203.674 82.875 203.949 82.35C204.229 81.8208 204.393 81.3104 204.443 80.8187ZM206.296 77.5625H206.009L206.052 75.525H214.277L214.321 77.5625H214.052C213.957 77.0042 213.825 76.6021 213.659 76.3562C213.492 76.1062 213.313 75.9542 213.121 75.9C212.93 75.8417 212.602 75.8125 212.14 75.8125H210.777V81.7937C210.777 82.4562 210.792 82.8917 210.821 83.1C210.855 83.3083 210.94 83.4625 211.077 83.5625C211.215 83.6625 211.473 83.7125 211.852 83.7125H212.265V84H208.04V83.7125H208.477C208.84 83.7125 209.09 83.6667 209.227 83.575C209.369 83.4833 209.459 83.3417 209.496 83.15C209.538 82.9542 209.559 82.5021 209.559 81.7937V75.8125H208.302C207.757 75.8125 207.39 75.8396 207.202 75.8937C207.015 75.9437 206.838 76.1 206.671 76.3625C206.509 76.625 206.384 77.025 206.296 77.5625ZM221.512 75.525H224.343V75.8125C223.968 75.8375 223.687 75.9229 223.499 76.0687C223.316 76.2104 223.203 76.3708 223.162 76.55C223.12 76.7292 223.099 77.0771 223.099 77.5937V80.4125C223.099 81.1333 223.07 81.6687 223.012 82.0187C222.958 82.3687 222.795 82.7125 222.524 83.05C222.258 83.3875 221.881 83.6562 221.393 83.8562C220.906 84.0563 220.343 84.1563 219.706 84.1563C218.951 84.1563 218.312 84.0292 217.787 83.775C217.266 83.5167 216.893 83.1854 216.668 82.7812C216.447 82.3729 216.337 81.8271 216.337 81.1437L216.343 80.275V77.6375C216.343 76.9625 216.322 76.5271 216.281 76.3312C216.243 76.1354 216.16 76 216.031 75.925C215.906 75.85 215.628 75.8125 215.199 75.8125H215.006V75.525H218.874V75.8125H218.706C218.289 75.8125 218.016 75.8479 217.887 75.9187C217.758 75.9854 217.67 76.1125 217.624 76.3C217.583 76.4875 217.562 76.9333 217.562 77.6375V80.3062C217.562 81.2312 217.603 81.8875 217.687 82.275C217.774 82.6625 218.016 83.0021 218.412 83.2937C218.808 83.5812 219.335 83.725 219.993 83.725C220.51 83.725 220.978 83.6292 221.399 83.4375C221.824 83.2417 222.139 83 222.343 82.7125C222.551 82.4208 222.678 82.1229 222.724 81.8187C222.77 81.5104 222.793 81.0271 222.793 80.3687V77.4812C222.793 77.0021 222.766 76.6667 222.712 76.475C222.658 76.2833 222.541 76.1312 222.362 76.0187C222.183 75.9062 221.899 75.8375 221.512 75.8125V75.525ZM225.49 83.9125V81.1875H225.802C226.156 82.9625 226.996 83.85 228.321 83.85C228.917 83.85 229.377 83.6812 229.702 83.3437C230.031 83.0021 230.196 82.6208 230.196 82.2C230.196 81.775 230.052 81.4187 229.765 81.1312C229.477 80.8479 228.952 80.5437 228.19 80.2187C227.511 79.9271 226.998 79.6729 226.652 79.4562C226.306 79.2354 226.036 78.95 225.84 78.6C225.648 78.25 225.552 77.8771 225.552 77.4812C225.552 76.8771 225.761 76.375 226.177 75.975C226.598 75.5708 227.129 75.3687 227.771 75.3687C228.129 75.3687 228.467 75.4271 228.784 75.5437C229.1 75.6604 229.425 75.9021 229.759 76.2687C229.95 76.0396 230.059 75.7917 230.084 75.525H230.359V77.7437H230.084C229.925 77.0979 229.644 76.5896 229.24 76.2187C228.84 75.8479 228.375 75.6625 227.846 75.6625C227.342 75.6625 226.971 75.8 226.734 76.075C226.5 76.3458 226.384 76.6437 226.384 76.9687C226.384 77.3604 226.531 77.6917 226.827 77.9625C227.119 78.2375 227.646 78.5458 228.409 78.8875C229.138 79.2125 229.667 79.475 229.996 79.675C230.329 79.8708 230.596 80.1437 230.796 80.4937C230.996 80.8437 231.096 81.2479 231.096 81.7062C231.096 82.4312 230.854 83.0208 230.371 83.475C229.888 83.9292 229.242 84.1563 228.434 84.1563C227.504 84.1563 226.729 83.8 226.109 83.0875C225.971 83.2833 225.869 83.5583 225.802 83.9125H225.49Z" fill="#1E1E1E"/>
<path d="M96.497 208.538L99.5845 201.525H102.185V201.813H101.872C101.455 201.813 101.182 201.848 101.053 201.919C100.924 201.986 100.837 202.113 100.791 202.3C100.749 202.488 100.728 202.934 100.728 203.638V207.794C100.728 208.461 100.745 208.898 100.778 209.106C100.812 209.311 100.895 209.463 101.028 209.563C101.166 209.663 101.426 209.713 101.81 209.713H102.185V210H98.1345V209.713H98.4345C98.7928 209.713 99.0408 209.667 99.1783 209.575C99.3199 209.484 99.4095 209.342 99.447 209.15C99.4887 208.954 99.5095 208.502 99.5095 207.794V202.4L96.1533 210H95.8595L92.4783 202.4V207.363C92.4783 208.042 92.4991 208.504 92.5408 208.75C92.5824 208.996 92.7116 209.213 92.9283 209.4C93.1449 209.584 93.4491 209.688 93.8408 209.713V210H90.8095V209.713C91.172 209.692 91.4658 209.594 91.6908 209.419C91.9199 209.24 92.0595 209.021 92.1095 208.763C92.1595 208.504 92.1845 208.025 92.1845 207.325V203.638C92.1845 202.963 92.1637 202.527 92.122 202.331C92.0845 202.136 92.0012 202 91.872 201.925C91.747 201.85 91.4699 201.813 91.0408 201.813H90.8095V201.525H93.3908L96.497 208.538ZM107.675 206.613H104.106C104.09 206.859 104.081 207.042 104.081 207.163C104.081 208.063 104.221 208.74 104.5 209.194C104.783 209.644 105.204 209.869 105.763 209.869C106.521 209.869 107.058 209.529 107.375 208.85H107.675C107.542 209.275 107.277 209.609 106.881 209.85C106.485 210.088 106.054 210.206 105.588 210.206C105.154 210.206 104.744 210.098 104.356 209.881C103.973 209.661 103.658 209.35 103.413 208.95C103.167 208.55 103.044 208.065 103.044 207.494C103.044 206.686 103.281 206.015 103.756 205.481C104.231 204.944 104.825 204.675 105.538 204.675C106.208 204.675 106.727 204.879 107.094 205.288C107.46 205.696 107.654 206.138 107.675 206.613ZM106.581 206.363C106.594 206.267 106.6 206.181 106.6 206.106C106.6 205.74 106.492 205.456 106.275 205.256C106.063 205.052 105.8 204.95 105.488 204.95C104.729 204.95 104.277 205.421 104.131 206.363H106.581ZM110.422 205.981C110.563 205.611 110.793 205.3 111.109 205.05C111.43 204.8 111.743 204.675 112.047 204.675C112.322 204.675 112.538 204.761 112.697 204.931C112.855 205.102 112.934 205.277 112.934 205.456C112.934 205.577 112.893 205.681 112.809 205.769C112.73 205.856 112.632 205.9 112.515 205.9C112.307 205.9 112.149 205.746 112.04 205.438C111.965 205.229 111.853 205.125 111.703 205.125C111.524 205.125 111.309 205.248 111.059 205.494C110.809 205.736 110.649 205.988 110.578 206.25C110.507 206.513 110.472 206.873 110.472 207.331V208.244C110.472 208.79 110.478 209.134 110.49 209.275C110.507 209.417 110.568 209.525 110.672 209.6C110.776 209.675 110.961 209.713 111.228 209.713H111.403V210H108.684V209.713H108.815C109.065 209.713 109.243 209.679 109.347 209.613C109.455 209.542 109.52 209.444 109.54 209.319C109.561 209.194 109.572 208.836 109.572 208.244V206.8C109.572 206.25 109.563 205.906 109.547 205.769C109.534 205.627 109.476 205.519 109.372 205.444C109.268 205.365 109.082 205.325 108.815 205.325H108.684V205.044C109.076 204.998 109.588 204.875 110.222 204.675C110.343 205.004 110.409 205.44 110.422 205.981ZM113.95 202.063C113.95 201.884 114.012 201.729 114.137 201.6C114.266 201.471 114.421 201.406 114.6 201.406C114.779 201.406 114.931 201.471 115.056 201.6C115.181 201.729 115.244 201.884 115.244 202.063C115.244 202.246 115.181 202.402 115.056 202.531C114.931 202.661 114.779 202.725 114.6 202.725C114.421 202.725 114.266 202.661 114.137 202.531C114.012 202.402 113.95 202.246 113.95 202.063ZM115.156 204.675V208.244C115.156 208.79 115.164 209.134 115.181 209.275C115.198 209.417 115.258 209.525 115.362 209.6C115.466 209.675 115.652 209.713 115.919 209.713H116.05V210H113.294V209.713H113.506C113.802 209.713 113.994 209.671 114.081 209.588C114.173 209.5 114.225 209.398 114.237 209.281C114.254 209.161 114.262 208.815 114.262 208.244V206.694C114.262 206.094 114.233 205.727 114.175 205.594C114.121 205.461 114.046 205.377 113.95 205.344C113.858 205.311 113.696 205.294 113.462 205.294H113.294V205.006C114.035 204.931 114.61 204.821 115.019 204.675H115.156ZM121.228 205.425V203.425C121.228 202.879 121.219 202.536 121.203 202.394C121.19 202.252 121.132 202.144 121.028 202.069C120.924 201.994 120.738 201.956 120.472 201.956H120.34V201.669C120.844 201.656 121.397 201.569 121.997 201.406H122.128V208.288C122.128 208.884 122.138 209.246 122.159 209.375C122.18 209.504 122.244 209.6 122.353 209.663C122.465 209.725 122.672 209.756 122.972 209.756V210.044C122.367 210.056 121.83 210.111 121.359 210.206C121.309 210.011 121.284 209.702 121.284 209.281C120.976 209.59 120.657 209.821 120.328 209.975C120.003 210.129 119.665 210.206 119.315 210.206C118.653 210.206 118.08 209.94 117.597 209.406C117.117 208.873 116.878 208.227 116.878 207.469C116.878 206.636 117.124 205.963 117.615 205.45C118.107 204.934 118.692 204.675 119.372 204.675C119.717 204.675 120.044 204.738 120.353 204.863C120.661 204.988 120.953 205.175 121.228 205.425ZM121.228 205.788C120.953 205.55 120.676 205.373 120.397 205.256C120.122 205.136 119.844 205.075 119.565 205.075C119.094 205.075 118.701 205.256 118.384 205.619C118.072 205.981 117.915 206.573 117.915 207.394C117.915 208.227 118.076 208.842 118.397 209.238C118.722 209.634 119.122 209.831 119.597 209.831C119.913 209.831 120.207 209.756 120.478 209.606C120.749 209.456 120.999 209.231 121.228 208.931V205.788ZM124.081 202.063C124.081 201.884 124.143 201.729 124.268 201.6C124.397 201.471 124.552 201.406 124.731 201.406C124.91 201.406 125.062 201.471 125.187 201.6C125.312 201.729 125.375 201.884 125.375 202.063C125.375 202.246 125.312 202.402 125.187 202.531C125.062 202.661 124.91 202.725 124.731 202.725C124.552 202.725 124.397 202.661 124.268 202.531C124.143 202.402 124.081 202.246 124.081 202.063ZM125.287 204.675V208.244C125.287 208.79 125.295 209.134 125.312 209.275C125.329 209.417 125.389 209.525 125.493 209.6C125.597 209.675 125.783 209.713 126.05 209.713H126.181V210H123.425V209.713H123.637C123.933 209.713 124.125 209.671 124.212 209.588C124.304 209.5 124.356 209.398 124.368 209.281C124.385 209.161 124.393 208.815 124.393 208.244V206.694C124.393 206.094 124.364 205.727 124.306 205.594C124.252 205.461 124.177 205.377 124.081 205.344C123.989 205.311 123.827 205.294 123.593 205.294H123.425V205.006C124.166 204.931 124.741 204.821 125.15 204.675H125.287ZM132.19 209.063H132.421C132.384 209.775 132.034 210.131 131.371 210.131C131.088 210.131 130.863 210.056 130.696 209.906C130.534 209.756 130.428 209.534 130.378 209.238C129.961 209.534 129.58 209.756 129.234 209.906C128.892 210.056 128.586 210.131 128.315 210.131C127.969 210.131 127.671 210.031 127.421 209.831C127.171 209.631 127.046 209.367 127.046 209.038C127.046 208.609 127.255 208.234 127.671 207.913C128.092 207.592 128.671 207.279 129.409 206.975L130.378 206.581V206.331C130.378 205.977 130.355 205.721 130.309 205.563C130.263 205.404 130.144 205.263 129.953 205.138C129.761 205.013 129.509 204.95 129.196 204.95C128.571 204.95 128.223 205.159 128.153 205.575C128.086 206 127.911 206.213 127.628 206.213C127.373 206.213 127.246 206.092 127.246 205.85C127.246 205.613 127.415 205.359 127.753 205.088C128.09 204.813 128.615 204.675 129.328 204.675C129.857 204.675 130.267 204.759 130.559 204.925C130.85 205.092 131.042 205.281 131.134 205.494C131.23 205.706 131.278 206.031 131.278 206.469V208.538C131.278 209.021 131.303 209.331 131.353 209.469C131.403 209.606 131.511 209.675 131.678 209.675C131.953 209.675 132.123 209.471 132.19 209.063ZM130.378 206.875L129.696 207.15C128.621 207.588 128.084 208.138 128.084 208.8C128.084 209.063 128.153 209.275 128.29 209.438C128.428 209.596 128.607 209.675 128.828 209.675C129.023 209.675 129.25 209.611 129.509 209.481C129.767 209.352 130.057 209.159 130.378 208.9V206.875ZM134.443 204.675H134.612C134.708 204.934 134.762 205.286 134.774 205.731C135.074 205.377 135.389 205.113 135.718 204.938C136.047 204.763 136.391 204.675 136.749 204.675C137.158 204.675 137.491 204.761 137.749 204.931C138.012 205.102 138.181 205.313 138.256 205.563C138.331 205.809 138.368 206.169 138.368 206.644V208.244C138.368 208.836 138.378 209.196 138.399 209.325C138.42 209.454 138.485 209.552 138.593 209.619C138.706 209.681 138.91 209.713 139.206 209.713V210H136.587V209.713H136.706C137.006 209.713 137.201 209.669 137.293 209.581C137.385 209.494 137.437 209.392 137.449 209.275C137.462 209.159 137.468 208.815 137.468 208.244V206.594C137.468 206.19 137.447 205.902 137.406 205.731C137.368 205.556 137.262 205.402 137.087 205.269C136.916 205.136 136.697 205.069 136.431 205.069C136.126 205.069 135.835 205.161 135.556 205.344C135.281 205.523 135.02 205.794 134.774 206.156V208.244C134.774 208.836 134.785 209.196 134.806 209.325C134.831 209.454 134.897 209.552 135.006 209.619C135.118 209.681 135.324 209.713 135.624 209.713V210H133.037V209.713C133.324 209.713 133.524 209.684 133.637 209.625C133.749 209.567 133.818 209.479 133.843 209.363C133.872 209.242 133.887 208.869 133.887 208.244V206.719C133.887 206.123 133.874 205.763 133.849 205.638C133.828 205.509 133.762 205.413 133.649 205.35C133.541 205.284 133.337 205.25 133.037 205.25V204.963C133.495 204.913 133.964 204.817 134.443 204.675ZM147.924 210.2H147.536L144.611 203.463C144.557 203.342 144.472 203.134 144.355 202.838C144.193 202.438 144.022 202.169 143.843 202.031C143.664 201.894 143.374 201.821 142.974 201.813V201.525H146.624V201.813C146.17 201.813 145.864 201.846 145.705 201.913C145.551 201.979 145.474 202.106 145.474 202.294C145.474 202.415 145.572 202.698 145.768 203.144L148.205 208.769L150.161 204.088C150.491 203.304 150.655 202.794 150.655 202.556C150.655 202.077 150.316 201.829 149.636 201.813V201.525H152.224V201.813C151.961 201.821 151.73 201.915 151.53 202.094C151.33 202.273 151.157 202.536 151.011 202.881L150.443 204.213L147.924 210.2ZM155.977 206.613H152.408C152.392 206.859 152.383 207.042 152.383 207.163C152.383 208.063 152.523 208.74 152.802 209.194C153.085 209.644 153.506 209.869 154.065 209.869C154.823 209.869 155.36 209.529 155.677 208.85H155.977C155.844 209.275 155.579 209.609 155.183 209.85C154.787 210.088 154.356 210.206 153.89 210.206C153.456 210.206 153.046 210.098 152.658 209.881C152.275 209.661 151.96 209.35 151.715 208.95C151.469 208.55 151.346 208.065 151.346 207.494C151.346 206.686 151.583 206.015 152.058 205.481C152.533 204.944 153.127 204.675 153.84 204.675C154.51 204.675 155.029 204.879 155.396 205.288C155.762 205.696 155.956 206.138 155.977 206.613ZM154.883 206.363C154.896 206.267 154.902 206.181 154.902 206.106C154.902 205.74 154.794 205.456 154.577 205.256C154.365 205.052 154.102 204.95 153.79 204.95C153.031 204.95 152.579 205.421 152.433 206.363H154.883ZM158.355 204.675H158.524C158.62 204.934 158.674 205.286 158.686 205.731C158.986 205.377 159.301 205.113 159.63 204.938C159.959 204.763 160.303 204.675 160.661 204.675C161.07 204.675 161.403 204.761 161.661 204.931C161.924 205.102 162.092 205.313 162.167 205.563C162.242 205.809 162.28 206.169 162.28 206.644V208.244C162.28 208.836 162.29 209.196 162.311 209.325C162.332 209.454 162.397 209.552 162.505 209.619C162.617 209.681 162.822 209.713 163.117 209.713V210H160.499V209.713H160.617C160.917 209.713 161.113 209.669 161.205 209.581C161.297 209.494 161.349 209.392 161.361 209.275C161.374 209.159 161.38 208.815 161.38 208.244V206.594C161.38 206.19 161.359 205.902 161.317 205.731C161.28 205.556 161.174 205.402 160.999 205.269C160.828 205.136 160.609 205.069 160.342 205.069C160.038 205.069 159.747 205.161 159.467 205.344C159.192 205.523 158.932 205.794 158.686 206.156V208.244C158.686 208.836 158.697 209.196 158.717 209.325C158.742 209.454 158.809 209.552 158.917 209.619C159.03 209.681 159.236 209.713 159.536 209.713V210H156.949V209.713C157.236 209.713 157.436 209.684 157.549 209.625C157.661 209.567 157.73 209.479 157.755 209.363C157.784 209.242 157.799 208.869 157.799 208.244V206.719C157.799 206.123 157.786 205.763 157.761 205.638C157.74 205.509 157.674 205.413 157.561 205.35C157.453 205.284 157.249 205.25 156.949 205.25V204.963C157.407 204.913 157.876 204.817 158.355 204.675ZM167.033 205.169H165.489V208.263C165.489 208.738 165.51 209.059 165.552 209.225C165.593 209.388 165.681 209.519 165.814 209.619C165.952 209.719 166.098 209.769 166.252 209.769C166.552 209.769 166.812 209.598 167.033 209.256L167.233 209.375C167.104 209.65 166.912 209.859 166.658 210C166.408 210.138 166.154 210.206 165.896 210.206C165.596 210.206 165.331 210.119 165.102 209.944C164.877 209.765 164.735 209.556 164.677 209.319C164.623 209.081 164.596 208.665 164.596 208.069V205.169H163.852V204.881C164.193 204.873 164.5 204.729 164.771 204.45C165.041 204.171 165.214 203.779 165.289 203.275H165.489V204.881H167.033V205.169ZM172.949 204.881V208.238C172.949 208.796 172.957 209.146 172.974 209.288C172.99 209.429 173.051 209.536 173.155 209.606C173.263 209.677 173.455 209.713 173.73 209.713V210C173.096 210.009 172.634 210.075 172.342 210.2H172.267C172.134 209.971 172.063 209.575 172.055 209.013C171.801 209.409 171.509 209.706 171.18 209.906C170.855 210.106 170.494 210.206 170.099 210.206C169.757 210.206 169.455 210.129 169.192 209.975C168.93 209.817 168.749 209.625 168.649 209.4C168.553 209.175 168.505 208.836 168.505 208.381V206.638C168.505 206.046 168.494 205.686 168.474 205.556C168.453 205.423 168.386 205.325 168.274 205.263C168.165 205.2 167.963 205.169 167.667 205.169V204.881H169.405V208.431C169.405 208.781 169.426 209.036 169.467 209.194C169.509 209.352 169.615 209.492 169.786 209.613C169.957 209.729 170.155 209.788 170.38 209.788C170.701 209.788 171.007 209.684 171.299 209.475C171.59 209.263 171.788 209.04 171.892 208.806C172.001 208.569 172.055 208.231 172.055 207.794V206.638C172.055 206.079 172.049 205.74 172.036 205.619C172.024 205.498 171.969 205.394 171.874 205.306C171.782 205.215 171.588 205.169 171.292 205.169H171.161V204.881H172.949ZM176.32 205.981C176.462 205.611 176.691 205.3 177.008 205.05C177.329 204.8 177.641 204.675 177.945 204.675C178.22 204.675 178.437 204.761 178.595 204.931C178.754 205.102 178.833 205.277 178.833 205.456C178.833 205.577 178.791 205.681 178.708 205.769C178.629 205.856 178.531 205.9 178.414 205.9C178.206 205.9 178.047 205.746 177.939 205.438C177.864 205.229 177.751 205.125 177.601 205.125C177.422 205.125 177.208 205.248 176.958 205.494C176.708 205.736 176.547 205.988 176.476 206.25C176.406 206.513 176.37 206.873 176.37 207.331V208.244C176.37 208.79 176.376 209.134 176.389 209.275C176.406 209.417 176.466 209.525 176.57 209.6C176.674 209.675 176.86 209.713 177.126 209.713H177.301V210H174.583V209.713H174.714C174.964 209.713 175.141 209.679 175.245 209.613C175.354 209.542 175.418 209.444 175.439 209.319C175.46 209.194 175.47 208.836 175.47 208.244V206.8C175.47 206.25 175.462 205.906 175.445 205.769C175.433 205.627 175.374 205.519 175.27 205.444C175.166 205.365 174.981 205.325 174.714 205.325H174.583V205.044C174.974 204.998 175.487 204.875 176.12 204.675C176.241 205.004 176.308 205.44 176.32 205.981ZM183.98 206.613H180.411C180.394 206.859 180.386 207.042 180.386 207.163C180.386 208.063 180.525 208.74 180.805 209.194C181.088 209.644 181.509 209.869 182.067 209.869C182.825 209.869 183.363 209.529 183.68 208.85H183.98C183.846 209.275 183.582 209.609 183.186 209.85C182.79 210.088 182.359 210.206 181.892 210.206C181.459 210.206 181.048 210.098 180.661 209.881C180.277 209.661 179.963 209.35 179.717 208.95C179.471 208.55 179.348 208.065 179.348 207.494C179.348 206.686 179.586 206.015 180.061 205.481C180.536 204.944 181.13 204.675 181.842 204.675C182.513 204.675 183.032 204.879 183.398 205.288C183.765 205.696 183.959 206.138 183.98 206.613ZM182.886 206.363C182.898 206.267 182.905 206.181 182.905 206.106C182.905 205.74 182.796 205.456 182.58 205.256C182.367 205.052 182.105 204.95 181.792 204.95C181.034 204.95 180.582 205.421 180.436 206.363H182.886ZM185.114 210.163V208.481H185.358C185.641 209.452 186.147 209.938 186.876 209.938C187.193 209.938 187.428 209.842 187.583 209.65C187.741 209.459 187.82 209.248 187.82 209.019C187.82 208.752 187.737 208.534 187.57 208.363C187.399 208.192 187.068 207.986 186.576 207.744C186.06 207.49 185.689 207.24 185.464 206.994C185.239 206.752 185.126 206.454 185.126 206.1C185.126 205.763 185.247 205.442 185.489 205.138C185.73 204.829 186.07 204.675 186.508 204.675C186.953 204.675 187.322 204.856 187.614 205.219C187.676 205.156 187.758 205.004 187.858 204.763H188.089V206.344H187.858C187.774 205.965 187.612 205.64 187.37 205.369C187.133 205.094 186.851 204.956 186.526 204.956C186.276 204.956 186.074 205.034 185.92 205.188C185.766 205.342 185.689 205.521 185.689 205.725C185.689 205.95 185.774 206.144 185.945 206.306C186.112 206.473 186.43 206.663 186.901 206.875C187.61 207.196 188.043 207.509 188.201 207.813C188.36 208.121 188.439 208.417 188.439 208.7C188.439 209.146 188.291 209.509 187.995 209.788C187.703 210.067 187.335 210.206 186.889 210.206C186.418 210.206 185.999 210.013 185.633 209.625C185.52 209.75 185.428 209.929 185.358 210.163H185.114ZM189.442 212.438V212.125C189.883 211.996 190.227 211.769 190.473 211.444C190.719 211.123 190.842 210.8 190.842 210.475C190.842 210.2 190.754 210.063 190.579 210.063C190.546 210.063 190.492 210.073 190.417 210.094C190.354 210.115 190.296 210.125 190.242 210.125C190.054 210.125 189.898 210.071 189.773 209.963C189.648 209.85 189.586 209.704 189.586 209.525C189.586 209.334 189.646 209.175 189.767 209.05C189.888 208.925 190.044 208.863 190.236 208.863C190.531 208.863 190.771 209 190.954 209.275C191.142 209.546 191.236 209.865 191.236 210.231C191.236 210.761 191.073 211.225 190.748 211.625C190.427 212.025 189.992 212.296 189.442 212.438ZM202.71 207.363H203.01L202.829 210H195.81V209.713H195.985C196.406 209.713 196.677 209.656 196.798 209.544C196.923 209.431 197.002 209.29 197.035 209.119C197.069 208.944 197.085 208.502 197.085 207.794V203.638C197.085 202.992 197.066 202.567 197.029 202.363C196.996 202.159 196.914 202.017 196.785 201.938C196.66 201.854 196.394 201.813 195.985 201.813V201.525H202.041L202.241 203.638H201.948C201.814 203.046 201.65 202.627 201.454 202.381C201.262 202.131 201.033 201.975 200.766 201.913C200.5 201.846 200.071 201.813 199.479 201.813H198.304V205.369H199.204C199.616 205.369 199.904 205.334 200.066 205.263C200.233 205.192 200.341 205.086 200.391 204.944C200.446 204.798 200.473 204.517 200.473 204.1H200.766V207H200.473C200.473 206.529 200.433 206.215 200.354 206.056C200.275 205.894 200.158 205.79 200.004 205.744C199.854 205.694 199.598 205.669 199.235 205.669H198.304V207.675C198.304 208.679 198.369 209.271 198.498 209.45C198.627 209.625 198.975 209.713 199.541 209.713H200.173C200.619 209.713 200.985 209.656 201.273 209.544C201.56 209.427 201.833 209.192 202.091 208.838C202.354 208.479 202.56 207.988 202.71 207.363ZM204.051 210.163V208.481H204.295C204.578 209.452 205.084 209.938 205.813 209.938C206.13 209.938 206.365 209.842 206.52 209.65C206.678 209.459 206.757 209.248 206.757 209.019C206.757 208.752 206.674 208.534 206.507 208.363C206.336 208.192 206.005 207.986 205.513 207.744C204.997 207.49 204.626 207.24 204.401 206.994C204.176 206.752 204.063 206.454 204.063 206.1C204.063 205.763 204.184 205.442 204.426 205.138C204.667 204.829 205.007 204.675 205.445 204.675C205.89 204.675 206.259 204.856 206.551 205.219C206.613 205.156 206.695 205.004 206.795 204.763H207.026V206.344H206.795C206.711 205.965 206.549 205.64 206.307 205.369C206.07 205.094 205.788 204.956 205.463 204.956C205.213 204.956 205.011 205.034 204.857 205.188C204.703 205.342 204.626 205.521 204.626 205.725C204.626 205.95 204.711 206.144 204.882 206.306C205.049 206.473 205.367 206.663 205.838 206.875C206.547 207.196 206.98 207.509 207.138 207.813C207.297 208.121 207.376 208.417 207.376 208.7C207.376 209.146 207.228 209.509 206.932 209.788C206.64 210.067 206.272 210.206 205.826 210.206C205.355 210.206 204.936 210.013 204.57 209.625C204.457 209.75 204.365 209.929 204.295 210.163H204.051ZM211.447 205.169H209.904V208.263C209.904 208.738 209.925 209.059 209.966 209.225C210.008 209.388 210.095 209.519 210.229 209.619C210.366 209.719 210.512 209.769 210.666 209.769C210.966 209.769 211.227 209.598 211.447 209.256L211.647 209.375C211.518 209.65 211.327 209.859 211.072 210C210.822 210.138 210.568 210.206 210.31 210.206C210.01 210.206 209.745 210.119 209.516 209.944C209.291 209.765 209.15 209.556 209.091 209.319C209.037 209.081 209.01 208.665 209.01 208.069V205.169H208.266V204.881C208.608 204.873 208.914 204.729 209.185 204.45C209.456 204.171 209.629 203.779 209.704 203.275H209.904V204.881H211.447V205.169ZM212.719 209.531C212.719 209.348 212.784 209.192 212.913 209.063C213.046 208.929 213.205 208.863 213.388 208.863C213.576 208.863 213.734 208.929 213.863 209.063C213.996 209.192 214.063 209.348 214.063 209.531C214.063 209.719 213.996 209.877 213.863 210.006C213.73 210.14 213.571 210.206 213.388 210.206C213.201 210.206 213.042 210.138 212.913 210C212.784 209.867 212.719 209.711 212.719 209.531ZM219.188 210V209.613C219.663 209.242 220.263 208.656 220.988 207.856C221.717 207.052 222.242 206.359 222.563 205.775C222.884 205.192 223.044 204.602 223.044 204.006C223.044 203.294 222.882 202.771 222.557 202.438C222.232 202.1 221.827 201.931 221.344 201.931C220.869 201.931 220.5 202.086 220.238 202.394C219.979 202.702 219.85 203.031 219.85 203.381C219.85 203.781 220.019 204.098 220.357 204.331C220.482 204.419 220.544 204.486 220.544 204.531C220.544 204.606 220.473 204.709 220.332 204.838C220.19 204.967 220.073 205.031 219.982 205.031C219.857 205.031 219.704 204.906 219.525 204.656C219.35 204.402 219.263 204.077 219.263 203.681C219.263 203.044 219.511 202.54 220.007 202.169C220.502 201.794 221.046 201.606 221.638 201.606C222.263 201.606 222.825 201.8 223.325 202.188C223.829 202.575 224.082 203.15 224.082 203.913C224.082 204.392 223.969 204.848 223.744 205.281C223.519 205.711 222.971 206.369 222.1 207.256C221.234 208.14 220.536 208.804 220.007 209.25H223.982L223.625 210.65H223.332C223.332 210.575 223.344 210.5 223.369 210.425C223.382 210.384 223.388 210.327 223.388 210.256C223.388 210.131 223.361 210.056 223.307 210.031C223.252 210.011 223.107 210 222.869 210H219.188ZM225.522 205.906C225.522 204.602 225.768 203.561 226.259 202.781C226.755 201.998 227.403 201.606 228.203 201.606C229.003 201.606 229.649 202 230.141 202.788C230.637 203.571 230.884 204.611 230.884 205.906C230.884 207.194 230.639 208.234 230.147 209.025C229.655 209.813 229.007 210.206 228.203 210.206C227.403 210.206 226.755 209.815 226.259 209.031C225.768 208.244 225.522 207.202 225.522 205.906ZM226.559 205.906C226.559 207.636 226.703 208.736 226.991 209.206C227.282 209.673 227.687 209.906 228.203 209.906C228.812 209.906 229.237 209.627 229.478 209.069C229.72 208.506 229.841 207.452 229.841 205.906C229.841 204.173 229.695 203.073 229.403 202.606C229.116 202.14 228.716 201.906 228.203 201.906C227.691 201.906 227.289 202.14 226.997 202.606C226.705 203.069 226.559 204.169 226.559 205.906ZM232.244 210V209.613C232.719 209.242 233.319 208.656 234.044 207.856C234.773 207.052 235.298 206.359 235.619 205.775C235.94 205.192 236.1 204.602 236.1 204.006C236.1 203.294 235.938 202.771 235.613 202.438C235.288 202.1 234.883 201.931 234.4 201.931C233.925 201.931 233.556 202.086 233.294 202.394C233.035 202.702 232.906 203.031 232.906 203.381C232.906 203.781 233.075 204.098 233.413 204.331C233.538 204.419 233.6 204.486 233.6 204.531C233.6 204.606 233.529 204.709 233.388 204.838C233.246 204.967 233.129 205.031 233.038 205.031C232.913 205.031 232.76 204.906 232.581 204.656C232.406 204.402 232.319 204.077 232.319 203.681C232.319 203.044 232.567 202.54 233.063 202.169C233.558 201.794 234.102 201.606 234.694 201.606C235.319 201.606 235.881 201.8 236.381 202.188C236.885 202.575 237.138 203.15 237.138 203.913C237.138 204.392 237.025 204.848 236.8 205.281C236.575 205.711 236.027 206.369 235.156 207.256C234.29 208.14 233.592 208.804 233.063 209.25H237.038L236.681 210.65H236.388C236.388 210.575 236.4 210.5 236.425 210.425C236.438 210.384 236.444 210.327 236.444 210.256C236.444 210.131 236.417 210.056 236.363 210.031C236.308 210.011 236.163 210 235.925 210H232.244ZM241.222 205.45C241.351 205.413 241.48 205.394 241.609 205.394C242.222 205.394 242.703 205.604 243.053 206.025C243.407 206.442 243.584 206.967 243.584 207.6C243.584 208.363 243.324 208.988 242.803 209.475C242.282 209.963 241.611 210.206 240.79 210.206C240.24 210.206 239.768 210.081 239.372 209.831C238.976 209.581 238.778 209.313 238.778 209.025C238.778 208.904 238.815 208.802 238.89 208.719C238.965 208.631 239.063 208.588 239.184 208.588C239.401 208.588 239.555 208.736 239.647 209.031C239.763 209.411 239.93 209.654 240.147 209.763C240.359 209.875 240.57 209.931 240.778 209.931C241.303 209.931 241.728 209.74 242.053 209.356C242.382 208.973 242.547 208.379 242.547 207.575C242.547 206.929 242.424 206.448 242.178 206.131C241.936 205.815 241.649 205.656 241.315 205.656C241.028 205.656 240.711 205.831 240.365 206.181C240.307 206.244 240.247 206.275 240.184 206.275C240.059 206.275 239.997 206.209 239.997 206.075C239.997 206.017 240.028 205.956 240.09 205.894C240.157 205.827 240.34 205.692 240.64 205.488C241.299 205.042 241.734 204.671 241.947 204.375C242.159 204.079 242.265 203.706 242.265 203.256C242.265 202.827 242.155 202.496 241.934 202.263C241.713 202.025 241.42 201.906 241.053 201.906C240.678 201.906 240.345 202.027 240.053 202.269C239.765 202.506 239.622 202.811 239.622 203.181C239.622 203.477 239.749 203.754 240.003 204.013C240.032 204.042 240.047 204.067 240.047 204.088C240.047 204.142 239.978 204.2 239.84 204.263C239.703 204.325 239.603 204.356 239.54 204.356C239.411 204.356 239.29 204.259 239.178 204.063C239.065 203.867 239.009 203.654 239.009 203.425C239.009 202.963 239.209 202.544 239.609 202.169C240.009 201.794 240.545 201.606 241.215 201.606C241.903 201.606 242.422 201.765 242.772 202.081C243.126 202.394 243.303 202.744 243.303 203.131C243.303 203.473 243.182 203.792 242.94 204.088C242.703 204.379 242.299 204.717 241.728 205.1L241.222 205.45Z" fill="#1E1E1E"/>
<path d="M113.088 168.819H113.356V171.787H113.088C113.013 171.45 112.877 171.152 112.681 170.894C111.935 171.735 110.983 172.156 109.825 172.156C108.6 172.156 107.598 171.769 106.819 170.994C106.044 170.219 105.656 169.194 105.656 167.919C105.656 167.081 105.835 166.294 106.194 165.556C106.552 164.815 107.052 164.265 107.694 163.906C108.335 163.548 109.04 163.369 109.806 163.369C110.44 163.369 111.013 163.5 111.525 163.762C112.042 164.021 112.427 164.308 112.681 164.625C112.86 164.271 112.969 163.904 113.006 163.525H113.281L113.356 166.737H113.088C112.9 165.596 112.517 164.802 111.938 164.356C111.363 163.91 110.713 163.687 109.988 163.687C109.1 163.687 108.394 164.048 107.869 164.769C107.348 165.49 107.088 166.521 107.088 167.862C107.088 169.133 107.373 170.108 107.944 170.787C108.515 171.462 109.225 171.8 110.075 171.8C110.529 171.8 110.994 171.69 111.469 171.469C111.944 171.248 112.319 170.875 112.594 170.35C112.873 169.821 113.038 169.31 113.088 168.819ZM114.803 169.431C114.803 168.648 115.066 167.994 115.591 167.469C116.116 166.94 116.761 166.675 117.528 166.675C118.299 166.675 118.947 166.94 119.472 167.469C119.997 167.998 120.259 168.652 120.259 169.431C120.259 170.294 119.993 170.973 119.459 171.469C118.926 171.96 118.282 172.206 117.528 172.206C116.774 172.206 116.13 171.956 115.597 171.456C115.068 170.952 114.803 170.277 114.803 169.431ZM115.841 169.462C115.841 170.371 115.988 171.008 116.284 171.375C116.58 171.737 116.995 171.919 117.528 171.919C118.074 171.919 118.491 171.737 118.778 171.375C119.07 171.008 119.216 170.371 119.216 169.462C119.216 168.562 119.072 167.921 118.784 167.537C118.497 167.154 118.078 166.962 117.528 166.962C116.982 166.962 116.563 167.154 116.272 167.537C115.984 167.917 115.841 168.558 115.841 169.462ZM122.818 163.406V170.244C122.818 170.79 122.825 171.133 122.837 171.275C122.854 171.417 122.914 171.525 123.018 171.6C123.123 171.675 123.308 171.712 123.575 171.712H123.725V172H120.987V171.712H121.162C121.412 171.712 121.589 171.679 121.693 171.612C121.802 171.542 121.866 171.444 121.887 171.319C121.908 171.194 121.918 170.835 121.918 170.244V165.181C121.918 164.644 121.871 164.306 121.775 164.169C121.679 164.027 121.446 163.956 121.075 163.956V163.669C121.329 163.669 121.627 163.64 121.968 163.581C122.314 163.523 122.552 163.465 122.681 163.406H122.818ZM126.022 163.406V170.244C126.022 170.79 126.028 171.133 126.04 171.275C126.057 171.417 126.117 171.525 126.222 171.6C126.326 171.675 126.511 171.712 126.778 171.712H126.928V172H124.19V171.712H124.365C124.615 171.712 124.792 171.679 124.897 171.612C125.005 171.542 125.069 171.444 125.09 171.319C125.111 171.194 125.122 170.835 125.122 170.244V165.181C125.122 164.644 125.074 164.306 124.978 164.169C124.882 164.027 124.649 163.956 124.278 163.956V163.669C124.532 163.669 124.83 163.64 125.172 163.581C125.517 163.523 125.755 163.465 125.884 163.406H126.022ZM132.899 171.062H133.131C133.093 171.775 132.743 172.131 132.081 172.131C131.797 172.131 131.572 172.056 131.406 171.906C131.243 171.756 131.137 171.533 131.087 171.237C130.67 171.533 130.289 171.756 129.943 171.906C129.602 172.056 129.295 172.131 129.024 172.131C128.679 172.131 128.381 172.031 128.131 171.831C127.881 171.631 127.756 171.367 127.756 171.037C127.756 170.608 127.964 170.233 128.381 169.912C128.802 169.592 129.381 169.279 130.118 168.975L131.087 168.581V168.331C131.087 167.977 131.064 167.721 131.018 167.562C130.972 167.404 130.854 167.262 130.662 167.137C130.47 167.012 130.218 166.95 129.906 166.95C129.281 166.95 128.933 167.158 128.862 167.575C128.795 168 128.62 168.212 128.337 168.212C128.083 168.212 127.956 168.092 127.956 167.85C127.956 167.612 128.124 167.358 128.462 167.087C128.799 166.812 129.324 166.675 130.037 166.675C130.566 166.675 130.977 166.758 131.268 166.925C131.56 167.092 131.752 167.281 131.843 167.494C131.939 167.706 131.987 168.031 131.987 168.469V170.537C131.987 171.021 132.012 171.331 132.062 171.469C132.112 171.606 132.22 171.675 132.387 171.675C132.662 171.675 132.833 171.471 132.899 171.062ZM131.087 168.875L130.406 169.15C129.331 169.587 128.793 170.137 128.793 170.8C128.793 171.062 128.862 171.275 128.999 171.437C129.137 171.596 129.316 171.675 129.537 171.675C129.733 171.675 129.96 171.61 130.218 171.481C130.477 171.352 130.766 171.158 131.087 170.9V168.875ZM134.621 172.206H134.377V165.356C134.377 164.856 134.363 164.533 134.334 164.387C134.309 164.242 134.24 164.133 134.127 164.062C134.019 163.992 133.827 163.956 133.552 163.956V163.669C133.798 163.669 134.094 163.64 134.44 163.581C134.786 163.523 135.021 163.465 135.146 163.406H135.277V167.456C135.569 167.194 135.865 166.998 136.165 166.869C136.465 166.74 136.769 166.675 137.077 166.675C137.815 166.675 138.419 166.931 138.89 167.444C139.361 167.956 139.596 168.61 139.596 169.406C139.596 170.206 139.355 170.873 138.871 171.406C138.388 171.94 137.761 172.206 136.99 172.206C136.611 172.206 136.277 172.127 135.99 171.969C135.707 171.81 135.469 171.575 135.277 171.262C135.007 171.533 134.788 171.848 134.621 172.206ZM135.277 167.825V169.831C135.277 170.348 135.311 170.721 135.377 170.95C135.448 171.175 135.615 171.392 135.877 171.6C136.14 171.808 136.446 171.912 136.796 171.912C137.334 171.912 137.761 171.692 138.077 171.25C138.398 170.808 138.559 170.173 138.559 169.344C138.559 168.581 138.409 168.002 138.109 167.606C137.813 167.206 137.417 167.006 136.921 167.006C136.638 167.006 136.359 167.075 136.084 167.212C135.813 167.346 135.544 167.55 135.277 167.825ZM140.668 169.431C140.668 168.648 140.931 167.994 141.456 167.469C141.981 166.94 142.626 166.675 143.393 166.675C144.164 166.675 144.812 166.94 145.337 167.469C145.862 167.998 146.124 168.652 146.124 169.431C146.124 170.294 145.858 170.973 145.324 171.469C144.791 171.96 144.147 172.206 143.393 172.206C142.639 172.206 141.995 171.956 141.462 171.456C140.933 170.952 140.668 170.277 140.668 169.431ZM141.706 169.462C141.706 170.371 141.853 171.008 142.149 171.375C142.445 171.737 142.86 171.919 143.393 171.919C143.939 171.919 144.356 171.737 144.643 171.375C144.935 171.008 145.081 170.371 145.081 169.462C145.081 168.562 144.937 167.921 144.649 167.537C144.362 167.154 143.943 166.962 143.393 166.962C142.847 166.962 142.428 167.154 142.137 167.537C141.849 167.917 141.706 168.558 141.706 169.462ZM148.852 167.981C148.994 167.61 149.223 167.3 149.54 167.05C149.861 166.8 150.173 166.675 150.477 166.675C150.752 166.675 150.969 166.76 151.127 166.931C151.286 167.102 151.365 167.277 151.365 167.456C151.365 167.577 151.323 167.681 151.24 167.769C151.161 167.856 151.063 167.9 150.946 167.9C150.738 167.9 150.579 167.746 150.471 167.437C150.396 167.229 150.284 167.125 150.134 167.125C149.954 167.125 149.74 167.248 149.49 167.494C149.24 167.735 149.079 167.987 149.009 168.25C148.938 168.512 148.902 168.873 148.902 169.331V170.244C148.902 170.79 148.909 171.133 148.921 171.275C148.938 171.417 148.998 171.525 149.102 171.6C149.206 171.675 149.392 171.712 149.659 171.712H149.834V172H147.115V171.712H147.246C147.496 171.712 147.673 171.679 147.777 171.612C147.886 171.542 147.95 171.444 147.971 171.319C147.992 171.194 148.002 170.835 148.002 170.244V168.8C148.002 168.25 147.994 167.906 147.977 167.769C147.965 167.627 147.906 167.519 147.802 167.444C147.698 167.365 147.513 167.325 147.246 167.325H147.115V167.044C147.506 166.998 148.019 166.875 148.652 166.675C148.773 167.004 148.84 167.44 148.852 167.981ZM157.162 171.062H157.393C157.355 171.775 157.005 172.131 156.343 172.131C156.059 172.131 155.834 172.056 155.668 171.906C155.505 171.756 155.399 171.533 155.349 171.237C154.932 171.533 154.551 171.756 154.205 171.906C153.864 172.056 153.557 172.131 153.287 172.131C152.941 172.131 152.643 172.031 152.393 171.831C152.143 171.631 152.018 171.367 152.018 171.037C152.018 170.608 152.226 170.233 152.643 169.912C153.064 169.592 153.643 169.279 154.38 168.975L155.349 168.581V168.331C155.349 167.977 155.326 167.721 155.28 167.562C155.234 167.404 155.116 167.262 154.924 167.137C154.732 167.012 154.48 166.95 154.168 166.95C153.543 166.95 153.195 167.158 153.124 167.575C153.057 168 152.882 168.212 152.599 168.212C152.345 168.212 152.218 168.092 152.218 167.85C152.218 167.612 152.387 167.358 152.724 167.087C153.062 166.812 153.587 166.675 154.299 166.675C154.828 166.675 155.239 166.758 155.53 166.925C155.822 167.092 156.014 167.281 156.105 167.494C156.201 167.706 156.249 168.031 156.249 168.469V170.537C156.249 171.021 156.274 171.331 156.324 171.469C156.374 171.606 156.482 171.675 156.649 171.675C156.924 171.675 157.095 171.471 157.162 171.062ZM155.349 168.875L154.668 169.15C153.593 169.587 153.055 170.137 153.055 170.8C153.055 171.062 153.124 171.275 153.262 171.437C153.399 171.596 153.578 171.675 153.799 171.675C153.995 171.675 154.222 171.61 154.48 171.481C154.739 171.352 155.028 171.158 155.349 170.9V168.875ZM161.04 167.169H159.496V170.262C159.496 170.737 159.517 171.058 159.558 171.225C159.6 171.387 159.687 171.519 159.821 171.619C159.958 171.719 160.104 171.769 160.258 171.769C160.558 171.769 160.819 171.598 161.04 171.256L161.24 171.375C161.11 171.65 160.919 171.858 160.665 172C160.415 172.138 160.16 172.206 159.902 172.206C159.602 172.206 159.337 172.119 159.108 171.944C158.883 171.765 158.742 171.556 158.683 171.319C158.629 171.081 158.602 170.665 158.602 170.069V167.169H157.858V166.881C158.2 166.873 158.506 166.729 158.777 166.45C159.048 166.171 159.221 165.779 159.296 165.275H159.496V166.881H161.04V167.169ZM162.249 164.062C162.249 163.883 162.311 163.729 162.436 163.6C162.565 163.471 162.72 163.406 162.899 163.406C163.078 163.406 163.23 163.471 163.355 163.6C163.48 163.729 163.543 163.883 163.543 164.062C163.543 164.246 163.48 164.402 163.355 164.531C163.23 164.66 163.078 164.725 162.899 164.725C162.72 164.725 162.565 164.66 162.436 164.531C162.311 164.402 162.249 164.246 162.249 164.062ZM163.455 166.675V170.244C163.455 170.79 163.463 171.133 163.48 171.275C163.497 171.417 163.557 171.525 163.661 171.6C163.765 171.675 163.951 171.712 164.218 171.712H164.349V172H161.593V171.712H161.805C162.101 171.712 162.293 171.671 162.38 171.587C162.472 171.5 162.524 171.398 162.536 171.281C162.553 171.16 162.561 170.815 162.561 170.244V168.694C162.561 168.094 162.532 167.727 162.474 167.594C162.42 167.46 162.345 167.377 162.249 167.344C162.157 167.31 161.995 167.294 161.761 167.294H161.593V167.006C162.334 166.931 162.909 166.821 163.318 166.675H163.455ZM165.196 169.431C165.196 168.648 165.458 167.994 165.983 167.469C166.508 166.94 167.154 166.675 167.921 166.675C168.691 166.675 169.339 166.94 169.864 167.469C170.389 167.998 170.652 168.652 170.652 169.431C170.652 170.294 170.385 170.973 169.852 171.469C169.318 171.96 168.675 172.206 167.921 172.206C167.166 172.206 166.523 171.956 165.989 171.456C165.46 170.952 165.196 170.277 165.196 169.431ZM166.233 169.462C166.233 170.371 166.381 171.008 166.677 171.375C166.973 171.737 167.387 171.919 167.921 171.919C168.466 171.919 168.883 171.737 169.171 171.375C169.462 171.008 169.608 170.371 169.608 169.462C169.608 168.562 169.464 167.921 169.177 167.537C168.889 167.154 168.471 166.962 167.921 166.962C167.375 166.962 166.956 167.154 166.664 167.537C166.377 167.917 166.233 168.558 166.233 169.462ZM173.011 166.675H173.18C173.276 166.933 173.33 167.285 173.342 167.731C173.642 167.377 173.957 167.112 174.286 166.937C174.615 166.762 174.959 166.675 175.317 166.675C175.726 166.675 176.059 166.76 176.317 166.931C176.58 167.102 176.748 167.312 176.823 167.562C176.898 167.808 176.936 168.169 176.936 168.644V170.244C176.936 170.835 176.946 171.196 176.967 171.325C176.988 171.454 177.053 171.552 177.161 171.619C177.273 171.681 177.478 171.712 177.773 171.712V172H175.155V171.712H175.273C175.573 171.712 175.769 171.669 175.861 171.581C175.953 171.494 176.005 171.392 176.017 171.275C176.03 171.158 176.036 170.815 176.036 170.244V168.594C176.036 168.19 176.015 167.902 175.973 167.731C175.936 167.556 175.83 167.402 175.655 167.269C175.484 167.135 175.265 167.069 174.998 167.069C174.694 167.069 174.403 167.16 174.123 167.344C173.848 167.523 173.588 167.794 173.342 168.156V170.244C173.342 170.835 173.353 171.196 173.373 171.325C173.398 171.454 173.465 171.552 173.573 171.619C173.686 171.681 173.892 171.712 174.192 171.712V172H171.605V171.712C171.892 171.712 172.092 171.683 172.205 171.625C172.317 171.567 172.386 171.479 172.411 171.362C172.44 171.242 172.455 170.869 172.455 170.244V168.719C172.455 168.123 172.442 167.762 172.417 167.637C172.396 167.508 172.33 167.412 172.217 167.35C172.109 167.283 171.905 167.25 171.605 167.25V166.962C172.063 166.912 172.532 166.817 173.011 166.675Z" fill="#1E1E1E"/>
<path d="M188.906 145.381H192.563V145.681C192.158 145.681 191.883 145.723 191.738 145.806C191.596 145.885 191.502 146.021 191.456 146.212C191.41 146.4 191.388 146.858 191.388 147.587V148.487C191.288 148.471 191.198 148.462 191.119 148.462C190.798 148.462 190.377 148.56 189.856 148.756C189.148 149.023 188.492 149.156 187.888 149.156C186.675 149.156 185.667 148.758 184.863 147.962C184.058 147.162 183.656 146.15 183.656 144.925C183.656 143.712 184.04 142.65 184.806 141.737C185.573 140.825 186.615 140.369 187.931 140.369C189.065 140.369 190.002 140.785 190.744 141.619C190.881 141.327 190.969 141.012 191.006 140.675H191.306V143.506H191.006C190.885 142.635 190.554 141.946 190.013 141.437C189.475 140.929 188.821 140.675 188.05 140.675C187.254 140.675 186.56 140.971 185.969 141.562C185.377 142.154 185.081 143.204 185.081 144.712C185.081 146.217 185.367 147.283 185.938 147.912C186.508 148.537 187.217 148.85 188.063 148.85C188.496 148.85 188.89 148.762 189.244 148.587C189.598 148.408 189.84 148.192 189.969 147.937C190.098 147.683 190.163 147.362 190.163 146.975C190.163 146.521 190.131 146.219 190.069 146.069C190.01 145.915 189.919 145.812 189.794 145.762C189.669 145.708 189.44 145.681 189.106 145.681H188.906V145.381ZM195.134 144.981C195.276 144.61 195.505 144.3 195.822 144.05C196.143 143.8 196.455 143.675 196.759 143.675C197.034 143.675 197.251 143.76 197.409 143.931C197.568 144.102 197.647 144.277 197.647 144.456C197.647 144.577 197.605 144.681 197.522 144.769C197.443 144.856 197.345 144.9 197.228 144.9C197.02 144.9 196.861 144.746 196.753 144.437C196.678 144.229 196.566 144.125 196.416 144.125C196.236 144.125 196.022 144.248 195.772 144.494C195.522 144.735 195.361 144.987 195.291 145.25C195.22 145.512 195.184 145.873 195.184 146.331V147.244C195.184 147.79 195.191 148.133 195.203 148.275C195.22 148.417 195.28 148.525 195.384 148.6C195.488 148.675 195.674 148.712 195.941 148.712H196.116V149H193.397V148.712H193.528C193.778 148.712 193.955 148.679 194.059 148.612C194.168 148.542 194.232 148.444 194.253 148.319C194.274 148.194 194.284 147.835 194.284 147.244V145.8C194.284 145.25 194.276 144.906 194.259 144.769C194.247 144.627 194.188 144.519 194.084 144.444C193.98 144.365 193.795 144.325 193.528 144.325H193.397V144.044C193.788 143.998 194.301 143.875 194.934 143.675C195.055 144.004 195.122 144.44 195.134 144.981ZM198.031 146.431C198.031 145.648 198.293 144.994 198.818 144.469C199.343 143.94 199.989 143.675 200.756 143.675C201.527 143.675 202.175 143.94 202.7 144.469C203.225 144.998 203.487 145.652 203.487 146.431C203.487 147.294 203.221 147.973 202.687 148.469C202.154 148.96 201.51 149.206 200.756 149.206C200.002 149.206 199.358 148.956 198.825 148.456C198.296 147.952 198.031 147.277 198.031 146.431ZM199.068 146.462C199.068 147.371 199.216 148.008 199.512 148.375C199.808 148.737 200.223 148.919 200.756 148.919C201.302 148.919 201.718 148.737 202.006 148.375C202.298 148.008 202.443 147.371 202.443 146.462C202.443 145.562 202.3 144.921 202.012 144.537C201.725 144.154 201.306 143.962 200.756 143.962C200.21 143.962 199.791 144.154 199.5 144.537C199.212 144.917 199.068 145.558 199.068 146.462ZM210.103 149.2H209.821L208.296 145.137L206.74 149.2H206.465L204.903 145.137C204.724 144.675 204.59 144.398 204.503 144.306C204.415 144.215 204.24 144.169 203.978 144.169V143.881H206.315V144.169C206.053 144.169 205.874 144.194 205.778 144.244C205.682 144.29 205.634 144.371 205.634 144.487C205.634 144.571 205.715 144.815 205.878 145.219L206.915 147.962L208.503 143.881H208.746L210.284 147.962L211.409 145.056C211.53 144.748 211.59 144.562 211.59 144.5C211.59 144.296 211.38 144.185 210.959 144.169V143.881H212.621V144.169C212.421 144.173 212.263 144.212 212.146 144.287C212.034 144.358 211.93 144.521 211.834 144.775L211.696 145.137L210.103 149.2ZM216.275 144.169H214.731V147.262C214.731 147.737 214.752 148.058 214.793 148.225C214.835 148.387 214.922 148.519 215.056 148.619C215.193 148.719 215.339 148.769 215.493 148.769C215.793 148.769 216.054 148.598 216.275 148.256L216.475 148.375C216.345 148.65 216.154 148.858 215.9 149C215.65 149.138 215.395 149.206 215.137 149.206C214.837 149.206 214.572 149.119 214.343 148.944C214.118 148.765 213.977 148.556 213.918 148.319C213.864 148.081 213.837 147.665 213.837 147.069V144.169H213.093V143.881C213.435 143.873 213.741 143.729 214.012 143.45C214.283 143.171 214.456 142.779 214.531 142.275H214.731V143.881H216.275V144.169ZM218.715 144.725C218.965 144.375 219.244 144.112 219.552 143.937C219.865 143.762 220.207 143.675 220.577 143.675C220.998 143.675 221.346 143.762 221.621 143.937C221.9 144.112 222.082 144.329 222.165 144.587C222.248 144.842 222.29 145.256 222.29 145.831V147.244C222.29 147.844 222.3 148.208 222.321 148.337C222.346 148.467 222.415 148.562 222.527 148.625C222.64 148.683 222.848 148.712 223.152 148.712V149H220.509V148.712H220.627C220.932 148.712 221.127 148.669 221.215 148.581C221.307 148.494 221.359 148.392 221.371 148.275C221.388 148.154 221.396 147.81 221.396 147.244V145.706C221.396 145.281 221.371 144.967 221.321 144.762C221.271 144.558 221.152 144.39 220.965 144.256C220.782 144.123 220.55 144.056 220.271 144.056C219.946 144.056 219.655 144.152 219.396 144.344C219.138 144.531 218.911 144.815 218.715 145.194V147.244C218.715 147.819 218.723 148.173 218.74 148.306C218.761 148.44 218.825 148.542 218.934 148.612C219.042 148.679 219.24 148.712 219.527 148.712V149H216.927V148.712H217.059C217.359 148.712 217.552 148.671 217.64 148.587C217.732 148.5 217.784 148.398 217.796 148.281C217.813 148.16 217.821 147.815 217.821 147.244V142.144C217.821 141.627 217.771 141.3 217.671 141.162C217.575 141.025 217.342 140.956 216.971 140.956V140.669C217.617 140.669 218.155 140.581 218.584 140.406H218.715V144.725Z" fill="#1E1E1E"/>
<path d="M54.9875 150.2H54.6L51.675 143.463C51.6208 143.342 51.5354 143.134 51.4188 142.838C51.2563 142.438 51.0854 142.169 50.9063 142.031C50.7271 141.894 50.4375 141.821 50.0375 141.813V141.525H53.6875V141.813C53.2333 141.813 52.9271 141.846 52.7688 141.913C52.6146 141.979 52.5375 142.106 52.5375 142.294C52.5375 142.415 52.6354 142.698 52.8313 143.144L55.2688 148.769L57.225 144.088C57.5542 143.304 57.7188 142.794 57.7188 142.556C57.7188 142.077 57.3792 141.829 56.7 141.813V141.525H59.2875V141.813C59.025 141.821 58.7938 141.915 58.5938 142.094C58.3938 142.273 58.2208 142.536 58.075 142.881L57.5063 144.213L54.9875 150.2ZM59.8468 142.063C59.8468 141.884 59.9093 141.729 60.0343 141.6C60.1634 141.471 60.3176 141.406 60.4968 141.406C60.6759 141.406 60.828 141.471 60.953 141.6C61.078 141.729 61.1405 141.884 61.1405 142.063C61.1405 142.246 61.078 142.402 60.953 142.531C60.828 142.661 60.6759 142.725 60.4968 142.725C60.3176 142.725 60.1634 142.661 60.0343 142.531C59.9093 142.402 59.8468 142.246 59.8468 142.063ZM61.053 144.675V148.244C61.053 148.79 61.0613 149.134 61.078 149.275C61.0947 149.417 61.1551 149.525 61.2593 149.6C61.3634 149.675 61.5488 149.713 61.8155 149.713H61.9468V150H59.1905V149.713H59.403C59.6988 149.713 59.8905 149.671 59.978 149.588C60.0697 149.5 60.1218 149.398 60.1343 149.281C60.1509 149.161 60.1593 148.815 60.1593 148.244V146.694C60.1593 146.094 60.1301 145.727 60.0718 145.594C60.0176 145.461 59.9426 145.377 59.8468 145.344C59.7551 145.311 59.5926 145.294 59.3593 145.294H59.1905V145.006C59.9322 144.931 60.5072 144.821 60.9155 144.675H61.053ZM62.8373 150.163V148.481H63.081C63.3643 149.452 63.8706 149.938 64.5998 149.938C64.9164 149.938 65.1518 149.842 65.306 149.65C65.4643 149.459 65.5435 149.248 65.5435 149.019C65.5435 148.752 65.4602 148.534 65.2935 148.363C65.1227 148.192 64.7914 147.986 64.2998 147.744C63.7831 147.49 63.4123 147.24 63.1873 146.994C62.9623 146.752 62.8498 146.454 62.8498 146.1C62.8498 145.763 62.9706 145.442 63.2123 145.138C63.4539 144.829 63.7935 144.675 64.231 144.675C64.6768 144.675 65.0456 144.856 65.3373 145.219C65.3998 145.156 65.481 145.004 65.581 144.763H65.8123V146.344H65.581C65.4977 145.965 65.3352 145.64 65.0935 145.369C64.856 145.094 64.5748 144.956 64.2498 144.956C63.9998 144.956 63.7977 145.034 63.6435 145.188C63.4893 145.342 63.4123 145.521 63.4123 145.725C63.4123 145.95 63.4977 146.144 63.6685 146.306C63.8352 146.473 64.1539 146.663 64.6248 146.875C65.3331 147.196 65.7664 147.509 65.9248 147.813C66.0831 148.121 66.1623 148.417 66.1623 148.7C66.1623 149.146 66.0143 149.509 65.7185 149.788C65.4268 150.067 65.0581 150.206 64.6123 150.206C64.1414 150.206 63.7227 150.013 63.356 149.625C63.2435 149.75 63.1518 149.929 63.081 150.163H62.8373ZM67.5778 142.063C67.5778 141.884 67.6403 141.729 67.7653 141.6C67.8944 141.471 68.0486 141.406 68.2278 141.406C68.4069 141.406 68.559 141.471 68.684 141.6C68.809 141.729 68.8715 141.884 68.8715 142.063C68.8715 142.246 68.809 142.402 68.684 142.531C68.559 142.661 68.4069 142.725 68.2278 142.725C68.0486 142.725 67.8944 142.661 67.7653 142.531C67.6403 142.402 67.5778 142.246 67.5778 142.063ZM68.784 144.675V148.244C68.784 148.79 68.7923 149.134 68.809 149.275C68.8257 149.417 68.8861 149.525 68.9903 149.6C69.0944 149.675 69.2798 149.713 69.5465 149.713H69.6778V150H66.9215V149.713H67.134C67.4298 149.713 67.6215 149.671 67.709 149.588C67.8007 149.5 67.8528 149.398 67.8653 149.281C67.8819 149.161 67.8903 148.815 67.8903 148.244V146.694C67.8903 146.094 67.8611 145.727 67.8028 145.594C67.7486 145.461 67.6736 145.377 67.5778 145.344C67.4861 145.311 67.3236 145.294 67.0903 145.294H66.9215V145.006C67.6632 144.931 68.2382 144.821 68.6465 144.675H68.784ZM70.5245 147.431C70.5245 146.648 70.787 145.994 71.312 145.469C71.837 144.94 72.4828 144.675 73.2495 144.675C74.0203 144.675 74.6683 144.94 75.1933 145.469C75.7183 145.998 75.9808 146.652 75.9808 147.431C75.9808 148.294 75.7141 148.973 75.1808 149.469C74.6474 149.961 74.0037 150.206 73.2495 150.206C72.4953 150.206 71.8516 149.956 71.3183 149.456C70.7891 148.952 70.5245 148.277 70.5245 147.431ZM71.562 147.463C71.562 148.371 71.7099 149.009 72.0058 149.375C72.3016 149.738 72.7162 149.919 73.2495 149.919C73.7953 149.919 74.212 149.738 74.4995 149.375C74.7912 149.009 74.937 148.371 74.937 147.463C74.937 146.563 74.7933 145.921 74.5058 145.538C74.2183 145.154 73.7995 144.963 73.2495 144.963C72.7037 144.963 72.2849 145.154 71.9933 145.538C71.7058 145.917 71.562 146.559 71.562 147.463ZM78.34 144.675H78.5088C78.6046 144.934 78.6588 145.286 78.6713 145.731C78.9713 145.377 79.2858 145.113 79.615 144.938C79.9442 144.763 80.2879 144.675 80.6463 144.675C81.0546 144.675 81.3879 144.761 81.6463 144.931C81.9088 145.102 82.0775 145.313 82.1525 145.563C82.2275 145.809 82.265 146.169 82.265 146.644V148.244C82.265 148.836 82.2754 149.196 82.2963 149.325C82.3171 149.454 82.3817 149.552 82.49 149.619C82.6025 149.681 82.8067 149.713 83.1025 149.713V150H80.4838V149.713H80.6025C80.9025 149.713 81.0983 149.669 81.19 149.581C81.2817 149.494 81.3338 149.392 81.3463 149.275C81.3588 149.159 81.365 148.815 81.365 148.244V146.594C81.365 146.19 81.3442 145.902 81.3025 145.731C81.265 145.556 81.1588 145.402 80.9838 145.269C80.8129 145.136 80.5942 145.069 80.3275 145.069C80.0233 145.069 79.7317 145.161 79.4525 145.344C79.1775 145.523 78.9171 145.794 78.6713 146.156V148.244C78.6713 148.836 78.6817 149.196 78.7025 149.325C78.7275 149.454 78.7942 149.552 78.9025 149.619C79.015 149.681 79.2213 149.713 79.5213 149.713V150H76.9338V149.713C77.2213 149.713 77.4213 149.684 77.5338 149.625C77.6463 149.567 77.715 149.479 77.74 149.363C77.7692 149.242 77.7838 148.869 77.7838 148.244V146.719C77.7838 146.123 77.7713 145.763 77.7463 145.638C77.7254 145.509 77.6588 145.413 77.5463 145.35C77.4379 145.284 77.2338 145.25 76.9338 145.25V144.963C77.3921 144.913 77.8608 144.817 78.34 144.675Z" fill="#1E1E1E"/>
<path d="M95 145.95C95.5696 145.95 96.0591 145.731 96.6386 145.731C97.1157 145.731 97.6107 145.553 98.0587 145.403" stroke="#1F748F" stroke-width="1.5" stroke-linecap="round"/>
<path d="M103.74 144.092C103.995 144.092 104.25 144.092 104.505 144.092C104.786 144.092 105.02 143.884 105.294 143.874C105.903 143.851 106.517 143.874 107.127 143.874" stroke="#1F748F" stroke-width="1.5" stroke-linecap="round"/>
<path d="M113.463 144.202C114.069 144.202 114.846 144.509 115.375 144.802C116.001 145.15 116.642 144.803 117.068 145.513" stroke="#1F748F" stroke-width="1.5" stroke-linecap="round"/>
<path d="M122.529 147.151C123.143 147.151 123.735 147.26 124.362 147.26C124.888 147.26 125.422 147.205 125.916 147.37" stroke="#1F748F" stroke-width="1.5" stroke-linecap="round"/>
<path d="M131.158 146.277C132.593 146.277 133.9 145.622 135.309 145.622" stroke="#1F748F" stroke-width="1.5" stroke-linecap="round"/>
<path d="M139.242 144.311C140.473 144.311 141.798 143.386 142.956 143" stroke="#1F748F" stroke-width="1.5" stroke-linecap="round"/>
<path fill-rule="evenodd" clip-rule="evenodd" d="M210.138 27.6091L167.022 3.49036L124 27.2645L167.022 51.7278L210.138 27.6091ZM204.503 27.4665L167.021 6.64319L129.539 27.4665L167.021 48.2897L204.503 27.4665Z" fill="#1E1E1E"/>
<path d="M158.213 31.6573L164.067 16.2127L169.33 16.1855V16.7484H168.718C167.903 16.7484 167.368 16.8177 167.116 16.9564C166.863 17.0869 166.691 17.3357 166.602 17.7028C166.52 18.0698 166.597 21.0175 166.597 22.396V30.5327C166.597 31.8378 166.6 37.4025 166.665 37.8104C166.731 38.2101 166.894 38.5078 167.155 38.7036C167.424 38.8993 167.934 38.9972 168.684 38.9972H169.418V39.56H161.49V38.9972H162.077C162.778 38.9972 163.264 38.9075 163.533 38.728C163.81 38.5486 163.986 38.2712 164.059 37.896C164.141 37.5126 164.211 31.9194 164.211 30.5327L164.093 17.8985L157.64 34.8518H157.065L150.446 19.9734V29.6884C150.446 31.018 150.487 31.9235 150.568 32.4047C150.65 32.886 150.903 33.3102 151.327 33.6772C151.751 34.0361 152.346 34.2401 153.113 34.289V34.8518H147.179V34.289C147.889 34.2482 148.464 34.0565 148.904 33.7139C149.353 33.3632 149.626 32.9349 149.724 32.4292C149.822 31.9235 149.871 30.9854 149.871 29.615V22.396C149.871 21.0746 149.83 20.2222 149.748 19.8388C149.675 19.4554 149.512 19.1903 149.259 19.0435C149.014 18.8967 148.472 18.8233 147.632 18.8233H147.179V18.2604H152.232L158.213 31.6573Z" fill="#1E1E1E"/>
<path d="M181.615 37.9502H180.857L175.13 24.7602C175.024 24.5237 172.725 19.3074 172.497 18.7282C172.179 17.9451 171.834 17.436 171.484 17.1669C171.133 16.8977 170.566 16.7549 169.783 16.7386V16.1758H176.929V16.7386C176.039 16.7386 175.44 16.8039 175.13 16.9344C174.828 17.0649 174.677 17.3137 174.677 17.6808C174.677 17.9173 177.011 23.2634 177.394 24.1362L182.166 35.1482L185.996 25.9838C186.64 24.4503 186.962 23.451 186.962 22.9861C186.962 22.048 186.297 21.5627 184.968 21.5301V20.9672H190.033V21.5301C189.519 21.5464 189.067 21.7299 188.675 22.0807C188.284 22.4314 187.945 22.9453 187.66 23.6223L186.546 26.2285L181.615 37.9502Z" fill="#1E1E1E"/>
<path d="M191.248 166.961L195.831 170.712" stroke="#E64702" stroke-width="1.5"/>
<path d="M191.665 171.128C192.805 169.904 195.152 167.274 195.417 166.545" stroke="#E64702" stroke-width="1.5"/>
<path d="M209.873 166.871L214.209 170.968" stroke="#E64702" stroke-width="1.5"/>
<path d="M209.987 171.088C210.506 170.198 213.23 168.232 214.127 167.266" stroke="#E64702" stroke-width="1.5"/>
<path d="M204.282 165.898L200.731 169.394" stroke="#E64702" stroke-width="1.5"/>
<path d="M200.456 165.838C201.304 166.295 203.197 168.751 204.121 169.552" stroke="#E64702" stroke-width="1.5"/>
<path d="M223.103 165.898L219.552 169.394" stroke="#E64702" stroke-width="1.5"/>
<path d="M219.277 165.838C220.124 166.295 222.017 168.751 222.941 169.552" stroke="#E64702" stroke-width="1.5"/>
<path d="M234 147.288C244.119 145.926 247.826 145.534 259.173 143.889C262.689 143.379 263.109 143.103 264.133 143.674C265.669 144.529 266.143 145.29 267.677 144.903C269.884 144.346 273.568 143.494 282.362 140.576" stroke="#4A7947" stroke-width="1.5" stroke-linecap="round"/>
</svg>
