<svg width="18" height="17" viewBox="0 0 18 17" fill="none" xmlns="http://www.w3.org/2000/svg">
<path d="M16.669 0.000118854H1.33099C1.15857 -0.00212904 0.987375 0.0275288 0.827172 0.0873988C0.666969 0.147269 0.520898 0.236178 0.397302 0.349049C0.273705 0.46192 0.175003 0.596542 0.106834 0.745227C0.0386641 0.893911 0.00236172 1.05375 0 1.2156V15.7844C0.00236172 15.9463 0.0386641 16.1061 0.106834 16.2548C0.175003 16.4035 0.273705 16.5381 0.397302 16.6509C0.520898 16.7638 0.666969 16.8527 0.827172 16.9126C0.987375 16.9725 1.15857 17.0021 1.33099 16.9999H16.669C16.8414 17.0021 17.0126 16.9725 17.1728 16.9126C17.333 16.8527 17.4791 16.7638 17.6027 16.6509C17.7263 16.5381 17.825 16.4035 17.8932 16.2548C17.9613 16.1061 17.9976 15.9463 18 15.7844V1.2156C17.9976 1.05375 17.9613 0.893911 17.8932 0.745227C17.825 0.596542 17.7263 0.46192 17.6027 0.349049C17.4791 0.236178 17.333 0.147269 17.1728 0.0873988C17.0126 0.0275288 16.8414 -0.00212904 16.669 0.000118854ZM5.45976 14.2289H2.74346V6.57903H5.45976V14.2289ZM4.10161 5.50804C3.727 5.50804 3.36773 5.36834 3.10284 5.11967C2.83795 4.871 2.68914 4.53373 2.68914 4.18206C2.68914 3.83039 2.83795 3.49312 3.10284 3.24445C3.36773 2.99578 3.727 2.85608 4.10161 2.85608C4.30053 2.8349 4.50197 2.8534 4.69274 2.91038C4.88352 2.96735 5.05932 3.06151 5.20864 3.18669C5.35797 3.31187 5.47744 3.46525 5.55924 3.63678C5.64104 3.80831 5.68333 3.99412 5.68333 4.18206C5.68333 4.37 5.64104 4.55581 5.55924 4.72734C5.47744 4.89887 5.35797 5.05225 5.20864 5.17743C5.05932 5.30261 4.88352 5.39677 4.69274 5.45374C4.50197 5.51072 4.30053 5.52922 4.10161 5.50804ZM15.2565 14.2289H12.5402V10.1235C12.5402 9.09499 12.1509 8.4235 11.164 8.4235C10.8585 8.4256 10.5611 8.51554 10.3118 8.68119C10.0625 8.84685 9.87328 9.08027 9.76962 9.34999C9.69876 9.54977 9.66806 9.76017 9.67907 9.97048V14.2204H6.96278C6.96278 14.2204 6.96278 7.26752 6.96278 6.57053H9.67907V7.65001C9.92583 7.24806 10.2847 6.91691 10.7171 6.69225C11.1495 6.46758 11.6389 6.3579 12.1328 6.37503C13.9437 6.37503 15.2565 7.47152 15.2565 9.82598V14.2289Z" fill="#444444"/>
</svg>
