<svg width="18" height="18" viewBox="0 0 18 18" fill="none" xmlns="http://www.w3.org/2000/svg">
<path fill-rule="evenodd" clip-rule="evenodd" d="M2 0C0.895431 0 0 0.89543 0 2V16C0 17.1046 0.89543 18 2 18H16C17.1046 18 18 17.1046 18 16V2C18 0.895431 17.1046 0 16 0H2ZM5.73333 13C7.79192 13 9.46667 11.2056 9.46667 9C9.46667 6.79441 7.79192 5 5.73333 5C3.67475 5 2 6.7944 2 9C2 11.2056 3.67475 13 5.73333 13ZM10.8478 6.48535C11.31 5.39769 11.9352 5.23529 12.2667 5.23529C12.5982 5.23529 13.2233 5.39769 13.6856 6.48535C13.9743 7.16475 14.1333 8.05785 14.1333 9C14.1333 9.94215 13.9743 10.8352 13.6856 11.5146C13.2233 12.6023 12.5982 12.7647 12.2667 12.7647C11.9352 12.7647 11.31 12.6023 10.8478 11.5146C10.559 10.8352 10.4 9.94215 10.4 9C10.4 8.05785 10.559 7.16475 10.8478 6.48535ZM15.2034 5.37313C15.2909 5.28488 15.4096 5.2353 15.5333 5.23529C15.6571 5.2353 15.7758 5.28488 15.8633 5.37313C15.9508 5.46138 16 5.58108 16 5.70588V12.2941C16 12.4189 15.9508 12.5386 15.8633 12.6269C15.7758 12.7151 15.6571 12.7647 15.5333 12.7647C15.4096 12.7647 15.2909 12.7151 15.2034 12.6269C15.1158 12.5386 15.0667 12.4189 15.0667 12.2941V5.70588C15.0667 5.58108 15.1158 5.46138 15.2034 5.37313Z" fill="#444444"/>
</svg>
