<svg width="222" height="28" viewBox="0 0 222 28" fill="none" xmlns="http://www.w3.org/2000/svg">
<path d="M18.5547 22.4297L28.2031 0.515625H36.3281V1.41406H35.3516C34.0495 1.41406 33.1966 1.52474 32.793 1.74609C32.3893 1.95443 32.1159 2.35156 31.9727 2.9375C31.8424 3.52344 31.7773 4.91667 31.7773 7.11719V20.1055C31.7773 22.1888 31.8294 23.556 31.9336 24.207C32.0378 24.8451 32.2982 25.3203 32.7148 25.6328C33.1445 25.9453 33.9583 26.1016 35.1562 26.1016H36.3281V27H23.6719V26.1016H24.6094C25.7292 26.1016 26.5039 25.9583 26.9336 25.6719C27.3763 25.3854 27.6562 24.9427 27.7734 24.3438C27.9036 23.7318 27.9688 22.319 27.9688 20.1055V3.25L17.4805 27H16.5625L5.99609 3.25V18.7578C5.99609 20.8802 6.0612 22.3255 6.19141 23.0938C6.32161 23.862 6.72526 24.5391 7.40234 25.125C8.07943 25.6979 9.02995 26.0234 10.2539 26.1016V27H0.78125V26.1016C1.91406 26.0365 2.83203 25.7305 3.53516 25.1836C4.2513 24.6237 4.6875 23.9401 4.84375 23.1328C5 22.3255 5.07812 20.8281 5.07812 18.6406V7.11719C5.07812 5.00781 5.01302 3.64714 4.88281 3.03516C4.76562 2.42318 4.50521 2 4.10156 1.76562C3.71094 1.53125 2.84505 1.41406 1.50391 1.41406H0.78125V0.515625H8.84766L18.5547 22.4297ZM61.9414 18.7578H62.8789L62.3125 27H40.3789V26.1016H40.9258C42.2409 26.1016 43.0872 25.9258 43.4648 25.5742C43.8555 25.2227 44.1029 24.7799 44.207 24.2461C44.3112 23.6992 44.3633 22.319 44.3633 20.1055V7.11719C44.3633 5.09896 44.3047 3.77083 44.1875 3.13281C44.0833 2.49479 43.8294 2.05208 43.4258 1.80469C43.0352 1.54427 42.2018 1.41406 40.9258 1.41406V0.515625H59.8516L60.4766 7.11719H59.5586C59.1419 5.26823 58.6276 3.95964 58.0156 3.19141C57.4167 2.41016 56.7005 1.92188 55.8672 1.72656C55.0339 1.51823 53.6927 1.41406 51.8438 1.41406H48.1719V12.5273H50.9844C52.2734 12.5273 53.1719 12.4167 53.6797 12.1953C54.2005 11.974 54.5391 11.6419 54.6953 11.1992C54.8646 10.7435 54.9492 9.86458 54.9492 8.5625H55.8672V17.625H54.9492C54.9492 16.1536 54.8255 15.1706 54.5781 14.6758C54.3307 14.168 53.9661 13.8424 53.4844 13.6992C53.0156 13.543 52.2148 13.4648 51.082 13.4648H48.1719V19.7344C48.1719 22.8724 48.3737 24.7214 48.7773 25.2812C49.181 25.8281 50.2682 26.1016 52.0391 26.1016H54.0117C55.4049 26.1016 56.5508 25.9258 57.4492 25.5742C58.3477 25.2096 59.2005 24.474 60.0078 23.3672C60.8281 22.2474 61.4727 20.7109 61.9414 18.7578ZM95.1914 27H88.0625C86.7995 26.1146 84.8659 23.7969 82.2617 20.0469C81.4284 18.849 80.5625 17.7031 79.6641 16.6094C78.7656 15.5026 78.1471 14.832 77.8086 14.5977C77.4701 14.3503 76.9427 14.2266 76.2266 14.2266H75.1719V20.1055C75.1719 22.1888 75.2174 23.556 75.3086 24.207C75.4128 24.8451 75.6732 25.3203 76.0898 25.6328C76.5195 25.9453 77.3333 26.1016 78.5312 26.1016H79.8008V27H67.125V26.1016H67.9844C69.1172 26.1016 69.8984 25.9583 70.3281 25.6719C70.7708 25.3854 71.0508 24.9427 71.168 24.3438C71.2852 23.7318 71.3438 22.319 71.3438 20.1055V7.11719C71.3438 5.00781 71.2852 3.64714 71.168 3.03516C71.0508 2.42318 70.7904 2 70.3867 1.76562C69.9831 1.53125 69.1107 1.41406 67.7695 1.41406H67.3203V0.515625L71.1094 0.320312C73.6354 0.203125 75.6406 0.144531 77.125 0.144531C79.651 0.144531 81.7018 0.378906 83.2773 0.847656C84.8659 1.31641 86.1484 2.08464 87.125 3.15234C88.1016 4.22005 88.5898 5.49609 88.5898 6.98047C88.5898 8.71224 87.9518 10.1901 86.6758 11.4141C85.3997 12.638 83.5247 13.3997 81.0508 13.6992C82.1576 14.2331 83.9414 16.1602 86.4023 19.4805C88.4076 22.1758 89.9831 23.9401 91.1289 24.7734C92.2747 25.6068 93.6289 26.0495 95.1914 26.1016V27ZM75.1719 13.3281C76.1484 13.3021 77.1576 13.263 78.1992 13.2109C79.2409 13.1589 80.1458 13.0156 80.9141 12.7812C81.6823 12.5469 82.3008 12.2083 82.7695 11.7656C83.2513 11.3099 83.6289 10.7174 83.9023 9.98828C84.1758 9.25911 84.3125 8.36068 84.3125 7.29297C84.3125 5.43099 83.8438 3.9401 82.9062 2.82031C81.9818 1.70052 79.957 1.14062 76.832 1.14062C76.3503 1.14062 75.7969 1.16667 75.1719 1.21875V13.3281ZM97.9242 1.41406V0.515625H110.034V1.41406H109.467C108.165 1.41406 107.312 1.52474 106.909 1.74609C106.505 1.95443 106.232 2.35156 106.088 2.9375C105.958 3.52344 105.893 4.91667 105.893 7.11719V20.1055C105.893 22.1888 105.939 23.556 106.03 24.207C106.134 24.8451 106.394 25.3203 106.811 25.6328C107.241 25.9453 108.054 26.1016 109.252 26.1016H110.034V27H97.9242V26.1016H98.7055C99.8383 26.1016 100.62 25.9583 101.049 25.6719C101.492 25.3854 101.772 24.9427 101.889 24.3438C102.006 23.7318 102.065 22.319 102.065 20.1055V7.11719C102.065 5.00781 102.006 3.64714 101.889 3.03516C101.772 2.42318 101.511 2 101.108 1.76562C100.704 1.53125 99.8318 1.41406 98.4906 1.41406H97.9242ZM115.206 0.730469L119.562 0.515625C123.195 0.333333 125.642 0.242188 126.905 0.242188C130.838 0.242188 133.904 0.841146 136.105 2.03906C138.305 3.23698 139.939 4.86458 141.007 6.92188C142.088 8.96615 142.628 11.3294 142.628 14.0117C142.628 15.9518 142.335 17.7292 141.749 19.3438C141.163 20.9453 140.356 22.2799 139.327 23.3477C138.312 24.4023 137.127 25.2096 135.773 25.7695C134.432 26.3164 133.155 26.6615 131.945 26.8047C130.734 26.9349 129.028 27 126.827 27H115.089V26.1016H116.183C117.316 26.1016 118.097 25.9583 118.527 25.6719C118.969 25.3854 119.249 24.9427 119.366 24.3438C119.497 23.7318 119.562 22.319 119.562 20.1055V7.33203C119.562 5.22266 119.497 3.86198 119.366 3.25C119.249 2.625 118.989 2.20182 118.585 1.98047C118.195 1.74609 117.329 1.62891 115.988 1.62891H115.206V0.730469ZM123.37 1.27734V18.9727C123.37 21.5898 123.416 23.276 123.507 24.0312C123.611 24.7865 123.904 25.3203 124.386 25.6328C124.881 25.9323 125.916 26.082 127.491 26.082C129.796 26.082 131.691 25.7695 133.175 25.1445C134.659 24.5065 135.896 23.263 136.886 21.4141C137.889 19.5521 138.39 17.1823 138.39 14.3047C138.39 12.0651 138.097 10.0664 137.511 8.30859C136.938 6.55078 136.111 5.125 135.03 4.03125C133.95 2.92448 132.752 2.17578 131.437 1.78516C130.122 1.38151 128.435 1.17969 126.378 1.17969C125.389 1.17969 124.386 1.21224 123.37 1.27734ZM147.334 1.41406V0.515625H159.443V1.41406H158.877C157.574 1.41406 156.722 1.52474 156.318 1.74609C155.914 1.95443 155.641 2.35156 155.498 2.9375C155.367 3.52344 155.302 4.91667 155.302 7.11719V20.1055C155.302 22.1888 155.348 23.556 155.439 24.207C155.543 24.8451 155.804 25.3203 156.22 25.6328C156.65 25.9453 157.464 26.1016 158.662 26.1016H159.443V27H147.334V26.1016H148.115C149.248 26.1016 150.029 25.9583 150.459 25.6719C150.901 25.3854 151.181 24.9427 151.298 24.3438C151.416 23.7318 151.474 22.319 151.474 20.1055V7.11719C151.474 5.00781 151.416 3.64714 151.298 3.03516C151.181 2.42318 150.921 2 150.517 1.76562C150.114 1.53125 149.241 1.41406 147.9 1.41406H147.334ZM179.744 17.2344H169.685L169.002 18.9141C167.986 21.349 167.478 22.9375 167.478 23.6797C167.478 24.474 167.745 25.0794 168.279 25.4961C168.826 25.8997 169.522 26.1016 170.369 26.1016V27H162.498V26.1016C163.67 25.9193 164.542 25.5091 165.115 24.8711C165.688 24.2201 166.378 22.8594 167.185 20.7891C167.25 20.5938 167.563 19.8385 168.123 18.5234L175.818 0.144531H176.58L185.427 21.1797L186.638 23.9531C186.912 24.5781 187.276 25.0729 187.732 25.4375C188.201 25.7891 188.897 26.0104 189.822 26.1016V27H179.412V26.1016C180.688 26.1016 181.547 26.0104 181.99 25.8281C182.446 25.6328 182.673 25.2552 182.673 24.6953C182.673 24.4089 182.374 23.556 181.775 22.1367L179.744 17.2344ZM179.412 16.3555L174.724 5.06641L170.056 16.3555H179.412ZM216.216 27.6055L197.486 2.78125V21.1602C197.486 22.6836 197.558 23.6862 197.701 24.168C197.857 24.6497 198.287 25.0924 198.99 25.4961C199.693 25.8997 200.748 26.1016 202.154 26.1016V27H192.271V26.1016C193.534 26.0104 194.498 25.7826 195.162 25.418C195.826 25.0404 196.216 24.6367 196.334 24.207C196.464 23.7773 196.529 22.7617 196.529 21.1602V7.11719C196.529 5.08594 196.431 3.72526 196.236 3.03516C196.054 2.34505 195.754 1.90234 195.337 1.70703C194.934 1.51172 194.022 1.41406 192.603 1.41406V0.515625H200.416L216.099 21.2383V5.39844C216.099 4.22656 215.976 3.40625 215.728 2.9375C215.494 2.46875 215.005 2.09766 214.263 1.82422C213.521 1.55078 212.629 1.41406 211.587 1.41406V0.515625H221.197V1.41406C220.077 1.50521 219.192 1.72005 218.541 2.05859C217.903 2.39714 217.492 2.80729 217.31 3.28906C217.141 3.75781 217.056 4.55859 217.056 5.69141V27.6055H216.216Z" fill="#1E1E1E"/>
</svg>
