<svg width="140" height="28" viewBox="0 0 140 28" fill="none" xmlns="http://www.w3.org/2000/svg">
<path d="M31.88 8.4C31.2133 8.52 30.5733 8.73333 29.96 9.04C29.36 9.34667 28.8133 9.73333 28.32 10.2C28.6267 10.4933 28.8867 10.8267 29.1 11.2C29.3133 11.5733 29.4867 11.9667 29.62 12.38C29.7533 12.78 29.8467 13.1933 29.9 13.62C29.9667 14.0467 30 14.46 30 14.86C30 16.06 29.74 17.18 29.22 18.22C28.7 19.2467 28.0133 20.14 27.16 20.9C26.32 21.6467 25.3667 22.24 24.3 22.68C23.2333 23.1067 22.1533 23.32 21.06 23.32C20.6467 23.32 20.28 23.3067 19.96 23.28C19.64 23.2667 19.3467 23.24 19.08 23.2C18.8267 23.1733 18.5867 23.1333 18.36 23.08C18.1467 23.04 17.9267 22.9933 17.7 22.94C17.5133 22.9667 17.3333 22.9933 17.16 23.02C17 23.06 16.8333 23.0933 16.66 23.12C16.5 23.1467 16.3133 23.1667 16.1 23.18C15.9 23.1933 15.6667 23.2 15.4 23.2C15.08 23.2 14.8333 23.1667 14.66 23.1C14.4867 23.0467 14.4 22.94 14.4 22.78C14.4 22.62 14.4667 22.5133 14.6 22.46C14.7467 22.3933 14.9333 22.36 15.16 22.36C15.32 22.36 15.4733 22.3733 15.62 22.4C15.78 22.4133 15.9533 22.44 16.14 22.48C16.34 22.52 16.56 22.5667 16.8 22.62C17.04 22.66 17.3333 22.7067 17.68 22.76C18.36 22.5867 18.98 22.2333 19.54 21.7C20.1133 21.1667 20.6533 20.5333 21.16 19.8C21.68 19.0667 22.1867 18.26 22.68 17.38C23.1733 16.5 23.68 15.6267 24.2 14.76C24.7333 13.88 25.2933 13.04 25.88 12.24C26.48 11.44 27.1333 10.7467 27.84 10.16C27.28 9.69333 26.6533 9.36667 25.96 9.18C25.28 8.98 24.6533 8.88 24.08 8.88C23 8.88 21.9467 9.06667 20.92 9.44C19.9067 9.81333 19 10.3333 18.2 11C17.4133 11.6667 16.78 12.4533 16.3 13.36C15.82 14.2667 15.58 15.2533 15.58 16.32C15.58 16.7467 15.62 17.1533 15.7 17.54C15.78 17.9133 15.92 18.2467 16.12 18.54C16.32 18.8333 16.58 19.0667 16.9 19.24C17.22 19.4 17.62 19.48 18.1 19.48C18.7 19.48 19.2467 19.34 19.74 19.06C20.2467 18.7667 20.6733 18.38 21.02 17.9C21.38 17.4067 21.66 16.84 21.86 16.2C22.06 15.5467 22.16 14.8667 22.16 14.16V13.48H22.4V14.06C22.4 14.8867 22.2867 15.6533 22.06 16.36C21.8333 17.0533 21.5133 17.66 21.1 18.18C20.6867 18.6867 20.2 19.0867 19.64 19.38C19.08 19.66 18.4667 19.8 17.8 19.8C17.2933 19.8 16.8467 19.7067 16.46 19.52C16.0867 19.32 15.7733 19.06 15.52 18.74C15.28 18.42 15.0933 18.0467 14.96 17.62C14.84 17.1933 14.78 16.7467 14.78 16.28C14.78 15.4533 15.0133 14.5933 15.48 13.7C15.96 12.8067 16.6133 11.9867 17.44 11.24C18.2667 10.48 19.24 9.86 20.36 9.38C21.4933 8.88667 22.7133 8.64 24.02 8.64C24.7933 8.64 25.52 8.76 26.2 9C26.88 9.22667 27.5 9.55333 28.06 9.98C28.62 9.55333 29.2133 9.18667 29.84 8.88C30.4667 8.56 31.1333 8.34667 31.84 8.24L31.88 8.4ZM20.72 23.08C21.6533 23.08 22.5067 22.94 23.28 22.66C24.0533 22.38 24.7467 22.0067 25.36 21.54C25.9867 21.06 26.5267 20.5 26.98 19.86C27.4333 19.22 27.8133 18.5467 28.12 17.84C28.4267 17.12 28.6533 16.3867 28.8 15.64C28.96 14.88 29.04 14.1467 29.04 13.44C29.04 12.9067 28.9667 12.3733 28.82 11.84C28.6733 11.2933 28.4333 10.84 28.1 10.48C27.5533 11.0933 27.0467 11.7867 26.58 12.56C26.1267 13.3333 25.6733 14.1333 25.22 14.96C24.7667 15.7867 24.3 16.6067 23.82 17.42C23.34 18.2333 22.82 18.9933 22.26 19.7C21.7 20.4067 21.0733 21.04 20.38 21.6C19.7 22.1467 18.92 22.56 18.04 22.84V22.88C18.4533 22.96 18.8667 23.0133 19.28 23.04C19.7067 23.0667 20.1867 23.08 20.72 23.08ZM35.9734 16.76C35.9734 16.5733 35.9201 16.4333 35.8134 16.34C35.7201 16.2467 35.6001 16.2 35.4534 16.2C35.1734 16.2 34.8668 16.3133 34.5334 16.54C34.2134 16.7533 33.8934 17.0267 33.5734 17.36C33.2534 17.68 32.9601 18.0267 32.6934 18.4C32.4401 18.7733 32.2468 19.1067 32.1134 19.4C32.4068 19.3467 32.7734 19.2467 33.2134 19.1C33.6534 18.94 34.0734 18.7467 34.4734 18.52C34.8868 18.2933 35.2401 18.0333 35.5334 17.74C35.8268 17.4333 35.9734 17.1067 35.9734 16.76ZM39.2134 17.82C39.0134 18.1533 38.7601 18.52 38.4534 18.92C38.1601 19.32 37.8201 19.72 37.4334 20.12C37.0601 20.5067 36.6534 20.8867 36.2134 21.26C35.7868 21.62 35.3401 21.9467 34.8734 22.24C34.4068 22.52 33.9334 22.7467 33.4534 22.92C32.9868 23.08 32.5268 23.16 32.0734 23.16C31.5134 23.16 31.0801 23.02 30.7734 22.74C30.4668 22.4467 30.3134 22.0333 30.3134 21.5C30.3134 20.9133 30.4868 20.3 30.8334 19.66C31.1934 19.0067 31.6468 18.4067 32.1934 17.86C32.7401 17.3133 33.3401 16.86 33.9934 16.5C34.6468 16.14 35.2734 15.96 35.8734 15.96C36.2068 15.96 36.4668 16.0333 36.6534 16.18C36.8401 16.3133 36.9334 16.5133 36.9334 16.78C36.9334 17.1 36.7601 17.4133 36.4134 17.72C36.0668 18.0133 35.6401 18.2867 35.1334 18.54C34.6401 18.78 34.1068 19 33.5334 19.2C32.9601 19.3867 32.4534 19.5267 32.0134 19.62C31.8668 19.8867 31.7468 20.1867 31.6534 20.52C31.5601 20.8533 31.5134 21.1867 31.5134 21.52C31.5134 21.68 31.5268 21.84 31.5534 22C31.5934 22.1467 31.6468 22.2867 31.7134 22.42C31.7934 22.54 31.8934 22.64 32.0134 22.72C32.1468 22.8 32.3068 22.84 32.4934 22.84C32.9334 22.84 33.4468 22.7 34.0334 22.42C34.6334 22.1267 35.2401 21.74 35.8534 21.26C36.4668 20.78 37.0534 20.2333 37.6134 19.62C38.1734 19.0067 38.6534 18.3733 39.0534 17.72L39.2134 17.82ZM41.4536 16.12C41.2003 16.4533 40.8803 16.8733 40.4936 17.38C40.1069 17.8867 39.7269 18.42 39.3536 18.98C38.9936 19.5267 38.6803 20.0733 38.4136 20.62C38.1469 21.1667 38.0136 21.64 38.0136 22.04C38.0136 22.28 38.0869 22.4867 38.2336 22.66C38.3803 22.8333 38.6269 22.92 38.9736 22.92C39.4936 22.92 40.0269 22.7133 40.5736 22.3C41.1203 21.8867 41.6203 21.3867 42.0736 20.8C42.5269 20.2 42.9003 19.5867 43.1936 18.96C43.4869 18.32 43.6336 17.78 43.6336 17.34C43.6336 17.2333 43.6069 17.12 43.5536 17C43.5003 16.88 43.4736 16.7467 43.4736 16.6C43.4736 16.44 43.5203 16.2933 43.6136 16.16C43.7069 16.0267 43.8403 15.96 44.0136 15.96C44.2003 15.96 44.3603 16.0667 44.4936 16.28C44.6403 16.4933 44.7136 16.86 44.7136 17.38C44.7136 17.5267 44.7003 17.6667 44.6736 17.8C44.6603 17.92 44.6469 18.04 44.6336 18.16C44.7803 18.36 44.9936 18.5267 45.2736 18.66C45.5536 18.78 45.8269 18.84 46.0936 18.84C46.4403 18.84 46.8069 18.7533 47.1936 18.58C47.5936 18.3933 47.9203 18.0933 48.1736 17.68L48.3336 17.78C48.2403 17.98 48.1069 18.16 47.9336 18.32C47.7736 18.48 47.5936 18.62 47.3936 18.74C47.1936 18.8467 46.9803 18.9333 46.7536 19C46.5269 19.0533 46.3003 19.08 46.0736 19.08C45.7803 19.08 45.5003 19.02 45.2336 18.9C44.9669 18.7667 44.7403 18.62 44.5536 18.46C44.3936 18.98 44.1069 19.52 43.6936 20.08C43.2936 20.6267 42.8269 21.1333 42.2936 21.6C41.7603 22.0533 41.1869 22.4267 40.5736 22.72C39.9736 23.0133 39.3803 23.16 38.7936 23.16C38.2336 23.16 37.8003 23.0333 37.4936 22.78C37.2003 22.5133 37.0536 22.08 37.0536 21.48C37.0536 21.08 37.1736 20.6467 37.4136 20.18C37.6669 19.7 37.9603 19.22 38.2936 18.74C38.6269 18.2467 38.9669 17.7733 39.3136 17.32C39.6603 16.8667 39.9403 16.4667 40.1536 16.12H41.4536ZM57.3003 17.94C56.9803 18.3 56.6203 18.5867 56.2203 18.8C55.8203 19.0133 55.427 19.12 55.0403 19.12C54.667 19.12 54.347 19.04 54.0803 18.88C53.8136 18.7067 53.607 18.5067 53.4603 18.28H53.4203C53.287 18.7867 53.0403 19.3267 52.6803 19.9C52.3203 20.4733 51.887 21 51.3803 21.48C50.887 21.96 50.3403 22.36 49.7403 22.68C49.1403 23 48.527 23.16 47.9003 23.16C47.327 23.16 46.8936 22.9933 46.6003 22.66C46.307 22.3267 46.1603 21.88 46.1603 21.32C46.1603 21.0267 46.2336 20.6867 46.3803 20.3C46.527 19.9133 46.727 19.5267 46.9803 19.14C47.247 18.74 47.5536 18.3533 47.9003 17.98C48.2603 17.5933 48.647 17.2533 49.0603 16.96C49.4736 16.6533 49.907 16.4133 50.3603 16.24C50.827 16.0533 51.2936 15.96 51.7603 15.96C52.307 15.96 52.727 16.12 53.0203 16.44C53.327 16.76 53.4936 17.1733 53.5203 17.68C53.547 17.9867 53.687 18.2733 53.9403 18.54C54.207 18.7933 54.567 18.92 55.0203 18.92C55.4203 18.92 55.7936 18.82 56.1403 18.62C56.5003 18.42 56.8336 18.16 57.1403 17.84L57.3003 17.94ZM47.2403 21.8C47.2403 22.1467 47.307 22.42 47.4403 22.62C47.5736 22.82 47.7736 22.92 48.0403 22.92C48.4003 22.92 48.7536 22.8267 49.1003 22.64C49.4603 22.44 49.8003 22.1867 50.1203 21.88C50.4536 21.56 50.7603 21.2 51.0403 20.8C51.3203 20.4 51.5603 19.9867 51.7603 19.56C51.9736 19.1333 52.1403 18.72 52.2603 18.32C52.3803 17.9067 52.4403 17.5333 52.4403 17.2C52.4403 16.92 52.367 16.6867 52.2203 16.5C52.087 16.3 51.8736 16.2 51.5803 16.2C51.3003 16.2 51.0003 16.2933 50.6803 16.48C50.3603 16.6533 50.0336 16.8867 49.7003 17.18C49.3803 17.4733 49.0736 17.8133 48.7803 18.2C48.487 18.5867 48.2203 18.9867 47.9803 19.4C47.7536 19.8133 47.5736 20.2267 47.4403 20.64C47.307 21.0533 47.2403 21.44 47.2403 21.8ZM59.407 16.12L56.767 19.78L56.807 19.82C57.087 19.4867 57.4137 19.1 57.787 18.66C58.1604 18.2067 58.5604 17.78 58.987 17.38C59.4137 16.98 59.8537 16.6467 60.307 16.38C60.7737 16.1 61.2337 15.96 61.687 15.96C62.087 15.96 62.3937 16.0733 62.607 16.3C62.8337 16.5133 62.947 16.7933 62.947 17.14C62.947 17.3533 62.867 17.6067 62.707 17.9C62.5604 18.1933 62.3737 18.5067 62.147 18.84C61.9204 19.1733 61.6737 19.5133 61.407 19.86C61.1404 20.2067 60.8937 20.54 60.667 20.86C60.4404 21.1667 60.247 21.4533 60.087 21.72C59.9404 21.9733 59.867 22.1867 59.867 22.36C59.867 22.7333 60.0537 22.92 60.427 22.92C60.8537 22.92 61.307 22.78 61.787 22.5C62.267 22.2067 62.8404 21.72 63.507 21.04C63.7737 20.7733 64.0404 20.48 64.307 20.16C64.587 19.84 64.8537 19.5267 65.107 19.22C65.3604 18.9 65.587 18.6 65.787 18.32C66.0004 18.04 66.167 17.8067 66.287 17.62L66.427 17.7C66.1604 18.1 65.8137 18.58 65.387 19.14C64.9737 19.6867 64.5204 20.2267 64.027 20.76C63.7337 21.08 63.4337 21.3867 63.127 21.68C62.8204 21.9733 62.5137 22.2333 62.207 22.46C61.9004 22.6733 61.5937 22.8467 61.287 22.98C60.9937 23.1 60.7004 23.16 60.407 23.16C60.0204 23.16 59.7004 23.0533 59.447 22.84C59.1937 22.6267 59.067 22.3333 59.067 21.96C59.067 21.56 59.227 21.1267 59.547 20.66C59.867 20.18 60.2204 19.7 60.607 19.22C60.9937 18.74 61.347 18.28 61.667 17.84C61.987 17.4 62.147 17.0133 62.147 16.68C62.147 16.52 62.0937 16.4 61.987 16.32C61.8804 16.24 61.7404 16.2 61.567 16.2C61.2337 16.2 60.8604 16.3267 60.447 16.58C60.0337 16.82 59.607 17.1467 59.167 17.56C58.7404 17.96 58.307 18.4133 57.867 18.92C57.4404 19.4133 57.0404 19.9133 56.667 20.42C56.2937 20.9133 55.9604 21.3933 55.667 21.86C55.3737 22.3133 55.1537 22.6933 55.007 23H53.767C54.1137 22.4133 54.487 21.82 54.887 21.22C55.2737 20.6067 55.6604 20.0067 56.047 19.42C56.4337 18.82 56.8004 18.2467 57.147 17.7C57.507 17.14 57.827 16.6333 58.107 16.18L59.407 16.12ZM78.4938 7.14C78.1871 7.40667 77.9538 7.72667 77.7938 8.1C77.6338 8.46 77.5538 8.80667 77.5538 9.14C77.5538 9.42 77.5938 9.69333 77.6738 9.96C77.7538 10.2267 77.8604 10.44 77.9938 10.6C78.8604 10.0667 79.7871 9.62667 80.7738 9.28C81.7604 8.93333 82.7738 8.76 83.8138 8.76C84.0538 8.76 84.3004 8.78 84.5538 8.82C84.8204 8.86 85.0604 8.93333 85.2738 9.04C85.4871 9.13333 85.6604 9.27333 85.7938 9.46C85.9404 9.64667 86.0138 9.88 86.0138 10.16C86.0138 10.6 85.8871 10.9733 85.6338 11.28C85.3804 11.5733 85.0538 11.8133 84.6538 12C84.2538 12.1867 83.8071 12.32 83.3138 12.4C82.8204 12.48 82.3338 12.52 81.8538 12.52C81.2404 12.52 80.6004 12.4333 79.9338 12.26C79.2671 12.0733 78.6804 11.7267 78.1738 11.22C77.7871 11.4867 77.3871 11.8467 76.9738 12.3C76.5738 12.74 76.2004 13.22 75.8538 13.74C75.5204 14.26 75.2404 14.7933 75.0138 15.34C74.8004 15.8867 74.6938 16.3933 74.6938 16.86C74.6938 17.14 74.7138 17.4067 74.7538 17.66C74.8071 17.9 74.8938 18.1133 75.0138 18.3C75.1471 18.4733 75.3204 18.6133 75.5338 18.72C75.7471 18.8267 76.0138 18.88 76.3338 18.88C76.7071 18.88 77.0871 18.8067 77.4738 18.66C77.8604 18.5133 78.2204 18.34 78.5538 18.14C78.8871 17.9267 79.1738 17.7133 79.4138 17.5C79.6538 17.2867 79.8004 17.1133 79.8538 16.98C79.9871 16.7 80.1071 16.44 80.2138 16.2C80.3338 15.96 80.4671 15.7533 80.6138 15.58C80.7604 15.3933 80.9338 15.2467 81.1338 15.14C81.3471 15.0333 81.6071 14.98 81.9138 14.98C81.9938 14.98 82.0671 15 82.1338 15.04C82.2138 15.08 82.2538 15.16 82.2538 15.28C82.2538 15.4267 82.1204 15.6533 81.8538 15.96C81.5871 16.2667 81.3138 16.6 81.0338 16.96C80.6204 17.6933 80.1471 18.44 79.6138 19.2C79.0938 19.96 78.5071 20.6467 77.8538 21.26C77.2004 21.86 76.4738 22.3533 75.6738 22.74C74.8738 23.1267 74.0004 23.32 73.0538 23.32C72.6004 23.32 72.1738 23.2533 71.7738 23.12C71.3871 23 71.0471 22.8267 70.7538 22.6C70.4604 22.36 70.2271 22.08 70.0538 21.76C69.8938 21.4267 69.8138 21.0667 69.8138 20.68C69.8138 20.3333 69.8938 20.0267 70.0538 19.76C70.2271 19.4933 70.5004 19.36 70.8738 19.36C71.0604 19.36 71.2204 19.4333 71.3538 19.58C71.5004 19.7133 71.5738 19.8733 71.5738 20.06C71.5738 20.2733 71.5071 20.4467 71.3738 20.58C71.2538 20.7133 71.0871 20.7733 70.8738 20.76C70.8338 20.76 70.7738 20.76 70.6938 20.76C70.6271 20.7467 70.5738 20.7267 70.5338 20.7C70.5071 20.7933 70.4938 20.88 70.4938 20.96C70.4938 21.0267 70.4938 21.0933 70.4938 21.16C70.4938 21.4533 70.5671 21.72 70.7138 21.96C70.8604 22.2 71.0538 22.4067 71.2938 22.58C71.5338 22.74 71.8071 22.8667 72.1138 22.96C72.4338 23.04 72.7671 23.08 73.1138 23.08C73.8338 23.08 74.4938 22.9067 75.0938 22.56C75.7071 22.2133 76.2671 21.78 76.7738 21.26C77.2804 20.74 77.7404 20.18 78.1538 19.58C78.5804 18.9667 78.9604 18.4 79.2938 17.88L79.2538 17.84C78.7871 18.2267 78.2604 18.5533 77.6738 18.82C77.0871 19.0733 76.4738 19.2 75.8338 19.2C75.0871 19.2 74.4938 18.98 74.0538 18.54C73.6271 18.1 73.4138 17.5067 73.4138 16.76C73.4138 16.1733 73.5538 15.5867 73.8338 15C74.1271 14.4133 74.4871 13.86 74.9138 13.34C75.3538 12.8067 75.8338 12.32 76.3538 11.88C76.8738 11.4267 77.3604 11.0533 77.8138 10.76C77.4804 10.28 77.3138 9.75333 77.3138 9.18C77.3138 8.74 77.4138 8.33333 77.6138 7.96C77.8271 7.58667 78.0804 7.27333 78.3738 7.02L78.4938 7.14ZM85.2138 9.98C85.2138 9.74 85.1538 9.56 85.0338 9.44C84.9271 9.30667 84.7804 9.20667 84.5938 9.14C84.4204 9.07333 84.2338 9.03333 84.0338 9.02C83.8338 9.00667 83.6404 9 83.4538 9C83.0138 9 82.5604 9.06 82.0938 9.18C81.6404 9.3 81.1871 9.45333 80.7338 9.64C80.2938 9.82667 79.8671 10.0467 79.4538 10.3C79.0404 10.54 78.6671 10.7933 78.3338 11.06C78.6671 11.4467 79.1404 11.7467 79.7538 11.96C80.3804 12.1733 81.0871 12.28 81.8738 12.28C82.3004 12.28 82.7138 12.2333 83.1138 12.14C83.5138 12.0333 83.8671 11.8867 84.1738 11.7C84.4804 11.5 84.7271 11.26 84.9138 10.98C85.1138 10.6867 85.2138 10.3533 85.2138 9.98ZM87.7203 16.76C87.7203 16.5733 87.667 16.4333 87.5603 16.34C87.467 16.2467 87.347 16.2 87.2003 16.2C86.9203 16.2 86.6136 16.3133 86.2803 16.54C85.9603 16.7533 85.6403 17.0267 85.3203 17.36C85.0003 17.68 84.707 18.0267 84.4403 18.4C84.187 18.7733 83.9936 19.1067 83.8603 19.4C84.1536 19.3467 84.5203 19.2467 84.9603 19.1C85.4003 18.94 85.8203 18.7467 86.2203 18.52C86.6336 18.2933 86.987 18.0333 87.2803 17.74C87.5736 17.4333 87.7203 17.1067 87.7203 16.76ZM90.9603 17.82C90.7603 18.1533 90.507 18.52 90.2003 18.92C89.907 19.32 89.567 19.72 89.1803 20.12C88.807 20.5067 88.4003 20.8867 87.9603 21.26C87.5336 21.62 87.087 21.9467 86.6203 22.24C86.1536 22.52 85.6803 22.7467 85.2003 22.92C84.7336 23.08 84.2736 23.16 83.8203 23.16C83.2603 23.16 82.827 23.02 82.5203 22.74C82.2136 22.4467 82.0603 22.0333 82.0603 21.5C82.0603 20.9133 82.2336 20.3 82.5803 19.66C82.9403 19.0067 83.3936 18.4067 83.9403 17.86C84.487 17.3133 85.087 16.86 85.7403 16.5C86.3936 16.14 87.0203 15.96 87.6203 15.96C87.9536 15.96 88.2136 16.0333 88.4003 16.18C88.587 16.3133 88.6803 16.5133 88.6803 16.78C88.6803 17.1 88.507 17.4133 88.1603 17.72C87.8136 18.0133 87.387 18.2867 86.8803 18.54C86.387 18.78 85.8536 19 85.2803 19.2C84.707 19.3867 84.2003 19.5267 83.7603 19.62C83.6136 19.8867 83.4936 20.1867 83.4003 20.52C83.307 20.8533 83.2603 21.1867 83.2603 21.52C83.2603 21.68 83.2736 21.84 83.3003 22C83.3403 22.1467 83.3936 22.2867 83.4603 22.42C83.5403 22.54 83.6403 22.64 83.7603 22.72C83.8936 22.8 84.0536 22.84 84.2403 22.84C84.6803 22.84 85.1936 22.7 85.7803 22.42C86.3803 22.1267 86.987 21.74 87.6003 21.26C88.2136 20.78 88.8003 20.2333 89.3603 19.62C89.9203 19.0067 90.4003 18.3733 90.8003 17.72L90.9603 17.82ZM94.5005 13.8L92.9205 16.12H95.5605L95.4405 16.36H92.7605C92.2271 17.2267 91.7471 17.98 91.3205 18.62C90.9071 19.2467 90.5538 19.7933 90.2605 20.26C89.9805 20.7133 89.7671 21.1 89.6205 21.42C89.4738 21.7267 89.4005 22 89.4005 22.24C89.4005 22.4933 89.4871 22.6733 89.6605 22.78C89.8338 22.8733 90.0338 22.92 90.2605 22.92C90.7405 22.92 91.2671 22.74 91.8405 22.38C92.4271 22.0067 93.0071 21.5533 93.5805 21.02C94.1538 20.4867 94.7005 19.92 95.2205 19.32C95.7405 18.72 96.1805 18.18 96.5405 17.7L96.6605 17.78C96.2071 18.3533 95.7071 18.96 95.1605 19.6C94.6271 20.2267 94.0738 20.8067 93.5005 21.34C92.9271 21.86 92.3471 22.2933 91.7605 22.64C91.1871 22.9867 90.6405 23.16 90.1205 23.16C89.7071 23.16 89.3471 23.0333 89.0405 22.78C88.7471 22.5267 88.6005 22.1733 88.6005 21.72C88.6005 21.4133 88.6871 21.0733 88.8605 20.7C89.0338 20.3133 89.2605 19.9 89.5405 19.46C89.8205 19.02 90.1338 18.54 90.4805 18.02C90.8405 17.5 91.2071 16.9467 91.5805 16.36H90.5005L90.6205 16.12H91.7405L93.3005 13.8H94.5005ZM103.427 9.16L96.3469 19.68L96.3869 19.72C96.6535 19.3867 96.9669 19.0067 97.3269 18.58C97.6869 18.14 98.0735 17.7267 98.4869 17.34C98.9135 16.9533 99.3602 16.6267 99.8269 16.36C100.294 16.0933 100.76 15.96 101.227 15.96C102.04 15.96 102.447 16.3667 102.447 17.18C102.447 17.3933 102.367 17.6467 102.207 17.94C102.06 18.2333 101.867 18.5467 101.627 18.88C101.4 19.2 101.154 19.5267 100.887 19.86C100.62 20.1933 100.367 20.52 100.127 20.84C99.9002 21.1467 99.7069 21.44 99.5469 21.72C99.4002 21.9867 99.3269 22.2133 99.3269 22.4C99.3269 22.5467 99.3669 22.6733 99.4469 22.78C99.5402 22.8733 99.6602 22.92 99.8069 22.92C100.114 22.92 100.447 22.8267 100.807 22.64C101.18 22.44 101.56 22.1867 101.947 21.88C102.347 21.56 102.74 21.2067 103.127 20.82C103.514 20.4333 103.867 20.0533 104.187 19.68C104.52 19.2933 104.814 18.9333 105.067 18.6C105.334 18.2533 105.527 17.9733 105.647 17.76L105.767 17.8C105.62 18.0533 105.414 18.36 105.147 18.72C104.88 19.08 104.574 19.46 104.227 19.86C103.894 20.26 103.527 20.66 103.127 21.06C102.74 21.4467 102.347 21.8 101.947 22.12C101.56 22.4267 101.174 22.68 100.787 22.88C100.4 23.0667 100.04 23.16 99.7069 23.16C99.3602 23.16 99.0735 23.0533 98.8469 22.84C98.6335 22.6267 98.5269 22.3333 98.5269 21.96C98.5269 21.6933 98.6002 21.4 98.7469 21.08C98.9069 20.76 99.1002 20.44 99.3269 20.12C99.5669 19.7867 99.8202 19.46 100.087 19.14C100.354 18.8067 100.6 18.4933 100.827 18.2C101.067 17.9067 101.26 17.64 101.407 17.4C101.567 17.1467 101.647 16.9333 101.647 16.76C101.647 16.5467 101.587 16.4 101.467 16.32C101.347 16.24 101.2 16.2 101.027 16.2C100.694 16.2 100.32 16.3267 99.9069 16.58C99.5069 16.82 99.0869 17.14 98.6469 17.54C98.2202 17.94 97.7935 18.3933 97.3669 18.9C96.9402 19.3933 96.5335 19.8933 96.1469 20.4C95.7735 20.9067 95.4402 21.3867 95.1469 21.84C94.8669 22.2933 94.6469 22.68 94.4869 23H93.1869C93.9202 21.8533 94.6735 20.6867 95.4469 19.5C96.2202 18.3133 96.9869 17.1333 97.7469 15.96C98.5202 14.7867 99.2735 13.6333 100.007 12.5C100.74 11.3533 101.434 10.26 102.087 9.22L103.427 9.16ZM109.434 16.76C109.434 16.5733 109.38 16.4333 109.274 16.34C109.18 16.2467 109.06 16.2 108.914 16.2C108.634 16.2 108.327 16.3133 107.994 16.54C107.674 16.7533 107.354 17.0267 107.034 17.36C106.714 17.68 106.42 18.0267 106.154 18.4C105.9 18.7733 105.707 19.1067 105.574 19.4C105.867 19.3467 106.234 19.2467 106.674 19.1C107.114 18.94 107.534 18.7467 107.934 18.52C108.347 18.2933 108.7 18.0333 108.994 17.74C109.287 17.4333 109.434 17.1067 109.434 16.76ZM112.674 17.82C112.474 18.1533 112.22 18.52 111.914 18.92C111.62 19.32 111.28 19.72 110.894 20.12C110.52 20.5067 110.114 20.8867 109.674 21.26C109.247 21.62 108.8 21.9467 108.334 22.24C107.867 22.52 107.394 22.7467 106.914 22.92C106.447 23.08 105.987 23.16 105.534 23.16C104.974 23.16 104.54 23.02 104.234 22.74C103.927 22.4467 103.774 22.0333 103.774 21.5C103.774 20.9133 103.947 20.3 104.294 19.66C104.654 19.0067 105.107 18.4067 105.654 17.86C106.2 17.3133 106.8 16.86 107.454 16.5C108.107 16.14 108.734 15.96 109.334 15.96C109.667 15.96 109.927 16.0333 110.114 16.18C110.3 16.3133 110.394 16.5133 110.394 16.78C110.394 17.1 110.22 17.4133 109.874 17.72C109.527 18.0133 109.1 18.2867 108.594 18.54C108.1 18.78 107.567 19 106.994 19.2C106.42 19.3867 105.914 19.5267 105.474 19.62C105.327 19.8867 105.207 20.1867 105.114 20.52C105.02 20.8533 104.974 21.1867 104.974 21.52C104.974 21.68 104.987 21.84 105.014 22C105.054 22.1467 105.107 22.2867 105.174 22.42C105.254 22.54 105.354 22.64 105.474 22.72C105.607 22.8 105.767 22.84 105.954 22.84C106.394 22.84 106.907 22.7 107.494 22.42C108.094 22.1267 108.7 21.74 109.314 21.26C109.927 20.78 110.514 20.2333 111.074 19.62C111.634 19.0067 112.114 18.3733 112.514 17.72L112.674 17.82ZM114.734 16.12L112.194 19.82L112.234 19.86C112.42 19.6333 112.654 19.3733 112.934 19.08C113.227 18.7733 113.54 18.4667 113.874 18.16C114.22 17.84 114.58 17.5267 114.954 17.22C115.327 16.9133 115.694 16.64 116.054 16.4C116.12 16.2667 116.194 16.16 116.274 16.08C116.354 16 116.514 15.96 116.754 15.96C116.9 15.96 117.027 15.9667 117.134 15.98C117.254 15.98 117.374 15.9867 117.494 16C117.267 16.2267 117.047 16.5067 116.834 16.84C116.62 17.16 116.514 17.5133 116.514 17.9C116.514 18.2067 116.587 18.4467 116.734 18.62C116.894 18.7933 117.087 18.88 117.314 18.88C117.514 18.88 117.707 18.84 117.894 18.76C118.094 18.68 118.28 18.58 118.454 18.46C118.627 18.34 118.794 18.2133 118.954 18.08C119.114 17.9467 119.254 17.8267 119.374 17.72L119.494 17.8C119.36 17.9333 119.207 18.08 119.034 18.24C118.86 18.3867 118.674 18.5267 118.474 18.66C118.274 18.7933 118.06 18.9067 117.834 19C117.607 19.08 117.374 19.12 117.134 19.12C116.707 19.12 116.36 18.9933 116.094 18.74C115.84 18.4733 115.714 18.1067 115.714 17.64C115.714 17.32 115.787 17.0333 115.934 16.78L115.894 16.74C115.347 17.1133 114.747 17.6067 114.094 18.22C113.44 18.82 112.747 19.5333 112.014 20.36C111.747 20.6533 111.467 21.04 111.174 21.52C110.894 22 110.647 22.4933 110.434 23H109.134C109.854 21.8533 110.574 20.7133 111.294 19.58C112.014 18.4467 112.754 17.2933 113.514 16.12H114.734ZM126.334 17.84C125.934 18.48 125.467 19.12 124.934 19.76C124.414 20.3867 123.841 20.9533 123.214 21.46C122.587 21.9667 121.901 22.38 121.154 22.7C120.421 23.0067 119.634 23.16 118.794 23.16C118.474 23.16 118.174 23.12 117.894 23.04C117.614 22.96 117.367 22.84 117.154 22.68C116.954 22.52 116.794 22.32 116.674 22.08C116.541 21.8267 116.474 21.5333 116.474 21.2C116.474 20.8533 116.587 20.54 116.814 20.26C117.041 19.98 117.347 19.84 117.734 19.84C117.934 19.84 118.094 19.8933 118.214 20C118.347 20.0933 118.414 20.24 118.414 20.44C118.414 20.6267 118.367 20.7867 118.274 20.92C118.181 21.0533 118.041 21.12 117.854 21.12C117.707 21.12 117.587 21.08 117.494 21C117.414 20.92 117.361 20.82 117.334 20.7C117.187 20.78 117.087 20.9 117.034 21.06C116.981 21.2067 116.954 21.36 116.954 21.52C116.954 21.9867 117.127 22.34 117.474 22.58C117.834 22.8067 118.234 22.92 118.674 22.92C118.954 22.92 119.194 22.8667 119.394 22.76C119.607 22.64 119.781 22.4933 119.914 22.32C120.061 22.1333 120.167 21.92 120.234 21.68C120.301 21.44 120.334 21.2 120.334 20.96C120.334 20.7067 120.287 20.4467 120.194 20.18C120.114 19.9 120.021 19.6267 119.914 19.36C119.807 19.0933 119.707 18.8333 119.614 18.58C119.521 18.3133 119.474 18.0667 119.474 17.84C119.474 17.5467 119.534 17.2867 119.654 17.06C119.774 16.82 119.934 16.62 120.134 16.46C120.347 16.3 120.587 16.18 120.854 16.1C121.121 16.0067 121.401 15.96 121.694 15.96C122.227 15.96 122.661 16.08 122.994 16.32C123.327 16.5467 123.494 16.8533 123.494 17.24C123.494 17.5867 123.361 17.84 123.094 18C122.841 18.16 122.554 18.24 122.234 18.24C122.314 18.0933 122.381 17.92 122.434 17.72C122.501 17.5067 122.534 17.3133 122.534 17.14C122.534 16.8733 122.447 16.6533 122.274 16.48C122.114 16.2933 121.881 16.2 121.574 16.2C121.187 16.2 120.901 16.32 120.714 16.56C120.527 16.7867 120.434 17.0667 120.434 17.4C120.434 17.6933 120.481 17.9733 120.574 18.24C120.681 18.5067 120.801 18.7733 120.934 19.04C121.054 19.3067 121.161 19.58 121.254 19.86C121.361 20.14 121.414 20.4533 121.414 20.8C121.414 21.0533 121.354 21.3 121.234 21.54C121.127 21.7667 120.981 21.98 120.794 22.18C120.607 22.3667 120.394 22.5267 120.154 22.66C119.927 22.7933 119.694 22.88 119.454 22.92L119.494 22.96C120.214 22.88 120.901 22.6733 121.554 22.34C122.207 21.9933 122.814 21.58 123.374 21.1C123.947 20.6067 124.474 20.0733 124.954 19.5C125.434 18.9133 125.854 18.34 126.214 17.78L126.334 17.84Z" fill="#1E1E1E"/>
<line y1="24.625" x2="140" y2="24.625" stroke="#444444" stroke-width="0.75"/>
</svg>
