<svg width="145" height="30" viewBox="0 0 145 30" fill="none" xmlns="http://www.w3.org/2000/svg">
<path d="M24.46 17.62C24.0467 18.54 23.5467 19.34 22.96 20.02C22.3733 20.7 21.72 21.26 21 21.7C20.28 22.14 19.5 22.4667 18.66 22.68C17.82 22.8933 16.9467 23 16.04 23C15.76 23 15.5267 23.0067 15.34 23.02C15.1533 23.0467 15 23.0667 14.88 23.08C14.76 23.1067 14.66 23.1267 14.58 23.14C14.5 23.1533 14.42 23.16 14.34 23.16C14.22 23.16 14.12 23.14 14.04 23.1C13.96 23.0733 13.92 23.02 13.92 22.94C13.92 22.8333 13.9733 22.7733 14.08 22.76C14.2 22.7333 14.2933 22.72 14.36 22.72C14.5467 22.72 14.7267 22.7333 14.9 22.76C15.0733 22.7867 15.2533 22.8133 15.44 22.84C16.24 22.4533 16.92 21.9 17.48 21.18C18.04 20.4467 18.54 19.6333 18.98 18.74C19.42 17.8333 19.8267 16.8867 20.2 15.9C20.5867 14.9133 21.0067 13.98 21.46 13.1C21.9267 12.2067 22.46 11.4067 23.06 10.7C23.66 9.98 24.3933 9.44 25.26 9.08L25.22 9.04C24.6467 9.13333 24.0333 9.38667 23.38 9.8C22.7267 10.2133 22.0667 10.7333 21.4 11.36C20.7467 11.9733 20.0933 12.6667 19.44 13.44C18.8 14.2 18.1867 14.9867 17.6 15.8C17.1467 16.44 16.68 17.0933 16.2 17.76C15.7333 18.4267 15.2467 19.08 14.74 19.72C14.2333 20.3467 13.6933 20.9533 13.12 21.54C12.5467 22.1267 11.92 22.6667 11.24 23.16L11.1 22.96C11.5667 22.2267 11.94 21.44 12.22 20.6C12.5133 19.76 12.78 18.9067 13.02 18.04C13.2733 17.1733 13.5267 16.3133 13.78 15.46C14.0333 14.6067 14.3533 13.7933 14.74 13.02C15.14 12.2467 15.6333 11.5333 16.22 10.88C16.8067 10.2267 17.5467 9.67333 18.44 9.22L18.4 9.18C17.52 9.47333 16.7133 9.9 15.98 10.46C15.2467 11.0067 14.5667 11.6333 13.94 12.34C13.3133 13.0333 12.7333 13.7867 12.2 14.6C11.6667 15.4 11.1533 16.2 10.66 17C10.1667 17.8 9.69333 18.5733 9.24 19.32C8.78667 20.0667 8.32 20.7267 7.84 21.3C7.36 21.86 6.84667 22.3133 6.3 22.66C5.75333 22.9933 5.14 23.16 4.46 23.16C4.28667 23.16 4.11333 23.1467 3.94 23.12C3.78 23.0933 3.62667 23.04 3.48 22.96C3.34667 22.88 3.23333 22.7733 3.14 22.64C3.06 22.5067 3.02 22.3333 3.02 22.12C3.02 21.92 3.08667 21.7533 3.22 21.62C3.35333 21.4867 3.52 21.42 3.72 21.42C3.89333 21.42 4.03333 21.4867 4.14 21.62C4.24667 21.7533 4.3 21.9067 4.3 22.08C4.3 22.1867 4.27333 22.3 4.22 22.42C4.18 22.54 4.10667 22.6133 4 22.64C4.01333 22.72 4.09333 22.7867 4.24 22.84C4.38667 22.8933 4.52667 22.92 4.66 22.92C5.24667 22.92 5.79333 22.74 6.3 22.38C6.80667 22.0067 7.3 21.52 7.78 20.92C8.27333 20.3067 8.76 19.6133 9.24 18.84C9.72 18.0533 10.22 17.24 10.74 16.4C11.3533 15.4267 11.9667 14.5133 12.58 13.66C13.1933 12.8067 13.8533 12.0467 14.56 11.38C15.2667 10.7 16.04 10.1267 16.88 9.66C17.7333 9.19333 18.7 8.85333 19.78 8.64L19.8 8.82C18.9733 9.07333 18.2867 9.48 17.74 10.04C17.1933 10.5867 16.72 11.2333 16.32 11.98C15.9333 12.7267 15.5933 13.54 15.3 14.42C15.02 15.3 14.7267 16.1933 14.42 17.1C14.1267 17.9933 13.8 18.8733 13.44 19.74C13.08 20.6067 12.6267 21.4067 12.08 22.14L12.12 22.18C12.6133 21.7533 13.1067 21.2533 13.6 20.68C14.1067 20.0933 14.6 19.4867 15.08 18.86C15.56 18.22 16.02 17.5867 16.46 16.96C16.9133 16.32 17.3333 15.7333 17.72 15.2C18.76 13.7733 19.7133 12.6267 20.58 11.76C21.4467 10.8933 22.2467 10.2267 22.98 9.76C23.7133 9.28 24.38 8.96 24.98 8.8C25.5933 8.64 26.16 8.56 26.68 8.56C26.88 8.56 27.0733 8.59333 27.26 8.66C27.4467 8.71333 27.54 8.80667 27.54 8.94C27.54 9.04667 27.5 9.11333 27.42 9.14C27.34 9.16667 27.2467 9.18 27.14 9.18C26.9533 9.18 26.7533 9.16 26.54 9.12C26.34 9.06667 26.14 9.04 25.94 9.04C25.6333 9.04 25.32 9.17333 25 9.44C24.6933 9.70667 24.38 10.0533 24.06 10.48C23.7533 10.9067 23.4533 11.3867 23.16 11.92C22.8667 12.44 22.5933 12.96 22.34 13.48C22.1 13.9867 21.8867 14.46 21.7 14.9C21.5267 15.34 21.3867 15.6867 21.28 15.94C21.0667 16.5133 20.82 17.1267 20.54 17.78C20.26 18.42 19.9133 19.0533 19.5 19.68C19.0867 20.2933 18.58 20.8733 17.98 21.42C17.3933 21.9667 16.6733 22.4267 15.82 22.8V22.84C17.8467 22.84 19.56 22.4 20.96 21.52C22.3733 20.64 23.4867 19.3267 24.3 17.58L24.46 17.62ZM31.3 17.98C30.9933 18.4733 30.5867 19.0067 30.08 19.58C29.5867 20.14 29.0467 20.6667 28.46 21.16C27.74 21.76 27.02 22.2467 26.3 22.62C25.58 22.98 24.8733 23.16 24.18 23.16C23.6867 23.16 23.2733 23.0333 22.94 22.78C22.6067 22.5133 22.44 22.1267 22.44 21.62C22.44 20.98 22.62 20.3267 22.98 19.66C23.3533 18.9933 23.8133 18.3867 24.36 17.84C24.92 17.28 25.5267 16.8267 26.18 16.48C26.8467 16.1333 27.4733 15.96 28.06 15.96C28.4467 15.96 28.78 16.0333 29.06 16.18C29.3533 16.3133 29.5 16.5533 29.5 16.9C29.5 17.06 29.4533 17.1933 29.36 17.3C29.28 17.4067 29.1733 17.4933 29.04 17.56C28.92 17.6267 28.78 17.68 28.62 17.72C28.4733 17.7467 28.34 17.7667 28.22 17.78C28.2733 17.6467 28.32 17.5133 28.36 17.38C28.4 17.2333 28.42 17.0867 28.42 16.94C28.42 16.4467 28.1867 16.2 27.72 16.2C27.3733 16.2 26.96 16.3733 26.48 16.72C26.0133 17.0533 25.5667 17.48 25.14 18C24.7267 18.52 24.3733 19.0933 24.08 19.72C23.7867 20.3467 23.64 20.9533 23.64 21.54C23.64 21.9 23.72 22.2067 23.88 22.46C24.0533 22.7133 24.3133 22.84 24.66 22.84C25.1267 22.84 25.66 22.6867 26.26 22.38C26.8733 22.0733 27.4667 21.6933 28.04 21.24C28.64 20.7733 29.2133 20.24 29.76 19.64C30.32 19.0267 30.7867 18.4333 31.16 17.86L31.3 17.98ZM37.9802 9.16C36.8868 10.8933 35.7935 12.6 34.7002 14.28C33.6068 15.9467 32.4735 17.5933 31.3002 19.22L31.3402 19.26C31.6868 18.8733 32.0268 18.4867 32.3602 18.1C32.7068 17.7 33.0602 17.3467 33.4202 17.04C33.7935 16.72 34.1735 16.46 34.5602 16.26C34.9602 16.06 35.3735 15.96 35.8002 15.96C36.2402 15.96 36.5535 16.0667 36.7402 16.28C36.9402 16.4933 37.0402 16.7533 37.0402 17.06C37.0402 17.38 36.9402 17.6667 36.7402 17.92C36.5535 18.16 36.3135 18.3733 36.0202 18.56C35.7402 18.7333 35.4268 18.8733 35.0802 18.98C34.7468 19.0867 34.4402 19.1667 34.1602 19.22V19.26C34.3202 19.34 34.4535 19.4933 34.5602 19.72C34.6802 19.9333 34.7402 20.16 34.7402 20.4C34.7402 20.56 34.7068 20.7267 34.6402 20.9C34.5868 21.0733 34.5202 21.2533 34.4402 21.44C34.3602 21.6267 34.2868 21.8133 34.2202 22C34.1668 22.1733 34.1402 22.3533 34.1402 22.54C34.1402 22.7933 34.2468 22.92 34.4602 22.92C34.8202 22.92 35.2735 22.76 35.8202 22.44C36.3668 22.12 36.9468 21.6533 37.5602 21.04C37.9868 20.6133 38.4202 20.14 38.8602 19.62C39.3002 19.1 39.7735 18.4733 40.2802 17.74L40.4602 17.86C40.2068 18.22 39.8335 18.7133 39.3402 19.34C38.8602 19.9667 38.2935 20.6067 37.6402 21.26C37.0135 21.8867 36.4202 22.36 35.8602 22.68C35.3002 23 34.7868 23.16 34.3202 23.16C33.9202 23.16 33.6068 23.0733 33.3802 22.9C33.1668 22.7267 33.0602 22.46 33.0602 22.1C33.0602 21.9133 33.1068 21.7067 33.2002 21.48C33.2935 21.24 33.3935 21.0133 33.5002 20.8C33.6068 20.5733 33.7068 20.3667 33.8002 20.18C33.8935 19.98 33.9402 19.82 33.9402 19.7C33.9402 19.4467 33.8268 19.32 33.6002 19.32C33.4668 19.32 33.3068 19.3467 33.1202 19.4C32.9468 19.4533 32.7468 19.48 32.5202 19.48C32.3202 19.48 32.2202 19.42 32.2202 19.3C32.2202 19.18 32.3202 19.12 32.5202 19.12C32.6002 19.12 32.6868 19.1267 32.7802 19.14C32.8868 19.1533 33.0135 19.16 33.1602 19.16C33.5602 19.16 33.9268 19.1133 34.2602 19.02C34.6068 18.9267 34.9068 18.7933 35.1602 18.62C35.4135 18.4333 35.6068 18.2133 35.7402 17.96C35.8868 17.7067 35.9602 17.42 35.9602 17.1C35.9602 16.82 35.8935 16.6133 35.7602 16.48C35.6268 16.3467 35.4668 16.28 35.2802 16.28C35.0268 16.28 34.7335 16.3867 34.4002 16.6C34.0668 16.8 33.7068 17.08 33.3202 17.44C32.9468 17.7867 32.5602 18.1933 32.1602 18.66C31.7735 19.1133 31.3935 19.5933 31.0202 20.1C30.6602 20.5933 30.3202 21.0933 30.0002 21.6C29.6802 22.0933 29.4068 22.56 29.1802 23H27.8602C29.3402 20.6933 30.8135 18.4067 32.2802 16.14C33.7602 13.86 35.2468 11.5533 36.7402 9.22L37.9802 9.16ZM45.8869 16.12H47.1869C46.6935 16.8133 46.2202 17.4867 45.7669 18.14C45.3135 18.7933 44.9069 19.4 44.5469 19.96C44.2002 20.5067 43.9202 20.9933 43.7069 21.42C43.4935 21.8333 43.3869 22.16 43.3869 22.4C43.3869 22.7467 43.5669 22.92 43.9269 22.92C44.2069 22.92 44.5602 22.7867 44.9869 22.52C45.4269 22.24 45.9002 21.86 46.4069 21.38C46.9135 20.9 47.4335 20.34 47.9669 19.7C48.5002 19.06 49.0069 18.38 49.4869 17.66L49.6069 17.7C49.2469 18.2467 48.8202 18.84 48.3269 19.48C47.8469 20.1067 47.3402 20.6933 46.8069 21.24C46.2735 21.7867 45.7402 22.2467 45.2069 22.62C44.6735 22.98 44.1735 23.16 43.7069 23.16C43.3202 23.16 43.0335 23.0667 42.8469 22.88C42.6735 22.68 42.5869 22.4467 42.5869 22.18C42.5869 21.9933 42.6135 21.8133 42.6669 21.64C42.7335 21.4533 42.8002 21.2667 42.8669 21.08L42.8269 21.06C42.6535 21.2467 42.4335 21.4667 42.1669 21.72C41.9135 21.96 41.6335 22.1867 41.3269 22.4C41.0335 22.6133 40.7269 22.7933 40.4069 22.94C40.0869 23.0867 39.7802 23.16 39.4869 23.16C38.9935 23.16 38.6469 23.0067 38.4469 22.7C38.2469 22.3933 38.1469 22.0467 38.1469 21.66C38.1469 21.1133 38.3202 20.5133 38.6669 19.86C39.0135 19.1933 39.4535 18.5733 39.9869 18C40.5202 17.4133 41.1002 16.9267 41.7269 16.54C42.3535 16.1533 42.9469 15.96 43.5069 15.96C43.7735 15.96 44.0069 16 44.2069 16.08C44.4069 16.1467 44.5735 16.2467 44.7069 16.38C44.8402 16.5 44.9402 16.64 45.0069 16.8C45.0869 16.96 45.1469 17.1267 45.1869 17.3H45.2269L45.8869 16.12ZM39.3469 21.72C39.3469 22.0267 39.4069 22.2667 39.5269 22.44C39.6602 22.6 39.8402 22.68 40.0669 22.68C40.2935 22.68 40.5602 22.6 40.8669 22.44C41.1735 22.2667 41.4935 22.04 41.8269 21.76C42.1602 21.48 42.4869 21.16 42.8069 20.8C43.1402 20.4267 43.4335 20.0333 43.6869 19.62C43.9402 19.2067 44.1469 18.7867 44.3069 18.36C44.4669 17.9333 44.5469 17.5267 44.5469 17.14C44.5469 16.8333 44.4602 16.6 44.2869 16.44C44.1135 16.28 43.9002 16.2 43.6469 16.2C43.2469 16.2 42.8002 16.3733 42.3069 16.72C41.8135 17.0667 41.3469 17.5133 40.9069 18.06C40.4669 18.5933 40.0935 19.1867 39.7869 19.84C39.4935 20.4933 39.3469 21.12 39.3469 21.72ZM51.8736 16.12C51.3936 16.8133 50.9136 17.48 50.4336 18.12C49.9536 18.76 49.5203 19.3467 49.1336 19.88C48.7603 20.4133 48.4536 20.8867 48.2136 21.3C47.9736 21.7 47.8536 22.02 47.8536 22.26C47.8536 22.6467 48.0403 22.84 48.4136 22.84C48.8003 22.84 49.2469 22.6533 49.7536 22.28C50.2736 21.9067 50.8203 21.4133 51.3936 20.8C51.9669 20.1733 52.5469 19.46 53.1336 18.66C53.7336 17.8467 54.3069 17 54.8536 16.12H56.0936C55.3069 17.2 54.5736 18.3133 53.8936 19.46C53.2136 20.5933 52.5003 21.72 51.7536 22.84C53.0203 22.6133 54.2269 22.06 55.3736 21.18C56.5336 20.2867 57.5603 19.18 58.4536 17.86L58.5936 17.92C57.6336 19.3867 56.5403 20.5667 55.3136 21.46C54.1003 22.34 52.8669 22.88 51.6136 23.08C51.0936 23.7867 50.5603 24.5 50.0136 25.22C49.4803 25.9533 48.8869 26.6067 48.2336 27.18C47.5936 27.7667 46.8869 28.24 46.1136 28.6C45.3403 28.9733 44.4669 29.16 43.4936 29.16C43.0536 29.16 42.6403 29.1 42.2536 28.98C41.8536 28.8733 41.5069 28.72 41.2136 28.52C40.9203 28.32 40.6869 28.08 40.5136 27.8C40.3403 27.52 40.2536 27.22 40.2536 26.9C40.2536 26.2067 40.4869 25.7 40.9536 25.38C41.4069 25.06 41.9603 24.9 42.6136 24.9V24.96C42.1336 25.0667 41.7803 25.28 41.5536 25.6C41.3269 25.9333 41.2136 26.3467 41.2136 26.84C41.2136 27.1733 41.2803 27.4667 41.4136 27.72C41.5469 27.9867 41.7203 28.2067 41.9336 28.38C42.1469 28.5533 42.3936 28.6867 42.6736 28.78C42.9403 28.8733 43.2203 28.92 43.5136 28.92C44.1403 28.92 44.7469 28.7733 45.3336 28.48C45.9203 28.1867 46.4869 27.8 47.0336 27.32C47.5669 26.84 48.0803 26.2933 48.5736 25.68C49.0669 25.08 49.5336 24.4533 49.9736 23.8C50.4136 23.16 50.8203 22.5333 51.1936 21.92C51.5803 21.2933 51.9336 20.7333 52.2536 20.24L52.2136 20.2C52.0003 20.4533 51.7403 20.7533 51.4336 21.1C51.1269 21.4333 50.7869 21.7533 50.4136 22.06C50.0536 22.3667 49.6669 22.6267 49.2536 22.84C48.8403 23.0533 48.4136 23.16 47.9736 23.16C47.5469 23.16 47.2403 23.0733 47.0536 22.9C46.8669 22.7267 46.7736 22.4933 46.7736 22.2C46.7736 21.9333 46.8469 21.6533 46.9936 21.36C47.1269 21.0533 47.3469 20.6733 47.6536 20.22C47.9603 19.7667 48.3469 19.2133 48.8136 18.56C49.2936 17.9067 49.8669 17.0933 50.5336 16.12H51.8736ZM73.4603 16.78C72.807 17.6067 72.1336 18.4067 71.4403 19.18C70.747 19.94 70.047 20.62 69.3403 21.22C68.647 21.8067 67.9536 22.28 67.2603 22.64C66.567 22.9867 65.9003 23.16 65.2603 23.16C64.8203 23.16 64.467 23.1067 64.2003 23C63.947 22.9067 63.747 22.7933 63.6003 22.66C63.467 22.5133 63.3736 22.3667 63.3203 22.22C63.2803 22.06 63.2603 21.92 63.2603 21.8C63.2603 21.5733 63.327 21.38 63.4603 21.22C63.5936 21.06 63.7803 20.98 64.0203 20.98C64.2336 20.98 64.4003 21.0533 64.5203 21.2C64.6403 21.3467 64.7003 21.52 64.7003 21.72C64.7003 21.84 64.667 21.96 64.6003 22.08C64.5336 22.2 64.4403 22.2733 64.3203 22.3C64.4403 22.4867 64.607 22.6133 64.8203 22.68C65.0336 22.7333 65.2536 22.76 65.4803 22.76C66.0536 22.76 66.6536 22.5933 67.2803 22.26C67.9203 21.9267 68.5603 21.4933 69.2003 20.96C69.8536 20.4133 70.5003 19.8 71.1403 19.12C71.7803 18.4267 72.3936 17.72 72.9803 17C73.2336 16.68 73.547 16.2867 73.9203 15.82C74.307 15.3533 74.7403 14.8467 75.2203 14.3C75.7003 13.7533 76.2203 13.2 76.7803 12.64C77.3536 12.0667 77.9603 11.5267 78.6003 11.02C79.2403 10.5133 79.907 10.06 80.6003 9.66C81.2936 9.26 82.0003 8.96 82.7203 8.76L82.7803 8.84C82.327 9.25333 81.8536 9.76667 81.3603 10.38C80.867 10.9933 80.3803 11.66 79.9003 12.38C79.4336 13.0867 78.987 13.8333 78.5603 14.62C78.1336 15.4067 77.7536 16.1933 77.4203 16.98C77.1003 17.7533 76.8403 18.5 76.6403 19.22C76.4536 19.94 76.3603 20.6 76.3603 21.2C76.3603 21.6133 76.427 21.9667 76.5603 22.26C76.707 22.54 76.9936 22.68 77.4203 22.68C77.6736 22.68 77.9603 22.5867 78.2803 22.4C78.6136 22.2133 78.9603 21.9667 79.3203 21.66C79.6803 21.3533 80.0336 21.0133 80.3803 20.64C80.7403 20.2667 81.0803 19.9 81.4003 19.54C81.7203 19.1667 82.007 18.82 82.2603 18.5C82.5136 18.1667 82.7136 17.9 82.8603 17.7L83.0003 17.76C82.547 18.3333 82.067 18.94 81.5603 19.58C81.0536 20.22 80.5403 20.8067 80.0203 21.34C79.5003 21.86 78.9736 22.2933 78.4403 22.64C77.9203 22.9867 77.4203 23.16 76.9403 23.16C76.6203 23.16 76.347 23.1067 76.1203 23C75.907 22.88 75.727 22.72 75.5803 22.52C75.4336 22.32 75.327 22.0933 75.2603 21.84C75.1936 21.5867 75.1603 21.32 75.1603 21.04C75.1603 20.28 75.267 19.5533 75.4803 18.86C75.6936 18.1533 75.9336 17.46 76.2003 16.78H73.4603ZM76.3003 16.54C76.9003 15.3 77.607 14.0867 78.4203 12.9C79.247 11.7133 80.2203 10.5867 81.3403 9.52L81.3003 9.48C80.5936 9.82667 79.9003 10.2533 79.2203 10.76C78.5536 11.2667 77.9003 11.8267 77.2603 12.44C76.6203 13.0533 75.9936 13.7067 75.3803 14.4C74.7803 15.0933 74.1936 15.8067 73.6203 16.54H76.3003ZM85.007 16.12L82.367 19.78L82.407 19.82C82.687 19.4867 83.0137 19.1 83.387 18.66C83.7604 18.2067 84.1604 17.78 84.587 17.38C85.0137 16.98 85.4537 16.6467 85.907 16.38C86.3737 16.1 86.8337 15.96 87.287 15.96C87.687 15.96 87.9937 16.0733 88.207 16.3C88.4337 16.5133 88.547 16.7933 88.547 17.14C88.547 17.3533 88.467 17.6067 88.307 17.9C88.1604 18.1933 87.9737 18.5067 87.747 18.84C87.5204 19.1733 87.2737 19.5133 87.007 19.86C86.7404 20.2067 86.4937 20.54 86.267 20.86C86.0404 21.1667 85.847 21.4533 85.687 21.72C85.5404 21.9733 85.467 22.1867 85.467 22.36C85.467 22.7333 85.6537 22.92 86.027 22.92C86.4537 22.92 86.907 22.78 87.387 22.5C87.867 22.2067 88.4404 21.72 89.107 21.04C89.3737 20.7733 89.6404 20.48 89.907 20.16C90.187 19.84 90.4537 19.5267 90.707 19.22C90.9604 18.9 91.187 18.6 91.387 18.32C91.6004 18.04 91.767 17.8067 91.887 17.62L92.027 17.7C91.7604 18.1 91.4137 18.58 90.987 19.14C90.5737 19.6867 90.1204 20.2267 89.627 20.76C89.3337 21.08 89.0337 21.3867 88.727 21.68C88.4204 21.9733 88.1137 22.2333 87.807 22.46C87.5004 22.6733 87.1937 22.8467 86.887 22.98C86.5937 23.1 86.3004 23.16 86.007 23.16C85.6204 23.16 85.3004 23.0533 85.047 22.84C84.7937 22.6267 84.667 22.3333 84.667 21.96C84.667 21.56 84.827 21.1267 85.147 20.66C85.467 20.18 85.8204 19.7 86.207 19.22C86.5937 18.74 86.947 18.28 87.267 17.84C87.587 17.4 87.747 17.0133 87.747 16.68C87.747 16.52 87.6937 16.4 87.587 16.32C87.4804 16.24 87.3404 16.2 87.167 16.2C86.8337 16.2 86.4604 16.3267 86.047 16.58C85.6337 16.82 85.207 17.1467 84.767 17.56C84.3404 17.96 83.907 18.4133 83.467 18.92C83.0404 19.4133 82.6404 19.9133 82.267 20.42C81.8937 20.9133 81.5604 21.3933 81.267 21.86C80.9737 22.3133 80.7537 22.6933 80.607 23H79.367C79.7137 22.4133 80.087 21.82 80.487 21.22C80.8737 20.6067 81.2604 20.0067 81.647 19.42C82.0337 18.82 82.4004 18.2467 82.747 17.7C83.107 17.14 83.427 16.6333 83.707 16.18L85.007 16.12ZM103.234 9.16C102.714 9.98667 102.147 10.86 101.534 11.78C100.92 12.7 100.307 13.6133 99.6937 14.52C99.0804 15.4267 98.4871 16.3067 97.9137 17.16C97.3537 18 96.8537 18.7733 96.4137 19.48C95.9737 20.1867 95.6204 20.8 95.3537 21.32C95.1004 21.8267 94.9737 22.2 94.9737 22.44C94.9737 22.5867 95.0071 22.7067 95.0737 22.8C95.1537 22.88 95.2671 22.92 95.4137 22.92C95.7471 22.92 96.1271 22.7867 96.5537 22.52C96.9804 22.2533 97.4937 21.8333 98.0937 21.26C98.6137 20.7533 99.1204 20.1933 99.6137 19.58C100.107 18.9533 100.534 18.34 100.894 17.74L101.054 17.82C100.934 18.0333 100.774 18.2867 100.574 18.58C100.387 18.86 100.174 19.1533 99.9337 19.46C99.7071 19.7667 99.4604 20.08 99.1937 20.4C98.9271 20.7067 98.6537 21 98.3737 21.28C97.8404 21.8267 97.3137 22.28 96.7937 22.64C96.2737 22.9867 95.7937 23.16 95.3537 23.16C94.9271 23.16 94.6071 23.0733 94.3937 22.9C94.1937 22.7133 94.0937 22.48 94.0937 22.2C94.0937 21.9467 94.1471 21.7 94.2537 21.46C94.3604 21.22 94.4671 21.0067 94.5737 20.82L94.5337 20.8C94.3204 21.04 94.0804 21.3 93.8137 21.58C93.5604 21.8467 93.2871 22.1 92.9937 22.34C92.7004 22.58 92.3871 22.78 92.0537 22.94C91.7337 23.0867 91.4004 23.16 91.0537 23.16C90.5737 23.16 90.2004 23.0133 89.9337 22.72C89.6804 22.4267 89.5537 22.08 89.5537 21.68C89.5537 21.12 89.7471 20.5067 90.1337 19.84C90.5204 19.1733 91.0004 18.5533 91.5737 17.98C92.1604 17.4067 92.7871 16.9267 93.4537 16.54C94.1204 16.1533 94.7404 15.96 95.3137 15.96C95.7404 15.96 96.0804 16.0933 96.3337 16.36C96.5871 16.6267 96.7071 16.9667 96.6937 17.38H96.7537L101.914 9.16H103.234ZM96.1337 17.4C96.1337 17.08 96.0804 16.8 95.9737 16.56C95.8671 16.32 95.6204 16.2 95.2337 16.2C94.9671 16.2 94.6671 16.2933 94.3337 16.48C94.0137 16.6667 93.6871 16.9133 93.3537 17.22C93.0204 17.5267 92.6937 17.88 92.3737 18.28C92.0671 18.6667 91.7937 19.0667 91.5537 19.48C91.3137 19.88 91.1204 20.2733 90.9737 20.66C90.8271 21.0467 90.7537 21.3933 90.7537 21.7C90.7537 21.98 90.8071 22.2133 90.9137 22.4C91.0204 22.5867 91.2137 22.68 91.4937 22.68C91.7337 22.68 92.0071 22.5867 92.3137 22.4C92.6337 22.2133 92.9671 21.9733 93.3137 21.68C93.6604 21.3733 94.0004 21.0267 94.3337 20.64C94.6671 20.2533 94.9671 19.8667 95.2337 19.48C95.5004 19.0933 95.7137 18.72 95.8737 18.36C96.0471 17.9867 96.1337 17.6667 96.1337 17.4ZM104.78 16.76C104.78 16.5733 104.727 16.4333 104.62 16.34C104.527 16.2467 104.407 16.2 104.26 16.2C103.98 16.2 103.674 16.3133 103.34 16.54C103.02 16.7533 102.7 17.0267 102.38 17.36C102.06 17.68 101.767 18.0267 101.5 18.4C101.247 18.7733 101.054 19.1067 100.92 19.4C101.214 19.3467 101.58 19.2467 102.02 19.1C102.46 18.94 102.88 18.7467 103.28 18.52C103.694 18.2933 104.047 18.0333 104.34 17.74C104.634 17.4333 104.78 17.1067 104.78 16.76ZM108.02 17.82C107.82 18.1533 107.567 18.52 107.26 18.92C106.967 19.32 106.627 19.72 106.24 20.12C105.867 20.5067 105.46 20.8867 105.02 21.26C104.594 21.62 104.147 21.9467 103.68 22.24C103.214 22.52 102.74 22.7467 102.26 22.92C101.794 23.08 101.334 23.16 100.88 23.16C100.32 23.16 99.8871 23.02 99.5805 22.74C99.2738 22.4467 99.1205 22.0333 99.1205 21.5C99.1205 20.9133 99.2938 20.3 99.6405 19.66C100 19.0067 100.454 18.4067 101 17.86C101.547 17.3133 102.147 16.86 102.8 16.5C103.454 16.14 104.08 15.96 104.68 15.96C105.014 15.96 105.274 16.0333 105.46 16.18C105.647 16.3133 105.74 16.5133 105.74 16.78C105.74 17.1 105.567 17.4133 105.22 17.72C104.874 18.0133 104.447 18.2867 103.94 18.54C103.447 18.78 102.914 19 102.34 19.2C101.767 19.3867 101.26 19.5267 100.82 19.62C100.674 19.8867 100.554 20.1867 100.46 20.52C100.367 20.8533 100.32 21.1867 100.32 21.52C100.32 21.68 100.334 21.84 100.36 22C100.4 22.1467 100.454 22.2867 100.52 22.42C100.6 22.54 100.7 22.64 100.82 22.72C100.954 22.8 101.114 22.84 101.3 22.84C101.74 22.84 102.254 22.7 102.84 22.42C103.44 22.1267 104.047 21.74 104.66 21.26C105.274 20.78 105.86 20.2333 106.42 19.62C106.98 19.0067 107.46 18.3733 107.86 17.72L108.02 17.82ZM110.081 16.12L107.541 19.82L107.581 19.86C107.767 19.6333 108.001 19.3733 108.281 19.08C108.574 18.7733 108.887 18.4667 109.221 18.16C109.567 17.84 109.927 17.5267 110.301 17.22C110.674 16.9133 111.041 16.64 111.401 16.4C111.467 16.2667 111.541 16.16 111.621 16.08C111.701 16 111.861 15.96 112.101 15.96C112.247 15.96 112.374 15.9667 112.481 15.98C112.601 15.98 112.721 15.9867 112.841 16C112.614 16.2267 112.394 16.5067 112.181 16.84C111.967 17.16 111.861 17.5133 111.861 17.9C111.861 18.2067 111.934 18.4467 112.081 18.62C112.241 18.7933 112.434 18.88 112.661 18.88C112.861 18.88 113.054 18.84 113.241 18.76C113.441 18.68 113.627 18.58 113.801 18.46C113.974 18.34 114.141 18.2133 114.301 18.08C114.461 17.9467 114.601 17.8267 114.721 17.72L114.841 17.8C114.707 17.9333 114.554 18.08 114.381 18.24C114.207 18.3867 114.021 18.5267 113.821 18.66C113.621 18.7933 113.407 18.9067 113.181 19C112.954 19.08 112.721 19.12 112.481 19.12C112.054 19.12 111.707 18.9933 111.441 18.74C111.187 18.4733 111.061 18.1067 111.061 17.64C111.061 17.32 111.134 17.0333 111.281 16.78L111.241 16.74C110.694 17.1133 110.094 17.6067 109.441 18.22C108.787 18.82 108.094 19.5333 107.361 20.36C107.094 20.6533 106.814 21.04 106.521 21.52C106.241 22 105.994 22.4933 105.781 23H104.481C105.201 21.8533 105.921 20.7133 106.641 19.58C107.361 18.4467 108.101 17.2933 108.861 16.12H110.081ZM121.681 17.84C121.281 18.48 120.814 19.12 120.281 19.76C119.761 20.3867 119.187 20.9533 118.561 21.46C117.934 21.9667 117.247 22.38 116.501 22.7C115.767 23.0067 114.981 23.16 114.141 23.16C113.821 23.16 113.521 23.12 113.241 23.04C112.961 22.96 112.714 22.84 112.501 22.68C112.301 22.52 112.141 22.32 112.021 22.08C111.887 21.8267 111.821 21.5333 111.821 21.2C111.821 20.8533 111.934 20.54 112.161 20.26C112.387 19.98 112.694 19.84 113.081 19.84C113.281 19.84 113.441 19.8933 113.561 20C113.694 20.0933 113.761 20.24 113.761 20.44C113.761 20.6267 113.714 20.7867 113.621 20.92C113.527 21.0533 113.387 21.12 113.201 21.12C113.054 21.12 112.934 21.08 112.841 21C112.761 20.92 112.707 20.82 112.681 20.7C112.534 20.78 112.434 20.9 112.381 21.06C112.327 21.2067 112.301 21.36 112.301 21.52C112.301 21.9867 112.474 22.34 112.821 22.58C113.181 22.8067 113.581 22.92 114.021 22.92C114.301 22.92 114.541 22.8667 114.741 22.76C114.954 22.64 115.127 22.4933 115.261 22.32C115.407 22.1333 115.514 21.92 115.581 21.68C115.647 21.44 115.681 21.2 115.681 20.96C115.681 20.7067 115.634 20.4467 115.541 20.18C115.461 19.9 115.367 19.6267 115.261 19.36C115.154 19.0933 115.054 18.8333 114.961 18.58C114.867 18.3133 114.821 18.0667 114.821 17.84C114.821 17.5467 114.881 17.2867 115.001 17.06C115.121 16.82 115.281 16.62 115.481 16.46C115.694 16.3 115.934 16.18 116.201 16.1C116.467 16.0067 116.747 15.96 117.041 15.96C117.574 15.96 118.007 16.08 118.341 16.32C118.674 16.5467 118.841 16.8533 118.841 17.24C118.841 17.5867 118.707 17.84 118.441 18C118.187 18.16 117.901 18.24 117.581 18.24C117.661 18.0933 117.727 17.92 117.781 17.72C117.847 17.5067 117.881 17.3133 117.881 17.14C117.881 16.8733 117.794 16.6533 117.621 16.48C117.461 16.2933 117.227 16.2 116.921 16.2C116.534 16.2 116.247 16.32 116.061 16.56C115.874 16.7867 115.781 17.0667 115.781 17.4C115.781 17.6933 115.827 17.9733 115.921 18.24C116.027 18.5067 116.147 18.7733 116.281 19.04C116.401 19.3067 116.507 19.58 116.601 19.86C116.707 20.14 116.761 20.4533 116.761 20.8C116.761 21.0533 116.701 21.3 116.581 21.54C116.474 21.7667 116.327 21.98 116.141 22.18C115.954 22.3667 115.741 22.5267 115.501 22.66C115.274 22.7933 115.041 22.88 114.801 22.92L114.841 22.96C115.561 22.88 116.247 22.6733 116.901 22.34C117.554 21.9933 118.161 21.58 118.721 21.1C119.294 20.6067 119.821 20.0733 120.301 19.5C120.781 18.9133 121.201 18.34 121.561 17.78L121.681 17.84ZM130.741 17.94C130.421 18.3 130.061 18.5867 129.661 18.8C129.261 19.0133 128.868 19.12 128.481 19.12C128.108 19.12 127.788 19.04 127.521 18.88C127.254 18.7067 127.048 18.5067 126.901 18.28H126.861C126.728 18.7867 126.481 19.3267 126.121 19.9C125.761 20.4733 125.328 21 124.821 21.48C124.328 21.96 123.781 22.36 123.181 22.68C122.581 23 121.968 23.16 121.341 23.16C120.768 23.16 120.334 22.9933 120.041 22.66C119.748 22.3267 119.601 21.88 119.601 21.32C119.601 21.0267 119.674 20.6867 119.821 20.3C119.968 19.9133 120.168 19.5267 120.421 19.14C120.688 18.74 120.994 18.3533 121.341 17.98C121.701 17.5933 122.088 17.2533 122.501 16.96C122.914 16.6533 123.348 16.4133 123.801 16.24C124.268 16.0533 124.734 15.96 125.201 15.96C125.748 15.96 126.168 16.12 126.461 16.44C126.768 16.76 126.934 17.1733 126.961 17.68C126.988 17.9867 127.128 18.2733 127.381 18.54C127.648 18.7933 128.008 18.92 128.461 18.92C128.861 18.92 129.234 18.82 129.581 18.62C129.941 18.42 130.274 18.16 130.581 17.84L130.741 17.94ZM120.681 21.8C120.681 22.1467 120.748 22.42 120.881 22.62C121.014 22.82 121.214 22.92 121.481 22.92C121.841 22.92 122.194 22.8267 122.541 22.64C122.901 22.44 123.241 22.1867 123.561 21.88C123.894 21.56 124.201 21.2 124.481 20.8C124.761 20.4 125.001 19.9867 125.201 19.56C125.414 19.1333 125.581 18.72 125.701 18.32C125.821 17.9067 125.881 17.5333 125.881 17.2C125.881 16.92 125.808 16.6867 125.661 16.5C125.528 16.3 125.314 16.2 125.021 16.2C124.741 16.2 124.441 16.2933 124.121 16.48C123.801 16.6533 123.474 16.8867 123.141 17.18C122.821 17.4733 122.514 17.8133 122.221 18.2C121.928 18.5867 121.661 18.9867 121.421 19.4C121.194 19.8133 121.014 20.2267 120.881 20.64C120.748 21.0533 120.681 21.44 120.681 21.8ZM132.848 16.12L130.208 19.78L130.248 19.82C130.528 19.4867 130.854 19.1 131.228 18.66C131.601 18.2067 132.001 17.78 132.428 17.38C132.854 16.98 133.294 16.6467 133.748 16.38C134.214 16.1 134.674 15.96 135.128 15.96C135.528 15.96 135.834 16.0733 136.048 16.3C136.274 16.5133 136.388 16.7933 136.388 17.14C136.388 17.3533 136.308 17.6067 136.148 17.9C136.001 18.1933 135.814 18.5067 135.588 18.84C135.361 19.1733 135.114 19.5133 134.848 19.86C134.581 20.2067 134.334 20.54 134.108 20.86C133.881 21.1667 133.688 21.4533 133.528 21.72C133.381 21.9733 133.308 22.1867 133.308 22.36C133.308 22.7333 133.494 22.92 133.868 22.92C134.294 22.92 134.748 22.78 135.228 22.5C135.708 22.2067 136.281 21.72 136.948 21.04C137.214 20.7733 137.481 20.48 137.748 20.16C138.028 19.84 138.294 19.5267 138.548 19.22C138.801 18.9 139.028 18.6 139.228 18.32C139.441 18.04 139.608 17.8067 139.728 17.62L139.868 17.7C139.601 18.1 139.254 18.58 138.828 19.14C138.414 19.6867 137.961 20.2267 137.468 20.76C137.174 21.08 136.874 21.3867 136.568 21.68C136.261 21.9733 135.954 22.2333 135.648 22.46C135.341 22.6733 135.034 22.8467 134.728 22.98C134.434 23.1 134.141 23.16 133.848 23.16C133.461 23.16 133.141 23.0533 132.888 22.84C132.634 22.6267 132.508 22.3333 132.508 21.96C132.508 21.56 132.668 21.1267 132.988 20.66C133.308 20.18 133.661 19.7 134.048 19.22C134.434 18.74 134.788 18.28 135.108 17.84C135.428 17.4 135.588 17.0133 135.588 16.68C135.588 16.52 135.534 16.4 135.428 16.32C135.321 16.24 135.181 16.2 135.008 16.2C134.674 16.2 134.301 16.3267 133.888 16.58C133.474 16.82 133.048 17.1467 132.608 17.56C132.181 17.96 131.748 18.4133 131.308 18.92C130.881 19.4133 130.481 19.9133 130.108 20.42C129.734 20.9133 129.401 21.3933 129.108 21.86C128.814 22.3133 128.594 22.6933 128.448 23H127.208C127.554 22.4133 127.928 21.82 128.328 21.22C128.714 20.6067 129.101 20.0067 129.488 19.42C129.874 18.82 130.241 18.2467 130.588 17.7C130.948 17.14 131.268 16.6333 131.548 16.18L132.848 16.12Z" fill="#1E1E1E"/>
<line y1="24.625" x2="140" y2="24.625" stroke="#444444" stroke-width="0.75"/>
</svg>
