<svg width="140" height="30" viewBox="0 0 140 30" fill="none" xmlns="http://www.w3.org/2000/svg">
<path d="M29.28 17.76C29.08 18.0267 28.82 18.3467 28.5 18.72C28.1933 19.0933 27.8533 19.48 27.48 19.88C27.1067 20.28 26.7067 20.68 26.28 21.08C25.8533 21.4667 25.4267 21.8133 25 22.12C24.5733 22.4267 24.1533 22.68 23.74 22.88C23.3267 23.0667 22.94 23.16 22.58 23.16C22.1933 23.16 21.8467 23.0533 21.54 22.84C21.2333 22.6267 21.08 22.3067 21.08 21.88C21.08 21.5333 21.1733 21.1533 21.36 20.74C21.5467 20.3133 21.7467 19.8867 21.96 19.46C22.1867 19.02 22.3867 18.5933 22.56 18.18C22.7467 17.7533 22.84 17.36 22.84 17C22.84 16.6133 22.7333 16.3467 22.52 16.2C22.3067 16.0533 22.1 15.98 21.9 15.98C21.8333 15.98 21.76 15.9867 21.68 16C21.6 16.0133 21.5267 16.02 21.46 16.02C21.2733 16.02 21.18 15.96 21.18 15.84C21.18 15.7733 21.2067 15.7333 21.26 15.72C21.3133 15.6933 21.3533 15.68 21.38 15.68C21.4867 15.68 21.6067 15.6933 21.74 15.72C21.8867 15.7333 22.02 15.74 22.14 15.74C22.78 15.74 23.38 15.5733 23.94 15.24C24.5 14.8933 25.0333 14.4733 25.54 13.98C26.06 13.4733 26.5667 12.9267 27.06 12.34C27.5667 11.74 28.08 11.1933 28.6 10.7C29.12 10.1933 29.66 9.77333 30.22 9.44C30.7933 9.09333 31.4067 8.92 32.06 8.92C32.5933 8.92 33.0267 9.02 33.36 9.22C33.6933 9.40667 33.86 9.67333 33.86 10.02C33.86 10.2467 33.7867 10.4467 33.64 10.62C33.4933 10.7933 33.32 10.88 33.12 10.88C32.92 10.88 32.8067 10.8267 32.78 10.72C32.8867 10.64 32.96 10.54 33 10.42C33.04 10.3 33.06 10.1667 33.06 10.02C33.06 9.76667 32.9733 9.56 32.8 9.4C32.6267 9.24 32.3733 9.16 32.04 9.16C31.64 9.16 31.2467 9.32 30.86 9.64C30.4867 9.96 30.0867 10.3667 29.66 10.86C29.2467 11.34 28.8 11.8667 28.32 12.44C27.84 13 27.3067 13.5333 26.72 14.04C26.1333 14.5333 25.48 14.9533 24.76 15.3C24.0533 15.6467 23.2467 15.8467 22.34 15.9V15.94C22.78 16.1667 23.0933 16.4467 23.28 16.78C23.4667 17.1133 23.56 17.5467 23.56 18.08C23.56 18.4133 23.4867 18.7733 23.34 19.16C23.1933 19.5467 23.0333 19.9333 22.86 20.32C22.6867 20.6933 22.5267 21.0467 22.38 21.38C22.2333 21.7133 22.16 21.9933 22.16 22.22C22.16 22.4867 22.2133 22.6733 22.32 22.78C22.44 22.8733 22.5933 22.92 22.78 22.92C23.0867 22.92 23.4333 22.8267 23.82 22.64C24.2067 22.44 24.6067 22.1867 25.02 21.88C25.4333 21.5733 25.8467 21.2267 26.26 20.84C26.6733 20.4533 27.0667 20.0667 27.44 19.68C27.8133 19.2933 28.1467 18.9267 28.44 18.58C28.7467 18.22 28.9867 17.92 29.16 17.68L29.28 17.76ZM18.26 13.04C18.38 13.3333 18.44 13.6467 18.44 13.98C18.44 14.2733 18.36 14.5867 18.2 14.92C18.04 15.2533 17.8067 15.56 17.5 15.84C17.1933 16.12 16.82 16.3533 16.38 16.54C15.94 16.7133 15.44 16.8 14.88 16.8C14.5467 16.8 14.2267 16.7467 13.92 16.64C13.6133 16.52 13.34 16.36 13.1 16.16C12.8733 15.96 12.6867 15.72 12.54 15.44C12.4067 15.16 12.34 14.8467 12.34 14.5C12.34 13.9267 12.5133 13.4 12.86 12.92C13.2067 12.4267 13.6933 11.9867 14.32 11.6C14.9467 11.2 15.6867 10.8533 16.54 10.56C17.4067 10.2533 18.3467 10 19.36 9.8C20.3733 9.6 21.4533 9.45333 22.6 9.36C23.7467 9.25333 24.9133 9.2 26.1 9.2C26.34 9.2 26.5667 9.18 26.78 9.14C27.0067 9.08667 27.2067 9.04 27.38 9C27.6067 8.93333 27.7933 8.88 27.94 8.84C28.0867 8.78667 28.2 8.76 28.28 8.76C28.36 8.76 28.4267 8.78 28.48 8.82C28.5467 8.84667 28.58 8.89333 28.58 8.96C28.58 9.08 28.4867 9.16 28.3 9.2C28.1267 9.22667 27.8733 9.24 27.54 9.24C26.74 9.24 26.0067 9.46667 25.34 9.92C24.6867 10.3733 24.0733 10.96 23.5 11.68C22.94 12.3867 22.4 13.1733 21.88 14.04C21.3733 14.8933 20.8667 15.72 20.36 16.52C19.9467 17.1733 19.48 17.8867 18.96 18.66C18.44 19.4333 17.8667 20.1533 17.24 20.82C16.6267 21.4867 15.96 22.0467 15.24 22.5C14.52 22.94 13.7467 23.16 12.92 23.16C12.7067 23.16 12.48 23.1333 12.24 23.08C12 23.04 11.7733 22.9667 11.56 22.86C11.36 22.7533 11.1933 22.6133 11.06 22.44C10.9267 22.2533 10.86 22.0333 10.86 21.78C10.86 21.5533 10.9333 21.3667 11.08 21.22C11.2267 21.06 11.4133 20.98 11.64 20.98C11.84 20.98 12 21.0467 12.12 21.18C12.24 21.3133 12.3 21.4733 12.3 21.66C12.3 21.7933 12.2533 21.9267 12.16 22.06C12.0667 22.1933 11.9467 22.26 11.8 22.26C11.8 22.4467 11.92 22.6067 12.16 22.74C12.4133 22.86 12.7067 22.92 13.04 22.92C13.44 22.92 13.8333 22.82 14.22 22.62C14.6067 22.42 14.98 22.1533 15.34 21.82C15.7 21.4733 16.0467 21.0733 16.38 20.62C16.7267 20.1667 17.06 19.7 17.38 19.22C17.7 18.7267 18.0067 18.2267 18.3 17.72C18.6067 17.2133 18.9 16.7333 19.18 16.28C19.74 15.3733 20.2733 14.5467 20.78 13.8C21.2867 13.04 21.8067 12.3667 22.34 11.78C22.8733 11.1933 23.44 10.7 24.04 10.3C24.64 9.9 25.3067 9.6 26.04 9.4V9.36C25.5067 9.36 24.82 9.39333 23.98 9.46C23.1533 9.52667 22.2733 9.63333 21.34 9.78C20.4067 9.92667 19.4667 10.1333 18.52 10.4C17.5867 10.6533 16.74 10.98 15.98 11.38C15.22 11.78 14.6 12.2667 14.12 12.84C13.6533 13.4 13.42 14.0667 13.42 14.84C13.42 15.3733 13.58 15.7933 13.9 16.1C14.22 16.4067 14.5933 16.56 15.02 16.56C15.46 16.56 15.8667 16.4867 16.24 16.34C16.6267 16.18 16.9667 15.98 17.26 15.74C17.5533 15.4867 17.78 15.2067 17.94 14.9C18.1133 14.58 18.2 14.26 18.2 13.94C18.2 13.7933 18.18 13.6467 18.14 13.5C18.1133 13.34 18.0867 13.2067 18.06 13.1L18.26 13.04ZM34.7134 16.12H36.0134C35.5201 16.8133 35.0468 17.4867 34.5934 18.14C34.1401 18.7933 33.7334 19.4 33.3734 19.96C33.0268 20.5067 32.7468 20.9933 32.5334 21.42C32.3201 21.8333 32.2134 22.16 32.2134 22.4C32.2134 22.7467 32.3934 22.92 32.7534 22.92C33.0334 22.92 33.3868 22.7867 33.8134 22.52C34.2534 22.24 34.7268 21.86 35.2334 21.38C35.7401 20.9 36.2601 20.34 36.7934 19.7C37.3268 19.06 37.8334 18.38 38.3134 17.66L38.4334 17.7C38.0734 18.2467 37.6468 18.84 37.1534 19.48C36.6734 20.1067 36.1668 20.6933 35.6334 21.24C35.1001 21.7867 34.5668 22.2467 34.0334 22.62C33.5001 22.98 33.0001 23.16 32.5334 23.16C32.1468 23.16 31.8601 23.0667 31.6734 22.88C31.5001 22.68 31.4134 22.4467 31.4134 22.18C31.4134 21.9933 31.4401 21.8133 31.4934 21.64C31.5601 21.4533 31.6268 21.2667 31.6934 21.08L31.6534 21.06C31.4801 21.2467 31.2601 21.4667 30.9934 21.72C30.7401 21.96 30.4601 22.1867 30.1534 22.4C29.8601 22.6133 29.5534 22.7933 29.2334 22.94C28.9134 23.0867 28.6068 23.16 28.3134 23.16C27.8201 23.16 27.4734 23.0067 27.2734 22.7C27.0734 22.3933 26.9734 22.0467 26.9734 21.66C26.9734 21.1133 27.1468 20.5133 27.4934 19.86C27.8401 19.1933 28.2801 18.5733 28.8134 18C29.3468 17.4133 29.9268 16.9267 30.5534 16.54C31.1801 16.1533 31.7734 15.96 32.3334 15.96C32.6001 15.96 32.8334 16 33.0334 16.08C33.2334 16.1467 33.4001 16.2467 33.5334 16.38C33.6668 16.5 33.7668 16.64 33.8334 16.8C33.9134 16.96 33.9734 17.1267 34.0134 17.3H34.0534L34.7134 16.12ZM28.1734 21.72C28.1734 22.0267 28.2334 22.2667 28.3534 22.44C28.4868 22.6 28.6668 22.68 28.8934 22.68C29.1201 22.68 29.3868 22.6 29.6934 22.44C30.0001 22.2667 30.3201 22.04 30.6534 21.76C30.9868 21.48 31.3134 21.16 31.6334 20.8C31.9668 20.4267 32.2601 20.0333 32.5134 19.62C32.7668 19.2067 32.9734 18.7867 33.1334 18.36C33.2934 17.9333 33.3734 17.5267 33.3734 17.14C33.3734 16.8333 33.2868 16.6 33.1134 16.44C32.9401 16.28 32.7268 16.2 32.4734 16.2C32.0734 16.2 31.6268 16.3733 31.1334 16.72C30.6401 17.0667 30.1734 17.5133 29.7334 18.06C29.2934 18.5933 28.9201 19.1867 28.6134 19.84C28.3201 20.4933 28.1734 21.12 28.1734 21.72ZM40.5002 16.12L37.9602 19.82L38.0002 19.86C38.1868 19.6333 38.4202 19.3733 38.7002 19.08C38.9935 18.7733 39.3068 18.4667 39.6402 18.16C39.9868 17.84 40.3468 17.5267 40.7202 17.22C41.0935 16.9133 41.4602 16.64 41.8202 16.4C41.8868 16.2667 41.9602 16.16 42.0402 16.08C42.1202 16 42.2802 15.96 42.5202 15.96C42.6668 15.96 42.7935 15.9667 42.9002 15.98C43.0202 15.98 43.1402 15.9867 43.2602 16C43.0335 16.2267 42.8135 16.5067 42.6002 16.84C42.3868 17.16 42.2802 17.5133 42.2802 17.9C42.2802 18.2067 42.3535 18.4467 42.5002 18.62C42.6602 18.7933 42.8535 18.88 43.0802 18.88C43.2802 18.88 43.4735 18.84 43.6602 18.76C43.8602 18.68 44.0468 18.58 44.2202 18.46C44.3935 18.34 44.5602 18.2133 44.7202 18.08C44.8802 17.9467 45.0202 17.8267 45.1402 17.72L45.2602 17.8C45.1268 17.9333 44.9735 18.08 44.8002 18.24C44.6268 18.3867 44.4402 18.5267 44.2402 18.66C44.0402 18.7933 43.8268 18.9067 43.6002 19C43.3735 19.08 43.1402 19.12 42.9002 19.12C42.4735 19.12 42.1268 18.9933 41.8602 18.74C41.6068 18.4733 41.4802 18.1067 41.4802 17.64C41.4802 17.32 41.5535 17.0333 41.7002 16.78L41.6602 16.74C41.1135 17.1133 40.5135 17.6067 39.8602 18.22C39.2068 18.82 38.5135 19.5333 37.7802 20.36C37.5135 20.6533 37.2335 21.04 36.9402 21.52C36.6602 22 36.4135 22.4933 36.2002 23H34.9002C35.6202 21.8533 36.3402 20.7133 37.0602 19.58C37.7802 18.4467 38.5202 17.2933 39.2802 16.12H40.5002ZM52.0203 9.08C50.8336 10.88 49.8003 12.44 48.9203 13.76C48.0403 15.0667 47.287 16.1867 46.6603 17.12C46.0336 18.0533 45.5203 18.8267 45.1203 19.44C44.7203 20.04 44.407 20.5333 44.1803 20.92C43.9536 21.3067 43.7936 21.6133 43.7003 21.84C43.6203 22.0667 43.5803 22.26 43.5803 22.42C43.5803 22.7533 43.727 22.92 44.0203 22.92C44.3536 22.92 44.7403 22.7867 45.1803 22.52C45.6336 22.24 46.1136 21.8667 46.6203 21.4C47.1403 20.92 47.667 20.3667 48.2003 19.74C48.7336 19.1 49.2536 18.42 49.7603 17.7L49.9803 17.78C49.5003 18.46 48.9936 19.12 48.4603 19.76C47.927 20.3867 47.4136 20.9333 46.9203 21.4C46.267 22.0133 45.7003 22.46 45.2203 22.74C44.7536 23.02 44.327 23.16 43.9403 23.16C43.527 23.16 43.227 23.0667 43.0403 22.88C42.867 22.6933 42.7803 22.4467 42.7803 22.14C42.7803 21.86 42.827 21.5733 42.9203 21.28C43.027 20.9733 43.2003 20.6133 43.4403 20.2C43.6803 19.7733 43.9936 19.26 44.3803 18.66C44.7803 18.06 45.267 17.3267 45.8403 16.46C46.427 15.58 47.1136 14.54 47.9003 13.34C48.687 12.1267 49.5936 10.7067 50.6203 9.08H52.0203ZM53.4739 13.8L51.8939 16.12H54.5339L54.4139 16.36H51.7339C51.2006 17.2267 50.7206 17.98 50.2939 18.62C49.8806 19.2467 49.5272 19.7933 49.2339 20.26C48.9539 20.7133 48.7406 21.1 48.5939 21.42C48.4472 21.7267 48.3739 22 48.3739 22.24C48.3739 22.4933 48.4606 22.6733 48.6339 22.78C48.8072 22.8733 49.0072 22.92 49.2339 22.92C49.7139 22.92 50.2406 22.74 50.8139 22.38C51.4006 22.0067 51.9806 21.5533 52.5539 21.02C53.1272 20.4867 53.6739 19.92 54.1939 19.32C54.7139 18.72 55.1539 18.18 55.5139 17.7L55.6339 17.78C55.1806 18.3533 54.6806 18.96 54.1339 19.6C53.6006 20.2267 53.0472 20.8067 52.4739 21.34C51.9006 21.86 51.3206 22.2933 50.7339 22.64C50.1606 22.9867 49.6139 23.16 49.0939 23.16C48.6806 23.16 48.3206 23.0333 48.0139 22.78C47.7206 22.5267 47.5739 22.1733 47.5739 21.72C47.5739 21.4133 47.6606 21.0733 47.8339 20.7C48.0072 20.3133 48.2339 19.9 48.5139 19.46C48.7939 19.02 49.1072 18.54 49.4539 18.02C49.8139 17.5 50.1806 16.9467 50.5539 16.36H49.4739L49.5939 16.12H50.7139L52.2739 13.8H53.4739ZM64.7003 17.94C64.3803 18.3 64.0203 18.5867 63.6203 18.8C63.2203 19.0133 62.827 19.12 62.4403 19.12C62.067 19.12 61.747 19.04 61.4803 18.88C61.2136 18.7067 61.007 18.5067 60.8603 18.28H60.8203C60.687 18.7867 60.4403 19.3267 60.0803 19.9C59.7203 20.4733 59.287 21 58.7803 21.48C58.287 21.96 57.7403 22.36 57.1403 22.68C56.5403 23 55.927 23.16 55.3003 23.16C54.727 23.16 54.2936 22.9933 54.0003 22.66C53.707 22.3267 53.5603 21.88 53.5603 21.32C53.5603 21.0267 53.6336 20.6867 53.7803 20.3C53.927 19.9133 54.127 19.5267 54.3803 19.14C54.647 18.74 54.9536 18.3533 55.3003 17.98C55.6603 17.5933 56.047 17.2533 56.4603 16.96C56.8736 16.6533 57.307 16.4133 57.7603 16.24C58.227 16.0533 58.6936 15.96 59.1603 15.96C59.707 15.96 60.127 16.12 60.4203 16.44C60.727 16.76 60.8936 17.1733 60.9203 17.68C60.947 17.9867 61.087 18.2733 61.3403 18.54C61.607 18.7933 61.967 18.92 62.4203 18.92C62.8203 18.92 63.1936 18.82 63.5403 18.62C63.9003 18.42 64.2336 18.16 64.5403 17.84L64.7003 17.94ZM54.6403 21.8C54.6403 22.1467 54.707 22.42 54.8403 22.62C54.9736 22.82 55.1736 22.92 55.4403 22.92C55.8003 22.92 56.1536 22.8267 56.5003 22.64C56.8603 22.44 57.2003 22.1867 57.5203 21.88C57.8536 21.56 58.1603 21.2 58.4403 20.8C58.7203 20.4 58.9603 19.9867 59.1603 19.56C59.3736 19.1333 59.5403 18.72 59.6603 18.32C59.7803 17.9067 59.8403 17.5333 59.8403 17.2C59.8403 16.92 59.767 16.6867 59.6203 16.5C59.487 16.3 59.2736 16.2 58.9803 16.2C58.7003 16.2 58.4003 16.2933 58.0803 16.48C57.7603 16.6533 57.4336 16.8867 57.1003 17.18C56.7803 17.4733 56.4736 17.8133 56.1803 18.2C55.887 18.5867 55.6203 18.9867 55.3803 19.4C55.1536 19.8133 54.9736 20.2267 54.8403 20.64C54.707 21.0533 54.6403 21.44 54.6403 21.8ZM66.807 16.12L64.167 19.78L64.207 19.82C64.487 19.4867 64.8137 19.1 65.187 18.66C65.5604 18.2067 65.9604 17.78 66.387 17.38C66.8137 16.98 67.2537 16.6467 67.707 16.38C68.1737 16.1 68.6337 15.96 69.087 15.96C69.487 15.96 69.7937 16.0733 70.007 16.3C70.2337 16.5133 70.347 16.7933 70.347 17.14C70.347 17.3533 70.267 17.6067 70.107 17.9C69.9604 18.1933 69.7737 18.5067 69.547 18.84C69.3204 19.1733 69.0737 19.5133 68.807 19.86C68.5404 20.2067 68.2937 20.54 68.067 20.86C67.8404 21.1667 67.647 21.4533 67.487 21.72C67.3404 21.9733 67.267 22.1867 67.267 22.36C67.267 22.7333 67.4537 22.92 67.827 22.92C68.2537 22.92 68.707 22.78 69.187 22.5C69.667 22.2067 70.2404 21.72 70.907 21.04C71.1737 20.7733 71.4404 20.48 71.707 20.16C71.987 19.84 72.2537 19.5267 72.507 19.22C72.7604 18.9 72.987 18.6 73.187 18.32C73.4004 18.04 73.567 17.8067 73.687 17.62L73.827 17.7C73.5604 18.1 73.2137 18.58 72.787 19.14C72.3737 19.6867 71.9204 20.2267 71.427 20.76C71.1337 21.08 70.8337 21.3867 70.527 21.68C70.2204 21.9733 69.9137 22.2333 69.607 22.46C69.3004 22.6733 68.9937 22.8467 68.687 22.98C68.3937 23.1 68.1004 23.16 67.807 23.16C67.4204 23.16 67.1004 23.0533 66.847 22.84C66.5937 22.6267 66.467 22.3333 66.467 21.96C66.467 21.56 66.627 21.1267 66.947 20.66C67.267 20.18 67.6204 19.7 68.007 19.22C68.3937 18.74 68.747 18.28 69.067 17.84C69.387 17.4 69.547 17.0133 69.547 16.68C69.547 16.52 69.4937 16.4 69.387 16.32C69.2804 16.24 69.1404 16.2 68.967 16.2C68.6337 16.2 68.2604 16.3267 67.847 16.58C67.4337 16.82 67.007 17.1467 66.567 17.56C66.1404 17.96 65.707 18.4133 65.267 18.92C64.8404 19.4133 64.4404 19.9133 64.067 20.42C63.6937 20.9133 63.3604 21.3933 63.067 21.86C62.7737 22.3133 62.5537 22.6933 62.407 23H61.167C61.5137 22.4133 61.887 21.82 62.287 21.22C62.6737 20.6067 63.0604 20.0067 63.447 19.42C63.8337 18.82 64.2004 18.2467 64.547 17.7C64.907 17.14 65.227 16.6333 65.507 16.18L66.807 16.12ZM86.0537 12.36C86.2004 12.6133 86.2737 12.9133 86.2737 13.26C86.2737 13.7 86.1671 14.1 85.9537 14.46C85.7404 14.8067 85.4604 15.1133 85.1137 15.38C84.7804 15.6333 84.4071 15.8333 83.9937 15.98C83.5804 16.1133 83.1737 16.18 82.7737 16.18C81.9471 16.18 81.3004 15.9733 80.8337 15.56C80.3804 15.1467 80.1537 14.6467 80.1537 14.06C80.1537 13.4067 80.3404 12.82 80.7137 12.3C81.0871 11.78 81.5937 11.3267 82.2337 10.94C82.8871 10.5533 83.6471 10.2267 84.5137 9.96C85.3804 9.69333 86.3071 9.48 87.2937 9.32C88.2937 9.14667 89.3271 9.02667 90.3937 8.96C91.4604 8.88 92.5071 8.84 93.5337 8.84C93.8937 8.84 94.1937 8.79333 94.4337 8.7C94.6737 8.60667 94.9071 8.56 95.1337 8.56C95.2004 8.56 95.2671 8.57333 95.3337 8.6C95.4004 8.62667 95.4337 8.68 95.4337 8.76C95.4337 8.92 95.3471 9.01333 95.1737 9.04C95.0004 9.06667 94.7404 9.08 94.3937 9.08C93.3537 9.08 92.2471 9.65333 91.0737 10.8C89.9137 11.9467 88.6404 13.7 87.2537 16.06H90.1337C90.4404 15.6067 90.7937 15.1133 91.1937 14.58C91.6071 14.0333 92.0537 13.4867 92.5337 12.94C93.0271 12.3933 93.5471 11.8733 94.0937 11.38C94.6404 10.8733 95.2071 10.4267 95.7937 10.04C96.3804 9.65333 96.9737 9.34667 97.5737 9.12C98.1738 8.88 98.7671 8.76 99.3537 8.76C99.6337 8.76 99.8937 8.84667 100.134 9.02C100.374 9.18 100.494 9.40667 100.494 9.7C100.494 9.88667 100.434 10.0467 100.314 10.18C100.194 10.3 100.04 10.36 99.8538 10.36C99.6937 10.36 99.5604 10.3 99.4537 10.18C99.3604 10.06 99.2671 9.93333 99.1737 9.8C99.0804 9.65333 98.9738 9.52667 98.8537 9.42C98.7338 9.3 98.5738 9.24 98.3738 9.24C97.9071 9.24 97.3604 9.45333 96.7338 9.88C96.1071 10.2933 95.4604 10.8467 94.7937 11.54C94.1271 12.22 93.4671 13.0067 92.8137 13.9C92.1737 14.78 91.5937 15.6867 91.0737 16.62C90.5671 17.54 90.1537 18.4533 89.8337 19.36C89.5271 20.2667 89.3737 21.0867 89.3737 21.82C89.3737 22.1267 89.4271 22.4 89.5337 22.64C89.6537 22.88 89.8271 23 90.0537 23C90.4804 23 90.9471 22.8333 91.4537 22.5C91.9604 22.1533 92.4671 21.72 92.9737 21.2C93.4804 20.68 93.9671 20.1067 94.4337 19.48C94.9004 18.8533 95.3071 18.2533 95.6537 17.68L95.8337 17.76C95.7004 18 95.5137 18.3067 95.2737 18.68C95.0337 19.04 94.7537 19.4267 94.4337 19.84C94.1271 20.2533 93.7871 20.6667 93.4137 21.08C93.0404 21.4933 92.6471 21.8667 92.2337 22.2C91.8337 22.5333 91.4271 22.8 91.0137 23C90.6004 23.2133 90.1871 23.32 89.7737 23.32C89.4671 23.32 89.2071 23.2667 88.9937 23.16C88.7804 23.0667 88.6071 22.9333 88.4737 22.76C88.3404 22.5867 88.2404 22.3867 88.1737 22.16C88.1204 21.9333 88.0937 21.6933 88.0937 21.44C88.0937 20.9733 88.1537 20.5067 88.2737 20.04C88.4071 19.56 88.5671 19.1 88.7537 18.66C88.9404 18.22 89.1471 17.8 89.3737 17.4C89.6137 17 89.8337 16.6333 90.0337 16.3H87.1537C86.7537 16.94 86.2937 17.66 85.7737 18.46C85.2671 19.26 84.6937 20.0067 84.0537 20.7C83.4271 21.3933 82.7337 21.98 81.9737 22.46C81.2137 22.9267 80.3937 23.16 79.5137 23.16C79.3137 23.16 79.0937 23.1333 78.8537 23.08C78.6137 23.04 78.3871 22.9667 78.1737 22.86C77.9737 22.7533 77.8004 22.6133 77.6537 22.44C77.5204 22.2667 77.4537 22.0533 77.4537 21.8C77.4537 21.5733 77.5337 21.3867 77.6937 21.24C77.8537 21.0933 78.0471 21.02 78.2737 21.02C78.4737 21.02 78.6337 21.08 78.7537 21.2C78.8737 21.32 78.9337 21.4733 78.9337 21.66C78.9337 21.8733 78.8737 22.0333 78.7537 22.14C78.6471 22.2467 78.5004 22.3 78.3137 22.3C78.3804 22.5 78.5337 22.6533 78.7737 22.76C79.0271 22.8667 79.3071 22.92 79.6137 22.92C80.0404 22.92 80.4471 22.8133 80.8337 22.6C81.2337 22.3867 81.6137 22.1067 81.9737 21.76C82.3471 21.4133 82.7071 21.0067 83.0537 20.54C83.4004 20.0733 83.7337 19.5933 84.0537 19.1C84.3737 18.6067 84.6871 18.1067 84.9937 17.6C85.3004 17.0933 85.5937 16.62 85.8737 16.18C86.3537 15.4333 86.8404 14.6867 87.3337 13.94C87.8271 13.18 88.3604 12.48 88.9337 11.84C89.5204 11.2 90.1737 10.64 90.8937 10.16C91.6271 9.68 92.4671 9.33333 93.4137 9.12V9.08C91.5871 9.08 89.9271 9.20667 88.4337 9.46C86.9404 9.71333 85.6604 10.0667 84.5937 10.52C83.5271 10.9733 82.7004 11.52 82.1137 12.16C81.5271 12.8 81.2337 13.5067 81.2337 14.28C81.2337 14.48 81.2671 14.68 81.3337 14.88C81.4004 15.08 81.5004 15.26 81.6337 15.42C81.7671 15.5667 81.9404 15.6933 82.1537 15.8C82.3671 15.8933 82.6137 15.94 82.8937 15.94C83.2404 15.94 83.5937 15.88 83.9537 15.76C84.3271 15.6267 84.6671 15.4467 84.9737 15.22C85.2804 14.98 85.5337 14.7 85.7337 14.38C85.9337 14.0467 86.0337 13.6867 86.0337 13.3C86.0337 13.0867 86.0137 12.9133 85.9737 12.78C85.9337 12.6467 85.8804 12.5133 85.8137 12.38L86.0537 12.36ZM101.294 16.12H102.594C102.101 16.8133 101.627 17.4867 101.174 18.14C100.721 18.7933 100.314 19.4 99.9539 19.96C99.6072 20.5067 99.3272 20.9933 99.1139 21.42C98.9006 21.8333 98.7939 22.16 98.7939 22.4C98.7939 22.7467 98.9739 22.92 99.3339 22.92C99.6139 22.92 99.9672 22.7867 100.394 22.52C100.834 22.24 101.307 21.86 101.814 21.38C102.321 20.9 102.841 20.34 103.374 19.7C103.907 19.06 104.414 18.38 104.894 17.66L105.014 17.7C104.654 18.2467 104.227 18.84 103.734 19.48C103.254 20.1067 102.747 20.6933 102.214 21.24C101.681 21.7867 101.147 22.2467 100.614 22.62C100.081 22.98 99.5806 23.16 99.1139 23.16C98.7272 23.16 98.4406 23.0667 98.2539 22.88C98.0806 22.68 97.9939 22.4467 97.9939 22.18C97.9939 21.9933 98.0206 21.8133 98.0739 21.64C98.1406 21.4533 98.2072 21.2667 98.2739 21.08L98.2339 21.06C98.0606 21.2467 97.8406 21.4667 97.5739 21.72C97.3206 21.96 97.0406 22.1867 96.7339 22.4C96.4406 22.6133 96.1339 22.7933 95.8139 22.94C95.4939 23.0867 95.1872 23.16 94.8939 23.16C94.4006 23.16 94.0539 23.0067 93.8539 22.7C93.6539 22.3933 93.5539 22.0467 93.5539 21.66C93.5539 21.1133 93.7272 20.5133 94.0739 19.86C94.4206 19.1933 94.8606 18.5733 95.3939 18C95.9272 17.4133 96.5072 16.9267 97.1339 16.54C97.7606 16.1533 98.3539 15.96 98.9139 15.96C99.1806 15.96 99.4139 16 99.6139 16.08C99.8139 16.1467 99.9806 16.2467 100.114 16.38C100.247 16.5 100.347 16.64 100.414 16.8C100.494 16.96 100.554 17.1267 100.594 17.3H100.634L101.294 16.12ZM94.7539 21.72C94.7539 22.0267 94.8139 22.2667 94.9339 22.44C95.0672 22.6 95.2472 22.68 95.4739 22.68C95.7006 22.68 95.9672 22.6 96.2739 22.44C96.5806 22.2667 96.9006 22.04 97.2339 21.76C97.5672 21.48 97.8939 21.16 98.2139 20.8C98.5472 20.4267 98.8406 20.0333 99.0939 19.62C99.3472 19.2067 99.5539 18.7867 99.7139 18.36C99.8739 17.9333 99.9539 17.5267 99.9539 17.14C99.9539 16.8333 99.8672 16.6 99.6939 16.44C99.5206 16.28 99.3072 16.2 99.0539 16.2C98.6539 16.2 98.2072 16.3733 97.7139 16.72C97.2206 17.0667 96.7539 17.5133 96.3139 18.06C95.8739 18.5933 95.5006 19.1867 95.1939 19.84C94.9006 20.4933 94.7539 21.12 94.7539 21.72ZM107.041 16.12L104.401 19.78L104.441 19.82C104.721 19.4867 105.047 19.1 105.421 18.66C105.794 18.2067 106.194 17.78 106.621 17.38C107.047 16.98 107.487 16.6467 107.941 16.38C108.407 16.1 108.867 15.96 109.321 15.96C109.721 15.96 110.027 16.0733 110.241 16.3C110.467 16.5133 110.581 16.7933 110.581 17.14C110.581 17.3533 110.501 17.6067 110.341 17.9C110.194 18.1933 110.007 18.5067 109.781 18.84C109.554 19.1733 109.307 19.5133 109.041 19.86C108.774 20.2067 108.527 20.54 108.301 20.86C108.074 21.1667 107.881 21.4533 107.721 21.72C107.574 21.9733 107.501 22.1867 107.501 22.36C107.501 22.7333 107.687 22.92 108.061 22.92C108.487 22.92 108.941 22.78 109.421 22.5C109.901 22.2067 110.474 21.72 111.141 21.04C111.407 20.7733 111.674 20.48 111.941 20.16C112.221 19.84 112.487 19.5267 112.741 19.22C112.994 18.9 113.221 18.6 113.421 18.32C113.634 18.04 113.801 17.8067 113.921 17.62L114.061 17.7C113.794 18.1 113.447 18.58 113.021 19.14C112.607 19.6867 112.154 20.2267 111.661 20.76C111.367 21.08 111.067 21.3867 110.761 21.68C110.454 21.9733 110.147 22.2333 109.841 22.46C109.534 22.6733 109.227 22.8467 108.921 22.98C108.627 23.1 108.334 23.16 108.041 23.16C107.654 23.16 107.334 23.0533 107.081 22.84C106.827 22.6267 106.701 22.3333 106.701 21.96C106.701 21.56 106.861 21.1267 107.181 20.66C107.501 20.18 107.854 19.7 108.241 19.22C108.627 18.74 108.981 18.28 109.301 17.84C109.621 17.4 109.781 17.0133 109.781 16.68C109.781 16.52 109.727 16.4 109.621 16.32C109.514 16.24 109.374 16.2 109.201 16.2C108.867 16.2 108.494 16.3267 108.081 16.58C107.667 16.82 107.241 17.1467 106.801 17.56C106.374 17.96 105.941 18.4133 105.501 18.92C105.074 19.4133 104.674 19.9133 104.301 20.42C103.927 20.9133 103.594 21.3933 103.301 21.86C103.007 22.3133 102.787 22.6933 102.641 23H101.401C101.747 22.4133 102.121 21.82 102.521 21.22C102.907 20.6067 103.294 20.0067 103.681 19.42C104.067 18.82 104.434 18.2467 104.781 17.7C105.141 17.14 105.461 16.6333 105.741 16.18L107.041 16.12ZM117.727 16.76C117.727 16.5733 117.674 16.4333 117.567 16.34C117.474 16.2467 117.354 16.2 117.207 16.2C116.927 16.2 116.621 16.3133 116.287 16.54C115.967 16.7533 115.647 17.0267 115.327 17.36C115.007 17.68 114.714 18.0267 114.447 18.4C114.194 18.7733 114.001 19.1067 113.867 19.4C114.161 19.3467 114.527 19.2467 114.967 19.1C115.407 18.94 115.827 18.7467 116.227 18.52C116.641 18.2933 116.994 18.0333 117.287 17.74C117.581 17.4333 117.727 17.1067 117.727 16.76ZM120.967 17.82C120.767 18.1533 120.514 18.52 120.207 18.92C119.914 19.32 119.574 19.72 119.187 20.12C118.814 20.5067 118.407 20.8867 117.967 21.26C117.541 21.62 117.094 21.9467 116.627 22.24C116.161 22.52 115.687 22.7467 115.207 22.92C114.741 23.08 114.281 23.16 113.827 23.16C113.267 23.16 112.834 23.02 112.527 22.74C112.221 22.4467 112.067 22.0333 112.067 21.5C112.067 20.9133 112.241 20.3 112.587 19.66C112.947 19.0067 113.401 18.4067 113.947 17.86C114.494 17.3133 115.094 16.86 115.747 16.5C116.401 16.14 117.027 15.96 117.627 15.96C117.961 15.96 118.221 16.0333 118.407 16.18C118.594 16.3133 118.687 16.5133 118.687 16.78C118.687 17.1 118.514 17.4133 118.167 17.72C117.821 18.0133 117.394 18.2867 116.887 18.54C116.394 18.78 115.861 19 115.287 19.2C114.714 19.3867 114.207 19.5267 113.767 19.62C113.621 19.8867 113.501 20.1867 113.407 20.52C113.314 20.8533 113.267 21.1867 113.267 21.52C113.267 21.68 113.281 21.84 113.307 22C113.347 22.1467 113.401 22.2867 113.467 22.42C113.547 22.54 113.647 22.64 113.767 22.72C113.901 22.8 114.061 22.84 114.247 22.84C114.687 22.84 115.201 22.7 115.787 22.42C116.387 22.1267 116.994 21.74 117.607 21.26C118.221 20.78 118.807 20.2333 119.367 19.62C119.927 19.0067 120.407 18.3733 120.807 17.72L120.967 17.82ZM123.228 16.12C122.748 16.8133 122.268 17.48 121.788 18.12C121.308 18.76 120.874 19.3467 120.488 19.88C120.114 20.4133 119.808 20.8867 119.568 21.3C119.328 21.7 119.208 22.02 119.208 22.26C119.208 22.6467 119.394 22.84 119.768 22.84C120.154 22.84 120.601 22.6533 121.108 22.28C121.628 21.9067 122.174 21.4133 122.748 20.8C123.321 20.1733 123.901 19.46 124.488 18.66C125.088 17.8467 125.661 17 126.208 16.12H127.448C126.661 17.2 125.928 18.3133 125.248 19.46C124.568 20.5933 123.854 21.72 123.108 22.84C124.374 22.6133 125.581 22.06 126.728 21.18C127.888 20.2867 128.914 19.18 129.808 17.86L129.948 17.92C128.988 19.3867 127.894 20.5667 126.668 21.46C125.454 22.34 124.221 22.88 122.968 23.08C122.448 23.7867 121.914 24.5 121.368 25.22C120.834 25.9533 120.241 26.6067 119.588 27.18C118.948 27.7667 118.241 28.24 117.468 28.6C116.694 28.9733 115.821 29.16 114.848 29.16C114.408 29.16 113.994 29.1 113.608 28.98C113.208 28.8733 112.861 28.72 112.568 28.52C112.274 28.32 112.041 28.08 111.868 27.8C111.694 27.52 111.608 27.22 111.608 26.9C111.608 26.2067 111.841 25.7 112.308 25.38C112.761 25.06 113.314 24.9 113.968 24.9V24.96C113.488 25.0667 113.134 25.28 112.908 25.6C112.681 25.9333 112.568 26.3467 112.568 26.84C112.568 27.1733 112.634 27.4667 112.768 27.72C112.901 27.9867 113.074 28.2067 113.288 28.38C113.501 28.5533 113.748 28.6867 114.028 28.78C114.294 28.8733 114.574 28.92 114.868 28.92C115.494 28.92 116.101 28.7733 116.688 28.48C117.274 28.1867 117.841 27.8 118.388 27.32C118.921 26.84 119.434 26.2933 119.928 25.68C120.421 25.08 120.888 24.4533 121.328 23.8C121.768 23.16 122.174 22.5333 122.548 21.92C122.934 21.2933 123.288 20.7333 123.608 20.24L123.568 20.2C123.354 20.4533 123.094 20.7533 122.788 21.1C122.481 21.4333 122.141 21.7533 121.768 22.06C121.408 22.3667 121.021 22.6267 120.608 22.84C120.194 23.0533 119.768 23.16 119.328 23.16C118.901 23.16 118.594 23.0733 118.408 22.9C118.221 22.7267 118.128 22.4933 118.128 22.2C118.128 21.9333 118.201 21.6533 118.348 21.36C118.481 21.0533 118.701 20.6733 119.008 20.22C119.314 19.7667 119.701 19.2133 120.168 18.56C120.648 17.9067 121.221 17.0933 121.888 16.12H123.228Z" fill="#1E1E1E"/>
<line y1="24.625" x2="140" y2="24.625" stroke="#444444" stroke-width="0.75"/>
</svg>
