<svg width="112" height="105" viewBox="0 0 112 105" fill="none" xmlns="http://www.w3.org/2000/svg">
<path d="M44.5045 48.3363C42.9489 48.529 42.8352 50.7995 42.9728 51.9107L67.9746 48.8145C67.9746 48.8145 67.5617 45.4809 65.6172 45.7217L44.5045 48.3363Z" fill="#E64702" stroke="#E64702" stroke-width="0.75"/>
<path d="M43.882 52.9258C41.7213 53.1934 41.9966 55.4157 42.1342 56.5269L69.914 53.0867C69.914 53.0867 69.7789 49.7187 67.6183 49.9863L43.882 52.9258Z" fill="#E64702" stroke="#E64702" stroke-width="0.75"/>
<path d="M43.4931 57.4865C41.1606 57.7754 41.4358 59.9978 41.5734 61.109L71.5631 57.395C71.5631 57.395 71.4501 54.0243 69.1176 54.3132L43.4931 57.4865Z" fill="#E64702" stroke="#E64702" stroke-width="0.75"/>
<path d="M43.1052 62.0481C40.5999 62.3584 40.8751 64.5808 41.0127 65.692L73.2238 61.7029C73.2238 61.7029 73.133 58.3295 70.6277 58.6397L43.1052 62.0481Z" fill="#E64702" stroke="#E64702" stroke-width="0.75"/>
<path d="M53.8567 37.306C49.6342 37.8289 47.0706 40.967 46.3166 42.4706L62.4289 40.4753C61.3309 39.201 58.0793 36.7831 53.8567 37.306Z" fill="#E64702"/>
<path d="M46.1764 43.6162C44.3985 43.8364 44.2293 46.1138 44.3669 47.225L65.4795 44.6104C65.4795 44.6104 65.216 41.2584 63.3999 41.4833L46.1764 43.6162Z" fill="#E64702"/>
<path d="M53.8567 37.306C49.6342 37.8289 47.0706 40.967 46.3166 42.4706L62.4289 40.4753C61.3309 39.201 58.0793 36.7831 53.8567 37.306Z" stroke="#E64702" stroke-width="0.75"/>
<path d="M46.1764 43.6162C44.3985 43.8364 44.2293 46.1138 44.3669 47.225L65.4795 44.6104C65.4795 44.6104 65.216 41.2584 63.3999 41.4833L46.1764 43.6162Z" stroke="#E64702" stroke-width="0.75"/>
<path d="M10.6557 35.3666L50.2113 7.86931L95.2796 24.8867L100.773 69.247L61.2176 96.7443L16.1493 79.7268L10.6557 35.3666Z" stroke="#E64702" stroke-width="2"/>
<path d="M23.9398 40.0674L51.7939 20.6493L83.5434 32.686L87.4203 63.9916L59.5662 83.4097L27.8167 71.3729L23.9398 40.0674Z" stroke="#E64702" stroke-width="2"/>
<path d="M51.9847 71.6189C52.0357 72.0311 52.0058 72.3781 51.8949 72.6599C51.7887 72.9411 51.6044 73.1614 51.342 73.3208C51.0796 73.4803 50.7492 73.5847 50.3509 73.634C49.9156 73.6879 49.5527 73.6623 49.2623 73.5572C48.9718 73.4521 48.7442 73.2664 48.5796 72.9999C48.4149 72.7335 48.3062 72.3872 48.2534 71.9611L47.8543 68.7377C47.8462 68.6729 47.87 68.637 47.9256 68.6302L48.4258 68.5682C48.4813 68.5613 48.5128 68.588 48.5203 68.6482L48.9384 72.0244C48.9906 72.4459 49.1335 72.7456 49.3672 72.9235C49.6008 73.1015 49.9214 73.1652 50.329 73.1148C50.5976 73.0815 50.8191 73.0094 50.9934 72.8985C51.1718 72.7823 51.2959 72.6259 51.3656 72.4292C51.4399 72.2319 51.459 71.9873 51.4228 71.6956L51.0073 68.3402C50.9998 68.28 51.0216 68.2467 51.0725 68.2404L51.4824 68.1897C51.5333 68.1834 51.5623 68.208 51.5691 68.2636L51.9847 71.6189ZM52.8811 68.094C52.8783 68.0709 52.8806 68.0518 52.8882 68.0367C52.9003 68.0211 52.9226 68.0113 52.955 68.0073L56.6925 67.5445C56.7203 67.541 56.742 67.5454 56.7576 67.5576C56.7732 67.5697 56.7825 67.5874 56.7853 67.6105L56.8301 67.9718C56.8358 68.0181 56.8109 68.0447 56.7553 68.0516L55.3451 68.2262C55.2941 68.2325 55.2715 68.2588 55.2773 68.3052L55.833 72.7929C55.8405 72.8531 55.8164 72.8866 55.7608 72.8935L55.2607 72.9555C55.2051 72.9623 55.1736 72.9357 55.1661 72.8755L54.6112 68.3947C54.6049 68.3438 54.5786 68.3211 54.5323 68.3269L53.0178 68.5144C52.9623 68.5213 52.9316 68.5016 52.9259 68.4553L52.8811 68.094ZM57.8298 72.6373C57.802 72.6407 57.7801 72.634 57.7639 72.6172C57.7517 72.5952 57.748 72.5651 57.7527 72.5269L58.9403 67.3648C58.9501 67.3307 58.9635 67.3055 58.9803 67.2893C58.9965 67.2685 59.0255 67.2555 59.0672 67.2504L59.609 67.1833C59.6924 67.1729 59.7499 67.2011 59.7817 67.2677L62.1709 71.9798C62.1836 72.0064 62.1848 72.0345 62.1743 72.064C62.1679 72.0883 62.1485 72.1025 62.1161 72.1065L61.6229 72.1676C61.5673 72.1744 61.5274 72.1559 61.5031 72.1118L60.8569 70.8235C60.8453 70.8061 60.8343 70.7934 60.8239 70.7853C60.8135 70.7772 60.7944 70.7748 60.7666 70.7783L58.7451 71.0286C58.7034 71.0338 58.6779 71.0557 58.6686 71.0945L58.3431 72.5102C58.3408 72.5293 58.3312 72.547 58.3144 72.5632C58.3016 72.5742 58.2791 72.5817 58.2466 72.5857L57.8298 72.6373ZM60.5206 70.2727C60.5762 70.2658 60.591 70.2334 60.565 70.1755L59.4483 67.9932C59.4246 67.9538 59.4035 67.9352 59.385 67.9375C59.3711 67.9392 59.3598 67.9618 59.3511 68.0052L58.7883 70.4096C58.7715 70.4634 58.7885 70.4872 58.8395 70.4809L60.5206 70.2727ZM64.0097 69.4244C63.9727 69.429 63.9565 69.4498 63.9611 69.4869L64.2398 71.7377C64.2484 71.8071 64.2133 71.8467 64.1346 71.8565L63.6831 71.9124C63.646 71.917 63.6197 71.9132 63.6041 71.901C63.5879 71.8842 63.5778 71.8596 63.5738 71.8272L62.9595 66.8671C62.9515 66.8023 62.9752 66.7664 63.0308 66.7595L63.531 66.6976C63.5866 66.6907 63.6181 66.7174 63.6255 66.7776L63.8785 68.82C63.8853 68.8755 63.9143 68.9002 63.9652 68.8939L66.2438 68.6117C66.2901 68.6059 66.3098 68.5753 66.3029 68.5197L66.0492 66.4704C66.0423 66.4148 66.0643 66.3838 66.1152 66.3775L66.6224 66.3147C66.6779 66.3079 66.7098 66.3368 66.7178 66.4017L67.332 71.3618C67.3361 71.3942 67.3323 71.4205 67.3207 71.4408C67.3085 71.4564 67.2839 71.4665 67.2468 71.4711L66.7953 71.527C66.7165 71.5367 66.6729 71.5069 66.6643 71.4374L66.3864 69.1936C66.3812 69.1519 66.3578 69.1336 66.3161 69.1388L64.0097 69.4244Z" fill="#E64702"/>
<path d="M56.8938 14.0803C56.9426 14.0983 56.9565 14.1355 56.9357 14.1917L55.4624 18.1761C55.4472 18.2173 55.4274 18.242 55.4031 18.2501C55.3825 18.2595 55.3497 18.2559 55.3047 18.2393L54.8433 18.0687C54.802 18.0534 54.7759 18.0374 54.7651 18.0206C54.7594 18.0014 54.7628 17.9749 54.7753 17.9412L56.2548 13.9399C56.2756 13.8837 56.3123 13.8652 56.3648 13.8847L56.8938 14.0803ZM61.4513 15.7655C61.4926 15.7808 61.5042 15.8128 61.4862 15.8616L59.9962 19.8909C59.9879 19.9134 59.9734 19.9294 59.9529 19.9389C59.9337 19.9446 59.911 19.9426 59.8847 19.9329L59.5189 19.7976C59.4927 19.7879 59.4709 19.7777 59.4535 19.767C59.4375 19.7526 59.425 19.7287 59.416 19.6955L58.4523 15.9871C58.4432 15.9539 58.4324 15.9371 58.4198 15.9367C58.4071 15.9363 58.3966 15.9474 58.3883 15.9699L57.3083 18.8906C57.2889 18.9431 57.2492 18.9583 57.1891 18.9361L56.7896 18.7883C56.7295 18.7662 56.7092 18.7288 56.7287 18.6763L58.2124 14.6638C58.2332 14.6075 58.2717 14.5898 58.328 14.6106L58.7669 14.7729C58.797 14.784 58.8181 14.7961 58.8303 14.8091C58.8463 14.8236 58.8581 14.8493 58.8658 14.8862L59.7804 18.4677C59.7918 18.5061 59.8057 18.5261 59.8221 18.5279C59.8436 18.5274 59.8593 18.514 59.869 18.4877L60.9157 15.657C60.9351 15.6045 60.9711 15.5879 61.0236 15.6074L61.4513 15.7655ZM62.8798 16.2937C62.9211 16.309 62.9867 16.3333 63.0768 16.3666C63.1705 16.4012 63.2693 16.4399 63.3729 16.4825C63.4817 16.5227 63.5812 16.5595 63.6712 16.5928C63.765 16.6274 63.8344 16.6531 63.8794 16.6698C64.3906 16.8673 64.777 17.1083 65.0386 17.3927C65.3016 17.6733 65.4527 17.9914 65.4918 18.3471C65.5346 18.7041 65.4756 19.1002 65.3146 19.5354C65.1454 19.9931 64.92 20.349 64.6383 20.6031C64.3605 20.8586 64.0248 21.0053 63.6312 21.0431C63.2414 21.0824 62.7933 21.0084 62.2868 20.8211L61.3414 20.4715C61.2738 20.4465 61.2526 20.4003 61.2775 20.3327L62.7508 16.3484C62.7633 16.3146 62.7791 16.2949 62.7983 16.2892C62.8189 16.2797 62.846 16.2812 62.8798 16.2937ZM63.3361 17.0318C63.2986 17.0179 63.2701 17.0373 63.2507 17.0898L62.1291 20.1231C62.1125 20.1681 62.1266 20.1989 62.1717 20.2156L62.3574 20.2842C62.7363 20.4243 63.0671 20.487 63.3498 20.4721C63.6325 20.4572 63.875 20.355 64.0773 20.1654C64.281 19.972 64.4543 19.6821 64.5972 19.2957C64.7443 18.898 64.802 18.5633 64.7703 18.2914C64.7386 18.0195 64.6208 17.7904 64.4167 17.6041C64.2178 17.4154 63.9345 17.2531 63.5669 17.1171L63.3361 17.0318ZM69.2375 21.7536C69.1071 22.1063 68.9409 22.3711 68.739 22.548C68.5371 22.725 68.3011 22.8211 68.0311 22.8364C67.761 22.8517 67.459 22.7976 67.1251 22.6741C66.7574 22.5382 66.4807 22.3697 66.2948 22.1688C66.1104 21.9641 66.0074 21.7235 65.986 21.4469C65.9684 21.1717 66.0248 20.8578 66.1552 20.5051L67.0978 17.9558C67.12 17.8958 67.1555 17.8748 67.2043 17.8928L67.7389 18.0905C67.7877 18.1085 67.8017 18.1457 67.7808 18.202L66.7924 20.8751C66.6703 21.2052 66.6589 21.4782 66.7582 21.6941C66.8575 21.9099 67.0591 22.074 67.363 22.1864C67.5619 22.2599 67.7432 22.2886 67.907 22.2724C68.0745 22.2575 68.2228 22.1908 68.352 22.0723C68.4811 21.9537 68.588 21.78 68.6726 21.5511L69.6548 18.8949C69.6756 18.8386 69.7086 18.8188 69.7536 18.8355L70.1813 18.9936C70.2263 19.0103 70.2391 19.0449 70.2197 19.0974L69.2375 21.7536ZM73.4702 21.1693C73.4129 21.0245 73.3275 20.8863 73.2141 20.7548C73.1006 20.6233 72.9295 20.5152 72.7006 20.4306C72.4342 20.3321 72.2052 20.3114 72.0135 20.3684C71.827 20.4231 71.6976 20.548 71.6255 20.7431C71.6061 20.7956 71.5963 20.8624 71.5962 20.9434C71.5961 21.0244 71.623 21.1132 71.6768 21.2099C71.7358 21.3042 71.8317 21.4079 71.9647 21.521L72.7111 22.0977C73.0136 22.329 73.202 22.5692 73.2762 22.8184C73.3555 23.0652 73.3473 23.3181 73.2516 23.577C73.16 23.8246 73.0172 24.0148 72.823 24.1477C72.6326 24.2821 72.4031 24.355 72.1344 24.3665C71.8709 24.3757 71.5797 24.3213 71.2608 24.2034C71.0244 24.116 70.8146 24.0086 70.6315 23.8811C70.4534 23.7513 70.3051 23.6048 70.1863 23.4414C70.0727 23.2758 69.9919 23.0966 69.9437 22.9039C69.9384 22.8721 69.9418 22.8457 69.9539 22.8245C69.9659 22.8034 69.9911 22.7871 70.0295 22.7757L70.376 22.6864C70.427 22.6754 70.463 22.6759 70.4841 22.688C70.5053 22.7 70.521 22.7208 70.5315 22.7502C70.5809 22.905 70.6372 23.041 70.7005 23.1582C70.7675 23.2768 70.8553 23.3796 70.9638 23.4667C71.0775 23.5514 71.2244 23.627 71.4045 23.6936C71.6859 23.7976 71.929 23.8321 72.1339 23.797C72.3439 23.7595 72.4892 23.632 72.5697 23.4144C72.6016 23.3281 72.6131 23.2449 72.6043 23.1649C72.5969 23.0811 72.5623 22.9958 72.5006 22.909C72.4403 22.8185 72.3417 22.716 72.205 22.6014L71.4572 22.0114C71.2697 21.8611 71.1292 21.7047 71.0358 21.5422C70.9461 21.3811 70.8957 21.2174 70.8846 21.0513C70.8736 20.8851 70.8958 20.727 70.9513 20.577C71.0401 20.3368 71.1797 20.1496 71.3701 20.0153C71.5604 19.881 71.7844 19.806 72.0418 19.7903C72.3006 19.7709 72.5782 19.816 72.8746 19.9256C73.0734 19.9991 73.2464 20.0908 73.3934 20.2006C73.5456 20.308 73.6751 20.4306 73.782 20.5682C73.8903 20.702 73.9717 20.8452 74.0263 20.9975C74.0343 21.0218 74.0368 21.0441 74.0336 21.0642C74.0342 21.0857 74.0172 21.1029 73.9826 21.1157L73.5702 21.2447C73.5422 21.2514 73.5213 21.2501 73.5077 21.2408C73.4992 21.2291 73.4867 21.2053 73.4702 21.1693ZM75.0237 20.8738C75.0334 20.8475 75.046 20.8308 75.0614 20.8237C75.0819 20.8143 75.1072 20.8151 75.1372 20.8262L78.2268 21.9686C78.2568 21.9797 78.2747 21.9949 78.2804 22.014C78.2875 22.0295 78.2861 22.0503 78.2764 22.0766L78.1433 22.4367C78.1266 22.4817 78.092 22.4945 78.0395 22.4751L76.9252 22.0631C76.884 22.0478 76.8571 22.0571 76.8446 22.0909L75.5378 25.625C75.517 25.6813 75.4822 25.7004 75.4334 25.6823L74.9044 25.4867C74.8556 25.4687 74.841 25.4334 74.8604 25.3809L76.1651 21.8524C76.1804 21.8111 76.1674 21.7829 76.1261 21.7676L74.9443 21.3306C74.8918 21.3112 74.8739 21.279 74.8905 21.2339L75.0237 20.8738ZM80.9148 27.5749C80.9149 27.609 80.9026 27.6365 80.8779 27.6572C80.8583 27.6755 80.8335 27.6792 80.8035 27.6681L80.2577 27.4662C80.2126 27.4496 80.1886 27.4108 80.1855 27.35L80.1315 25.3853C80.1294 25.3334 80.0908 25.2935 80.0158 25.2658L79.1942 24.9619C79.1679 24.9522 79.1464 24.9528 79.1296 24.9636C79.1179 24.9721 79.1093 24.9839 79.1038 24.9989L78.4774 26.6928C78.4524 26.7603 78.4043 26.7809 78.333 26.7545L77.8547 26.5777C77.8172 26.5638 77.7937 26.5466 77.7842 26.526C77.7785 26.5068 77.7812 26.4823 77.7923 26.4522L79.2718 22.451C79.2927 22.3948 79.3293 22.3763 79.3818 22.3957L81.0082 22.9971C81.4697 23.1678 81.7933 23.394 81.979 23.676C82.1685 23.9593 82.1967 24.281 82.0635 24.6412C81.9872 24.8475 81.8819 25.0112 81.7477 25.1321C81.6148 25.2493 81.4691 25.3319 81.3106 25.3799C81.1572 25.4255 81.0035 25.4433 80.8495 25.4333C80.819 25.4348 80.8032 25.4546 80.802 25.4925L80.9148 27.5749ZM80.1927 24.7874C80.4853 24.8956 80.7268 24.9231 80.9171 24.8698C81.1125 24.8141 81.254 24.6681 81.3414 24.4317C81.4246 24.2066 81.4176 24.0121 81.3204 23.8482C81.2232 23.6844 81.0471 23.5552 80.7919 23.4609L79.8972 23.13C79.8371 23.1078 79.7988 23.1193 79.7821 23.1643L79.3327 24.3798C79.3132 24.4324 79.3242 24.4663 79.3654 24.4815L80.1927 24.7874ZM86.5494 25.0461C86.5831 25.0586 86.6003 25.0756 86.6009 25.0971C86.6066 25.1163 86.5971 25.1362 86.5724 25.157L84.4187 26.881C84.3916 26.8966 84.3707 26.9187 84.3558 26.9473C84.3424 26.9722 84.3231 27.0184 84.2982 27.086L83.7301 28.6223C83.7023 28.6973 83.6472 28.7196 83.5647 28.6891L83.1088 28.5205C83.0713 28.5066 83.0478 28.4894 83.0384 28.4689C83.0327 28.4497 83.036 28.4232 83.0485 28.3895L83.6208 26.8419C83.636 26.8006 83.6422 26.7666 83.6393 26.74C83.6401 26.7147 83.6379 26.6861 83.6326 26.6543L83.1164 23.8982C83.1087 23.8613 83.114 23.8355 83.1322 23.8209C83.1518 23.8026 83.1822 23.801 83.2235 23.8163L83.7637 24.016C83.805 24.0313 83.831 24.0473 83.8419 24.0641C83.8527 24.0809 83.862 24.1078 83.8696 24.1448L84.2225 26.2008C84.2297 26.2503 84.2427 26.2786 84.2615 26.2856C84.2803 26.2925 84.3053 26.2825 84.3365 26.2557L85.9406 24.9106C85.9718 24.8837 85.9964 24.8693 86.0141 24.8674C86.0333 24.8617 86.0616 24.8658 86.0992 24.8796L86.5494 25.0461Z" fill="#E64702"/>
<path d="M49.7581 16.0509C49.5242 16.0799 49.3164 16.0539 49.1348 15.9729C48.9528 15.8897 48.8047 15.7564 48.6903 15.573C48.5756 15.3874 48.501 15.1556 48.4666 14.8777C48.4319 14.5976 48.4485 14.3521 48.5165 14.1415C48.5845 13.9309 48.6965 13.763 48.8527 13.6379C49.0085 13.5104 49.2022 13.4324 49.4338 13.4037C49.663 13.3753 49.8676 13.4041 50.0475 13.4899C50.2295 13.5732 50.3779 13.7088 50.4929 13.8968C50.6099 14.0821 50.6858 14.3149 50.7205 14.5951C50.7549 14.873 50.7391 15.1159 50.6732 15.3239C50.607 15.5296 50.4958 15.6951 50.3396 15.8202C50.1835 15.9453 49.9897 16.0222 49.7581 16.0509ZM49.7233 15.7413C49.9548 15.7127 50.1163 15.6116 50.2077 15.438C50.3011 15.2619 50.3263 15.0001 50.2832 14.6528C50.2396 14.3008 50.1496 14.0486 50.0132 13.8962C49.8791 13.7435 49.6986 13.6813 49.4716 13.7094C49.2401 13.738 49.0769 13.8441 48.982 14.0275C48.8869 14.2085 48.861 14.4739 48.9043 14.8235C48.947 15.1686 49.0363 15.415 49.1721 15.5627C49.308 15.7105 49.4917 15.77 49.7233 15.7413ZM51.2494 13.267C51.2451 13.2323 51.2591 13.2129 51.2915 13.2089L52.8789 13.0123C52.9067 13.0089 52.9224 13.0222 52.9262 13.0523L52.9498 13.2716C52.9541 13.3063 52.9389 13.3258 52.9042 13.3301L51.7544 13.4725C51.7197 13.4768 51.7042 13.494 51.7079 13.5241L51.8017 14.2813C51.8051 14.3091 51.8219 14.3212 51.852 14.3174L52.7239 14.2095C52.7516 14.206 52.7673 14.2182 52.7707 14.246L52.7991 14.4752C52.8022 14.5007 52.7899 14.5152 52.7621 14.5186L51.8868 14.627C51.859 14.6304 51.8469 14.646 51.8503 14.6738L51.9755 15.6846C51.9801 15.7217 51.9615 15.7428 51.9198 15.7479L51.6211 15.7849C51.598 15.7878 51.5813 15.7863 51.5712 15.7805C51.5631 15.7721 51.5578 15.7575 51.5552 15.7367L51.2494 13.267Z" fill="#E64702"/>
<path d="M25.2768 35.0238C25.2538 35.0397 25.2311 35.0456 25.2089 35.0416C25.1866 35.0375 25.1687 35.0255 25.155 35.0058L22.7323 31.4945C22.7142 31.4681 22.7071 31.4438 22.7112 31.4216C22.7163 31.3938 22.7304 31.3719 22.7534 31.356L23.9535 30.528C24.4079 30.2145 24.8125 30.0544 25.1674 30.0476C25.5224 30.0408 25.8078 30.1938 26.0236 30.5066C26.1576 30.7009 26.219 30.899 26.2078 31.1012C26.1966 31.3033 26.107 31.5255 25.9388 31.7678C25.928 31.7802 25.927 31.793 25.9361 31.8062C25.9429 31.816 25.9541 31.8181 25.9695 31.8123C26.2586 31.71 26.5129 31.6877 26.7324 31.7452C26.9529 31.7972 27.1438 31.94 27.3051 32.1738C27.5345 32.5063 27.5798 32.8395 27.4409 33.1735C27.3052 33.5052 27.0004 33.8346 26.5263 34.1617L25.2768 35.0238ZM26.212 33.759C26.5017 33.5591 26.6833 33.3609 26.7567 33.1645C26.8278 32.9647 26.7953 32.7661 26.659 32.5685C26.559 32.4237 26.4422 32.3318 26.3084 32.2929C26.1756 32.2484 26.0336 32.2468 25.8822 32.288C25.7309 32.3293 25.5778 32.4033 25.4231 32.51L24.7515 32.9735C24.6988 33.0098 24.6872 33.0494 24.7167 33.0922L25.4596 34.1688C25.4936 34.2182 25.5288 34.2304 25.565 34.2054L26.212 33.759ZM25.1233 32.0754C25.2154 32.0118 25.2987 31.9423 25.3729 31.8668C25.4482 31.7857 25.5072 31.6987 25.5501 31.606C25.5908 31.5099 25.6075 31.4109 25.6003 31.3089C25.5909 31.2037 25.5487 31.0967 25.4737 30.9881C25.3351 30.7872 25.1577 30.6885 24.9414 30.692C24.7261 30.6899 24.4967 30.7729 24.253 30.941L23.6357 31.3669C23.5863 31.401 23.5764 31.4394 23.6059 31.4822L24.3249 32.5242C24.3567 32.5703 24.3907 32.5809 24.4269 32.5559L25.1233 32.0754ZM26.4642 28.9051C26.4301 28.8557 26.4361 28.8151 26.4822 28.7833L28.7836 27.1954C28.8231 27.1682 28.8576 27.1759 28.8871 27.2187L29.0969 27.5333C29.1309 27.5826 29.1233 27.6244 29.0739 27.6584L27.3948 28.817C27.3454 28.8511 27.3355 28.8895 27.365 28.9323L28.0669 29.9496C28.0965 29.9924 28.1326 29.9991 28.1754 29.9695L29.3804 29.1381C29.4232 29.1086 29.4583 29.1136 29.4855 29.1531L29.7138 29.484C29.7252 29.5004 29.7293 29.517 29.7263 29.5337C29.7265 29.5481 29.7134 29.5644 29.6871 29.5826L28.4772 30.4174C28.4377 30.4447 28.4304 30.4764 28.4554 30.5126L29.1914 31.5794C29.2164 31.6156 29.2453 31.6223 29.2783 31.5996L31.0512 30.3763C31.0973 30.3445 31.134 30.3484 31.1612 30.3879L31.3861 30.7138C31.3998 30.7336 31.4062 30.7535 31.4054 30.7734C31.4023 30.7901 31.3876 30.8076 31.3613 30.8257L29.0253 32.4375C28.9694 32.4761 28.9232 32.4691 28.8869 32.4164L26.4642 28.9051ZM29.8507 26.5684C29.8167 26.519 29.8227 26.4785 29.8688 26.4467L32.1701 24.8588C32.2097 24.8315 32.2442 24.8393 32.2737 24.8821L32.4834 25.1966C32.5175 25.246 32.5099 25.2877 32.4605 25.3218L30.7814 26.4804C30.732 26.5144 30.722 26.5529 30.7516 26.5957L31.4535 27.613C31.483 27.6558 31.5192 27.6624 31.562 27.6329L32.767 26.8015C32.8098 26.772 32.8448 26.777 32.8721 26.8165L33.1004 27.1473C33.1118 27.1638 33.1159 27.1804 33.1128 27.1971C33.1131 27.2115 33.1 27.2278 33.0737 27.246L31.8637 28.0808C31.8242 28.108 31.817 28.1398 31.842 28.176L32.578 29.2427C32.603 29.2789 32.6319 29.2857 32.6648 29.263L34.4378 28.0397C34.4839 28.0079 34.5205 28.0118 34.5478 28.0513L34.7727 28.3772C34.7863 28.397 34.7927 28.4168 34.792 28.4368C34.7889 28.4535 34.7742 28.4709 34.7479 28.4891L32.4119 30.1008C32.3559 30.1395 32.3098 30.1324 32.2734 30.0797L29.8507 26.5684ZM35.2098 25.7065C35.1768 25.7292 35.1717 25.7571 35.1945 25.79L36.2542 27.3259C36.2928 27.3818 36.2808 27.4314 36.2183 27.4746L35.7985 27.7642C35.7656 27.7869 35.738 27.7962 35.7157 27.7922C35.6968 27.7858 35.6782 27.7695 35.66 27.7431L33.2373 24.2318C33.2032 24.1824 33.2093 24.1418 33.2553 24.11L33.7196 23.7897C33.7624 23.7602 33.8008 23.7701 33.8349 23.8195L34.7924 25.2072C34.8242 25.2533 34.8615 25.2616 34.9043 25.2321L36.371 24.2201C36.4105 24.1928 36.4155 24.1578 36.386 24.115L35.4217 22.7174C35.3899 22.6713 35.3937 22.6346 35.4333 22.6073L35.9074 22.2802C35.9502 22.2507 35.9886 22.2606 36.0227 22.31L38.4454 25.8213C38.4635 25.8477 38.4706 25.872 38.4665 25.8942C38.4657 25.9142 38.4488 25.9355 38.4159 25.9583L38.0011 26.2445C37.9352 26.2899 37.883 26.2846 37.8444 26.2287L36.7881 24.6977C36.7631 24.6615 36.7325 24.6559 36.6963 24.6809L35.2098 25.7065ZM37.6222 21.097C37.665 21.0675 37.7034 21.0774 37.7375 21.1268L40.15 24.6233C40.175 24.6595 40.1838 24.6899 40.1764 24.7144C40.1723 24.7367 40.1505 24.7614 40.111 24.7887L39.706 25.0681C39.6698 25.0931 39.6417 25.1052 39.6217 25.1044C39.6028 25.0981 39.5831 25.0801 39.5626 25.0504L37.1399 21.5391C37.1059 21.4897 37.1119 21.4491 37.158 21.4173L37.6222 21.097ZM41.6414 18.3239C41.6678 18.3057 41.6916 18.3014 41.7128 18.3111C41.7373 18.3185 41.7526 18.3371 41.7586 18.367L42.9365 22.7153C42.9586 22.7826 42.9368 22.839 42.8709 22.8844L42.4511 23.1741C42.3787 23.2241 42.3161 23.2284 42.2633 23.1871L38.6409 20.5254C38.6161 20.5036 38.603 20.4811 38.6015 20.4578C38.6033 20.4322 38.6158 20.4115 38.6388 20.3956L39.103 20.0753C39.1458 20.0458 39.1886 20.0479 39.2313 20.0816L42.1536 22.2568C42.2198 22.3035 42.2417 22.2859 42.2193 22.2042L41.2215 18.7084C41.2051 18.6565 41.22 18.6147 41.2661 18.5829L41.6414 18.3239ZM42.635 17.7477C42.601 17.6983 42.607 17.6577 42.6531 17.6259L44.9544 16.038C44.9939 16.0108 45.0285 16.0185 45.058 16.0613L45.2677 16.3759C45.3018 16.4253 45.2941 16.467 45.2448 16.5011L43.5657 17.6596C43.5163 17.6937 43.5063 17.7321 43.5359 17.7749L44.2378 18.7922C44.2673 18.835 44.3035 18.8417 44.3463 18.8122L45.5513 17.9807C45.5941 17.9512 45.6291 17.9562 45.6564 17.9957L45.8847 18.3266C45.8961 18.343 45.9002 18.3596 45.8971 18.3763C45.8974 18.3907 45.8843 18.407 45.858 18.4252L44.648 19.26C44.6085 19.2873 44.6013 19.319 44.6263 19.3552L45.3623 20.422C45.3872 20.4582 45.4162 20.4649 45.4491 20.4422L47.2221 19.2189C47.2682 19.1871 47.3048 19.191 47.3321 19.2305L47.557 19.5564C47.5706 19.5762 47.577 19.5961 47.5762 19.6161C47.5732 19.6327 47.5585 19.6502 47.5321 19.6684L45.1962 21.2801C45.1402 21.3187 45.0941 21.3117 45.0577 21.259L42.635 17.7477Z" fill="#E64702"/>
<path d="M32.6263 80.6793C32.6786 80.6992 32.697 80.7297 32.6814 80.7708L32.5365 81.1522C32.5294 81.1709 32.5155 81.1849 32.4949 81.1942C32.478 81.2049 32.4546 81.2046 32.4247 81.1932L30.383 80.4176C30.3307 80.3977 30.313 80.3653 30.3301 80.3205L30.4771 79.9334C30.4927 79.8923 30.5248 79.881 30.5734 79.8994L31.2409 80.153C31.2745 80.1658 31.2956 80.161 31.3042 80.1385L32.3887 77.2836C32.4058 77.2387 32.3916 77.2141 32.3462 77.2097L31.6159 77.189C31.5504 77.1812 31.5305 77.1437 31.556 77.0764L31.6583 76.8072C31.6711 76.7735 31.6826 76.7544 31.693 76.7497C31.7084 76.7428 31.7302 76.7361 31.7584 76.7296L32.7918 76.628C32.84 76.6249 32.8768 76.6239 32.9021 76.625C32.9311 76.6274 32.9643 76.6358 33.0017 76.65L33.2821 76.7565C33.3307 76.775 33.3451 76.8104 33.3252 76.8627L31.9892 80.3795C31.9764 80.4132 31.9831 80.435 32.0093 80.4449L32.6263 80.6793ZM34.7656 78.0133C34.7508 77.9734 34.7636 77.9397 34.804 77.9123C34.963 77.8315 35.1274 77.7763 35.297 77.7466C35.4703 77.7183 35.6471 77.7148 35.8272 77.7362C36.0088 77.7538 36.1874 77.796 36.3632 77.8628C36.6661 77.9778 36.9082 78.1233 37.0896 78.2992C37.2723 78.4713 37.3912 78.6598 37.446 78.8646C37.5022 79.0657 37.4906 79.2709 37.4111 79.4803C37.3372 79.6748 37.2073 79.8308 37.0214 79.9485C36.8407 80.0638 36.6277 80.1177 36.3824 80.1101C36.3355 80.1094 36.3074 80.1158 36.298 80.1294C36.2937 80.1406 36.3093 80.1615 36.3448 80.1921C36.4862 80.2929 36.6002 80.4153 36.6866 80.5594C36.7745 80.6998 36.8277 80.8526 36.8462 81.018C36.8698 81.181 36.8497 81.3466 36.7858 81.5149C36.6934 81.758 36.5508 81.9477 36.3578 82.084C36.1685 82.2218 35.9306 82.2961 35.644 82.3071C35.3626 82.3157 35.0368 82.2497 34.6666 82.1091C34.4722 82.0352 34.2945 81.9399 34.1334 81.8231C33.9762 81.7077 33.8398 81.5767 33.7243 81.4302C33.6102 81.2799 33.5208 81.1154 33.456 80.9368C33.4473 80.9035 33.4483 80.8782 33.4592 80.8609C33.4738 80.8451 33.4958 80.8321 33.5254 80.8219L33.9135 80.7126C33.9482 80.7001 33.9723 80.6986 33.9858 80.708C33.9994 80.7174 34.0096 80.7298 34.0166 80.7453C34.0847 80.9039 34.1595 81.0392 34.241 81.1515C34.3238 81.26 34.4187 81.3538 34.5256 81.4329C34.6339 81.5083 34.759 81.573 34.9011 81.6269C35.2003 81.7406 35.457 81.7632 35.6712 81.6948C35.8855 81.6265 36.0324 81.4876 36.1119 81.2782C36.1744 81.1136 36.1802 80.9575 36.1294 80.8098C36.0822 80.6636 35.9945 80.534 35.8663 80.4211C35.7432 80.3058 35.5982 80.2144 35.4314 80.1467L34.9455 79.9558C34.8932 79.9359 34.8748 79.9054 34.8904 79.8642L35.0289 79.4996C35.0431 79.4623 35.0771 79.4516 35.1309 79.4678L35.5278 79.6057C35.711 79.6753 35.8831 79.7065 36.0442 79.6992C36.2105 79.6896 36.3546 79.6481 36.4766 79.5747C36.6001 79.4975 36.6867 79.3934 36.7364 79.2626C36.7805 79.1467 36.7859 79.031 36.7526 78.9157C36.7209 78.7967 36.6551 78.6882 36.5553 78.5904C36.457 78.4889 36.3311 78.409 36.1778 78.3508C35.9908 78.2797 35.8053 78.2499 35.6213 78.2613C35.4373 78.2727 35.2453 78.3217 35.0455 78.4084C35.016 78.4186 34.993 78.4227 34.9767 78.4208C34.9654 78.4165 34.951 78.3982 34.9334 78.3658L34.7656 78.0133ZM42.1567 83.7863C42.026 84.1303 41.8502 84.3566 41.6292 84.4652C41.4082 84.5738 41.1276 84.5635 40.7873 84.4343C40.649 84.3817 40.5294 84.3192 40.4286 84.2466C40.3263 84.1778 40.247 84.122 40.1905 84.0792C40.1634 84.0603 40.146 84.0387 40.1381 84.0143C40.1303 83.99 40.136 83.9579 40.1554 83.9182L40.3444 83.5728C40.3694 83.5181 40.4041 83.5056 40.4485 83.5353C40.4974 83.5753 40.5487 83.6205 40.6024 83.6708C40.6574 83.7174 40.7373 83.7606 40.842 83.8004C41.0065 83.8629 41.1406 83.8646 41.2444 83.8056C41.3532 83.7443 41.4517 83.5977 41.5398 83.3658L42.6606 80.4155C42.6819 80.3595 42.7168 80.3406 42.7654 80.3591L43.3039 80.5637C43.3488 80.5807 43.3605 80.6173 43.3392 80.6734L42.1567 83.7863ZM42.7391 85.1115C42.7129 85.1016 42.6985 85.0833 42.6958 85.0566C42.6931 85.0299 42.7037 85.0018 42.7277 84.9724L45.6602 81.5615C45.6842 81.5321 45.7077 81.5154 45.7306 81.5112C45.755 81.5034 45.784 81.5058 45.8177 81.5186L46.3842 81.7338C46.4552 81.7608 46.4899 81.8104 46.4882 81.8825L46.4051 86.3758C46.4063 86.4063 46.3964 86.4324 46.3752 86.4543C46.3555 86.4725 46.3307 86.4759 46.3007 86.4646L45.7735 86.2643C45.7249 86.2458 45.7016 86.2113 45.7037 86.1607L45.724 85.026C45.7274 85.0059 45.7249 84.9899 45.7165 84.9782C45.7119 84.9679 45.6983 84.9585 45.6759 84.9499L44.1222 84.3597C44.0886 84.3469 44.0605 84.3534 44.0379 84.379L43.2876 85.2557C43.2731 85.2716 43.2562 85.2823 43.2369 85.2878C43.2229 85.291 43.2009 85.287 43.171 85.2756L42.7391 85.1115ZM45.7023 84.3566C45.7509 84.3751 45.7758 84.3546 45.777 84.2952L45.8105 82.3824C45.8069 82.3468 45.7976 82.3261 45.7827 82.3205C45.7714 82.3162 45.7538 82.3288 45.7298 82.3582L44.468 83.8043C44.4309 83.8458 44.4347 83.8751 44.4796 83.8921L45.7023 84.3566ZM52.1513 83.9247C52.1925 83.9403 52.2038 83.9725 52.1853 84.0211L50.6597 88.037C50.6512 88.0595 50.6366 88.0753 50.616 88.0846C50.5967 88.0901 50.574 88.0879 50.5479 88.078L50.1833 87.9395C50.1571 87.9296 50.1354 87.9192 50.1181 87.9083C50.1023 87.8937 50.09 87.8698 50.0812 87.8365L49.1505 84.1197C49.1417 84.0865 49.131 84.0696 49.1184 84.069C49.1057 84.0685 49.0952 84.0795 49.0866 84.1019L47.9808 87.0129C47.9609 87.0653 47.921 87.0801 47.8612 87.0574L47.463 86.9061C47.4031 86.8834 47.3832 86.8458 47.4031 86.7935L48.9223 82.7943C48.9436 82.7382 48.9823 82.7208 49.0384 82.7421L49.4759 82.9083C49.5058 82.9197 49.5268 82.932 49.5389 82.9451C49.5548 82.9597 49.5664 82.9855 49.5737 83.0225L50.4565 86.612C50.4676 86.6504 50.4813 86.6706 50.4977 86.6726C50.5192 86.6722 50.535 86.6589 50.5449 86.6327L51.6167 83.8115C51.6366 83.7591 51.6727 83.7429 51.7251 83.7628L52.1513 83.9247Z" fill="#E64702"/>
<path d="M73.9382 81.0663C73.9876 80.8308 74.0252 80.6307 74.051 80.4658C74.0744 80.2976 74.084 80.1514 74.0797 80.0272C74.0787 79.9007 74.0632 79.7918 74.0331 79.7005C74.004 79.6036 73.9595 79.5126 73.8996 79.4276C73.8098 79.3 73.7022 79.2168 73.5769 79.1778C73.4526 79.1333 73.3236 79.1238 73.19 79.1494C73.0596 79.1727 72.9356 79.2258 72.8179 79.3087C72.7263 79.3732 72.6446 79.4552 72.5728 79.5547C72.501 79.6542 72.4463 79.771 72.4086 79.9052C72.371 80.0393 72.3572 80.1934 72.3672 80.3673C72.3721 80.3883 72.366 80.4073 72.3487 80.4244C72.3313 80.4415 72.305 80.4527 72.2696 80.458L71.8745 80.5014C71.8346 80.5002 71.806 80.491 71.7889 80.4737C71.7695 80.4531 71.76 80.4256 71.7602 80.3912C71.7504 80.0507 71.817 79.7494 71.9601 79.4872C72.1032 79.2249 72.2991 79.0063 72.5476 78.8312C72.77 78.6746 72.9988 78.5722 73.2339 78.524C73.4723 78.4736 73.7008 78.4888 73.9193 78.5698C74.1354 78.6475 74.3253 78.8024 74.4888 79.0346C74.5855 79.172 74.6531 79.3201 74.6916 79.4789C74.7301 79.6377 74.7393 79.8245 74.7192 80.0392C74.7002 80.2483 74.6578 80.5007 74.5921 80.7965L74.2303 82.3356C74.2222 82.3657 74.2244 82.3862 74.2369 82.397C74.247 82.4045 74.2685 82.3967 74.3012 82.3737L75.9642 81.2026C76.0132 81.168 76.0527 81.172 76.0827 81.2145L76.3383 81.5775C76.3522 81.5971 76.3571 81.6181 76.3533 81.6404C76.3527 81.6604 76.3393 81.6796 76.3131 81.698L73.9486 83.3632C73.9126 83.3885 73.8847 83.4009 73.8647 83.4003C73.8424 83.3964 73.8197 83.3781 73.7967 83.3454L73.6136 83.0854C73.5975 83.0626 73.5869 83.0406 73.5819 83.0197C73.5747 82.9954 73.5733 82.9622 73.5777 82.9199C73.5855 82.8753 73.5984 82.8173 73.6166 82.7458L73.9382 81.0663ZM75.9976 76.4016C76.1971 76.2611 76.4119 76.1735 76.6418 76.1388C76.8727 76.0984 77.1084 76.1135 77.3488 76.1839C77.5892 76.2544 77.8266 76.3831 78.0611 76.5702C78.2966 76.7518 78.5191 76.9913 78.7287 77.2889C79.0074 77.6846 79.1825 78.0653 79.254 78.4308C79.3264 78.7907 79.307 79.1175 79.1958 79.4111C79.0846 79.7047 78.8932 79.947 78.6218 80.1382C78.3503 80.3294 78.0577 80.4278 77.7437 80.4337C77.4298 80.4395 77.114 80.3488 76.7963 80.1616C76.4818 79.9721 76.1852 79.6795 75.9065 79.2838C75.6946 78.9829 75.5429 78.691 75.4513 78.4081C75.3598 78.1253 75.3213 77.8588 75.336 77.6087C75.3484 77.3554 75.4108 77.128 75.5233 76.9264C75.6368 76.7193 75.7949 76.5444 75.9976 76.4016ZM78.3192 79.6981C78.4893 79.5784 78.5998 79.4296 78.6507 79.2519C78.7026 79.0685 78.6871 78.852 78.6041 78.6022C78.5222 78.3468 78.3625 78.0507 78.1253 77.7139C77.8835 77.3705 77.655 77.1155 77.4399 76.949C77.2248 76.7825 77.0222 76.6928 76.8321 76.6799C76.642 76.667 76.4635 76.7193 76.2967 76.8367C76.1332 76.9519 76.0255 77.1011 75.9736 77.2845C75.9217 77.4678 75.9374 77.6916 76.0207 77.9558C76.105 78.2144 76.2669 78.5138 76.5065 78.8539C76.7437 79.1908 76.9687 79.4408 77.1815 79.6041C77.3953 79.7617 77.5972 79.847 77.7873 79.8599C77.9751 79.8695 78.1524 79.8156 78.3192 79.6981ZM80.8434 76.2033C80.8928 75.9679 80.9304 75.7677 80.9562 75.6028C80.9796 75.4347 80.9892 75.2885 80.9849 75.1643C80.9839 75.0378 80.9684 74.9289 80.9383 74.8375C80.9092 74.7406 80.8647 74.6497 80.8048 74.5646C80.715 74.4371 80.6074 74.3538 80.4821 74.3149C80.3578 74.2703 80.2288 74.2609 80.0952 74.2865C79.9648 74.3098 79.8408 74.3629 79.7231 74.4458C79.6315 74.5103 79.5498 74.5923 79.478 74.6918C79.4062 74.7913 79.3515 74.9081 79.3138 75.0422C79.2762 75.1764 79.2624 75.3304 79.2724 75.5044C79.2773 75.5253 79.2712 75.5444 79.2539 75.5615C79.2365 75.5785 79.2102 75.5898 79.1748 75.5951L78.7797 75.6385C78.7398 75.6373 78.7112 75.628 78.6941 75.6107C78.6747 75.5901 78.6652 75.5626 78.6654 75.5282C78.6556 75.1878 78.7222 74.8864 78.8653 74.6242C79.0084 74.362 79.2043 74.1433 79.4528 73.9683C79.6752 73.8117 79.904 73.7093 80.1391 73.6611C80.3775 73.6106 80.606 73.6259 80.8245 73.7068C81.0406 73.7845 81.2305 73.9395 81.394 74.1717C81.4907 74.309 81.5583 74.4571 81.5968 74.616C81.6353 74.7748 81.6445 74.9615 81.6244 75.1762C81.6054 75.3854 81.563 75.6378 81.4973 75.9336L81.1355 77.4726C81.1274 77.5028 81.1296 77.5233 81.1421 77.5341C81.1522 77.5416 81.1737 77.5338 81.2064 77.5108L82.8694 76.3396C82.9184 76.3051 82.9579 76.3091 82.9879 76.3516L83.2435 76.7146C83.2573 76.7342 83.2623 76.7552 83.2585 76.7775C83.2579 76.7974 83.2445 76.8167 83.2183 76.8351L80.8538 78.5003C80.8178 78.5256 80.7899 78.538 80.7699 78.5374C80.7476 78.5335 80.7249 78.5152 80.7019 78.4825L80.5188 78.2225C80.5027 78.1996 80.4921 78.1777 80.4871 78.1567C80.4799 78.1325 80.4784 78.0992 80.4829 78.057C80.4907 78.0124 80.5036 77.9543 80.5217 77.8828L80.8434 76.2033ZM81.9615 73.0676C81.9201 73.0575 81.8994 73.0281 81.8993 72.9793C81.9214 72.8022 81.9676 72.6352 82.0379 72.478C82.1115 72.3185 82.2076 72.1701 82.3262 72.0328C82.4424 71.8922 82.5774 71.7678 82.7311 71.6596C82.996 71.473 83.2521 71.3538 83.4994 71.302C83.7443 71.2469 83.967 71.254 84.1674 71.3232C84.3656 71.3892 84.5291 71.5137 84.6581 71.6969C84.7778 71.8669 84.8344 72.0619 84.8279 72.2818C84.8222 72.4961 84.7476 72.7028 84.604 72.9018C84.5772 72.9402 84.5668 72.9671 84.5728 72.9825C84.5797 72.9923 84.6057 72.9911 84.6509 72.9788C84.8136 72.9181 84.9789 72.8922 85.1467 72.9012C85.3122 72.907 85.4686 72.9485 85.6159 73.0257C85.7643 73.0974 85.8902 73.2068 85.9939 73.354C86.1436 73.5666 86.2209 73.791 86.2258 74.0272C86.234 74.2612 86.1625 74.4999 86.0111 74.7435C85.8607 74.9815 85.6236 75.2145 85.2999 75.4425C85.1298 75.5623 84.9513 75.6562 84.7644 75.7242C84.5807 75.79 84.3959 75.8297 84.2098 75.8433C84.0214 75.8537 83.835 75.8357 83.6508 75.7893C83.6183 75.778 83.5979 75.7629 83.5897 75.7443C83.5847 75.7233 83.5863 75.6978 83.5944 75.6676L83.7211 75.2848C83.7302 75.2491 83.7424 75.2282 83.7578 75.2223C83.7732 75.2163 83.7892 75.2148 83.8059 75.2177C83.9754 75.25 84.1295 75.2638 84.2681 75.2592C84.4044 75.2513 84.5352 75.2252 84.6606 75.1809C84.7837 75.1334 84.9074 75.0658 85.0316 74.9783C85.2933 74.7941 85.4557 74.594 85.519 74.3782C85.5823 74.1624 85.5495 73.9629 85.4205 73.7798C85.3191 73.6359 85.1931 73.5437 85.0422 73.5032C84.8946 73.4603 84.7381 73.4604 84.5728 73.5035C84.4084 73.541 84.2514 73.6099 84.102 73.7103L83.6717 74.006C83.6259 74.0382 83.5904 74.0363 83.5651 74.0004L83.3405 73.6815C83.3175 73.6488 83.3277 73.6147 83.3712 73.5792L83.7077 73.3275C83.8679 73.2147 83.9901 73.0895 84.0743 72.9519C84.1594 72.8088 84.2057 72.6661 84.2131 72.5239C84.2183 72.3784 84.1806 72.2484 84.1 72.1339C84.0286 72.0326 83.9358 71.9634 83.8216 71.9263C83.7052 71.886 83.5785 71.8798 83.4416 71.9077C83.3024 71.9324 83.1658 71.9919 83.0317 72.0864C82.8682 72.2015 82.7396 72.3385 82.646 72.4974C82.5524 72.6563 82.4856 72.8428 82.4456 73.0568C82.4375 73.087 82.428 73.1083 82.4173 73.1208C82.4075 73.1277 82.3842 73.1294 82.3475 73.1259L81.9615 73.0676Z" fill="#E64702"/>
<path d="M52.4118 25.6385L53.6178 28.2177L56.4434 27.8678L54.3631 29.8117L55.5691 32.391L53.0774 31.0132L50.9971 32.9572L51.5374 30.1617L49.0458 28.7839L51.8714 28.434L52.4118 25.6385Z" fill="#E64702"/>
<path d="M40.2524 32.2215L41.4583 34.8007L44.284 34.4508L42.2037 36.3947L43.4096 38.974L40.918 37.5962L38.8377 39.5402L39.378 36.7447L36.8863 35.3669L39.712 35.017L40.2524 32.2215Z" fill="#E64702"/>
<path d="M65.8097 29.0564L67.0157 31.6357L69.8414 31.2857L67.761 33.2297L68.967 35.8089L66.4753 34.4311L64.395 36.3751L64.9354 33.5796L62.4437 32.2019L65.2694 31.8519L65.8097 29.0564Z" fill="#E64702"/>
<path d="M88.879 41.1374C88.72 41.1496 88.5581 41.2975 88.497 41.3699C88.546 41.312 88.8673 41.2739 89.0218 41.2621C89.1119 41.2779 89.3072 41.3353 89.3685 41.4391C89.445 41.5688 90.6631 41.8149 90.8008 41.8722C90.9384 41.9295 90.8007 41.8722 90.128 41.7879C89.4175 41.6989 89.3634 41.5366 88.7317 41.8266C88.0234 42.1518 89.4452 46.3031 89.815 46.4218C90.1564 46.5313 89.9612 43.97 90.0475 43.3533C90.123 42.814 90.8927 42.2042 91.4787 42.0239C91.6156 41.9818 91.8361 43.2169 91.9686 43.2068C94.6195 43.0047 93.4429 40.1115 93.2765 40.2598C93.0269 40.4823 92.0661 40.9892 91.9876 40.8326C91.5946 40.0491 92.3161 37.8126 93.1218 37.3565C93.9521 36.8864 94.2166 35.9849 94.2166 35.9849C92.7083 36.3033 92.9785 36.3505 91.8882 36.9082C90.798 37.4659 90.3908 38.2426 90.3503 38.5847C90.2935 39.0636 90.7642 40.5191 89.9031 40.5848C88.7749 40.6708 89.0778 41.1223 88.879 41.1374Z" fill="#E64702" stroke="#E64702" stroke-width="0.15"/>
<path d="M21.8965 59.5791C22.0494 59.5338 22.2534 59.6144 22.3363 59.6604C22.27 59.6236 21.9561 59.7025 21.8075 59.7465C21.729 59.7933 21.5669 59.9165 21.5466 60.0353C21.5213 60.1838 20.4707 60.8476 20.3625 60.9501C20.2543 61.0527 20.3625 60.9501 20.9611 60.6318C21.5933 60.2955 21.5861 60.1246 22.2796 60.1707C23.0573 60.2223 23.2071 64.6077 22.9038 64.8503C22.6238 65.0743 21.894 62.6114 21.5938 62.0659C21.3312 61.5888 20.3948 61.2931 19.783 61.3333C19.6401 61.3427 19.8738 62.5754 19.7464 62.6131C17.1974 63.3683 17.2666 60.2458 17.4749 60.325C17.7873 60.444 18.8656 60.5756 18.8833 60.4013C18.9714 59.5292 17.5008 57.6963 16.5855 57.557C15.6422 57.4134 15.074 56.6652 15.074 56.6652C16.5968 56.4256 16.3612 56.5659 17.5785 56.6988C18.7959 56.8317 19.453 57.4125 19.6127 57.7177C19.8363 58.1449 19.9148 59.6727 20.7428 59.4274C21.8277 59.106 21.7054 59.6358 21.8965 59.5791Z" fill="#E64702" stroke="#E64702" stroke-width="0.15"/>
</svg>
